%TF.GenerationSoftware,KiCad,Pcbnew,7.0.10*%
%TF.CreationDate,2024-01-13T18:06:35+01:00*%
%TF.ProjectId,FPGA,46504741-2e6b-4696-9361-645f70636258,rev?*%
%TF.SameCoordinates,Original*%
%TF.FileFunction,Soldermask,Top*%
%TF.FilePolarity,Negative*%
%FSLAX46Y46*%
G04 Gerber Fmt 4.6, Leading zero omitted, Abs format (unit mm)*
G04 Created by KiCad (PCBNEW 7.0.10) date 2024-01-13 18:06:35*
%MOMM*%
%LPD*%
G01*
G04 APERTURE LIST*
G04 Aperture macros list*
%AMRoundRect*
0 Rectangle with rounded corners*
0 $1 Rounding radius*
0 $2 $3 $4 $5 $6 $7 $8 $9 X,Y pos of 4 corners*
0 Add a 4 corners polygon primitive as box body*
4,1,4,$2,$3,$4,$5,$6,$7,$8,$9,$2,$3,0*
0 Add four circle primitives for the rounded corners*
1,1,$1+$1,$2,$3*
1,1,$1+$1,$4,$5*
1,1,$1+$1,$6,$7*
1,1,$1+$1,$8,$9*
0 Add four rect primitives between the rounded corners*
20,1,$1+$1,$2,$3,$4,$5,0*
20,1,$1+$1,$4,$5,$6,$7,0*
20,1,$1+$1,$6,$7,$8,$9,0*
20,1,$1+$1,$8,$9,$2,$3,0*%
G04 Aperture macros list end*
%ADD10RoundRect,0.135000X0.135000X0.185000X-0.135000X0.185000X-0.135000X-0.185000X0.135000X-0.185000X0*%
%ADD11R,1.900000X1.000000*%
%ADD12RoundRect,0.218750X0.256250X-0.218750X0.256250X0.218750X-0.256250X0.218750X-0.256250X-0.218750X0*%
%ADD13RoundRect,0.135000X-0.185000X0.135000X-0.185000X-0.135000X0.185000X-0.135000X0.185000X0.135000X0*%
%ADD14R,2.600000X1.700000*%
%ADD15R,2.000000X2.000000*%
%ADD16RoundRect,0.135000X-0.135000X-0.185000X0.135000X-0.185000X0.135000X0.185000X-0.135000X0.185000X0*%
%ADD17RoundRect,0.150000X-0.512500X-0.150000X0.512500X-0.150000X0.512500X0.150000X-0.512500X0.150000X0*%
%ADD18RoundRect,0.150000X0.587500X0.150000X-0.587500X0.150000X-0.587500X-0.150000X0.587500X-0.150000X0*%
%ADD19C,0.500000*%
%ADD20RoundRect,0.200000X0.200000X0.250000X-0.200000X0.250000X-0.200000X-0.250000X0.200000X-0.250000X0*%
%ADD21R,1.000000X0.300000*%
%ADD22R,0.300000X1.000000*%
%ADD23R,2.800000X2.800000*%
%ADD24C,1.000000*%
%ADD25R,1.000000X2.750000*%
%ADD26R,1.000000X1.900000*%
%ADD27RoundRect,0.140000X0.170000X-0.140000X0.170000X0.140000X-0.170000X0.140000X-0.170000X-0.140000X0*%
%ADD28RoundRect,0.140000X-0.140000X-0.170000X0.140000X-0.170000X0.140000X0.170000X-0.140000X0.170000X0*%
%ADD29RoundRect,0.140000X0.140000X0.170000X-0.140000X0.170000X-0.140000X-0.170000X0.140000X-0.170000X0*%
G04 APERTURE END LIST*
D10*
%TO.C,R3*%
X84940000Y-89650000D03*
X85960000Y-89650000D03*
%TD*%
D11*
%TO.C,J4*%
X82800000Y-120570000D03*
X79500000Y-118030000D03*
X82800000Y-115490000D03*
X79500000Y-112950000D03*
X82800000Y-110410000D03*
X79500000Y-107870000D03*
X82800000Y-105330000D03*
X79500000Y-102790000D03*
X82800000Y-100250000D03*
X79500000Y-97710000D03*
%TD*%
D12*
%TO.C,D3*%
X115910000Y-82482500D03*
X115910000Y-84057500D03*
%TD*%
D13*
%TO.C,R7*%
X107900000Y-93090000D03*
X107900000Y-94110000D03*
%TD*%
D14*
%TO.C,L4*%
X92850000Y-91700000D03*
X92850000Y-94200000D03*
%TD*%
D15*
%TO.C,TP2*%
X120250000Y-77500000D03*
%TD*%
D12*
%TO.C,D4*%
X125100000Y-84057500D03*
X125100000Y-82482500D03*
%TD*%
D16*
%TO.C,R2*%
X124190000Y-93250000D03*
X125210000Y-93250000D03*
%TD*%
D15*
%TO.C,TP1*%
X123703350Y-77500000D03*
%TD*%
D17*
%TO.C,Q4*%
X125093056Y-87050000D03*
X122818056Y-88000000D03*
X122818056Y-86100000D03*
%TD*%
D14*
%TO.C,L3*%
X96405555Y-91700000D03*
X96405555Y-94200000D03*
%TD*%
D10*
%TO.C,R6*%
X106490000Y-88000000D03*
X107510000Y-88000000D03*
%TD*%
D14*
%TO.C,L1*%
X103516665Y-94250000D03*
X103516665Y-91750000D03*
%TD*%
D12*
%TO.C,D2*%
X111310000Y-82482500D03*
X111310000Y-84057500D03*
%TD*%
D15*
%TO.C,TP3*%
X116796650Y-77500000D03*
%TD*%
D13*
%TO.C,R9*%
X105250000Y-120760000D03*
X105250000Y-119740000D03*
%TD*%
D12*
%TO.C,D1*%
X120500000Y-82482500D03*
X120500000Y-84057500D03*
%TD*%
D13*
%TO.C,R8*%
X109000000Y-94110000D03*
X109000000Y-93090000D03*
%TD*%
D17*
%TO.C,Q1*%
X109038890Y-86100000D03*
X109038890Y-88000000D03*
X111313890Y-87050000D03*
%TD*%
D15*
%TO.C,TP5*%
X109889950Y-77500000D03*
%TD*%
D14*
%TO.C,L2*%
X99961110Y-94200000D03*
X99961110Y-91700000D03*
%TD*%
D15*
%TO.C,TP4*%
X113343300Y-77500000D03*
%TD*%
D17*
%TO.C,Q2*%
X113631945Y-86100000D03*
X113631945Y-88000000D03*
X115906945Y-87050000D03*
%TD*%
D18*
%TO.C,U2*%
X101437500Y-120950000D03*
X101437500Y-119050000D03*
X99562500Y-120000000D03*
%TD*%
D10*
%TO.C,R4*%
X85960000Y-88450000D03*
X84940000Y-88450000D03*
%TD*%
D11*
%TO.C,J3*%
X121200000Y-97710000D03*
X124500000Y-100250000D03*
X121200000Y-102790000D03*
X124500000Y-105330000D03*
X121200000Y-107870000D03*
X124500000Y-110410000D03*
X121200000Y-112950000D03*
X124500000Y-115490000D03*
X121200000Y-118030000D03*
X124500000Y-120570000D03*
%TD*%
D19*
%TO.C,U1*%
X109500000Y-115500000D03*
X108500000Y-115500000D03*
X107500000Y-115500000D03*
X106500000Y-115500000D03*
X105500000Y-115500000D03*
X104500000Y-115500000D03*
X103500000Y-115500000D03*
X102500000Y-115500000D03*
X101500000Y-115500000D03*
X100500000Y-115500000D03*
X99500000Y-115500000D03*
X98500000Y-115500000D03*
X97500000Y-115500000D03*
X96500000Y-115500000D03*
X95500000Y-115500000D03*
X94500000Y-115500000D03*
X109500000Y-114500000D03*
X108500000Y-114500000D03*
X107500000Y-114500000D03*
X106500000Y-114500000D03*
X105500000Y-114500000D03*
X104500000Y-114500000D03*
X103500000Y-114500000D03*
X102500000Y-114500000D03*
X101500000Y-114500000D03*
X100500000Y-114500000D03*
X99500000Y-114500000D03*
X98500000Y-114500000D03*
X97500000Y-114500000D03*
X96500000Y-114500000D03*
X95500000Y-114500000D03*
X94500000Y-114500000D03*
X109500000Y-113500000D03*
X108500000Y-113500000D03*
X107500000Y-113500000D03*
X106500000Y-113500000D03*
X105500000Y-113500000D03*
X104500000Y-113500000D03*
X103500000Y-113500000D03*
X102500000Y-113500000D03*
X101500000Y-113500000D03*
X100500000Y-113500000D03*
X99500000Y-113500000D03*
X98500000Y-113500000D03*
X97500000Y-113500000D03*
X96500000Y-113500000D03*
X95500000Y-113500000D03*
X94500000Y-113500000D03*
X109500000Y-112500000D03*
X108500000Y-112500000D03*
X107500000Y-112500000D03*
X106500000Y-112500000D03*
X105500000Y-112500000D03*
X104500000Y-112500000D03*
X103500000Y-112500000D03*
X102500000Y-112500000D03*
X101500000Y-112500000D03*
X100500000Y-112500000D03*
X99500000Y-112500000D03*
X98500000Y-112500000D03*
X97500000Y-112500000D03*
X96500000Y-112500000D03*
X95500000Y-112500000D03*
X94500000Y-112500000D03*
X109500000Y-111500000D03*
X108500000Y-111500000D03*
X107500000Y-111500000D03*
X106500000Y-111500000D03*
X105500000Y-111500000D03*
X104500000Y-111500000D03*
X103500000Y-111500000D03*
X102500000Y-111500000D03*
X101500000Y-111500000D03*
X100500000Y-111500000D03*
X99500000Y-111500000D03*
X98500000Y-111500000D03*
X97500000Y-111500000D03*
X96500000Y-111500000D03*
X95500000Y-111500000D03*
X94500000Y-111500000D03*
X109500000Y-110500000D03*
X108500000Y-110500000D03*
X107500000Y-110500000D03*
X106500000Y-110500000D03*
X105500000Y-110500000D03*
X104500000Y-110500000D03*
X103500000Y-110500000D03*
X102500000Y-110500000D03*
X101500000Y-110500000D03*
X100500000Y-110500000D03*
X99500000Y-110500000D03*
X98500000Y-110500000D03*
X97500000Y-110500000D03*
X96500000Y-110500000D03*
X95500000Y-110500000D03*
X94500000Y-110500000D03*
X109500000Y-109500000D03*
X108500000Y-109500000D03*
X107500000Y-109500000D03*
X106500000Y-109500000D03*
X105500000Y-109500000D03*
X104500000Y-109500000D03*
X103500000Y-109500000D03*
X102500000Y-109500000D03*
X101500000Y-109500000D03*
X100500000Y-109500000D03*
X99500000Y-109500000D03*
X98500000Y-109500000D03*
X97500000Y-109500000D03*
X96500000Y-109500000D03*
X95500000Y-109500000D03*
X94500000Y-109500000D03*
X109500000Y-108500000D03*
X108500000Y-108500000D03*
X107500000Y-108500000D03*
X106500000Y-108500000D03*
X105500000Y-108500000D03*
X104500000Y-108500000D03*
X103500000Y-108500000D03*
X102500000Y-108500000D03*
X101500000Y-108500000D03*
X100500000Y-108500000D03*
X99500000Y-108500000D03*
X98500000Y-108500000D03*
X97500000Y-108500000D03*
X96500000Y-108500000D03*
X95500000Y-108500000D03*
X94500000Y-108500000D03*
X109500000Y-107500000D03*
X108500000Y-107500000D03*
X107500000Y-107500000D03*
X106500000Y-107500000D03*
X105500000Y-107500000D03*
X104500000Y-107500000D03*
X103500000Y-107500000D03*
X102500000Y-107500000D03*
X101500000Y-107500000D03*
X100500000Y-107500000D03*
X99500000Y-107500000D03*
X98500000Y-107500000D03*
X97500000Y-107500000D03*
X96500000Y-107500000D03*
X95500000Y-107500000D03*
X94500000Y-107500000D03*
X109500000Y-106500000D03*
X108500000Y-106500000D03*
X107500000Y-106500000D03*
X106500000Y-106500000D03*
X105500000Y-106500000D03*
X104500000Y-106500000D03*
X103500000Y-106500000D03*
X102500000Y-106500000D03*
X101500000Y-106500000D03*
X100500000Y-106500000D03*
X99500000Y-106500000D03*
X98500000Y-106500000D03*
X97500000Y-106500000D03*
X96500000Y-106500000D03*
X95500000Y-106500000D03*
X94500000Y-106500000D03*
X109500000Y-105500000D03*
X108500000Y-105500000D03*
X107500000Y-105500000D03*
X106500000Y-105500000D03*
X105500000Y-105500000D03*
X104500000Y-105500000D03*
X103500000Y-105500000D03*
X102500000Y-105500000D03*
X101500000Y-105500000D03*
X100500000Y-105500000D03*
X99500000Y-105500000D03*
X98500000Y-105500000D03*
X97500000Y-105500000D03*
X96500000Y-105500000D03*
X95500000Y-105500000D03*
X94500000Y-105500000D03*
X109500000Y-104500000D03*
X108500000Y-104500000D03*
X107500000Y-104500000D03*
X106500000Y-104500000D03*
X105500000Y-104500000D03*
X104500000Y-104500000D03*
X103500000Y-104500000D03*
X102500000Y-104500000D03*
X101500000Y-104500000D03*
X100500000Y-104500000D03*
X99500000Y-104500000D03*
X98500000Y-104500000D03*
X97500000Y-104500000D03*
X96500000Y-104500000D03*
X95500000Y-104500000D03*
X94500000Y-104500000D03*
X109500000Y-103500000D03*
X108500000Y-103500000D03*
X107500000Y-103500000D03*
X106500000Y-103500000D03*
X105500000Y-103500000D03*
X104500000Y-103500000D03*
X103500000Y-103500000D03*
X102500000Y-103500000D03*
X101500000Y-103500000D03*
X100500000Y-103500000D03*
X99500000Y-103500000D03*
X98500000Y-103500000D03*
X97500000Y-103500000D03*
X96500000Y-103500000D03*
X95500000Y-103500000D03*
X94500000Y-103500000D03*
X109500000Y-102500000D03*
X108500000Y-102500000D03*
X107500000Y-102500000D03*
X106500000Y-102500000D03*
X105500000Y-102500000D03*
X104500000Y-102500000D03*
X103500000Y-102500000D03*
X102500000Y-102500000D03*
X101500000Y-102500000D03*
X100500000Y-102500000D03*
X99500000Y-102500000D03*
X98500000Y-102500000D03*
X97500000Y-102500000D03*
X96500000Y-102500000D03*
X95500000Y-102500000D03*
X94500000Y-102500000D03*
X109500000Y-101500000D03*
X108500000Y-101500000D03*
X107500000Y-101500000D03*
X106500000Y-101500000D03*
X105500000Y-101500000D03*
X104500000Y-101500000D03*
X103500000Y-101500000D03*
X102500000Y-101500000D03*
X101500000Y-101500000D03*
X100500000Y-101500000D03*
X99500000Y-101500000D03*
X98500000Y-101500000D03*
X97500000Y-101500000D03*
X96500000Y-101500000D03*
X95500000Y-101500000D03*
X94500000Y-101500000D03*
X109500000Y-100500000D03*
X108500000Y-100500000D03*
X107500000Y-100500000D03*
X106500000Y-100500000D03*
X105500000Y-100500000D03*
X104500000Y-100500000D03*
X103500000Y-100500000D03*
X102500000Y-100500000D03*
X101500000Y-100500000D03*
X100500000Y-100500000D03*
X99500000Y-100500000D03*
X98500000Y-100500000D03*
X97500000Y-100500000D03*
X96500000Y-100500000D03*
X95500000Y-100500000D03*
X94500000Y-100500000D03*
%TD*%
D20*
%TO.C,X1*%
X109450000Y-120925000D03*
X109450000Y-119075000D03*
X108000000Y-119075000D03*
X108000000Y-120925000D03*
%TD*%
D16*
%TO.C,R1*%
X121220000Y-93250000D03*
X120200000Y-93250000D03*
%TD*%
D21*
%TO.C,IC1*%
X95900000Y-84400000D03*
X95900000Y-84900000D03*
X95900000Y-85400000D03*
X95900000Y-85900000D03*
X95900000Y-86400000D03*
X95900000Y-86900000D03*
X95900000Y-87400000D03*
D22*
X96750000Y-88250000D03*
X97250000Y-88250000D03*
X97750000Y-88250000D03*
X98250000Y-88250000D03*
X98750000Y-88250000D03*
X99250000Y-88250000D03*
X99750000Y-88250000D03*
D21*
X100600000Y-87400000D03*
X100600000Y-86900000D03*
X100600000Y-86400000D03*
X100600000Y-85900000D03*
X100600000Y-85400000D03*
X100600000Y-84900000D03*
X100600000Y-84400000D03*
D22*
X99750000Y-83550000D03*
X99250000Y-83550000D03*
X98750000Y-83550000D03*
X98250000Y-83550000D03*
X97750000Y-83550000D03*
X97250000Y-83550000D03*
X96750000Y-83550000D03*
D23*
X98250000Y-85900000D03*
%TD*%
D24*
%TO.C,J1*%
X91500000Y-77375000D03*
X81500000Y-77375000D03*
D25*
X92500000Y-75250000D03*
X92500000Y-79500000D03*
X90500000Y-75250000D03*
X90500000Y-79500000D03*
X88500000Y-75250000D03*
X88500000Y-79500000D03*
X86500000Y-75250000D03*
X86500000Y-79500000D03*
X84500000Y-75250000D03*
X84500000Y-79500000D03*
X82500000Y-75250000D03*
X82500000Y-79500000D03*
X80500000Y-75250000D03*
X80500000Y-79500000D03*
%TD*%
D26*
%TO.C,J10*%
X98460000Y-75850000D03*
X101000000Y-79150000D03*
X103540000Y-75850000D03*
%TD*%
D10*
%TO.C,R5*%
X85960000Y-87250000D03*
X84940000Y-87250000D03*
%TD*%
D17*
%TO.C,Q3*%
X118162500Y-86100000D03*
X118162500Y-88000000D03*
X120437500Y-87050000D03*
%TD*%
D27*
%TO.C,C44*%
X106800000Y-94080000D03*
X106800000Y-93120000D03*
%TD*%
D28*
%TO.C,C41*%
X102700000Y-83850000D03*
X103660000Y-83850000D03*
%TD*%
%TO.C,C39*%
X102720000Y-84900000D03*
X103680000Y-84900000D03*
%TD*%
D29*
%TO.C,C40*%
X93560000Y-83350000D03*
X92600000Y-83350000D03*
%TD*%
%TO.C,C43*%
X93550000Y-84900000D03*
X92590000Y-84900000D03*
%TD*%
%TO.C,C42*%
X96030000Y-82650000D03*
X95070000Y-82650000D03*
%TD*%
M02*
