%TF.GenerationSoftware,KiCad,Pcbnew,7.0.10*%
%TF.CreationDate,2024-01-13T18:06:35+01:00*%
%TF.ProjectId,FPGA,46504741-2e6b-4696-9361-645f70636258,rev?*%
%TF.SameCoordinates,Original*%
%TF.FileFunction,Legend,Bot*%
%TF.FilePolarity,Positive*%
%FSLAX46Y46*%
G04 Gerber Fmt 4.6, Leading zero omitted, Abs format (unit mm)*
G04 Created by KiCad (PCBNEW 7.0.10) date 2024-01-13 18:06:35*
%MOMM*%
%LPD*%
G01*
G04 APERTURE LIST*
%ADD10C,0.150000*%
%ADD11C,0.120000*%
G04 APERTURE END LIST*
D10*
X93789580Y-91632142D02*
X93837200Y-91584523D01*
X93837200Y-91584523D02*
X93884819Y-91441666D01*
X93884819Y-91441666D02*
X93884819Y-91346428D01*
X93884819Y-91346428D02*
X93837200Y-91203571D01*
X93837200Y-91203571D02*
X93741961Y-91108333D01*
X93741961Y-91108333D02*
X93646723Y-91060714D01*
X93646723Y-91060714D02*
X93456247Y-91013095D01*
X93456247Y-91013095D02*
X93313390Y-91013095D01*
X93313390Y-91013095D02*
X93122914Y-91060714D01*
X93122914Y-91060714D02*
X93027676Y-91108333D01*
X93027676Y-91108333D02*
X92932438Y-91203571D01*
X92932438Y-91203571D02*
X92884819Y-91346428D01*
X92884819Y-91346428D02*
X92884819Y-91441666D01*
X92884819Y-91441666D02*
X92932438Y-91584523D01*
X92932438Y-91584523D02*
X92980057Y-91632142D01*
X93218152Y-92489285D02*
X93884819Y-92489285D01*
X92837200Y-92251190D02*
X93551485Y-92013095D01*
X93551485Y-92013095D02*
X93551485Y-92632142D01*
X93313390Y-93155952D02*
X93265771Y-93060714D01*
X93265771Y-93060714D02*
X93218152Y-93013095D01*
X93218152Y-93013095D02*
X93122914Y-92965476D01*
X93122914Y-92965476D02*
X93075295Y-92965476D01*
X93075295Y-92965476D02*
X92980057Y-93013095D01*
X92980057Y-93013095D02*
X92932438Y-93060714D01*
X92932438Y-93060714D02*
X92884819Y-93155952D01*
X92884819Y-93155952D02*
X92884819Y-93346428D01*
X92884819Y-93346428D02*
X92932438Y-93441666D01*
X92932438Y-93441666D02*
X92980057Y-93489285D01*
X92980057Y-93489285D02*
X93075295Y-93536904D01*
X93075295Y-93536904D02*
X93122914Y-93536904D01*
X93122914Y-93536904D02*
X93218152Y-93489285D01*
X93218152Y-93489285D02*
X93265771Y-93441666D01*
X93265771Y-93441666D02*
X93313390Y-93346428D01*
X93313390Y-93346428D02*
X93313390Y-93155952D01*
X93313390Y-93155952D02*
X93361009Y-93060714D01*
X93361009Y-93060714D02*
X93408628Y-93013095D01*
X93408628Y-93013095D02*
X93503866Y-92965476D01*
X93503866Y-92965476D02*
X93694342Y-92965476D01*
X93694342Y-92965476D02*
X93789580Y-93013095D01*
X93789580Y-93013095D02*
X93837200Y-93060714D01*
X93837200Y-93060714D02*
X93884819Y-93155952D01*
X93884819Y-93155952D02*
X93884819Y-93346428D01*
X93884819Y-93346428D02*
X93837200Y-93441666D01*
X93837200Y-93441666D02*
X93789580Y-93489285D01*
X93789580Y-93489285D02*
X93694342Y-93536904D01*
X93694342Y-93536904D02*
X93503866Y-93536904D01*
X93503866Y-93536904D02*
X93408628Y-93489285D01*
X93408628Y-93489285D02*
X93361009Y-93441666D01*
X93361009Y-93441666D02*
X93313390Y-93346428D01*
X97289580Y-91607142D02*
X97337200Y-91559523D01*
X97337200Y-91559523D02*
X97384819Y-91416666D01*
X97384819Y-91416666D02*
X97384819Y-91321428D01*
X97384819Y-91321428D02*
X97337200Y-91178571D01*
X97337200Y-91178571D02*
X97241961Y-91083333D01*
X97241961Y-91083333D02*
X97146723Y-91035714D01*
X97146723Y-91035714D02*
X96956247Y-90988095D01*
X96956247Y-90988095D02*
X96813390Y-90988095D01*
X96813390Y-90988095D02*
X96622914Y-91035714D01*
X96622914Y-91035714D02*
X96527676Y-91083333D01*
X96527676Y-91083333D02*
X96432438Y-91178571D01*
X96432438Y-91178571D02*
X96384819Y-91321428D01*
X96384819Y-91321428D02*
X96384819Y-91416666D01*
X96384819Y-91416666D02*
X96432438Y-91559523D01*
X96432438Y-91559523D02*
X96480057Y-91607142D01*
X96718152Y-92464285D02*
X97384819Y-92464285D01*
X96337200Y-92226190D02*
X97051485Y-91988095D01*
X97051485Y-91988095D02*
X97051485Y-92607142D01*
X96384819Y-92892857D02*
X96384819Y-93559523D01*
X96384819Y-93559523D02*
X97384819Y-93130952D01*
X104289580Y-91632142D02*
X104337200Y-91584523D01*
X104337200Y-91584523D02*
X104384819Y-91441666D01*
X104384819Y-91441666D02*
X104384819Y-91346428D01*
X104384819Y-91346428D02*
X104337200Y-91203571D01*
X104337200Y-91203571D02*
X104241961Y-91108333D01*
X104241961Y-91108333D02*
X104146723Y-91060714D01*
X104146723Y-91060714D02*
X103956247Y-91013095D01*
X103956247Y-91013095D02*
X103813390Y-91013095D01*
X103813390Y-91013095D02*
X103622914Y-91060714D01*
X103622914Y-91060714D02*
X103527676Y-91108333D01*
X103527676Y-91108333D02*
X103432438Y-91203571D01*
X103432438Y-91203571D02*
X103384819Y-91346428D01*
X103384819Y-91346428D02*
X103384819Y-91441666D01*
X103384819Y-91441666D02*
X103432438Y-91584523D01*
X103432438Y-91584523D02*
X103480057Y-91632142D01*
X103718152Y-92489285D02*
X104384819Y-92489285D01*
X103337200Y-92251190D02*
X104051485Y-92013095D01*
X104051485Y-92013095D02*
X104051485Y-92632142D01*
X103384819Y-93441666D02*
X103384819Y-93251190D01*
X103384819Y-93251190D02*
X103432438Y-93155952D01*
X103432438Y-93155952D02*
X103480057Y-93108333D01*
X103480057Y-93108333D02*
X103622914Y-93013095D01*
X103622914Y-93013095D02*
X103813390Y-92965476D01*
X103813390Y-92965476D02*
X104194342Y-92965476D01*
X104194342Y-92965476D02*
X104289580Y-93013095D01*
X104289580Y-93013095D02*
X104337200Y-93060714D01*
X104337200Y-93060714D02*
X104384819Y-93155952D01*
X104384819Y-93155952D02*
X104384819Y-93346428D01*
X104384819Y-93346428D02*
X104337200Y-93441666D01*
X104337200Y-93441666D02*
X104289580Y-93489285D01*
X104289580Y-93489285D02*
X104194342Y-93536904D01*
X104194342Y-93536904D02*
X103956247Y-93536904D01*
X103956247Y-93536904D02*
X103861009Y-93489285D01*
X103861009Y-93489285D02*
X103813390Y-93441666D01*
X103813390Y-93441666D02*
X103765771Y-93346428D01*
X103765771Y-93346428D02*
X103765771Y-93155952D01*
X103765771Y-93155952D02*
X103813390Y-93060714D01*
X103813390Y-93060714D02*
X103861009Y-93013095D01*
X103861009Y-93013095D02*
X103956247Y-92965476D01*
X100789580Y-91632142D02*
X100837200Y-91584523D01*
X100837200Y-91584523D02*
X100884819Y-91441666D01*
X100884819Y-91441666D02*
X100884819Y-91346428D01*
X100884819Y-91346428D02*
X100837200Y-91203571D01*
X100837200Y-91203571D02*
X100741961Y-91108333D01*
X100741961Y-91108333D02*
X100646723Y-91060714D01*
X100646723Y-91060714D02*
X100456247Y-91013095D01*
X100456247Y-91013095D02*
X100313390Y-91013095D01*
X100313390Y-91013095D02*
X100122914Y-91060714D01*
X100122914Y-91060714D02*
X100027676Y-91108333D01*
X100027676Y-91108333D02*
X99932438Y-91203571D01*
X99932438Y-91203571D02*
X99884819Y-91346428D01*
X99884819Y-91346428D02*
X99884819Y-91441666D01*
X99884819Y-91441666D02*
X99932438Y-91584523D01*
X99932438Y-91584523D02*
X99980057Y-91632142D01*
X100218152Y-92489285D02*
X100884819Y-92489285D01*
X99837200Y-92251190D02*
X100551485Y-92013095D01*
X100551485Y-92013095D02*
X100551485Y-92632142D01*
X99884819Y-93489285D02*
X99884819Y-93013095D01*
X99884819Y-93013095D02*
X100361009Y-92965476D01*
X100361009Y-92965476D02*
X100313390Y-93013095D01*
X100313390Y-93013095D02*
X100265771Y-93108333D01*
X100265771Y-93108333D02*
X100265771Y-93346428D01*
X100265771Y-93346428D02*
X100313390Y-93441666D01*
X100313390Y-93441666D02*
X100361009Y-93489285D01*
X100361009Y-93489285D02*
X100456247Y-93536904D01*
X100456247Y-93536904D02*
X100694342Y-93536904D01*
X100694342Y-93536904D02*
X100789580Y-93489285D01*
X100789580Y-93489285D02*
X100837200Y-93441666D01*
X100837200Y-93441666D02*
X100884819Y-93346428D01*
X100884819Y-93346428D02*
X100884819Y-93108333D01*
X100884819Y-93108333D02*
X100837200Y-93013095D01*
X100837200Y-93013095D02*
X100789580Y-92965476D01*
X112289580Y-97583333D02*
X112337200Y-97535714D01*
X112337200Y-97535714D02*
X112384819Y-97392857D01*
X112384819Y-97392857D02*
X112384819Y-97297619D01*
X112384819Y-97297619D02*
X112337200Y-97154762D01*
X112337200Y-97154762D02*
X112241961Y-97059524D01*
X112241961Y-97059524D02*
X112146723Y-97011905D01*
X112146723Y-97011905D02*
X111956247Y-96964286D01*
X111956247Y-96964286D02*
X111813390Y-96964286D01*
X111813390Y-96964286D02*
X111622914Y-97011905D01*
X111622914Y-97011905D02*
X111527676Y-97059524D01*
X111527676Y-97059524D02*
X111432438Y-97154762D01*
X111432438Y-97154762D02*
X111384819Y-97297619D01*
X111384819Y-97297619D02*
X111384819Y-97392857D01*
X111384819Y-97392857D02*
X111432438Y-97535714D01*
X111432438Y-97535714D02*
X111480057Y-97583333D01*
X111813390Y-98154762D02*
X111765771Y-98059524D01*
X111765771Y-98059524D02*
X111718152Y-98011905D01*
X111718152Y-98011905D02*
X111622914Y-97964286D01*
X111622914Y-97964286D02*
X111575295Y-97964286D01*
X111575295Y-97964286D02*
X111480057Y-98011905D01*
X111480057Y-98011905D02*
X111432438Y-98059524D01*
X111432438Y-98059524D02*
X111384819Y-98154762D01*
X111384819Y-98154762D02*
X111384819Y-98345238D01*
X111384819Y-98345238D02*
X111432438Y-98440476D01*
X111432438Y-98440476D02*
X111480057Y-98488095D01*
X111480057Y-98488095D02*
X111575295Y-98535714D01*
X111575295Y-98535714D02*
X111622914Y-98535714D01*
X111622914Y-98535714D02*
X111718152Y-98488095D01*
X111718152Y-98488095D02*
X111765771Y-98440476D01*
X111765771Y-98440476D02*
X111813390Y-98345238D01*
X111813390Y-98345238D02*
X111813390Y-98154762D01*
X111813390Y-98154762D02*
X111861009Y-98059524D01*
X111861009Y-98059524D02*
X111908628Y-98011905D01*
X111908628Y-98011905D02*
X112003866Y-97964286D01*
X112003866Y-97964286D02*
X112194342Y-97964286D01*
X112194342Y-97964286D02*
X112289580Y-98011905D01*
X112289580Y-98011905D02*
X112337200Y-98059524D01*
X112337200Y-98059524D02*
X112384819Y-98154762D01*
X112384819Y-98154762D02*
X112384819Y-98345238D01*
X112384819Y-98345238D02*
X112337200Y-98440476D01*
X112337200Y-98440476D02*
X112289580Y-98488095D01*
X112289580Y-98488095D02*
X112194342Y-98535714D01*
X112194342Y-98535714D02*
X112003866Y-98535714D01*
X112003866Y-98535714D02*
X111908628Y-98488095D01*
X111908628Y-98488095D02*
X111861009Y-98440476D01*
X111861009Y-98440476D02*
X111813390Y-98345238D01*
X113642857Y-115789580D02*
X113690476Y-115837200D01*
X113690476Y-115837200D02*
X113833333Y-115884819D01*
X113833333Y-115884819D02*
X113928571Y-115884819D01*
X113928571Y-115884819D02*
X114071428Y-115837200D01*
X114071428Y-115837200D02*
X114166666Y-115741961D01*
X114166666Y-115741961D02*
X114214285Y-115646723D01*
X114214285Y-115646723D02*
X114261904Y-115456247D01*
X114261904Y-115456247D02*
X114261904Y-115313390D01*
X114261904Y-115313390D02*
X114214285Y-115122914D01*
X114214285Y-115122914D02*
X114166666Y-115027676D01*
X114166666Y-115027676D02*
X114071428Y-114932438D01*
X114071428Y-114932438D02*
X113928571Y-114884819D01*
X113928571Y-114884819D02*
X113833333Y-114884819D01*
X113833333Y-114884819D02*
X113690476Y-114932438D01*
X113690476Y-114932438D02*
X113642857Y-114980057D01*
X112690476Y-115884819D02*
X113261904Y-115884819D01*
X112976190Y-115884819D02*
X112976190Y-114884819D01*
X112976190Y-114884819D02*
X113071428Y-115027676D01*
X113071428Y-115027676D02*
X113166666Y-115122914D01*
X113166666Y-115122914D02*
X113261904Y-115170533D01*
X111833333Y-115218152D02*
X111833333Y-115884819D01*
X112071428Y-114837200D02*
X112309523Y-115551485D01*
X112309523Y-115551485D02*
X111690476Y-115551485D01*
X96416666Y-96359580D02*
X96464285Y-96407200D01*
X96464285Y-96407200D02*
X96607142Y-96454819D01*
X96607142Y-96454819D02*
X96702380Y-96454819D01*
X96702380Y-96454819D02*
X96845237Y-96407200D01*
X96845237Y-96407200D02*
X96940475Y-96311961D01*
X96940475Y-96311961D02*
X96988094Y-96216723D01*
X96988094Y-96216723D02*
X97035713Y-96026247D01*
X97035713Y-96026247D02*
X97035713Y-95883390D01*
X97035713Y-95883390D02*
X96988094Y-95692914D01*
X96988094Y-95692914D02*
X96940475Y-95597676D01*
X96940475Y-95597676D02*
X96845237Y-95502438D01*
X96845237Y-95502438D02*
X96702380Y-95454819D01*
X96702380Y-95454819D02*
X96607142Y-95454819D01*
X96607142Y-95454819D02*
X96464285Y-95502438D01*
X96464285Y-95502438D02*
X96416666Y-95550057D01*
X95559523Y-95454819D02*
X95749999Y-95454819D01*
X95749999Y-95454819D02*
X95845237Y-95502438D01*
X95845237Y-95502438D02*
X95892856Y-95550057D01*
X95892856Y-95550057D02*
X95988094Y-95692914D01*
X95988094Y-95692914D02*
X96035713Y-95883390D01*
X96035713Y-95883390D02*
X96035713Y-96264342D01*
X96035713Y-96264342D02*
X95988094Y-96359580D01*
X95988094Y-96359580D02*
X95940475Y-96407200D01*
X95940475Y-96407200D02*
X95845237Y-96454819D01*
X95845237Y-96454819D02*
X95654761Y-96454819D01*
X95654761Y-96454819D02*
X95559523Y-96407200D01*
X95559523Y-96407200D02*
X95511904Y-96359580D01*
X95511904Y-96359580D02*
X95464285Y-96264342D01*
X95464285Y-96264342D02*
X95464285Y-96026247D01*
X95464285Y-96026247D02*
X95511904Y-95931009D01*
X95511904Y-95931009D02*
X95559523Y-95883390D01*
X95559523Y-95883390D02*
X95654761Y-95835771D01*
X95654761Y-95835771D02*
X95845237Y-95835771D01*
X95845237Y-95835771D02*
X95940475Y-95883390D01*
X95940475Y-95883390D02*
X95988094Y-95931009D01*
X95988094Y-95931009D02*
X96035713Y-96026247D01*
X109539580Y-97583333D02*
X109587200Y-97535714D01*
X109587200Y-97535714D02*
X109634819Y-97392857D01*
X109634819Y-97392857D02*
X109634819Y-97297619D01*
X109634819Y-97297619D02*
X109587200Y-97154762D01*
X109587200Y-97154762D02*
X109491961Y-97059524D01*
X109491961Y-97059524D02*
X109396723Y-97011905D01*
X109396723Y-97011905D02*
X109206247Y-96964286D01*
X109206247Y-96964286D02*
X109063390Y-96964286D01*
X109063390Y-96964286D02*
X108872914Y-97011905D01*
X108872914Y-97011905D02*
X108777676Y-97059524D01*
X108777676Y-97059524D02*
X108682438Y-97154762D01*
X108682438Y-97154762D02*
X108634819Y-97297619D01*
X108634819Y-97297619D02*
X108634819Y-97392857D01*
X108634819Y-97392857D02*
X108682438Y-97535714D01*
X108682438Y-97535714D02*
X108730057Y-97583333D01*
X109634819Y-98059524D02*
X109634819Y-98250000D01*
X109634819Y-98250000D02*
X109587200Y-98345238D01*
X109587200Y-98345238D02*
X109539580Y-98392857D01*
X109539580Y-98392857D02*
X109396723Y-98488095D01*
X109396723Y-98488095D02*
X109206247Y-98535714D01*
X109206247Y-98535714D02*
X108825295Y-98535714D01*
X108825295Y-98535714D02*
X108730057Y-98488095D01*
X108730057Y-98488095D02*
X108682438Y-98440476D01*
X108682438Y-98440476D02*
X108634819Y-98345238D01*
X108634819Y-98345238D02*
X108634819Y-98154762D01*
X108634819Y-98154762D02*
X108682438Y-98059524D01*
X108682438Y-98059524D02*
X108730057Y-98011905D01*
X108730057Y-98011905D02*
X108825295Y-97964286D01*
X108825295Y-97964286D02*
X109063390Y-97964286D01*
X109063390Y-97964286D02*
X109158628Y-98011905D01*
X109158628Y-98011905D02*
X109206247Y-98059524D01*
X109206247Y-98059524D02*
X109253866Y-98154762D01*
X109253866Y-98154762D02*
X109253866Y-98345238D01*
X109253866Y-98345238D02*
X109206247Y-98440476D01*
X109206247Y-98440476D02*
X109158628Y-98488095D01*
X109158628Y-98488095D02*
X109063390Y-98535714D01*
X98699580Y-114107142D02*
X98747200Y-114059523D01*
X98747200Y-114059523D02*
X98794819Y-113916666D01*
X98794819Y-113916666D02*
X98794819Y-113821428D01*
X98794819Y-113821428D02*
X98747200Y-113678571D01*
X98747200Y-113678571D02*
X98651961Y-113583333D01*
X98651961Y-113583333D02*
X98556723Y-113535714D01*
X98556723Y-113535714D02*
X98366247Y-113488095D01*
X98366247Y-113488095D02*
X98223390Y-113488095D01*
X98223390Y-113488095D02*
X98032914Y-113535714D01*
X98032914Y-113535714D02*
X97937676Y-113583333D01*
X97937676Y-113583333D02*
X97842438Y-113678571D01*
X97842438Y-113678571D02*
X97794819Y-113821428D01*
X97794819Y-113821428D02*
X97794819Y-113916666D01*
X97794819Y-113916666D02*
X97842438Y-114059523D01*
X97842438Y-114059523D02*
X97890057Y-114107142D01*
X97794819Y-114440476D02*
X97794819Y-115059523D01*
X97794819Y-115059523D02*
X98175771Y-114726190D01*
X98175771Y-114726190D02*
X98175771Y-114869047D01*
X98175771Y-114869047D02*
X98223390Y-114964285D01*
X98223390Y-114964285D02*
X98271009Y-115011904D01*
X98271009Y-115011904D02*
X98366247Y-115059523D01*
X98366247Y-115059523D02*
X98604342Y-115059523D01*
X98604342Y-115059523D02*
X98699580Y-115011904D01*
X98699580Y-115011904D02*
X98747200Y-114964285D01*
X98747200Y-114964285D02*
X98794819Y-114869047D01*
X98794819Y-114869047D02*
X98794819Y-114583333D01*
X98794819Y-114583333D02*
X98747200Y-114488095D01*
X98747200Y-114488095D02*
X98699580Y-114440476D01*
X97794819Y-115678571D02*
X97794819Y-115773809D01*
X97794819Y-115773809D02*
X97842438Y-115869047D01*
X97842438Y-115869047D02*
X97890057Y-115916666D01*
X97890057Y-115916666D02*
X97985295Y-115964285D01*
X97985295Y-115964285D02*
X98175771Y-116011904D01*
X98175771Y-116011904D02*
X98413866Y-116011904D01*
X98413866Y-116011904D02*
X98604342Y-115964285D01*
X98604342Y-115964285D02*
X98699580Y-115916666D01*
X98699580Y-115916666D02*
X98747200Y-115869047D01*
X98747200Y-115869047D02*
X98794819Y-115773809D01*
X98794819Y-115773809D02*
X98794819Y-115678571D01*
X98794819Y-115678571D02*
X98747200Y-115583333D01*
X98747200Y-115583333D02*
X98699580Y-115535714D01*
X98699580Y-115535714D02*
X98604342Y-115488095D01*
X98604342Y-115488095D02*
X98413866Y-115440476D01*
X98413866Y-115440476D02*
X98175771Y-115440476D01*
X98175771Y-115440476D02*
X97985295Y-115488095D01*
X97985295Y-115488095D02*
X97890057Y-115535714D01*
X97890057Y-115535714D02*
X97842438Y-115583333D01*
X97842438Y-115583333D02*
X97794819Y-115678571D01*
X102642857Y-111449580D02*
X102690476Y-111497200D01*
X102690476Y-111497200D02*
X102833333Y-111544819D01*
X102833333Y-111544819D02*
X102928571Y-111544819D01*
X102928571Y-111544819D02*
X103071428Y-111497200D01*
X103071428Y-111497200D02*
X103166666Y-111401961D01*
X103166666Y-111401961D02*
X103214285Y-111306723D01*
X103214285Y-111306723D02*
X103261904Y-111116247D01*
X103261904Y-111116247D02*
X103261904Y-110973390D01*
X103261904Y-110973390D02*
X103214285Y-110782914D01*
X103214285Y-110782914D02*
X103166666Y-110687676D01*
X103166666Y-110687676D02*
X103071428Y-110592438D01*
X103071428Y-110592438D02*
X102928571Y-110544819D01*
X102928571Y-110544819D02*
X102833333Y-110544819D01*
X102833333Y-110544819D02*
X102690476Y-110592438D01*
X102690476Y-110592438D02*
X102642857Y-110640057D01*
X102309523Y-110544819D02*
X101690476Y-110544819D01*
X101690476Y-110544819D02*
X102023809Y-110925771D01*
X102023809Y-110925771D02*
X101880952Y-110925771D01*
X101880952Y-110925771D02*
X101785714Y-110973390D01*
X101785714Y-110973390D02*
X101738095Y-111021009D01*
X101738095Y-111021009D02*
X101690476Y-111116247D01*
X101690476Y-111116247D02*
X101690476Y-111354342D01*
X101690476Y-111354342D02*
X101738095Y-111449580D01*
X101738095Y-111449580D02*
X101785714Y-111497200D01*
X101785714Y-111497200D02*
X101880952Y-111544819D01*
X101880952Y-111544819D02*
X102166666Y-111544819D01*
X102166666Y-111544819D02*
X102261904Y-111497200D01*
X102261904Y-111497200D02*
X102309523Y-111449580D01*
X101119047Y-110973390D02*
X101214285Y-110925771D01*
X101214285Y-110925771D02*
X101261904Y-110878152D01*
X101261904Y-110878152D02*
X101309523Y-110782914D01*
X101309523Y-110782914D02*
X101309523Y-110735295D01*
X101309523Y-110735295D02*
X101261904Y-110640057D01*
X101261904Y-110640057D02*
X101214285Y-110592438D01*
X101214285Y-110592438D02*
X101119047Y-110544819D01*
X101119047Y-110544819D02*
X100928571Y-110544819D01*
X100928571Y-110544819D02*
X100833333Y-110592438D01*
X100833333Y-110592438D02*
X100785714Y-110640057D01*
X100785714Y-110640057D02*
X100738095Y-110735295D01*
X100738095Y-110735295D02*
X100738095Y-110782914D01*
X100738095Y-110782914D02*
X100785714Y-110878152D01*
X100785714Y-110878152D02*
X100833333Y-110925771D01*
X100833333Y-110925771D02*
X100928571Y-110973390D01*
X100928571Y-110973390D02*
X101119047Y-110973390D01*
X101119047Y-110973390D02*
X101214285Y-111021009D01*
X101214285Y-111021009D02*
X101261904Y-111068628D01*
X101261904Y-111068628D02*
X101309523Y-111163866D01*
X101309523Y-111163866D02*
X101309523Y-111354342D01*
X101309523Y-111354342D02*
X101261904Y-111449580D01*
X101261904Y-111449580D02*
X101214285Y-111497200D01*
X101214285Y-111497200D02*
X101119047Y-111544819D01*
X101119047Y-111544819D02*
X100928571Y-111544819D01*
X100928571Y-111544819D02*
X100833333Y-111497200D01*
X100833333Y-111497200D02*
X100785714Y-111449580D01*
X100785714Y-111449580D02*
X100738095Y-111354342D01*
X100738095Y-111354342D02*
X100738095Y-111163866D01*
X100738095Y-111163866D02*
X100785714Y-111068628D01*
X100785714Y-111068628D02*
X100833333Y-111021009D01*
X100833333Y-111021009D02*
X100928571Y-110973390D01*
X113392857Y-110519580D02*
X113440476Y-110567200D01*
X113440476Y-110567200D02*
X113583333Y-110614819D01*
X113583333Y-110614819D02*
X113678571Y-110614819D01*
X113678571Y-110614819D02*
X113821428Y-110567200D01*
X113821428Y-110567200D02*
X113916666Y-110471961D01*
X113916666Y-110471961D02*
X113964285Y-110376723D01*
X113964285Y-110376723D02*
X114011904Y-110186247D01*
X114011904Y-110186247D02*
X114011904Y-110043390D01*
X114011904Y-110043390D02*
X113964285Y-109852914D01*
X113964285Y-109852914D02*
X113916666Y-109757676D01*
X113916666Y-109757676D02*
X113821428Y-109662438D01*
X113821428Y-109662438D02*
X113678571Y-109614819D01*
X113678571Y-109614819D02*
X113583333Y-109614819D01*
X113583333Y-109614819D02*
X113440476Y-109662438D01*
X113440476Y-109662438D02*
X113392857Y-109710057D01*
X113011904Y-109710057D02*
X112964285Y-109662438D01*
X112964285Y-109662438D02*
X112869047Y-109614819D01*
X112869047Y-109614819D02*
X112630952Y-109614819D01*
X112630952Y-109614819D02*
X112535714Y-109662438D01*
X112535714Y-109662438D02*
X112488095Y-109710057D01*
X112488095Y-109710057D02*
X112440476Y-109805295D01*
X112440476Y-109805295D02*
X112440476Y-109900533D01*
X112440476Y-109900533D02*
X112488095Y-110043390D01*
X112488095Y-110043390D02*
X113059523Y-110614819D01*
X113059523Y-110614819D02*
X112440476Y-110614819D01*
X112059523Y-109710057D02*
X112011904Y-109662438D01*
X112011904Y-109662438D02*
X111916666Y-109614819D01*
X111916666Y-109614819D02*
X111678571Y-109614819D01*
X111678571Y-109614819D02*
X111583333Y-109662438D01*
X111583333Y-109662438D02*
X111535714Y-109710057D01*
X111535714Y-109710057D02*
X111488095Y-109805295D01*
X111488095Y-109805295D02*
X111488095Y-109900533D01*
X111488095Y-109900533D02*
X111535714Y-110043390D01*
X111535714Y-110043390D02*
X112107142Y-110614819D01*
X112107142Y-110614819D02*
X111488095Y-110614819D01*
X111019580Y-105337142D02*
X111067200Y-105289523D01*
X111067200Y-105289523D02*
X111114819Y-105146666D01*
X111114819Y-105146666D02*
X111114819Y-105051428D01*
X111114819Y-105051428D02*
X111067200Y-104908571D01*
X111067200Y-104908571D02*
X110971961Y-104813333D01*
X110971961Y-104813333D02*
X110876723Y-104765714D01*
X110876723Y-104765714D02*
X110686247Y-104718095D01*
X110686247Y-104718095D02*
X110543390Y-104718095D01*
X110543390Y-104718095D02*
X110352914Y-104765714D01*
X110352914Y-104765714D02*
X110257676Y-104813333D01*
X110257676Y-104813333D02*
X110162438Y-104908571D01*
X110162438Y-104908571D02*
X110114819Y-105051428D01*
X110114819Y-105051428D02*
X110114819Y-105146666D01*
X110114819Y-105146666D02*
X110162438Y-105289523D01*
X110162438Y-105289523D02*
X110210057Y-105337142D01*
X110448152Y-106194285D02*
X111114819Y-106194285D01*
X110067200Y-105956190D02*
X110781485Y-105718095D01*
X110781485Y-105718095D02*
X110781485Y-106337142D01*
X111114819Y-106765714D02*
X111114819Y-106956190D01*
X111114819Y-106956190D02*
X111067200Y-107051428D01*
X111067200Y-107051428D02*
X111019580Y-107099047D01*
X111019580Y-107099047D02*
X110876723Y-107194285D01*
X110876723Y-107194285D02*
X110686247Y-107241904D01*
X110686247Y-107241904D02*
X110305295Y-107241904D01*
X110305295Y-107241904D02*
X110210057Y-107194285D01*
X110210057Y-107194285D02*
X110162438Y-107146666D01*
X110162438Y-107146666D02*
X110114819Y-107051428D01*
X110114819Y-107051428D02*
X110114819Y-106860952D01*
X110114819Y-106860952D02*
X110162438Y-106765714D01*
X110162438Y-106765714D02*
X110210057Y-106718095D01*
X110210057Y-106718095D02*
X110305295Y-106670476D01*
X110305295Y-106670476D02*
X110543390Y-106670476D01*
X110543390Y-106670476D02*
X110638628Y-106718095D01*
X110638628Y-106718095D02*
X110686247Y-106765714D01*
X110686247Y-106765714D02*
X110733866Y-106860952D01*
X110733866Y-106860952D02*
X110733866Y-107051428D01*
X110733866Y-107051428D02*
X110686247Y-107146666D01*
X110686247Y-107146666D02*
X110638628Y-107194285D01*
X110638628Y-107194285D02*
X110543390Y-107241904D01*
X107449580Y-100607142D02*
X107497200Y-100559523D01*
X107497200Y-100559523D02*
X107544819Y-100416666D01*
X107544819Y-100416666D02*
X107544819Y-100321428D01*
X107544819Y-100321428D02*
X107497200Y-100178571D01*
X107497200Y-100178571D02*
X107401961Y-100083333D01*
X107401961Y-100083333D02*
X107306723Y-100035714D01*
X107306723Y-100035714D02*
X107116247Y-99988095D01*
X107116247Y-99988095D02*
X106973390Y-99988095D01*
X106973390Y-99988095D02*
X106782914Y-100035714D01*
X106782914Y-100035714D02*
X106687676Y-100083333D01*
X106687676Y-100083333D02*
X106592438Y-100178571D01*
X106592438Y-100178571D02*
X106544819Y-100321428D01*
X106544819Y-100321428D02*
X106544819Y-100416666D01*
X106544819Y-100416666D02*
X106592438Y-100559523D01*
X106592438Y-100559523D02*
X106640057Y-100607142D01*
X107544819Y-101559523D02*
X107544819Y-100988095D01*
X107544819Y-101273809D02*
X106544819Y-101273809D01*
X106544819Y-101273809D02*
X106687676Y-101178571D01*
X106687676Y-101178571D02*
X106782914Y-101083333D01*
X106782914Y-101083333D02*
X106830533Y-100988095D01*
X106544819Y-102416666D02*
X106544819Y-102226190D01*
X106544819Y-102226190D02*
X106592438Y-102130952D01*
X106592438Y-102130952D02*
X106640057Y-102083333D01*
X106640057Y-102083333D02*
X106782914Y-101988095D01*
X106782914Y-101988095D02*
X106973390Y-101940476D01*
X106973390Y-101940476D02*
X107354342Y-101940476D01*
X107354342Y-101940476D02*
X107449580Y-101988095D01*
X107449580Y-101988095D02*
X107497200Y-102035714D01*
X107497200Y-102035714D02*
X107544819Y-102130952D01*
X107544819Y-102130952D02*
X107544819Y-102321428D01*
X107544819Y-102321428D02*
X107497200Y-102416666D01*
X107497200Y-102416666D02*
X107449580Y-102464285D01*
X107449580Y-102464285D02*
X107354342Y-102511904D01*
X107354342Y-102511904D02*
X107116247Y-102511904D01*
X107116247Y-102511904D02*
X107021009Y-102464285D01*
X107021009Y-102464285D02*
X106973390Y-102416666D01*
X106973390Y-102416666D02*
X106925771Y-102321428D01*
X106925771Y-102321428D02*
X106925771Y-102130952D01*
X106925771Y-102130952D02*
X106973390Y-102035714D01*
X106973390Y-102035714D02*
X107021009Y-101988095D01*
X107021009Y-101988095D02*
X107116247Y-101940476D01*
X92392857Y-110699580D02*
X92440476Y-110747200D01*
X92440476Y-110747200D02*
X92583333Y-110794819D01*
X92583333Y-110794819D02*
X92678571Y-110794819D01*
X92678571Y-110794819D02*
X92821428Y-110747200D01*
X92821428Y-110747200D02*
X92916666Y-110651961D01*
X92916666Y-110651961D02*
X92964285Y-110556723D01*
X92964285Y-110556723D02*
X93011904Y-110366247D01*
X93011904Y-110366247D02*
X93011904Y-110223390D01*
X93011904Y-110223390D02*
X92964285Y-110032914D01*
X92964285Y-110032914D02*
X92916666Y-109937676D01*
X92916666Y-109937676D02*
X92821428Y-109842438D01*
X92821428Y-109842438D02*
X92678571Y-109794819D01*
X92678571Y-109794819D02*
X92583333Y-109794819D01*
X92583333Y-109794819D02*
X92440476Y-109842438D01*
X92440476Y-109842438D02*
X92392857Y-109890057D01*
X92059523Y-109794819D02*
X91440476Y-109794819D01*
X91440476Y-109794819D02*
X91773809Y-110175771D01*
X91773809Y-110175771D02*
X91630952Y-110175771D01*
X91630952Y-110175771D02*
X91535714Y-110223390D01*
X91535714Y-110223390D02*
X91488095Y-110271009D01*
X91488095Y-110271009D02*
X91440476Y-110366247D01*
X91440476Y-110366247D02*
X91440476Y-110604342D01*
X91440476Y-110604342D02*
X91488095Y-110699580D01*
X91488095Y-110699580D02*
X91535714Y-110747200D01*
X91535714Y-110747200D02*
X91630952Y-110794819D01*
X91630952Y-110794819D02*
X91916666Y-110794819D01*
X91916666Y-110794819D02*
X92011904Y-110747200D01*
X92011904Y-110747200D02*
X92059523Y-110699580D01*
X91059523Y-109890057D02*
X91011904Y-109842438D01*
X91011904Y-109842438D02*
X90916666Y-109794819D01*
X90916666Y-109794819D02*
X90678571Y-109794819D01*
X90678571Y-109794819D02*
X90583333Y-109842438D01*
X90583333Y-109842438D02*
X90535714Y-109890057D01*
X90535714Y-109890057D02*
X90488095Y-109985295D01*
X90488095Y-109985295D02*
X90488095Y-110080533D01*
X90488095Y-110080533D02*
X90535714Y-110223390D01*
X90535714Y-110223390D02*
X91107142Y-110794819D01*
X91107142Y-110794819D02*
X90488095Y-110794819D01*
X104519580Y-97377142D02*
X104567200Y-97329523D01*
X104567200Y-97329523D02*
X104614819Y-97186666D01*
X104614819Y-97186666D02*
X104614819Y-97091428D01*
X104614819Y-97091428D02*
X104567200Y-96948571D01*
X104567200Y-96948571D02*
X104471961Y-96853333D01*
X104471961Y-96853333D02*
X104376723Y-96805714D01*
X104376723Y-96805714D02*
X104186247Y-96758095D01*
X104186247Y-96758095D02*
X104043390Y-96758095D01*
X104043390Y-96758095D02*
X103852914Y-96805714D01*
X103852914Y-96805714D02*
X103757676Y-96853333D01*
X103757676Y-96853333D02*
X103662438Y-96948571D01*
X103662438Y-96948571D02*
X103614819Y-97091428D01*
X103614819Y-97091428D02*
X103614819Y-97186666D01*
X103614819Y-97186666D02*
X103662438Y-97329523D01*
X103662438Y-97329523D02*
X103710057Y-97377142D01*
X104614819Y-98329523D02*
X104614819Y-97758095D01*
X104614819Y-98043809D02*
X103614819Y-98043809D01*
X103614819Y-98043809D02*
X103757676Y-97948571D01*
X103757676Y-97948571D02*
X103852914Y-97853333D01*
X103852914Y-97853333D02*
X103900533Y-97758095D01*
X104614819Y-99281904D02*
X104614819Y-98710476D01*
X104614819Y-98996190D02*
X103614819Y-98996190D01*
X103614819Y-98996190D02*
X103757676Y-98900952D01*
X103757676Y-98900952D02*
X103852914Y-98805714D01*
X103852914Y-98805714D02*
X103900533Y-98710476D01*
X107642857Y-113699580D02*
X107690476Y-113747200D01*
X107690476Y-113747200D02*
X107833333Y-113794819D01*
X107833333Y-113794819D02*
X107928571Y-113794819D01*
X107928571Y-113794819D02*
X108071428Y-113747200D01*
X108071428Y-113747200D02*
X108166666Y-113651961D01*
X108166666Y-113651961D02*
X108214285Y-113556723D01*
X108214285Y-113556723D02*
X108261904Y-113366247D01*
X108261904Y-113366247D02*
X108261904Y-113223390D01*
X108261904Y-113223390D02*
X108214285Y-113032914D01*
X108214285Y-113032914D02*
X108166666Y-112937676D01*
X108166666Y-112937676D02*
X108071428Y-112842438D01*
X108071428Y-112842438D02*
X107928571Y-112794819D01*
X107928571Y-112794819D02*
X107833333Y-112794819D01*
X107833333Y-112794819D02*
X107690476Y-112842438D01*
X107690476Y-112842438D02*
X107642857Y-112890057D01*
X107261904Y-112890057D02*
X107214285Y-112842438D01*
X107214285Y-112842438D02*
X107119047Y-112794819D01*
X107119047Y-112794819D02*
X106880952Y-112794819D01*
X106880952Y-112794819D02*
X106785714Y-112842438D01*
X106785714Y-112842438D02*
X106738095Y-112890057D01*
X106738095Y-112890057D02*
X106690476Y-112985295D01*
X106690476Y-112985295D02*
X106690476Y-113080533D01*
X106690476Y-113080533D02*
X106738095Y-113223390D01*
X106738095Y-113223390D02*
X107309523Y-113794819D01*
X107309523Y-113794819D02*
X106690476Y-113794819D01*
X105785714Y-112794819D02*
X106261904Y-112794819D01*
X106261904Y-112794819D02*
X106309523Y-113271009D01*
X106309523Y-113271009D02*
X106261904Y-113223390D01*
X106261904Y-113223390D02*
X106166666Y-113175771D01*
X106166666Y-113175771D02*
X105928571Y-113175771D01*
X105928571Y-113175771D02*
X105833333Y-113223390D01*
X105833333Y-113223390D02*
X105785714Y-113271009D01*
X105785714Y-113271009D02*
X105738095Y-113366247D01*
X105738095Y-113366247D02*
X105738095Y-113604342D01*
X105738095Y-113604342D02*
X105785714Y-113699580D01*
X105785714Y-113699580D02*
X105833333Y-113747200D01*
X105833333Y-113747200D02*
X105928571Y-113794819D01*
X105928571Y-113794819D02*
X106166666Y-113794819D01*
X106166666Y-113794819D02*
X106261904Y-113747200D01*
X106261904Y-113747200D02*
X106309523Y-113699580D01*
X96019580Y-114357142D02*
X96067200Y-114309523D01*
X96067200Y-114309523D02*
X96114819Y-114166666D01*
X96114819Y-114166666D02*
X96114819Y-114071428D01*
X96114819Y-114071428D02*
X96067200Y-113928571D01*
X96067200Y-113928571D02*
X95971961Y-113833333D01*
X95971961Y-113833333D02*
X95876723Y-113785714D01*
X95876723Y-113785714D02*
X95686247Y-113738095D01*
X95686247Y-113738095D02*
X95543390Y-113738095D01*
X95543390Y-113738095D02*
X95352914Y-113785714D01*
X95352914Y-113785714D02*
X95257676Y-113833333D01*
X95257676Y-113833333D02*
X95162438Y-113928571D01*
X95162438Y-113928571D02*
X95114819Y-114071428D01*
X95114819Y-114071428D02*
X95114819Y-114166666D01*
X95114819Y-114166666D02*
X95162438Y-114309523D01*
X95162438Y-114309523D02*
X95210057Y-114357142D01*
X95210057Y-114738095D02*
X95162438Y-114785714D01*
X95162438Y-114785714D02*
X95114819Y-114880952D01*
X95114819Y-114880952D02*
X95114819Y-115119047D01*
X95114819Y-115119047D02*
X95162438Y-115214285D01*
X95162438Y-115214285D02*
X95210057Y-115261904D01*
X95210057Y-115261904D02*
X95305295Y-115309523D01*
X95305295Y-115309523D02*
X95400533Y-115309523D01*
X95400533Y-115309523D02*
X95543390Y-115261904D01*
X95543390Y-115261904D02*
X96114819Y-114690476D01*
X96114819Y-114690476D02*
X96114819Y-115309523D01*
X96114819Y-115785714D02*
X96114819Y-115976190D01*
X96114819Y-115976190D02*
X96067200Y-116071428D01*
X96067200Y-116071428D02*
X96019580Y-116119047D01*
X96019580Y-116119047D02*
X95876723Y-116214285D01*
X95876723Y-116214285D02*
X95686247Y-116261904D01*
X95686247Y-116261904D02*
X95305295Y-116261904D01*
X95305295Y-116261904D02*
X95210057Y-116214285D01*
X95210057Y-116214285D02*
X95162438Y-116166666D01*
X95162438Y-116166666D02*
X95114819Y-116071428D01*
X95114819Y-116071428D02*
X95114819Y-115880952D01*
X95114819Y-115880952D02*
X95162438Y-115785714D01*
X95162438Y-115785714D02*
X95210057Y-115738095D01*
X95210057Y-115738095D02*
X95305295Y-115690476D01*
X95305295Y-115690476D02*
X95543390Y-115690476D01*
X95543390Y-115690476D02*
X95638628Y-115738095D01*
X95638628Y-115738095D02*
X95686247Y-115785714D01*
X95686247Y-115785714D02*
X95733866Y-115880952D01*
X95733866Y-115880952D02*
X95733866Y-116071428D01*
X95733866Y-116071428D02*
X95686247Y-116166666D01*
X95686247Y-116166666D02*
X95638628Y-116214285D01*
X95638628Y-116214285D02*
X95543390Y-116261904D01*
X106769580Y-97337142D02*
X106817200Y-97289523D01*
X106817200Y-97289523D02*
X106864819Y-97146666D01*
X106864819Y-97146666D02*
X106864819Y-97051428D01*
X106864819Y-97051428D02*
X106817200Y-96908571D01*
X106817200Y-96908571D02*
X106721961Y-96813333D01*
X106721961Y-96813333D02*
X106626723Y-96765714D01*
X106626723Y-96765714D02*
X106436247Y-96718095D01*
X106436247Y-96718095D02*
X106293390Y-96718095D01*
X106293390Y-96718095D02*
X106102914Y-96765714D01*
X106102914Y-96765714D02*
X106007676Y-96813333D01*
X106007676Y-96813333D02*
X105912438Y-96908571D01*
X105912438Y-96908571D02*
X105864819Y-97051428D01*
X105864819Y-97051428D02*
X105864819Y-97146666D01*
X105864819Y-97146666D02*
X105912438Y-97289523D01*
X105912438Y-97289523D02*
X105960057Y-97337142D01*
X106864819Y-98289523D02*
X106864819Y-97718095D01*
X106864819Y-98003809D02*
X105864819Y-98003809D01*
X105864819Y-98003809D02*
X106007676Y-97908571D01*
X106007676Y-97908571D02*
X106102914Y-97813333D01*
X106102914Y-97813333D02*
X106150533Y-97718095D01*
X105864819Y-98908571D02*
X105864819Y-99003809D01*
X105864819Y-99003809D02*
X105912438Y-99099047D01*
X105912438Y-99099047D02*
X105960057Y-99146666D01*
X105960057Y-99146666D02*
X106055295Y-99194285D01*
X106055295Y-99194285D02*
X106245771Y-99241904D01*
X106245771Y-99241904D02*
X106483866Y-99241904D01*
X106483866Y-99241904D02*
X106674342Y-99194285D01*
X106674342Y-99194285D02*
X106769580Y-99146666D01*
X106769580Y-99146666D02*
X106817200Y-99099047D01*
X106817200Y-99099047D02*
X106864819Y-99003809D01*
X106864819Y-99003809D02*
X106864819Y-98908571D01*
X106864819Y-98908571D02*
X106817200Y-98813333D01*
X106817200Y-98813333D02*
X106769580Y-98765714D01*
X106769580Y-98765714D02*
X106674342Y-98718095D01*
X106674342Y-98718095D02*
X106483866Y-98670476D01*
X106483866Y-98670476D02*
X106245771Y-98670476D01*
X106245771Y-98670476D02*
X106055295Y-98718095D01*
X106055295Y-98718095D02*
X105960057Y-98765714D01*
X105960057Y-98765714D02*
X105912438Y-98813333D01*
X105912438Y-98813333D02*
X105864819Y-98908571D01*
X94699580Y-100607142D02*
X94747200Y-100559523D01*
X94747200Y-100559523D02*
X94794819Y-100416666D01*
X94794819Y-100416666D02*
X94794819Y-100321428D01*
X94794819Y-100321428D02*
X94747200Y-100178571D01*
X94747200Y-100178571D02*
X94651961Y-100083333D01*
X94651961Y-100083333D02*
X94556723Y-100035714D01*
X94556723Y-100035714D02*
X94366247Y-99988095D01*
X94366247Y-99988095D02*
X94223390Y-99988095D01*
X94223390Y-99988095D02*
X94032914Y-100035714D01*
X94032914Y-100035714D02*
X93937676Y-100083333D01*
X93937676Y-100083333D02*
X93842438Y-100178571D01*
X93842438Y-100178571D02*
X93794819Y-100321428D01*
X93794819Y-100321428D02*
X93794819Y-100416666D01*
X93794819Y-100416666D02*
X93842438Y-100559523D01*
X93842438Y-100559523D02*
X93890057Y-100607142D01*
X93890057Y-100988095D02*
X93842438Y-101035714D01*
X93842438Y-101035714D02*
X93794819Y-101130952D01*
X93794819Y-101130952D02*
X93794819Y-101369047D01*
X93794819Y-101369047D02*
X93842438Y-101464285D01*
X93842438Y-101464285D02*
X93890057Y-101511904D01*
X93890057Y-101511904D02*
X93985295Y-101559523D01*
X93985295Y-101559523D02*
X94080533Y-101559523D01*
X94080533Y-101559523D02*
X94223390Y-101511904D01*
X94223390Y-101511904D02*
X94794819Y-100940476D01*
X94794819Y-100940476D02*
X94794819Y-101559523D01*
X94128152Y-102416666D02*
X94794819Y-102416666D01*
X93747200Y-102178571D02*
X94461485Y-101940476D01*
X94461485Y-101940476D02*
X94461485Y-102559523D01*
X100642857Y-102019580D02*
X100690476Y-102067200D01*
X100690476Y-102067200D02*
X100833333Y-102114819D01*
X100833333Y-102114819D02*
X100928571Y-102114819D01*
X100928571Y-102114819D02*
X101071428Y-102067200D01*
X101071428Y-102067200D02*
X101166666Y-101971961D01*
X101166666Y-101971961D02*
X101214285Y-101876723D01*
X101214285Y-101876723D02*
X101261904Y-101686247D01*
X101261904Y-101686247D02*
X101261904Y-101543390D01*
X101261904Y-101543390D02*
X101214285Y-101352914D01*
X101214285Y-101352914D02*
X101166666Y-101257676D01*
X101166666Y-101257676D02*
X101071428Y-101162438D01*
X101071428Y-101162438D02*
X100928571Y-101114819D01*
X100928571Y-101114819D02*
X100833333Y-101114819D01*
X100833333Y-101114819D02*
X100690476Y-101162438D01*
X100690476Y-101162438D02*
X100642857Y-101210057D01*
X100261904Y-101210057D02*
X100214285Y-101162438D01*
X100214285Y-101162438D02*
X100119047Y-101114819D01*
X100119047Y-101114819D02*
X99880952Y-101114819D01*
X99880952Y-101114819D02*
X99785714Y-101162438D01*
X99785714Y-101162438D02*
X99738095Y-101210057D01*
X99738095Y-101210057D02*
X99690476Y-101305295D01*
X99690476Y-101305295D02*
X99690476Y-101400533D01*
X99690476Y-101400533D02*
X99738095Y-101543390D01*
X99738095Y-101543390D02*
X100309523Y-102114819D01*
X100309523Y-102114819D02*
X99690476Y-102114819D01*
X99357142Y-101114819D02*
X98738095Y-101114819D01*
X98738095Y-101114819D02*
X99071428Y-101495771D01*
X99071428Y-101495771D02*
X98928571Y-101495771D01*
X98928571Y-101495771D02*
X98833333Y-101543390D01*
X98833333Y-101543390D02*
X98785714Y-101591009D01*
X98785714Y-101591009D02*
X98738095Y-101686247D01*
X98738095Y-101686247D02*
X98738095Y-101924342D01*
X98738095Y-101924342D02*
X98785714Y-102019580D01*
X98785714Y-102019580D02*
X98833333Y-102067200D01*
X98833333Y-102067200D02*
X98928571Y-102114819D01*
X98928571Y-102114819D02*
X99214285Y-102114819D01*
X99214285Y-102114819D02*
X99309523Y-102067200D01*
X99309523Y-102067200D02*
X99357142Y-102019580D01*
X101359580Y-105583333D02*
X101407200Y-105535714D01*
X101407200Y-105535714D02*
X101454819Y-105392857D01*
X101454819Y-105392857D02*
X101454819Y-105297619D01*
X101454819Y-105297619D02*
X101407200Y-105154762D01*
X101407200Y-105154762D02*
X101311961Y-105059524D01*
X101311961Y-105059524D02*
X101216723Y-105011905D01*
X101216723Y-105011905D02*
X101026247Y-104964286D01*
X101026247Y-104964286D02*
X100883390Y-104964286D01*
X100883390Y-104964286D02*
X100692914Y-105011905D01*
X100692914Y-105011905D02*
X100597676Y-105059524D01*
X100597676Y-105059524D02*
X100502438Y-105154762D01*
X100502438Y-105154762D02*
X100454819Y-105297619D01*
X100454819Y-105297619D02*
X100454819Y-105392857D01*
X100454819Y-105392857D02*
X100502438Y-105535714D01*
X100502438Y-105535714D02*
X100550057Y-105583333D01*
X100454819Y-105916667D02*
X100454819Y-106535714D01*
X100454819Y-106535714D02*
X100835771Y-106202381D01*
X100835771Y-106202381D02*
X100835771Y-106345238D01*
X100835771Y-106345238D02*
X100883390Y-106440476D01*
X100883390Y-106440476D02*
X100931009Y-106488095D01*
X100931009Y-106488095D02*
X101026247Y-106535714D01*
X101026247Y-106535714D02*
X101264342Y-106535714D01*
X101264342Y-106535714D02*
X101359580Y-106488095D01*
X101359580Y-106488095D02*
X101407200Y-106440476D01*
X101407200Y-106440476D02*
X101454819Y-106345238D01*
X101454819Y-106345238D02*
X101454819Y-106059524D01*
X101454819Y-106059524D02*
X101407200Y-105964286D01*
X101407200Y-105964286D02*
X101359580Y-105916667D01*
X104666666Y-109769580D02*
X104714285Y-109817200D01*
X104714285Y-109817200D02*
X104857142Y-109864819D01*
X104857142Y-109864819D02*
X104952380Y-109864819D01*
X104952380Y-109864819D02*
X105095237Y-109817200D01*
X105095237Y-109817200D02*
X105190475Y-109721961D01*
X105190475Y-109721961D02*
X105238094Y-109626723D01*
X105238094Y-109626723D02*
X105285713Y-109436247D01*
X105285713Y-109436247D02*
X105285713Y-109293390D01*
X105285713Y-109293390D02*
X105238094Y-109102914D01*
X105238094Y-109102914D02*
X105190475Y-109007676D01*
X105190475Y-109007676D02*
X105095237Y-108912438D01*
X105095237Y-108912438D02*
X104952380Y-108864819D01*
X104952380Y-108864819D02*
X104857142Y-108864819D01*
X104857142Y-108864819D02*
X104714285Y-108912438D01*
X104714285Y-108912438D02*
X104666666Y-108960057D01*
X103714285Y-109864819D02*
X104285713Y-109864819D01*
X103999999Y-109864819D02*
X103999999Y-108864819D01*
X103999999Y-108864819D02*
X104095237Y-109007676D01*
X104095237Y-109007676D02*
X104190475Y-109102914D01*
X104190475Y-109102914D02*
X104285713Y-109150533D01*
X109622857Y-109449580D02*
X109670476Y-109497200D01*
X109670476Y-109497200D02*
X109813333Y-109544819D01*
X109813333Y-109544819D02*
X109908571Y-109544819D01*
X109908571Y-109544819D02*
X110051428Y-109497200D01*
X110051428Y-109497200D02*
X110146666Y-109401961D01*
X110146666Y-109401961D02*
X110194285Y-109306723D01*
X110194285Y-109306723D02*
X110241904Y-109116247D01*
X110241904Y-109116247D02*
X110241904Y-108973390D01*
X110241904Y-108973390D02*
X110194285Y-108782914D01*
X110194285Y-108782914D02*
X110146666Y-108687676D01*
X110146666Y-108687676D02*
X110051428Y-108592438D01*
X110051428Y-108592438D02*
X109908571Y-108544819D01*
X109908571Y-108544819D02*
X109813333Y-108544819D01*
X109813333Y-108544819D02*
X109670476Y-108592438D01*
X109670476Y-108592438D02*
X109622857Y-108640057D01*
X108670476Y-109544819D02*
X109241904Y-109544819D01*
X108956190Y-109544819D02*
X108956190Y-108544819D01*
X108956190Y-108544819D02*
X109051428Y-108687676D01*
X109051428Y-108687676D02*
X109146666Y-108782914D01*
X109146666Y-108782914D02*
X109241904Y-108830533D01*
X107765714Y-108544819D02*
X108241904Y-108544819D01*
X108241904Y-108544819D02*
X108289523Y-109021009D01*
X108289523Y-109021009D02*
X108241904Y-108973390D01*
X108241904Y-108973390D02*
X108146666Y-108925771D01*
X108146666Y-108925771D02*
X107908571Y-108925771D01*
X107908571Y-108925771D02*
X107813333Y-108973390D01*
X107813333Y-108973390D02*
X107765714Y-109021009D01*
X107765714Y-109021009D02*
X107718095Y-109116247D01*
X107718095Y-109116247D02*
X107718095Y-109354342D01*
X107718095Y-109354342D02*
X107765714Y-109449580D01*
X107765714Y-109449580D02*
X107813333Y-109497200D01*
X107813333Y-109497200D02*
X107908571Y-109544819D01*
X107908571Y-109544819D02*
X108146666Y-109544819D01*
X108146666Y-109544819D02*
X108241904Y-109497200D01*
X108241904Y-109497200D02*
X108289523Y-109449580D01*
X113432857Y-108019580D02*
X113480476Y-108067200D01*
X113480476Y-108067200D02*
X113623333Y-108114819D01*
X113623333Y-108114819D02*
X113718571Y-108114819D01*
X113718571Y-108114819D02*
X113861428Y-108067200D01*
X113861428Y-108067200D02*
X113956666Y-107971961D01*
X113956666Y-107971961D02*
X114004285Y-107876723D01*
X114004285Y-107876723D02*
X114051904Y-107686247D01*
X114051904Y-107686247D02*
X114051904Y-107543390D01*
X114051904Y-107543390D02*
X114004285Y-107352914D01*
X114004285Y-107352914D02*
X113956666Y-107257676D01*
X113956666Y-107257676D02*
X113861428Y-107162438D01*
X113861428Y-107162438D02*
X113718571Y-107114819D01*
X113718571Y-107114819D02*
X113623333Y-107114819D01*
X113623333Y-107114819D02*
X113480476Y-107162438D01*
X113480476Y-107162438D02*
X113432857Y-107210057D01*
X112480476Y-108114819D02*
X113051904Y-108114819D01*
X112766190Y-108114819D02*
X112766190Y-107114819D01*
X112766190Y-107114819D02*
X112861428Y-107257676D01*
X112861428Y-107257676D02*
X112956666Y-107352914D01*
X112956666Y-107352914D02*
X113051904Y-107400533D01*
X112004285Y-108114819D02*
X111813809Y-108114819D01*
X111813809Y-108114819D02*
X111718571Y-108067200D01*
X111718571Y-108067200D02*
X111670952Y-108019580D01*
X111670952Y-108019580D02*
X111575714Y-107876723D01*
X111575714Y-107876723D02*
X111528095Y-107686247D01*
X111528095Y-107686247D02*
X111528095Y-107305295D01*
X111528095Y-107305295D02*
X111575714Y-107210057D01*
X111575714Y-107210057D02*
X111623333Y-107162438D01*
X111623333Y-107162438D02*
X111718571Y-107114819D01*
X111718571Y-107114819D02*
X111909047Y-107114819D01*
X111909047Y-107114819D02*
X112004285Y-107162438D01*
X112004285Y-107162438D02*
X112051904Y-107210057D01*
X112051904Y-107210057D02*
X112099523Y-107305295D01*
X112099523Y-107305295D02*
X112099523Y-107543390D01*
X112099523Y-107543390D02*
X112051904Y-107638628D01*
X112051904Y-107638628D02*
X112004285Y-107686247D01*
X112004285Y-107686247D02*
X111909047Y-107733866D01*
X111909047Y-107733866D02*
X111718571Y-107733866D01*
X111718571Y-107733866D02*
X111623333Y-107686247D01*
X111623333Y-107686247D02*
X111575714Y-107638628D01*
X111575714Y-107638628D02*
X111528095Y-107543390D01*
X113432857Y-113019580D02*
X113480476Y-113067200D01*
X113480476Y-113067200D02*
X113623333Y-113114819D01*
X113623333Y-113114819D02*
X113718571Y-113114819D01*
X113718571Y-113114819D02*
X113861428Y-113067200D01*
X113861428Y-113067200D02*
X113956666Y-112971961D01*
X113956666Y-112971961D02*
X114004285Y-112876723D01*
X114004285Y-112876723D02*
X114051904Y-112686247D01*
X114051904Y-112686247D02*
X114051904Y-112543390D01*
X114051904Y-112543390D02*
X114004285Y-112352914D01*
X114004285Y-112352914D02*
X113956666Y-112257676D01*
X113956666Y-112257676D02*
X113861428Y-112162438D01*
X113861428Y-112162438D02*
X113718571Y-112114819D01*
X113718571Y-112114819D02*
X113623333Y-112114819D01*
X113623333Y-112114819D02*
X113480476Y-112162438D01*
X113480476Y-112162438D02*
X113432857Y-112210057D01*
X113051904Y-112210057D02*
X113004285Y-112162438D01*
X113004285Y-112162438D02*
X112909047Y-112114819D01*
X112909047Y-112114819D02*
X112670952Y-112114819D01*
X112670952Y-112114819D02*
X112575714Y-112162438D01*
X112575714Y-112162438D02*
X112528095Y-112210057D01*
X112528095Y-112210057D02*
X112480476Y-112305295D01*
X112480476Y-112305295D02*
X112480476Y-112400533D01*
X112480476Y-112400533D02*
X112528095Y-112543390D01*
X112528095Y-112543390D02*
X113099523Y-113114819D01*
X113099523Y-113114819D02*
X112480476Y-113114819D01*
X111861428Y-112114819D02*
X111766190Y-112114819D01*
X111766190Y-112114819D02*
X111670952Y-112162438D01*
X111670952Y-112162438D02*
X111623333Y-112210057D01*
X111623333Y-112210057D02*
X111575714Y-112305295D01*
X111575714Y-112305295D02*
X111528095Y-112495771D01*
X111528095Y-112495771D02*
X111528095Y-112733866D01*
X111528095Y-112733866D02*
X111575714Y-112924342D01*
X111575714Y-112924342D02*
X111623333Y-113019580D01*
X111623333Y-113019580D02*
X111670952Y-113067200D01*
X111670952Y-113067200D02*
X111766190Y-113114819D01*
X111766190Y-113114819D02*
X111861428Y-113114819D01*
X111861428Y-113114819D02*
X111956666Y-113067200D01*
X111956666Y-113067200D02*
X112004285Y-113019580D01*
X112004285Y-113019580D02*
X112051904Y-112924342D01*
X112051904Y-112924342D02*
X112099523Y-112733866D01*
X112099523Y-112733866D02*
X112099523Y-112495771D01*
X112099523Y-112495771D02*
X112051904Y-112305295D01*
X112051904Y-112305295D02*
X112004285Y-112210057D01*
X112004285Y-112210057D02*
X111956666Y-112162438D01*
X111956666Y-112162438D02*
X111861428Y-112114819D01*
X96142857Y-111109580D02*
X96190476Y-111157200D01*
X96190476Y-111157200D02*
X96333333Y-111204819D01*
X96333333Y-111204819D02*
X96428571Y-111204819D01*
X96428571Y-111204819D02*
X96571428Y-111157200D01*
X96571428Y-111157200D02*
X96666666Y-111061961D01*
X96666666Y-111061961D02*
X96714285Y-110966723D01*
X96714285Y-110966723D02*
X96761904Y-110776247D01*
X96761904Y-110776247D02*
X96761904Y-110633390D01*
X96761904Y-110633390D02*
X96714285Y-110442914D01*
X96714285Y-110442914D02*
X96666666Y-110347676D01*
X96666666Y-110347676D02*
X96571428Y-110252438D01*
X96571428Y-110252438D02*
X96428571Y-110204819D01*
X96428571Y-110204819D02*
X96333333Y-110204819D01*
X96333333Y-110204819D02*
X96190476Y-110252438D01*
X96190476Y-110252438D02*
X96142857Y-110300057D01*
X95761904Y-110300057D02*
X95714285Y-110252438D01*
X95714285Y-110252438D02*
X95619047Y-110204819D01*
X95619047Y-110204819D02*
X95380952Y-110204819D01*
X95380952Y-110204819D02*
X95285714Y-110252438D01*
X95285714Y-110252438D02*
X95238095Y-110300057D01*
X95238095Y-110300057D02*
X95190476Y-110395295D01*
X95190476Y-110395295D02*
X95190476Y-110490533D01*
X95190476Y-110490533D02*
X95238095Y-110633390D01*
X95238095Y-110633390D02*
X95809523Y-111204819D01*
X95809523Y-111204819D02*
X95190476Y-111204819D01*
X94333333Y-110204819D02*
X94523809Y-110204819D01*
X94523809Y-110204819D02*
X94619047Y-110252438D01*
X94619047Y-110252438D02*
X94666666Y-110300057D01*
X94666666Y-110300057D02*
X94761904Y-110442914D01*
X94761904Y-110442914D02*
X94809523Y-110633390D01*
X94809523Y-110633390D02*
X94809523Y-111014342D01*
X94809523Y-111014342D02*
X94761904Y-111109580D01*
X94761904Y-111109580D02*
X94714285Y-111157200D01*
X94714285Y-111157200D02*
X94619047Y-111204819D01*
X94619047Y-111204819D02*
X94428571Y-111204819D01*
X94428571Y-111204819D02*
X94333333Y-111157200D01*
X94333333Y-111157200D02*
X94285714Y-111109580D01*
X94285714Y-111109580D02*
X94238095Y-111014342D01*
X94238095Y-111014342D02*
X94238095Y-110776247D01*
X94238095Y-110776247D02*
X94285714Y-110681009D01*
X94285714Y-110681009D02*
X94333333Y-110633390D01*
X94333333Y-110633390D02*
X94428571Y-110585771D01*
X94428571Y-110585771D02*
X94619047Y-110585771D01*
X94619047Y-110585771D02*
X94714285Y-110633390D01*
X94714285Y-110633390D02*
X94761904Y-110681009D01*
X94761904Y-110681009D02*
X94809523Y-110776247D01*
X102142857Y-103109580D02*
X102190476Y-103157200D01*
X102190476Y-103157200D02*
X102333333Y-103204819D01*
X102333333Y-103204819D02*
X102428571Y-103204819D01*
X102428571Y-103204819D02*
X102571428Y-103157200D01*
X102571428Y-103157200D02*
X102666666Y-103061961D01*
X102666666Y-103061961D02*
X102714285Y-102966723D01*
X102714285Y-102966723D02*
X102761904Y-102776247D01*
X102761904Y-102776247D02*
X102761904Y-102633390D01*
X102761904Y-102633390D02*
X102714285Y-102442914D01*
X102714285Y-102442914D02*
X102666666Y-102347676D01*
X102666666Y-102347676D02*
X102571428Y-102252438D01*
X102571428Y-102252438D02*
X102428571Y-102204819D01*
X102428571Y-102204819D02*
X102333333Y-102204819D01*
X102333333Y-102204819D02*
X102190476Y-102252438D01*
X102190476Y-102252438D02*
X102142857Y-102300057D01*
X101809523Y-102204819D02*
X101190476Y-102204819D01*
X101190476Y-102204819D02*
X101523809Y-102585771D01*
X101523809Y-102585771D02*
X101380952Y-102585771D01*
X101380952Y-102585771D02*
X101285714Y-102633390D01*
X101285714Y-102633390D02*
X101238095Y-102681009D01*
X101238095Y-102681009D02*
X101190476Y-102776247D01*
X101190476Y-102776247D02*
X101190476Y-103014342D01*
X101190476Y-103014342D02*
X101238095Y-103109580D01*
X101238095Y-103109580D02*
X101285714Y-103157200D01*
X101285714Y-103157200D02*
X101380952Y-103204819D01*
X101380952Y-103204819D02*
X101666666Y-103204819D01*
X101666666Y-103204819D02*
X101761904Y-103157200D01*
X101761904Y-103157200D02*
X101809523Y-103109580D01*
X100285714Y-102204819D02*
X100761904Y-102204819D01*
X100761904Y-102204819D02*
X100809523Y-102681009D01*
X100809523Y-102681009D02*
X100761904Y-102633390D01*
X100761904Y-102633390D02*
X100666666Y-102585771D01*
X100666666Y-102585771D02*
X100428571Y-102585771D01*
X100428571Y-102585771D02*
X100333333Y-102633390D01*
X100333333Y-102633390D02*
X100285714Y-102681009D01*
X100285714Y-102681009D02*
X100238095Y-102776247D01*
X100238095Y-102776247D02*
X100238095Y-103014342D01*
X100238095Y-103014342D02*
X100285714Y-103109580D01*
X100285714Y-103109580D02*
X100333333Y-103157200D01*
X100333333Y-103157200D02*
X100428571Y-103204819D01*
X100428571Y-103204819D02*
X100666666Y-103204819D01*
X100666666Y-103204819D02*
X100761904Y-103157200D01*
X100761904Y-103157200D02*
X100809523Y-103109580D01*
X102019580Y-97853333D02*
X102067200Y-97805714D01*
X102067200Y-97805714D02*
X102114819Y-97662857D01*
X102114819Y-97662857D02*
X102114819Y-97567619D01*
X102114819Y-97567619D02*
X102067200Y-97424762D01*
X102067200Y-97424762D02*
X101971961Y-97329524D01*
X101971961Y-97329524D02*
X101876723Y-97281905D01*
X101876723Y-97281905D02*
X101686247Y-97234286D01*
X101686247Y-97234286D02*
X101543390Y-97234286D01*
X101543390Y-97234286D02*
X101352914Y-97281905D01*
X101352914Y-97281905D02*
X101257676Y-97329524D01*
X101257676Y-97329524D02*
X101162438Y-97424762D01*
X101162438Y-97424762D02*
X101114819Y-97567619D01*
X101114819Y-97567619D02*
X101114819Y-97662857D01*
X101114819Y-97662857D02*
X101162438Y-97805714D01*
X101162438Y-97805714D02*
X101210057Y-97853333D01*
X101114819Y-98758095D02*
X101114819Y-98281905D01*
X101114819Y-98281905D02*
X101591009Y-98234286D01*
X101591009Y-98234286D02*
X101543390Y-98281905D01*
X101543390Y-98281905D02*
X101495771Y-98377143D01*
X101495771Y-98377143D02*
X101495771Y-98615238D01*
X101495771Y-98615238D02*
X101543390Y-98710476D01*
X101543390Y-98710476D02*
X101591009Y-98758095D01*
X101591009Y-98758095D02*
X101686247Y-98805714D01*
X101686247Y-98805714D02*
X101924342Y-98805714D01*
X101924342Y-98805714D02*
X102019580Y-98758095D01*
X102019580Y-98758095D02*
X102067200Y-98710476D01*
X102067200Y-98710476D02*
X102114819Y-98615238D01*
X102114819Y-98615238D02*
X102114819Y-98377143D01*
X102114819Y-98377143D02*
X102067200Y-98281905D01*
X102067200Y-98281905D02*
X102019580Y-98234286D01*
X113432857Y-105519580D02*
X113480476Y-105567200D01*
X113480476Y-105567200D02*
X113623333Y-105614819D01*
X113623333Y-105614819D02*
X113718571Y-105614819D01*
X113718571Y-105614819D02*
X113861428Y-105567200D01*
X113861428Y-105567200D02*
X113956666Y-105471961D01*
X113956666Y-105471961D02*
X114004285Y-105376723D01*
X114004285Y-105376723D02*
X114051904Y-105186247D01*
X114051904Y-105186247D02*
X114051904Y-105043390D01*
X114051904Y-105043390D02*
X114004285Y-104852914D01*
X114004285Y-104852914D02*
X113956666Y-104757676D01*
X113956666Y-104757676D02*
X113861428Y-104662438D01*
X113861428Y-104662438D02*
X113718571Y-104614819D01*
X113718571Y-104614819D02*
X113623333Y-104614819D01*
X113623333Y-104614819D02*
X113480476Y-104662438D01*
X113480476Y-104662438D02*
X113432857Y-104710057D01*
X113051904Y-104710057D02*
X113004285Y-104662438D01*
X113004285Y-104662438D02*
X112909047Y-104614819D01*
X112909047Y-104614819D02*
X112670952Y-104614819D01*
X112670952Y-104614819D02*
X112575714Y-104662438D01*
X112575714Y-104662438D02*
X112528095Y-104710057D01*
X112528095Y-104710057D02*
X112480476Y-104805295D01*
X112480476Y-104805295D02*
X112480476Y-104900533D01*
X112480476Y-104900533D02*
X112528095Y-105043390D01*
X112528095Y-105043390D02*
X113099523Y-105614819D01*
X113099523Y-105614819D02*
X112480476Y-105614819D01*
X111528095Y-105614819D02*
X112099523Y-105614819D01*
X111813809Y-105614819D02*
X111813809Y-104614819D01*
X111813809Y-104614819D02*
X111909047Y-104757676D01*
X111909047Y-104757676D02*
X112004285Y-104852914D01*
X112004285Y-104852914D02*
X112099523Y-104900533D01*
X108892857Y-113769580D02*
X108940476Y-113817200D01*
X108940476Y-113817200D02*
X109083333Y-113864819D01*
X109083333Y-113864819D02*
X109178571Y-113864819D01*
X109178571Y-113864819D02*
X109321428Y-113817200D01*
X109321428Y-113817200D02*
X109416666Y-113721961D01*
X109416666Y-113721961D02*
X109464285Y-113626723D01*
X109464285Y-113626723D02*
X109511904Y-113436247D01*
X109511904Y-113436247D02*
X109511904Y-113293390D01*
X109511904Y-113293390D02*
X109464285Y-113102914D01*
X109464285Y-113102914D02*
X109416666Y-113007676D01*
X109416666Y-113007676D02*
X109321428Y-112912438D01*
X109321428Y-112912438D02*
X109178571Y-112864819D01*
X109178571Y-112864819D02*
X109083333Y-112864819D01*
X109083333Y-112864819D02*
X108940476Y-112912438D01*
X108940476Y-112912438D02*
X108892857Y-112960057D01*
X107940476Y-113864819D02*
X108511904Y-113864819D01*
X108226190Y-113864819D02*
X108226190Y-112864819D01*
X108226190Y-112864819D02*
X108321428Y-113007676D01*
X108321428Y-113007676D02*
X108416666Y-113102914D01*
X108416666Y-113102914D02*
X108511904Y-113150533D01*
X107369047Y-113293390D02*
X107464285Y-113245771D01*
X107464285Y-113245771D02*
X107511904Y-113198152D01*
X107511904Y-113198152D02*
X107559523Y-113102914D01*
X107559523Y-113102914D02*
X107559523Y-113055295D01*
X107559523Y-113055295D02*
X107511904Y-112960057D01*
X107511904Y-112960057D02*
X107464285Y-112912438D01*
X107464285Y-112912438D02*
X107369047Y-112864819D01*
X107369047Y-112864819D02*
X107178571Y-112864819D01*
X107178571Y-112864819D02*
X107083333Y-112912438D01*
X107083333Y-112912438D02*
X107035714Y-112960057D01*
X107035714Y-112960057D02*
X106988095Y-113055295D01*
X106988095Y-113055295D02*
X106988095Y-113102914D01*
X106988095Y-113102914D02*
X107035714Y-113198152D01*
X107035714Y-113198152D02*
X107083333Y-113245771D01*
X107083333Y-113245771D02*
X107178571Y-113293390D01*
X107178571Y-113293390D02*
X107369047Y-113293390D01*
X107369047Y-113293390D02*
X107464285Y-113341009D01*
X107464285Y-113341009D02*
X107511904Y-113388628D01*
X107511904Y-113388628D02*
X107559523Y-113483866D01*
X107559523Y-113483866D02*
X107559523Y-113674342D01*
X107559523Y-113674342D02*
X107511904Y-113769580D01*
X107511904Y-113769580D02*
X107464285Y-113817200D01*
X107464285Y-113817200D02*
X107369047Y-113864819D01*
X107369047Y-113864819D02*
X107178571Y-113864819D01*
X107178571Y-113864819D02*
X107083333Y-113817200D01*
X107083333Y-113817200D02*
X107035714Y-113769580D01*
X107035714Y-113769580D02*
X106988095Y-113674342D01*
X106988095Y-113674342D02*
X106988095Y-113483866D01*
X106988095Y-113483866D02*
X107035714Y-113388628D01*
X107035714Y-113388628D02*
X107083333Y-113341009D01*
X107083333Y-113341009D02*
X107178571Y-113293390D01*
X92372857Y-108199580D02*
X92420476Y-108247200D01*
X92420476Y-108247200D02*
X92563333Y-108294819D01*
X92563333Y-108294819D02*
X92658571Y-108294819D01*
X92658571Y-108294819D02*
X92801428Y-108247200D01*
X92801428Y-108247200D02*
X92896666Y-108151961D01*
X92896666Y-108151961D02*
X92944285Y-108056723D01*
X92944285Y-108056723D02*
X92991904Y-107866247D01*
X92991904Y-107866247D02*
X92991904Y-107723390D01*
X92991904Y-107723390D02*
X92944285Y-107532914D01*
X92944285Y-107532914D02*
X92896666Y-107437676D01*
X92896666Y-107437676D02*
X92801428Y-107342438D01*
X92801428Y-107342438D02*
X92658571Y-107294819D01*
X92658571Y-107294819D02*
X92563333Y-107294819D01*
X92563333Y-107294819D02*
X92420476Y-107342438D01*
X92420476Y-107342438D02*
X92372857Y-107390057D01*
X92039523Y-107294819D02*
X91420476Y-107294819D01*
X91420476Y-107294819D02*
X91753809Y-107675771D01*
X91753809Y-107675771D02*
X91610952Y-107675771D01*
X91610952Y-107675771D02*
X91515714Y-107723390D01*
X91515714Y-107723390D02*
X91468095Y-107771009D01*
X91468095Y-107771009D02*
X91420476Y-107866247D01*
X91420476Y-107866247D02*
X91420476Y-108104342D01*
X91420476Y-108104342D02*
X91468095Y-108199580D01*
X91468095Y-108199580D02*
X91515714Y-108247200D01*
X91515714Y-108247200D02*
X91610952Y-108294819D01*
X91610952Y-108294819D02*
X91896666Y-108294819D01*
X91896666Y-108294819D02*
X91991904Y-108247200D01*
X91991904Y-108247200D02*
X92039523Y-108199580D01*
X90563333Y-107628152D02*
X90563333Y-108294819D01*
X90801428Y-107247200D02*
X91039523Y-107961485D01*
X91039523Y-107961485D02*
X90420476Y-107961485D01*
X99519580Y-97853333D02*
X99567200Y-97805714D01*
X99567200Y-97805714D02*
X99614819Y-97662857D01*
X99614819Y-97662857D02*
X99614819Y-97567619D01*
X99614819Y-97567619D02*
X99567200Y-97424762D01*
X99567200Y-97424762D02*
X99471961Y-97329524D01*
X99471961Y-97329524D02*
X99376723Y-97281905D01*
X99376723Y-97281905D02*
X99186247Y-97234286D01*
X99186247Y-97234286D02*
X99043390Y-97234286D01*
X99043390Y-97234286D02*
X98852914Y-97281905D01*
X98852914Y-97281905D02*
X98757676Y-97329524D01*
X98757676Y-97329524D02*
X98662438Y-97424762D01*
X98662438Y-97424762D02*
X98614819Y-97567619D01*
X98614819Y-97567619D02*
X98614819Y-97662857D01*
X98614819Y-97662857D02*
X98662438Y-97805714D01*
X98662438Y-97805714D02*
X98710057Y-97853333D01*
X98948152Y-98710476D02*
X99614819Y-98710476D01*
X98567200Y-98472381D02*
X99281485Y-98234286D01*
X99281485Y-98234286D02*
X99281485Y-98853333D01*
X104392857Y-114699580D02*
X104440476Y-114747200D01*
X104440476Y-114747200D02*
X104583333Y-114794819D01*
X104583333Y-114794819D02*
X104678571Y-114794819D01*
X104678571Y-114794819D02*
X104821428Y-114747200D01*
X104821428Y-114747200D02*
X104916666Y-114651961D01*
X104916666Y-114651961D02*
X104964285Y-114556723D01*
X104964285Y-114556723D02*
X105011904Y-114366247D01*
X105011904Y-114366247D02*
X105011904Y-114223390D01*
X105011904Y-114223390D02*
X104964285Y-114032914D01*
X104964285Y-114032914D02*
X104916666Y-113937676D01*
X104916666Y-113937676D02*
X104821428Y-113842438D01*
X104821428Y-113842438D02*
X104678571Y-113794819D01*
X104678571Y-113794819D02*
X104583333Y-113794819D01*
X104583333Y-113794819D02*
X104440476Y-113842438D01*
X104440476Y-113842438D02*
X104392857Y-113890057D01*
X104059523Y-113794819D02*
X103440476Y-113794819D01*
X103440476Y-113794819D02*
X103773809Y-114175771D01*
X103773809Y-114175771D02*
X103630952Y-114175771D01*
X103630952Y-114175771D02*
X103535714Y-114223390D01*
X103535714Y-114223390D02*
X103488095Y-114271009D01*
X103488095Y-114271009D02*
X103440476Y-114366247D01*
X103440476Y-114366247D02*
X103440476Y-114604342D01*
X103440476Y-114604342D02*
X103488095Y-114699580D01*
X103488095Y-114699580D02*
X103535714Y-114747200D01*
X103535714Y-114747200D02*
X103630952Y-114794819D01*
X103630952Y-114794819D02*
X103916666Y-114794819D01*
X103916666Y-114794819D02*
X104011904Y-114747200D01*
X104011904Y-114747200D02*
X104059523Y-114699580D01*
X102583333Y-113794819D02*
X102773809Y-113794819D01*
X102773809Y-113794819D02*
X102869047Y-113842438D01*
X102869047Y-113842438D02*
X102916666Y-113890057D01*
X102916666Y-113890057D02*
X103011904Y-114032914D01*
X103011904Y-114032914D02*
X103059523Y-114223390D01*
X103059523Y-114223390D02*
X103059523Y-114604342D01*
X103059523Y-114604342D02*
X103011904Y-114699580D01*
X103011904Y-114699580D02*
X102964285Y-114747200D01*
X102964285Y-114747200D02*
X102869047Y-114794819D01*
X102869047Y-114794819D02*
X102678571Y-114794819D01*
X102678571Y-114794819D02*
X102583333Y-114747200D01*
X102583333Y-114747200D02*
X102535714Y-114699580D01*
X102535714Y-114699580D02*
X102488095Y-114604342D01*
X102488095Y-114604342D02*
X102488095Y-114366247D01*
X102488095Y-114366247D02*
X102535714Y-114271009D01*
X102535714Y-114271009D02*
X102583333Y-114223390D01*
X102583333Y-114223390D02*
X102678571Y-114175771D01*
X102678571Y-114175771D02*
X102869047Y-114175771D01*
X102869047Y-114175771D02*
X102964285Y-114223390D01*
X102964285Y-114223390D02*
X103011904Y-114271009D01*
X103011904Y-114271009D02*
X103059523Y-114366247D01*
X105662857Y-104019580D02*
X105710476Y-104067200D01*
X105710476Y-104067200D02*
X105853333Y-104114819D01*
X105853333Y-104114819D02*
X105948571Y-104114819D01*
X105948571Y-104114819D02*
X106091428Y-104067200D01*
X106091428Y-104067200D02*
X106186666Y-103971961D01*
X106186666Y-103971961D02*
X106234285Y-103876723D01*
X106234285Y-103876723D02*
X106281904Y-103686247D01*
X106281904Y-103686247D02*
X106281904Y-103543390D01*
X106281904Y-103543390D02*
X106234285Y-103352914D01*
X106234285Y-103352914D02*
X106186666Y-103257676D01*
X106186666Y-103257676D02*
X106091428Y-103162438D01*
X106091428Y-103162438D02*
X105948571Y-103114819D01*
X105948571Y-103114819D02*
X105853333Y-103114819D01*
X105853333Y-103114819D02*
X105710476Y-103162438D01*
X105710476Y-103162438D02*
X105662857Y-103210057D01*
X105329523Y-103114819D02*
X104710476Y-103114819D01*
X104710476Y-103114819D02*
X105043809Y-103495771D01*
X105043809Y-103495771D02*
X104900952Y-103495771D01*
X104900952Y-103495771D02*
X104805714Y-103543390D01*
X104805714Y-103543390D02*
X104758095Y-103591009D01*
X104758095Y-103591009D02*
X104710476Y-103686247D01*
X104710476Y-103686247D02*
X104710476Y-103924342D01*
X104710476Y-103924342D02*
X104758095Y-104019580D01*
X104758095Y-104019580D02*
X104805714Y-104067200D01*
X104805714Y-104067200D02*
X104900952Y-104114819D01*
X104900952Y-104114819D02*
X105186666Y-104114819D01*
X105186666Y-104114819D02*
X105281904Y-104067200D01*
X105281904Y-104067200D02*
X105329523Y-104019580D01*
X104377142Y-103114819D02*
X103710476Y-103114819D01*
X103710476Y-103114819D02*
X104139047Y-104114819D01*
X100892857Y-113609580D02*
X100940476Y-113657200D01*
X100940476Y-113657200D02*
X101083333Y-113704819D01*
X101083333Y-113704819D02*
X101178571Y-113704819D01*
X101178571Y-113704819D02*
X101321428Y-113657200D01*
X101321428Y-113657200D02*
X101416666Y-113561961D01*
X101416666Y-113561961D02*
X101464285Y-113466723D01*
X101464285Y-113466723D02*
X101511904Y-113276247D01*
X101511904Y-113276247D02*
X101511904Y-113133390D01*
X101511904Y-113133390D02*
X101464285Y-112942914D01*
X101464285Y-112942914D02*
X101416666Y-112847676D01*
X101416666Y-112847676D02*
X101321428Y-112752438D01*
X101321428Y-112752438D02*
X101178571Y-112704819D01*
X101178571Y-112704819D02*
X101083333Y-112704819D01*
X101083333Y-112704819D02*
X100940476Y-112752438D01*
X100940476Y-112752438D02*
X100892857Y-112800057D01*
X99940476Y-113704819D02*
X100511904Y-113704819D01*
X100226190Y-113704819D02*
X100226190Y-112704819D01*
X100226190Y-112704819D02*
X100321428Y-112847676D01*
X100321428Y-112847676D02*
X100416666Y-112942914D01*
X100416666Y-112942914D02*
X100511904Y-112990533D01*
X99607142Y-112704819D02*
X98940476Y-112704819D01*
X98940476Y-112704819D02*
X99369047Y-113704819D01*
X92392857Y-102949580D02*
X92440476Y-102997200D01*
X92440476Y-102997200D02*
X92583333Y-103044819D01*
X92583333Y-103044819D02*
X92678571Y-103044819D01*
X92678571Y-103044819D02*
X92821428Y-102997200D01*
X92821428Y-102997200D02*
X92916666Y-102901961D01*
X92916666Y-102901961D02*
X92964285Y-102806723D01*
X92964285Y-102806723D02*
X93011904Y-102616247D01*
X93011904Y-102616247D02*
X93011904Y-102473390D01*
X93011904Y-102473390D02*
X92964285Y-102282914D01*
X92964285Y-102282914D02*
X92916666Y-102187676D01*
X92916666Y-102187676D02*
X92821428Y-102092438D01*
X92821428Y-102092438D02*
X92678571Y-102044819D01*
X92678571Y-102044819D02*
X92583333Y-102044819D01*
X92583333Y-102044819D02*
X92440476Y-102092438D01*
X92440476Y-102092438D02*
X92392857Y-102140057D01*
X92059523Y-102044819D02*
X91440476Y-102044819D01*
X91440476Y-102044819D02*
X91773809Y-102425771D01*
X91773809Y-102425771D02*
X91630952Y-102425771D01*
X91630952Y-102425771D02*
X91535714Y-102473390D01*
X91535714Y-102473390D02*
X91488095Y-102521009D01*
X91488095Y-102521009D02*
X91440476Y-102616247D01*
X91440476Y-102616247D02*
X91440476Y-102854342D01*
X91440476Y-102854342D02*
X91488095Y-102949580D01*
X91488095Y-102949580D02*
X91535714Y-102997200D01*
X91535714Y-102997200D02*
X91630952Y-103044819D01*
X91630952Y-103044819D02*
X91916666Y-103044819D01*
X91916666Y-103044819D02*
X92011904Y-102997200D01*
X92011904Y-102997200D02*
X92059523Y-102949580D01*
X90488095Y-103044819D02*
X91059523Y-103044819D01*
X90773809Y-103044819D02*
X90773809Y-102044819D01*
X90773809Y-102044819D02*
X90869047Y-102187676D01*
X90869047Y-102187676D02*
X90964285Y-102282914D01*
X90964285Y-102282914D02*
X91059523Y-102330533D01*
X98642857Y-109699580D02*
X98690476Y-109747200D01*
X98690476Y-109747200D02*
X98833333Y-109794819D01*
X98833333Y-109794819D02*
X98928571Y-109794819D01*
X98928571Y-109794819D02*
X99071428Y-109747200D01*
X99071428Y-109747200D02*
X99166666Y-109651961D01*
X99166666Y-109651961D02*
X99214285Y-109556723D01*
X99214285Y-109556723D02*
X99261904Y-109366247D01*
X99261904Y-109366247D02*
X99261904Y-109223390D01*
X99261904Y-109223390D02*
X99214285Y-109032914D01*
X99214285Y-109032914D02*
X99166666Y-108937676D01*
X99166666Y-108937676D02*
X99071428Y-108842438D01*
X99071428Y-108842438D02*
X98928571Y-108794819D01*
X98928571Y-108794819D02*
X98833333Y-108794819D01*
X98833333Y-108794819D02*
X98690476Y-108842438D01*
X98690476Y-108842438D02*
X98642857Y-108890057D01*
X98261904Y-108890057D02*
X98214285Y-108842438D01*
X98214285Y-108842438D02*
X98119047Y-108794819D01*
X98119047Y-108794819D02*
X97880952Y-108794819D01*
X97880952Y-108794819D02*
X97785714Y-108842438D01*
X97785714Y-108842438D02*
X97738095Y-108890057D01*
X97738095Y-108890057D02*
X97690476Y-108985295D01*
X97690476Y-108985295D02*
X97690476Y-109080533D01*
X97690476Y-109080533D02*
X97738095Y-109223390D01*
X97738095Y-109223390D02*
X98309523Y-109794819D01*
X98309523Y-109794819D02*
X97690476Y-109794819D01*
X97357142Y-108794819D02*
X96690476Y-108794819D01*
X96690476Y-108794819D02*
X97119047Y-109794819D01*
X92392857Y-105699580D02*
X92440476Y-105747200D01*
X92440476Y-105747200D02*
X92583333Y-105794819D01*
X92583333Y-105794819D02*
X92678571Y-105794819D01*
X92678571Y-105794819D02*
X92821428Y-105747200D01*
X92821428Y-105747200D02*
X92916666Y-105651961D01*
X92916666Y-105651961D02*
X92964285Y-105556723D01*
X92964285Y-105556723D02*
X93011904Y-105366247D01*
X93011904Y-105366247D02*
X93011904Y-105223390D01*
X93011904Y-105223390D02*
X92964285Y-105032914D01*
X92964285Y-105032914D02*
X92916666Y-104937676D01*
X92916666Y-104937676D02*
X92821428Y-104842438D01*
X92821428Y-104842438D02*
X92678571Y-104794819D01*
X92678571Y-104794819D02*
X92583333Y-104794819D01*
X92583333Y-104794819D02*
X92440476Y-104842438D01*
X92440476Y-104842438D02*
X92392857Y-104890057D01*
X92059523Y-104794819D02*
X91440476Y-104794819D01*
X91440476Y-104794819D02*
X91773809Y-105175771D01*
X91773809Y-105175771D02*
X91630952Y-105175771D01*
X91630952Y-105175771D02*
X91535714Y-105223390D01*
X91535714Y-105223390D02*
X91488095Y-105271009D01*
X91488095Y-105271009D02*
X91440476Y-105366247D01*
X91440476Y-105366247D02*
X91440476Y-105604342D01*
X91440476Y-105604342D02*
X91488095Y-105699580D01*
X91488095Y-105699580D02*
X91535714Y-105747200D01*
X91535714Y-105747200D02*
X91630952Y-105794819D01*
X91630952Y-105794819D02*
X91916666Y-105794819D01*
X91916666Y-105794819D02*
X92011904Y-105747200D01*
X92011904Y-105747200D02*
X92059523Y-105699580D01*
X91107142Y-104794819D02*
X90488095Y-104794819D01*
X90488095Y-104794819D02*
X90821428Y-105175771D01*
X90821428Y-105175771D02*
X90678571Y-105175771D01*
X90678571Y-105175771D02*
X90583333Y-105223390D01*
X90583333Y-105223390D02*
X90535714Y-105271009D01*
X90535714Y-105271009D02*
X90488095Y-105366247D01*
X90488095Y-105366247D02*
X90488095Y-105604342D01*
X90488095Y-105604342D02*
X90535714Y-105699580D01*
X90535714Y-105699580D02*
X90583333Y-105747200D01*
X90583333Y-105747200D02*
X90678571Y-105794819D01*
X90678571Y-105794819D02*
X90964285Y-105794819D01*
X90964285Y-105794819D02*
X91059523Y-105747200D01*
X91059523Y-105747200D02*
X91107142Y-105699580D01*
X106892857Y-106769580D02*
X106940476Y-106817200D01*
X106940476Y-106817200D02*
X107083333Y-106864819D01*
X107083333Y-106864819D02*
X107178571Y-106864819D01*
X107178571Y-106864819D02*
X107321428Y-106817200D01*
X107321428Y-106817200D02*
X107416666Y-106721961D01*
X107416666Y-106721961D02*
X107464285Y-106626723D01*
X107464285Y-106626723D02*
X107511904Y-106436247D01*
X107511904Y-106436247D02*
X107511904Y-106293390D01*
X107511904Y-106293390D02*
X107464285Y-106102914D01*
X107464285Y-106102914D02*
X107416666Y-106007676D01*
X107416666Y-106007676D02*
X107321428Y-105912438D01*
X107321428Y-105912438D02*
X107178571Y-105864819D01*
X107178571Y-105864819D02*
X107083333Y-105864819D01*
X107083333Y-105864819D02*
X106940476Y-105912438D01*
X106940476Y-105912438D02*
X106892857Y-105960057D01*
X105940476Y-106864819D02*
X106511904Y-106864819D01*
X106226190Y-106864819D02*
X106226190Y-105864819D01*
X106226190Y-105864819D02*
X106321428Y-106007676D01*
X106321428Y-106007676D02*
X106416666Y-106102914D01*
X106416666Y-106102914D02*
X106511904Y-106150533D01*
X105607142Y-105864819D02*
X104988095Y-105864819D01*
X104988095Y-105864819D02*
X105321428Y-106245771D01*
X105321428Y-106245771D02*
X105178571Y-106245771D01*
X105178571Y-106245771D02*
X105083333Y-106293390D01*
X105083333Y-106293390D02*
X105035714Y-106341009D01*
X105035714Y-106341009D02*
X104988095Y-106436247D01*
X104988095Y-106436247D02*
X104988095Y-106674342D01*
X104988095Y-106674342D02*
X105035714Y-106769580D01*
X105035714Y-106769580D02*
X105083333Y-106817200D01*
X105083333Y-106817200D02*
X105178571Y-106864819D01*
X105178571Y-106864819D02*
X105464285Y-106864819D01*
X105464285Y-106864819D02*
X105559523Y-106817200D01*
X105559523Y-106817200D02*
X105607142Y-106769580D01*
X104699580Y-109813333D02*
X104747200Y-109765714D01*
X104747200Y-109765714D02*
X104794819Y-109622857D01*
X104794819Y-109622857D02*
X104794819Y-109527619D01*
X104794819Y-109527619D02*
X104747200Y-109384762D01*
X104747200Y-109384762D02*
X104651961Y-109289524D01*
X104651961Y-109289524D02*
X104556723Y-109241905D01*
X104556723Y-109241905D02*
X104366247Y-109194286D01*
X104366247Y-109194286D02*
X104223390Y-109194286D01*
X104223390Y-109194286D02*
X104032914Y-109241905D01*
X104032914Y-109241905D02*
X103937676Y-109289524D01*
X103937676Y-109289524D02*
X103842438Y-109384762D01*
X103842438Y-109384762D02*
X103794819Y-109527619D01*
X103794819Y-109527619D02*
X103794819Y-109622857D01*
X103794819Y-109622857D02*
X103842438Y-109765714D01*
X103842438Y-109765714D02*
X103890057Y-109813333D01*
X103890057Y-110194286D02*
X103842438Y-110241905D01*
X103842438Y-110241905D02*
X103794819Y-110337143D01*
X103794819Y-110337143D02*
X103794819Y-110575238D01*
X103794819Y-110575238D02*
X103842438Y-110670476D01*
X103842438Y-110670476D02*
X103890057Y-110718095D01*
X103890057Y-110718095D02*
X103985295Y-110765714D01*
X103985295Y-110765714D02*
X104080533Y-110765714D01*
X104080533Y-110765714D02*
X104223390Y-110718095D01*
X104223390Y-110718095D02*
X104794819Y-110146667D01*
X104794819Y-110146667D02*
X104794819Y-110765714D01*
X100019580Y-104857142D02*
X100067200Y-104809523D01*
X100067200Y-104809523D02*
X100114819Y-104666666D01*
X100114819Y-104666666D02*
X100114819Y-104571428D01*
X100114819Y-104571428D02*
X100067200Y-104428571D01*
X100067200Y-104428571D02*
X99971961Y-104333333D01*
X99971961Y-104333333D02*
X99876723Y-104285714D01*
X99876723Y-104285714D02*
X99686247Y-104238095D01*
X99686247Y-104238095D02*
X99543390Y-104238095D01*
X99543390Y-104238095D02*
X99352914Y-104285714D01*
X99352914Y-104285714D02*
X99257676Y-104333333D01*
X99257676Y-104333333D02*
X99162438Y-104428571D01*
X99162438Y-104428571D02*
X99114819Y-104571428D01*
X99114819Y-104571428D02*
X99114819Y-104666666D01*
X99114819Y-104666666D02*
X99162438Y-104809523D01*
X99162438Y-104809523D02*
X99210057Y-104857142D01*
X100114819Y-105809523D02*
X100114819Y-105238095D01*
X100114819Y-105523809D02*
X99114819Y-105523809D01*
X99114819Y-105523809D02*
X99257676Y-105428571D01*
X99257676Y-105428571D02*
X99352914Y-105333333D01*
X99352914Y-105333333D02*
X99400533Y-105238095D01*
X99210057Y-106190476D02*
X99162438Y-106238095D01*
X99162438Y-106238095D02*
X99114819Y-106333333D01*
X99114819Y-106333333D02*
X99114819Y-106571428D01*
X99114819Y-106571428D02*
X99162438Y-106666666D01*
X99162438Y-106666666D02*
X99210057Y-106714285D01*
X99210057Y-106714285D02*
X99305295Y-106761904D01*
X99305295Y-106761904D02*
X99400533Y-106761904D01*
X99400533Y-106761904D02*
X99543390Y-106714285D01*
X99543390Y-106714285D02*
X100114819Y-106142857D01*
X100114819Y-106142857D02*
X100114819Y-106761904D01*
X96019580Y-103357142D02*
X96067200Y-103309523D01*
X96067200Y-103309523D02*
X96114819Y-103166666D01*
X96114819Y-103166666D02*
X96114819Y-103071428D01*
X96114819Y-103071428D02*
X96067200Y-102928571D01*
X96067200Y-102928571D02*
X95971961Y-102833333D01*
X95971961Y-102833333D02*
X95876723Y-102785714D01*
X95876723Y-102785714D02*
X95686247Y-102738095D01*
X95686247Y-102738095D02*
X95543390Y-102738095D01*
X95543390Y-102738095D02*
X95352914Y-102785714D01*
X95352914Y-102785714D02*
X95257676Y-102833333D01*
X95257676Y-102833333D02*
X95162438Y-102928571D01*
X95162438Y-102928571D02*
X95114819Y-103071428D01*
X95114819Y-103071428D02*
X95114819Y-103166666D01*
X95114819Y-103166666D02*
X95162438Y-103309523D01*
X95162438Y-103309523D02*
X95210057Y-103357142D01*
X95210057Y-103738095D02*
X95162438Y-103785714D01*
X95162438Y-103785714D02*
X95114819Y-103880952D01*
X95114819Y-103880952D02*
X95114819Y-104119047D01*
X95114819Y-104119047D02*
X95162438Y-104214285D01*
X95162438Y-104214285D02*
X95210057Y-104261904D01*
X95210057Y-104261904D02*
X95305295Y-104309523D01*
X95305295Y-104309523D02*
X95400533Y-104309523D01*
X95400533Y-104309523D02*
X95543390Y-104261904D01*
X95543390Y-104261904D02*
X96114819Y-103690476D01*
X96114819Y-103690476D02*
X96114819Y-104309523D01*
X95543390Y-104880952D02*
X95495771Y-104785714D01*
X95495771Y-104785714D02*
X95448152Y-104738095D01*
X95448152Y-104738095D02*
X95352914Y-104690476D01*
X95352914Y-104690476D02*
X95305295Y-104690476D01*
X95305295Y-104690476D02*
X95210057Y-104738095D01*
X95210057Y-104738095D02*
X95162438Y-104785714D01*
X95162438Y-104785714D02*
X95114819Y-104880952D01*
X95114819Y-104880952D02*
X95114819Y-105071428D01*
X95114819Y-105071428D02*
X95162438Y-105166666D01*
X95162438Y-105166666D02*
X95210057Y-105214285D01*
X95210057Y-105214285D02*
X95305295Y-105261904D01*
X95305295Y-105261904D02*
X95352914Y-105261904D01*
X95352914Y-105261904D02*
X95448152Y-105214285D01*
X95448152Y-105214285D02*
X95495771Y-105166666D01*
X95495771Y-105166666D02*
X95543390Y-105071428D01*
X95543390Y-105071428D02*
X95543390Y-104880952D01*
X95543390Y-104880952D02*
X95591009Y-104785714D01*
X95591009Y-104785714D02*
X95638628Y-104738095D01*
X95638628Y-104738095D02*
X95733866Y-104690476D01*
X95733866Y-104690476D02*
X95924342Y-104690476D01*
X95924342Y-104690476D02*
X96019580Y-104738095D01*
X96019580Y-104738095D02*
X96067200Y-104785714D01*
X96067200Y-104785714D02*
X96114819Y-104880952D01*
X96114819Y-104880952D02*
X96114819Y-105071428D01*
X96114819Y-105071428D02*
X96067200Y-105166666D01*
X96067200Y-105166666D02*
X96019580Y-105214285D01*
X96019580Y-105214285D02*
X95924342Y-105261904D01*
X95924342Y-105261904D02*
X95733866Y-105261904D01*
X95733866Y-105261904D02*
X95638628Y-105214285D01*
X95638628Y-105214285D02*
X95591009Y-105166666D01*
X95591009Y-105166666D02*
X95543390Y-105071428D01*
X103519580Y-109583333D02*
X103567200Y-109535714D01*
X103567200Y-109535714D02*
X103614819Y-109392857D01*
X103614819Y-109392857D02*
X103614819Y-109297619D01*
X103614819Y-109297619D02*
X103567200Y-109154762D01*
X103567200Y-109154762D02*
X103471961Y-109059524D01*
X103471961Y-109059524D02*
X103376723Y-109011905D01*
X103376723Y-109011905D02*
X103186247Y-108964286D01*
X103186247Y-108964286D02*
X103043390Y-108964286D01*
X103043390Y-108964286D02*
X102852914Y-109011905D01*
X102852914Y-109011905D02*
X102757676Y-109059524D01*
X102757676Y-109059524D02*
X102662438Y-109154762D01*
X102662438Y-109154762D02*
X102614819Y-109297619D01*
X102614819Y-109297619D02*
X102614819Y-109392857D01*
X102614819Y-109392857D02*
X102662438Y-109535714D01*
X102662438Y-109535714D02*
X102710057Y-109583333D01*
X102614819Y-109916667D02*
X102614819Y-110583333D01*
X102614819Y-110583333D02*
X103614819Y-110154762D01*
D11*
%TO.C,C48*%
X92510000Y-92415580D02*
X92510000Y-92134420D01*
X91490000Y-92415580D02*
X91490000Y-92134420D01*
%TO.C,C47*%
X96010000Y-92390580D02*
X96010000Y-92109420D01*
X94990000Y-92390580D02*
X94990000Y-92109420D01*
%TO.C,C46*%
X101990000Y-92415580D02*
X101990000Y-92134420D01*
X103010000Y-92415580D02*
X103010000Y-92134420D01*
%TO.C,C45*%
X99510000Y-92415580D02*
X99510000Y-92134420D01*
X98490000Y-92415580D02*
X98490000Y-92134420D01*
%TO.C,C8*%
X109990000Y-97890580D02*
X109990000Y-97609420D01*
X111010000Y-97890580D02*
X111010000Y-97609420D01*
%TO.C,C14*%
X112859420Y-114510000D02*
X113140580Y-114510000D01*
X112859420Y-113490000D02*
X113140580Y-113490000D01*
%TO.C,C6*%
X96760000Y-97890580D02*
X96760000Y-97609420D01*
X95740000Y-97890580D02*
X95740000Y-97609420D01*
%TO.C,C9*%
X108260000Y-97890580D02*
X108260000Y-97609420D01*
X107240000Y-97890580D02*
X107240000Y-97609420D01*
%TO.C,C30*%
X99860000Y-114642164D02*
X99860000Y-114857836D01*
X99140000Y-114642164D02*
X99140000Y-114857836D01*
%TO.C,C38*%
X102107836Y-112610000D02*
X101892164Y-112610000D01*
X102107836Y-111890000D02*
X101892164Y-111890000D01*
%TO.C,C22*%
X112642164Y-108640000D02*
X112857836Y-108640000D01*
X112642164Y-109360000D02*
X112857836Y-109360000D01*
%TO.C,C49*%
X109140000Y-106087836D02*
X109140000Y-105872164D01*
X109860000Y-106087836D02*
X109860000Y-105872164D01*
%TO.C,C16*%
X108610000Y-101142164D02*
X108610000Y-101357836D01*
X107890000Y-101142164D02*
X107890000Y-101357836D01*
%TO.C,C32*%
X91857836Y-111140000D02*
X91642164Y-111140000D01*
X91857836Y-111860000D02*
X91642164Y-111860000D01*
%TO.C,C11*%
X102640000Y-98127836D02*
X102640000Y-97912164D01*
X103360000Y-98127836D02*
X103360000Y-97912164D01*
%TO.C,C25*%
X107107836Y-114860000D02*
X106892164Y-114860000D01*
X107107836Y-114140000D02*
X106892164Y-114140000D01*
%TO.C,C29*%
X94140000Y-115107836D02*
X94140000Y-114892164D01*
X94860000Y-115107836D02*
X94860000Y-114892164D01*
%TO.C,C10*%
X105610000Y-98087836D02*
X105610000Y-97872164D01*
X104890000Y-98087836D02*
X104890000Y-97872164D01*
%TO.C,C24*%
X95860000Y-101892164D02*
X95860000Y-102107836D01*
X95140000Y-101892164D02*
X95140000Y-102107836D01*
%TO.C,C23*%
X99892164Y-100140000D02*
X100107836Y-100140000D01*
X99892164Y-100860000D02*
X100107836Y-100860000D01*
%TO.C,C3*%
X102360000Y-105642164D02*
X102360000Y-105857836D01*
X101640000Y-105642164D02*
X101640000Y-105857836D01*
%TO.C,C1*%
X104392164Y-107890000D02*
X104607836Y-107890000D01*
X104392164Y-108610000D02*
X104607836Y-108610000D01*
%TO.C,C15*%
X109087836Y-110610000D02*
X108872164Y-110610000D01*
X109087836Y-109890000D02*
X108872164Y-109890000D01*
%TO.C,C19*%
X112682164Y-106140000D02*
X112897836Y-106140000D01*
X112682164Y-106860000D02*
X112897836Y-106860000D01*
%TO.C,C20*%
X112682164Y-111860000D02*
X112897836Y-111860000D01*
X112682164Y-111140000D02*
X112897836Y-111140000D01*
%TO.C,C26*%
X95892164Y-109140000D02*
X96107836Y-109140000D01*
X95892164Y-109860000D02*
X96107836Y-109860000D01*
%TO.C,C35*%
X101392164Y-103390000D02*
X101607836Y-103390000D01*
X101392164Y-104110000D02*
X101607836Y-104110000D01*
%TO.C,C5*%
X100140000Y-98127836D02*
X100140000Y-97912164D01*
X100860000Y-98127836D02*
X100860000Y-97912164D01*
%TO.C,C21*%
X112682164Y-103640000D02*
X112897836Y-103640000D01*
X112682164Y-104360000D02*
X112897836Y-104360000D01*
%TO.C,C18*%
X108142164Y-111890000D02*
X108357836Y-111890000D01*
X108142164Y-112610000D02*
X108357836Y-112610000D01*
%TO.C,C34*%
X91837836Y-108640000D02*
X91622164Y-108640000D01*
X91837836Y-109360000D02*
X91622164Y-109360000D01*
%TO.C,C4*%
X97640000Y-98127836D02*
X97640000Y-97912164D01*
X98360000Y-98127836D02*
X98360000Y-97912164D01*
%TO.C,C36*%
X103857836Y-115140000D02*
X103642164Y-115140000D01*
X103857836Y-115860000D02*
X103642164Y-115860000D01*
%TO.C,C37*%
X104912164Y-102140000D02*
X105127836Y-102140000D01*
X104912164Y-102860000D02*
X105127836Y-102860000D01*
%TO.C,C17*%
X97140000Y-113837836D02*
X97140000Y-113622164D01*
X97860000Y-113837836D02*
X97860000Y-113622164D01*
%TO.C,C31*%
X91857836Y-103390000D02*
X91642164Y-103390000D01*
X91857836Y-104110000D02*
X91642164Y-104110000D01*
%TO.C,C27*%
X98107836Y-110860000D02*
X97892164Y-110860000D01*
X98107836Y-110140000D02*
X97892164Y-110140000D01*
%TO.C,C33*%
X91857836Y-106140000D02*
X91642164Y-106140000D01*
X91857836Y-106860000D02*
X91642164Y-106860000D01*
%TO.C,C13*%
X106142164Y-105610000D02*
X106357836Y-105610000D01*
X106142164Y-104890000D02*
X106357836Y-104890000D01*
%TO.C,C2*%
X105860000Y-109872164D02*
X105860000Y-110087836D01*
X105140000Y-109872164D02*
X105140000Y-110087836D01*
%TO.C,C12*%
X98140000Y-105607836D02*
X98140000Y-105392164D01*
X98860000Y-105607836D02*
X98860000Y-105392164D01*
%TO.C,C28*%
X94140000Y-104107836D02*
X94140000Y-103892164D01*
X94860000Y-104107836D02*
X94860000Y-103892164D01*
%TO.C,C7*%
X101640000Y-109857836D02*
X101640000Y-109642164D01*
X102360000Y-109857836D02*
X102360000Y-109642164D01*
%TD*%
M02*
