%TF.GenerationSoftware,KiCad,Pcbnew,7.0.10*%
%TF.CreationDate,2024-01-13T18:06:35+01:00*%
%TF.ProjectId,FPGA,46504741-2e6b-4696-9361-645f70636258,rev?*%
%TF.SameCoordinates,Original*%
%TF.FileFunction,Copper,L5,Inr*%
%TF.FilePolarity,Positive*%
%FSLAX46Y46*%
G04 Gerber Fmt 4.6, Leading zero omitted, Abs format (unit mm)*
G04 Created by KiCad (PCBNEW 7.0.10) date 2024-01-13 18:06:35*
%MOMM*%
%LPD*%
G01*
G04 APERTURE LIST*
%TA.AperFunction,ComponentPad*%
%ADD10C,1.000000*%
%TD*%
%TA.AperFunction,ViaPad*%
%ADD11C,0.400000*%
%TD*%
%TA.AperFunction,Conductor*%
%ADD12C,0.090000*%
%TD*%
%TA.AperFunction,Conductor*%
%ADD13C,0.400000*%
%TD*%
G04 APERTURE END LIST*
D10*
%TO.N,N/C*%
%TO.C,J1*%
X91500000Y-77375000D03*
X81500000Y-77375000D03*
%TD*%
D11*
%TO.N,PG4*%
X107500000Y-87200000D03*
%TO.N,EN3*%
X86650000Y-89650000D03*
%TO.N,EN2*%
X86650000Y-88450000D03*
%TO.N,EN4*%
X86650000Y-87250000D03*
%TO.N,1.2V*%
X107900000Y-94850000D03*
%TO.N,GND*%
X109000000Y-95000000D03*
X95050000Y-81800000D03*
X104550000Y-84900000D03*
X92600000Y-84050000D03*
%TO.N,TDO*%
X101050000Y-112950000D03*
%TO.N,TMS*%
X82650000Y-77250000D03*
%TO.N,TCK*%
X84500000Y-77250000D03*
%TO.N,TDO*%
X86500000Y-77250000D03*
%TO.N,TDI*%
X88500000Y-77250000D03*
%TO.N,Net-(U1C-PROGRAM_B_0)*%
X119350000Y-93250000D03*
%TO.N,1.8V*%
X102850000Y-120950000D03*
%TO.N,Net-(J4-Pin_7)*%
X101050857Y-100002898D03*
%TO.N,Net-(J4-Pin_6)*%
X102950000Y-100050000D03*
%TO.N,Net-(J4-Pin_4)*%
X103950000Y-100050000D03*
%TO.N,Net-(J3-Pin_6)*%
X122945000Y-110360000D03*
%TO.N,Net-(J3-Pin_8)*%
X122895000Y-115460000D03*
%TO.N,Net-(J3-Pin_4)*%
X122945000Y-105310000D03*
%TO.N,Net-(J3-Pin_5)*%
X119295000Y-107860000D03*
%TO.N,Net-(J3-Pin_2)*%
X122945000Y-100260000D03*
%TO.N,Net-(J3-Pin_3)*%
X119295000Y-102810000D03*
%TO.N,Net-(J3-Pin_9)*%
X119445000Y-118010000D03*
%TO.N,Net-(J3-Pin_10)*%
X122895000Y-120560000D03*
%TO.N,Net-(J3-Pin_7)*%
X119295000Y-112960000D03*
%TO.N,Net-(J3-Pin_1)*%
X119295000Y-97710000D03*
%TO.N,Net-(J4-Pin_9)*%
X81050000Y-118000000D03*
%TO.N,Net-(J4-Pin_7)*%
X81050000Y-112950000D03*
%TO.N,Net-(J4-Pin_5)*%
X81050000Y-107900000D03*
%TO.N,Net-(J4-Pin_3)*%
X81100000Y-102800000D03*
%TO.N,Net-(J4-Pin_1)*%
X81100000Y-97700000D03*
%TO.N,Net-(J4-Pin_2)*%
X84550000Y-100250000D03*
%TO.N,Net-(J4-Pin_4)*%
X84700000Y-105300000D03*
%TO.N,Net-(J4-Pin_6)*%
X84700000Y-110400000D03*
%TO.N,Net-(J4-Pin_8)*%
X84700000Y-115450000D03*
%TO.N,Net-(J4-Pin_10)*%
X84600000Y-120550000D03*
%TO.N,INIT_B*%
X122800000Y-93200000D03*
%TO.N,LED_Test*%
X116050000Y-95650000D03*
%TO.N,GND*%
X98150000Y-120000000D03*
X110550000Y-119100000D03*
X80500000Y-81500000D03*
X92500000Y-81500000D03*
X98500000Y-77300000D03*
X99600000Y-75700000D03*
X97300000Y-75700000D03*
%TO.N,EN1*%
X105800000Y-88000000D03*
%TO.N,GND*%
X121600000Y-86100000D03*
X117100000Y-86100000D03*
X107900000Y-86100000D03*
X112500000Y-86100000D03*
X123700000Y-75550000D03*
%TO.N,1V*%
X120250000Y-75550000D03*
%TO.N,1.2V*%
X116800000Y-75550000D03*
%TO.N,1.8V*%
X113350000Y-75550000D03*
%TO.N,3.3V*%
X92250000Y-102750000D03*
%TO.N,EN1*%
X95900000Y-88000000D03*
X94300000Y-84900000D03*
X94950000Y-84400000D03*
%TO.N,1V*%
X96750000Y-82650000D03*
%TO.N,EN3*%
X97250000Y-82000000D03*
%TO.N,EN1*%
X97750000Y-82650000D03*
%TO.N,PG4*%
X99250000Y-82000000D03*
%TO.N,3.3V*%
X99750000Y-82650000D03*
%TO.N,EN4*%
X101650000Y-84100000D03*
%TO.N,EN1*%
X101700000Y-84900000D03*
X101200000Y-88100000D03*
%TO.N,EN3*%
X99900000Y-89450000D03*
%TO.N,1.2V*%
X100300000Y-88250000D03*
%TO.N,EN4*%
X98300000Y-89500000D03*
%TO.N,EN2*%
X97500000Y-89500000D03*
%TO.N,1.8V*%
X96750000Y-89150000D03*
%TO.N,GND*%
X98250000Y-91500000D03*
X91000000Y-91500000D03*
X101750000Y-91500000D03*
%TO.N,1.2V*%
X103500000Y-93000000D03*
%TO.N,GND*%
X94705553Y-92000000D03*
%TO.N,LX1*%
X101000000Y-90500000D03*
X95350000Y-89700000D03*
%TO.N,LX2*%
X94750000Y-91000000D03*
X94750000Y-88500000D03*
%TO.N,LX4*%
X103000000Y-87250000D03*
X102000000Y-88250000D03*
%TO.N,3.3V*%
X92850000Y-92950000D03*
%TO.N,1.8V*%
X96400000Y-92950000D03*
%TO.N,1V*%
X99950000Y-92950000D03*
%TO.N,1.2V*%
X103500000Y-93000000D03*
%TO.N,GND*%
X114750000Y-114000000D03*
X96250000Y-96000000D03*
X107750000Y-96000000D03*
X110500000Y-96000000D03*
%TO.N,1V*%
X111500000Y-98500000D03*
%TO.N,GND*%
X98000000Y-96750000D03*
X100500000Y-96750000D03*
X105250000Y-96750000D03*
X103000000Y-96750000D03*
%TO.N,1V*%
X106000000Y-98500000D03*
%TO.N,1.8V*%
X97250000Y-98500000D03*
X101250000Y-98500000D03*
%TO.N,1V*%
X102275000Y-98500000D03*
%TO.N,GND*%
X90500000Y-103750000D03*
X90500000Y-106500000D03*
X90500000Y-109000000D03*
X90500000Y-111500000D03*
X114000000Y-104000000D03*
X114000000Y-106500000D03*
X114000000Y-109000000D03*
X114000000Y-111500000D03*
%TO.N,3.3V*%
X100000000Y-104000000D03*
%TO.N,Net-(J3-Pin_1)*%
X108950000Y-115950000D03*
%TO.N,Net-(J3-Pin_9)*%
X105950000Y-111950000D03*
%TO.N,GND*%
X104950000Y-108950000D03*
X94050000Y-100050000D03*
%TO.N,3.3V*%
X99050000Y-110950000D03*
%TO.N,Net-(J3-Pin_6)*%
X108950000Y-113950000D03*
%TO.N,GND*%
X103950000Y-111950000D03*
%TO.N,1.8V*%
X104950000Y-109950000D03*
%TO.N,Net-(J4-Pin_3)*%
X103950000Y-101050000D03*
%TO.N,Net-(J4-Pin_8)*%
X102950000Y-102050000D03*
%TO.N,GND*%
X102950000Y-114950000D03*
%TO.N,Net-(J3-Pin_7)*%
X109950000Y-112950000D03*
%TO.N,Net-(U1C-PROGRAM_B_0)*%
X102950000Y-110950000D03*
%TO.N,1V*%
X100050000Y-105050000D03*
%TO.N,3.3V*%
X109950000Y-100050000D03*
%TO.N,Net-(J4-Pin_2)*%
X104950000Y-101050000D03*
%TO.N,GND*%
X98050000Y-112950000D03*
%TO.N,3.3V*%
X100050000Y-114000000D03*
%TO.N,1V*%
X99050000Y-106050000D03*
%TO.N,GND*%
X106950000Y-106050000D03*
X108950000Y-102050000D03*
%TO.N,INIT_B*%
X103950000Y-109950000D03*
%TO.N,GND*%
X100050000Y-106050000D03*
%TO.N,TMS*%
X100050000Y-111950000D03*
%TO.N,GND*%
X109950000Y-105050000D03*
%TO.N,1.8V*%
X103950000Y-110950000D03*
%TO.N,DONE*%
X103950000Y-107050000D03*
%TO.N,3.3V*%
X95050000Y-108950000D03*
X107950000Y-104050000D03*
%TO.N,TDI*%
X100050000Y-112950000D03*
%TO.N,GND*%
X101050000Y-111950000D03*
X99050000Y-105050000D03*
%TO.N,Net-(J4-Pin_10)*%
X103950000Y-103050000D03*
%TO.N,1.8V*%
X101270000Y-105270000D03*
%TO.N,3.3V*%
X96050000Y-101050000D03*
%TO.N,1.8V*%
X104169194Y-105999430D03*
%TO.N,3.3V*%
X104950000Y-115950000D03*
%TO.N,GND*%
X103950000Y-105050000D03*
X101050000Y-101050000D03*
%TO.N,Net-(U1C-VREFP_0)*%
X101050000Y-108950000D03*
%TO.N,3.3V*%
X97050000Y-104050000D03*
%TO.N,Net-(J4-Pin_5)*%
X102950000Y-101050000D03*
%TO.N,GND*%
X109950000Y-115950000D03*
%TO.N,3.3V*%
X100050000Y-103050000D03*
X103950000Y-102050000D03*
X94050000Y-105050000D03*
%TO.N,GND*%
X104950000Y-110950000D03*
%TO.N,3.3V*%
X103950000Y-112950000D03*
X106950000Y-111950000D03*
%TO.N,1V*%
X99050000Y-108950000D03*
%TO.N,3.3V*%
X109950000Y-110950000D03*
%TO.N,GND*%
X95050000Y-113950000D03*
X102950000Y-104050000D03*
X99050000Y-109950000D03*
X104950000Y-100050000D03*
X98050000Y-102050000D03*
%TO.N,3.3V*%
X105750000Y-108750000D03*
X104950000Y-111950000D03*
X102950000Y-111950000D03*
X94050000Y-115950000D03*
%TO.N,Net-(J3-Pin_8)*%
X109950000Y-111950000D03*
%TO.N,1V*%
X102950000Y-105050000D03*
%TO.N,GND*%
X99050000Y-107050000D03*
%TO.N,1.8V*%
X103950000Y-108950000D03*
%TO.N,1V*%
X102925000Y-109925000D03*
%TO.N,GND*%
X96050000Y-106050000D03*
%TO.N,3.3V*%
X106950000Y-101050000D03*
%TO.N,1V*%
X101075000Y-110925000D03*
%TO.N,3.3V*%
X108950000Y-110950000D03*
%TO.N,Net-(J3-Pin_2)*%
X107950000Y-115950000D03*
%TO.N,1V*%
X104950000Y-105050000D03*
%TO.N,GND*%
X102950000Y-106050000D03*
X100050000Y-107050000D03*
X94050000Y-110950000D03*
X105950000Y-113950000D03*
X105950000Y-103050000D03*
%TO.N,1V*%
X102950000Y-107050000D03*
%TO.N,3.3V*%
X96050000Y-111950000D03*
%TO.N,1V*%
X103950000Y-104050000D03*
%TO.N,GND*%
X99050000Y-115950000D03*
X102950000Y-108950000D03*
%TO.N,Net-(J3-Pin_5)*%
X109950000Y-113950000D03*
%TO.N,LED_Test*%
X106950000Y-112950000D03*
%TO.N,GND*%
X108950000Y-112950000D03*
%TO.N,Net-(J3-Pin_4)*%
X108950000Y-114950000D03*
%TO.N,Net-(J4-Pin_1)*%
X105950000Y-101050000D03*
%TO.N,Net-(J3-Pin_3)*%
X109950000Y-114950000D03*
%TO.N,GND*%
X107950000Y-109950000D03*
%TO.N,TCK*%
X100050000Y-110950000D03*
%TO.N,3.3V*%
X97050000Y-114950000D03*
%TO.N,GND*%
X97050000Y-109950000D03*
%TO.N,3.3V*%
X108950000Y-107050000D03*
X107950000Y-114950000D03*
%TO.N,Net-(J4-Pin_9)*%
X101050000Y-102050000D03*
%TO.N,3.3V*%
X99050000Y-100050000D03*
%TO.N,1.8V*%
X101050000Y-106050000D03*
%TO.N,CLK*%
X107950000Y-112950000D03*
%TO.N,Net-(J3-Pin_10)*%
X105950000Y-110950000D03*
%TO.N,GND*%
X95050000Y-103050000D03*
%TD*%
D12*
%TO.N,1.8V*%
X113350000Y-75550000D02*
X113350000Y-83300000D01*
X113350000Y-83300000D02*
X104590000Y-92060000D01*
X104590000Y-92060000D02*
X103810674Y-92060000D01*
X103040000Y-92999448D02*
X101634448Y-94405000D01*
X108084326Y-94405000D02*
X108345000Y-94665674D01*
X103810674Y-92060000D02*
X103040000Y-92830674D01*
X100455000Y-95295000D02*
X97250000Y-98500000D01*
X103040000Y-92830674D02*
X103040000Y-92999448D01*
X108084326Y-95295000D02*
X100455000Y-95295000D01*
X101634448Y-94405000D02*
X108084326Y-94405000D01*
X108345000Y-94665674D02*
X108345000Y-95034326D01*
X108345000Y-95034326D02*
X108084326Y-95295000D01*
%TO.N,1V*%
X120250000Y-75550000D02*
X119805000Y-75105000D01*
X119805000Y-75105000D02*
X110445000Y-75105000D01*
X110445000Y-75105000D02*
X102750000Y-82800000D01*
%TO.N,1.2V*%
X116800000Y-75550000D02*
X116800000Y-85770674D01*
X116800000Y-85770674D02*
X116655000Y-85915674D01*
X104150000Y-92350000D02*
X103500000Y-93000000D01*
X116655000Y-85915674D02*
X116655000Y-91245000D01*
X116655000Y-91245000D02*
X115550000Y-92350000D01*
X115550000Y-92350000D02*
X104150000Y-92350000D01*
%TO.N,EN3*%
X97250000Y-82000000D02*
X97250000Y-82779326D01*
X97250000Y-82779326D02*
X94628774Y-85400552D01*
X94628774Y-85400552D02*
X87849448Y-85400552D01*
X87849448Y-85400552D02*
X85915000Y-87335000D01*
X85915000Y-87335000D02*
X85915000Y-88915000D01*
X85915000Y-88915000D02*
X86650000Y-89650000D01*
%TO.N,EN4*%
X98300000Y-89500000D02*
X97790000Y-90010000D01*
X92335000Y-93685000D02*
X87545000Y-88895000D01*
X86465674Y-88895000D02*
X86205000Y-88634326D01*
X97790000Y-90010000D02*
X97790000Y-92599448D01*
X97790000Y-92599448D02*
X96704448Y-93685000D01*
X96704448Y-93685000D02*
X92335000Y-93685000D01*
X86205000Y-88634326D02*
X86205000Y-87695000D01*
X87545000Y-88895000D02*
X86465674Y-88895000D01*
X86205000Y-87695000D02*
X86650000Y-87250000D01*
%TO.N,EN2*%
X97500000Y-89500000D02*
X97500000Y-92479326D01*
X97500000Y-92479326D02*
X96584326Y-93395000D01*
X96584326Y-93395000D02*
X92634326Y-93395000D01*
X92634326Y-93395000D02*
X91650000Y-92410674D01*
X91650000Y-91520674D02*
X88579326Y-88450000D01*
X91650000Y-92410674D02*
X91650000Y-91520674D01*
X88579326Y-88450000D02*
X86650000Y-88450000D01*
%TO.N,EN3*%
X99900000Y-89450000D02*
X99855000Y-89405000D01*
X99855000Y-89405000D02*
X99855000Y-87374326D01*
X99855000Y-87374326D02*
X102369939Y-84859387D01*
X102369939Y-84859387D02*
X102369939Y-84190613D01*
X102369939Y-84190613D02*
X99719724Y-81540398D01*
X99719724Y-81540398D02*
X97709602Y-81540398D01*
X97709602Y-81540398D02*
X97250000Y-82000000D01*
%TO.N,1V*%
X96750000Y-82650000D02*
X96750000Y-81870674D01*
X96750000Y-81870674D02*
X97770674Y-80850000D01*
X102750000Y-82800000D02*
X102750000Y-86870674D01*
X97770674Y-80850000D02*
X100800000Y-80850000D01*
X102750000Y-86870674D02*
X102555000Y-87065674D01*
X100800000Y-80850000D02*
X102750000Y-82800000D01*
X102555000Y-87434326D02*
X102750000Y-87629326D01*
X102555000Y-87065674D02*
X102555000Y-87434326D01*
X102750000Y-87629326D02*
X102750000Y-92879326D01*
X102750000Y-92879326D02*
X102679326Y-92950000D01*
X102679326Y-92950000D02*
X99950000Y-92950000D01*
%TO.N,EN4*%
X98300000Y-89500000D02*
X98300000Y-87450000D01*
X98300000Y-87450000D02*
X101650000Y-84100000D01*
%TO.N,1.2V*%
X100300000Y-88250000D02*
X100345000Y-88295000D01*
X100345000Y-88295000D02*
X100345000Y-91925674D01*
X100345000Y-91925674D02*
X99505000Y-92765674D01*
X99505000Y-92765674D02*
X99505000Y-93134326D01*
X99505000Y-93134326D02*
X101220674Y-94850000D01*
X101220674Y-94850000D02*
X107900000Y-94850000D01*
%TO.N,Net-(U1C-PROGRAM_B_0)*%
X119350000Y-93250000D02*
X117820674Y-93250000D01*
X117820674Y-93250000D02*
X109465674Y-101605000D01*
X103400000Y-108870674D02*
X103400000Y-110500000D01*
X109465674Y-101605000D02*
X108765674Y-101605000D01*
X108765674Y-101605000D02*
X105600000Y-104770674D01*
X105600000Y-104770674D02*
X105600000Y-106670674D01*
X105600000Y-106670674D02*
X103400000Y-108870674D01*
X103400000Y-110500000D02*
X102950000Y-110950000D01*
%TO.N,LED_Test*%
X109134326Y-105995000D02*
X106500000Y-108629326D01*
X109134326Y-102495000D02*
X109134326Y-105995000D01*
X116050000Y-95650000D02*
X115979326Y-95650000D01*
X115979326Y-95650000D02*
X109134326Y-102495000D01*
X106500000Y-108629326D02*
X106500000Y-112500000D01*
X106500000Y-112500000D02*
X106950000Y-112950000D01*
%TO.N,INIT_B*%
X105134326Y-110395000D02*
X104395000Y-110395000D01*
X105505000Y-110765674D02*
X105134326Y-110395000D01*
X122800000Y-93200000D02*
X112800000Y-103200000D01*
X105505000Y-112134326D02*
X105505000Y-110765674D01*
X106765674Y-113395000D02*
X105505000Y-112134326D01*
X112800000Y-106360674D02*
X107395000Y-111765674D01*
X107395000Y-113134326D02*
X107134326Y-113395000D01*
X107395000Y-111765674D02*
X107395000Y-113134326D01*
X112800000Y-103200000D02*
X112800000Y-106360674D01*
X107134326Y-113395000D02*
X106765674Y-113395000D01*
X104395000Y-110395000D02*
X103950000Y-109950000D01*
%TO.N,1.8V*%
X102250000Y-120350000D02*
X102250000Y-113750000D01*
X102850000Y-120950000D02*
X102250000Y-120350000D01*
X102250000Y-113750000D02*
X103395000Y-112605000D01*
X103395000Y-112605000D02*
X103395000Y-111505000D01*
X103395000Y-111505000D02*
X103950000Y-110950000D01*
%TO.N,3.3V*%
X99750000Y-82650000D02*
X99750000Y-85520674D01*
X92850000Y-91570674D02*
X92850000Y-92950000D01*
X99750000Y-85520674D02*
X96015674Y-89255000D01*
X96015674Y-89255000D02*
X95165674Y-89255000D01*
X95165674Y-89255000D02*
X92850000Y-91570674D01*
%TO.N,1.8V*%
X96750000Y-89150000D02*
X96400000Y-89500000D01*
X96400000Y-89500000D02*
X96400000Y-92950000D01*
D13*
X101270000Y-105270000D02*
X101650000Y-104890000D01*
X101650000Y-104890000D02*
X101650000Y-98900000D01*
X101650000Y-98900000D02*
X101250000Y-98500000D01*
%TD*%
M02*
