%TF.GenerationSoftware,KiCad,Pcbnew,7.0.10*%
%TF.CreationDate,2024-01-13T18:06:35+01:00*%
%TF.ProjectId,FPGA,46504741-2e6b-4696-9361-645f70636258,rev?*%
%TF.SameCoordinates,Original*%
%TF.FileFunction,Paste,Bot*%
%TF.FilePolarity,Positive*%
%FSLAX46Y46*%
G04 Gerber Fmt 4.6, Leading zero omitted, Abs format (unit mm)*
G04 Created by KiCad (PCBNEW 7.0.10) date 2024-01-13 18:06:35*
%MOMM*%
%LPD*%
G01*
G04 APERTURE LIST*
G04 Aperture macros list*
%AMRoundRect*
0 Rectangle with rounded corners*
0 $1 Rounding radius*
0 $2 $3 $4 $5 $6 $7 $8 $9 X,Y pos of 4 corners*
0 Add a 4 corners polygon primitive as box body*
4,1,4,$2,$3,$4,$5,$6,$7,$8,$9,$2,$3,0*
0 Add four circle primitives for the rounded corners*
1,1,$1+$1,$2,$3*
1,1,$1+$1,$4,$5*
1,1,$1+$1,$6,$7*
1,1,$1+$1,$8,$9*
0 Add four rect primitives between the rounded corners*
20,1,$1+$1,$2,$3,$4,$5,0*
20,1,$1+$1,$4,$5,$6,$7,0*
20,1,$1+$1,$6,$7,$8,$9,0*
20,1,$1+$1,$8,$9,$2,$3,0*%
G04 Aperture macros list end*
%ADD10RoundRect,0.225000X0.250000X-0.225000X0.250000X0.225000X-0.250000X0.225000X-0.250000X-0.225000X0*%
%ADD11RoundRect,0.225000X-0.225000X-0.250000X0.225000X-0.250000X0.225000X0.250000X-0.225000X0.250000X0*%
%ADD12RoundRect,0.140000X-0.170000X0.140000X-0.170000X-0.140000X0.170000X-0.140000X0.170000X0.140000X0*%
%ADD13RoundRect,0.140000X0.140000X0.170000X-0.140000X0.170000X-0.140000X-0.170000X0.140000X-0.170000X0*%
%ADD14RoundRect,0.140000X-0.140000X-0.170000X0.140000X-0.170000X0.140000X0.170000X-0.140000X0.170000X0*%
%ADD15RoundRect,0.140000X0.170000X-0.140000X0.170000X0.140000X-0.170000X0.140000X-0.170000X-0.140000X0*%
G04 APERTURE END LIST*
D10*
%TO.C,C48*%
X92000000Y-91500000D03*
X92000000Y-93050000D03*
%TD*%
%TO.C,C47*%
X95500000Y-91475000D03*
X95500000Y-93025000D03*
%TD*%
%TO.C,C46*%
X102500000Y-93050000D03*
X102500000Y-91500000D03*
%TD*%
%TO.C,C45*%
X99000000Y-91500000D03*
X99000000Y-93050000D03*
%TD*%
%TO.C,C8*%
X110500000Y-98525000D03*
X110500000Y-96975000D03*
%TD*%
D11*
%TO.C,C14*%
X112225000Y-114000000D03*
X113775000Y-114000000D03*
%TD*%
D10*
%TO.C,C6*%
X96250000Y-98525000D03*
X96250000Y-96975000D03*
%TD*%
%TO.C,C9*%
X107750000Y-98525000D03*
X107750000Y-96975000D03*
%TD*%
D12*
%TO.C,C30*%
X99500000Y-114270000D03*
X99500000Y-115230000D03*
%TD*%
D13*
%TO.C,C38*%
X102480000Y-112250000D03*
X101520000Y-112250000D03*
%TD*%
D14*
%TO.C,C22*%
X112270000Y-109000000D03*
X113230000Y-109000000D03*
%TD*%
D15*
%TO.C,C49*%
X109500000Y-106460000D03*
X109500000Y-105500000D03*
%TD*%
D12*
%TO.C,C16*%
X108250000Y-100770000D03*
X108250000Y-101730000D03*
%TD*%
D13*
%TO.C,C32*%
X91270000Y-111500000D03*
X92230000Y-111500000D03*
%TD*%
D15*
%TO.C,C11*%
X103000000Y-98500000D03*
X103000000Y-97540000D03*
%TD*%
D13*
%TO.C,C25*%
X107480000Y-114500000D03*
X106520000Y-114500000D03*
%TD*%
D15*
%TO.C,C29*%
X94500000Y-115480000D03*
X94500000Y-114520000D03*
%TD*%
%TO.C,C10*%
X105250000Y-97500000D03*
X105250000Y-98460000D03*
%TD*%
D12*
%TO.C,C24*%
X95500000Y-101520000D03*
X95500000Y-102480000D03*
%TD*%
D14*
%TO.C,C23*%
X99520000Y-100500000D03*
X100480000Y-100500000D03*
%TD*%
D12*
%TO.C,C3*%
X102000000Y-105270000D03*
X102000000Y-106230000D03*
%TD*%
D14*
%TO.C,C1*%
X104020000Y-108250000D03*
X104980000Y-108250000D03*
%TD*%
D13*
%TO.C,C15*%
X109460000Y-110250000D03*
X108500000Y-110250000D03*
%TD*%
D14*
%TO.C,C19*%
X112310000Y-106500000D03*
X113270000Y-106500000D03*
%TD*%
%TO.C,C20*%
X113270000Y-111500000D03*
X112310000Y-111500000D03*
%TD*%
%TO.C,C26*%
X95520000Y-109500000D03*
X96480000Y-109500000D03*
%TD*%
%TO.C,C35*%
X101020000Y-103750000D03*
X101980000Y-103750000D03*
%TD*%
D15*
%TO.C,C5*%
X100500000Y-98500000D03*
X100500000Y-97540000D03*
%TD*%
D14*
%TO.C,C21*%
X112310000Y-104000000D03*
X113270000Y-104000000D03*
%TD*%
%TO.C,C18*%
X107770000Y-112250000D03*
X108730000Y-112250000D03*
%TD*%
D13*
%TO.C,C34*%
X91250000Y-109000000D03*
X92210000Y-109000000D03*
%TD*%
D15*
%TO.C,C4*%
X98000000Y-98500000D03*
X98000000Y-97540000D03*
%TD*%
D13*
%TO.C,C36*%
X103270000Y-115500000D03*
X104230000Y-115500000D03*
%TD*%
D14*
%TO.C,C37*%
X104540000Y-102500000D03*
X105500000Y-102500000D03*
%TD*%
D15*
%TO.C,C17*%
X97500000Y-114210000D03*
X97500000Y-113250000D03*
%TD*%
D13*
%TO.C,C31*%
X91270000Y-103750000D03*
X92230000Y-103750000D03*
%TD*%
%TO.C,C27*%
X98480000Y-110500000D03*
X97520000Y-110500000D03*
%TD*%
%TO.C,C33*%
X91270000Y-106500000D03*
X92230000Y-106500000D03*
%TD*%
D14*
%TO.C,C13*%
X106730000Y-105250000D03*
X105770000Y-105250000D03*
%TD*%
D12*
%TO.C,C2*%
X105500000Y-109500000D03*
X105500000Y-110460000D03*
%TD*%
D15*
%TO.C,C12*%
X98500000Y-105980000D03*
X98500000Y-105020000D03*
%TD*%
%TO.C,C28*%
X94500000Y-104480000D03*
X94500000Y-103520000D03*
%TD*%
%TO.C,C7*%
X102000000Y-110230000D03*
X102000000Y-109270000D03*
%TD*%
M02*
