%TF.GenerationSoftware,KiCad,Pcbnew,7.0.10*%
%TF.CreationDate,2024-01-13T18:06:35+01:00*%
%TF.ProjectId,FPGA,46504741-2e6b-4696-9361-645f70636258,rev?*%
%TF.SameCoordinates,Original*%
%TF.FileFunction,Copper,L4,Inr*%
%TF.FilePolarity,Positive*%
%FSLAX46Y46*%
G04 Gerber Fmt 4.6, Leading zero omitted, Abs format (unit mm)*
G04 Created by KiCad (PCBNEW 7.0.10) date 2024-01-13 18:06:35*
%MOMM*%
%LPD*%
G01*
G04 APERTURE LIST*
%TA.AperFunction,ComponentPad*%
%ADD10C,1.000000*%
%TD*%
%TA.AperFunction,ViaPad*%
%ADD11C,0.400000*%
%TD*%
G04 APERTURE END LIST*
D10*
%TO.N,N/C*%
%TO.C,J1*%
X91500000Y-77375000D03*
X81500000Y-77375000D03*
%TD*%
D11*
%TO.N,PG4*%
X107500000Y-87200000D03*
%TO.N,EN3*%
X86650000Y-89650000D03*
%TO.N,EN2*%
X86650000Y-88450000D03*
%TO.N,EN4*%
X86650000Y-87250000D03*
%TO.N,1.2V*%
X107900000Y-94850000D03*
%TO.N,GND*%
X109000000Y-95000000D03*
X95050000Y-81800000D03*
X104550000Y-84900000D03*
X92600000Y-84050000D03*
%TO.N,TDO*%
X101050000Y-112950000D03*
%TO.N,TMS*%
X82650000Y-77250000D03*
%TO.N,TCK*%
X84500000Y-77250000D03*
%TO.N,TDO*%
X86500000Y-77250000D03*
%TO.N,TDI*%
X88500000Y-77250000D03*
%TO.N,Net-(U1C-PROGRAM_B_0)*%
X119350000Y-93250000D03*
%TO.N,1.8V*%
X102850000Y-120950000D03*
%TO.N,Net-(J4-Pin_7)*%
X101050857Y-100002898D03*
%TO.N,Net-(J4-Pin_6)*%
X102950000Y-100050000D03*
%TO.N,Net-(J4-Pin_4)*%
X103950000Y-100050000D03*
%TO.N,Net-(J3-Pin_6)*%
X122945000Y-110360000D03*
%TO.N,Net-(J3-Pin_8)*%
X122895000Y-115460000D03*
%TO.N,Net-(J3-Pin_4)*%
X122945000Y-105310000D03*
%TO.N,Net-(J3-Pin_5)*%
X119295000Y-107860000D03*
%TO.N,Net-(J3-Pin_2)*%
X122945000Y-100260000D03*
%TO.N,Net-(J3-Pin_3)*%
X119295000Y-102810000D03*
%TO.N,Net-(J3-Pin_9)*%
X119445000Y-118010000D03*
%TO.N,Net-(J3-Pin_10)*%
X122895000Y-120560000D03*
%TO.N,Net-(J3-Pin_7)*%
X119295000Y-112960000D03*
%TO.N,Net-(J3-Pin_1)*%
X119295000Y-97710000D03*
%TO.N,Net-(J4-Pin_9)*%
X81050000Y-118000000D03*
%TO.N,Net-(J4-Pin_7)*%
X81050000Y-112950000D03*
%TO.N,Net-(J4-Pin_5)*%
X81050000Y-107900000D03*
%TO.N,Net-(J4-Pin_3)*%
X81100000Y-102800000D03*
%TO.N,Net-(J4-Pin_1)*%
X81100000Y-97700000D03*
%TO.N,Net-(J4-Pin_2)*%
X84550000Y-100250000D03*
%TO.N,Net-(J4-Pin_4)*%
X84700000Y-105300000D03*
%TO.N,Net-(J4-Pin_6)*%
X84700000Y-110400000D03*
%TO.N,Net-(J4-Pin_8)*%
X84700000Y-115450000D03*
%TO.N,Net-(J4-Pin_10)*%
X84600000Y-120550000D03*
%TO.N,INIT_B*%
X122800000Y-93200000D03*
%TO.N,LED_Test*%
X116050000Y-95650000D03*
%TO.N,GND*%
X98150000Y-120000000D03*
X110550000Y-119100000D03*
X80500000Y-81500000D03*
X92500000Y-81500000D03*
X98500000Y-77300000D03*
X99600000Y-75700000D03*
X97300000Y-75700000D03*
%TO.N,EN1*%
X105800000Y-88000000D03*
%TO.N,GND*%
X121600000Y-86100000D03*
X117100000Y-86100000D03*
X107900000Y-86100000D03*
X112500000Y-86100000D03*
X123700000Y-75550000D03*
%TO.N,1V*%
X120250000Y-75550000D03*
%TO.N,1.2V*%
X116800000Y-75550000D03*
%TO.N,1.8V*%
X113350000Y-75550000D03*
%TO.N,3.3V*%
X92250000Y-102750000D03*
%TO.N,EN1*%
X95900000Y-88000000D03*
X94300000Y-84900000D03*
X94950000Y-84400000D03*
%TO.N,1V*%
X96750000Y-82650000D03*
%TO.N,EN3*%
X97250000Y-82000000D03*
%TO.N,EN1*%
X97750000Y-82650000D03*
%TO.N,PG4*%
X99250000Y-82000000D03*
%TO.N,3.3V*%
X99750000Y-82650000D03*
%TO.N,EN4*%
X101650000Y-84100000D03*
%TO.N,EN1*%
X101700000Y-84900000D03*
X101200000Y-88100000D03*
%TO.N,EN3*%
X99900000Y-89450000D03*
%TO.N,1.2V*%
X100300000Y-88250000D03*
%TO.N,EN4*%
X98300000Y-89500000D03*
%TO.N,EN2*%
X97500000Y-89500000D03*
%TO.N,1.8V*%
X96750000Y-89150000D03*
%TO.N,GND*%
X98250000Y-91500000D03*
X91000000Y-91500000D03*
X101750000Y-91500000D03*
%TO.N,1.2V*%
X103500000Y-93000000D03*
%TO.N,GND*%
X94705553Y-92000000D03*
%TO.N,LX1*%
X101000000Y-90500000D03*
X95350000Y-89700000D03*
%TO.N,LX2*%
X94750000Y-91000000D03*
X94750000Y-88500000D03*
%TO.N,LX4*%
X103000000Y-87250000D03*
X102000000Y-88250000D03*
%TO.N,3.3V*%
X92850000Y-92950000D03*
%TO.N,1.8V*%
X96400000Y-92950000D03*
%TO.N,1V*%
X99950000Y-92950000D03*
%TO.N,1.2V*%
X103500000Y-93000000D03*
%TO.N,GND*%
X114750000Y-114000000D03*
X96250000Y-96000000D03*
X107750000Y-96000000D03*
X110500000Y-96000000D03*
%TO.N,1V*%
X111500000Y-98500000D03*
%TO.N,GND*%
X98000000Y-96750000D03*
X100500000Y-96750000D03*
X105250000Y-96750000D03*
X103000000Y-96750000D03*
%TO.N,1V*%
X106000000Y-98500000D03*
%TO.N,1.8V*%
X97250000Y-98500000D03*
X101250000Y-98500000D03*
%TO.N,1V*%
X102275000Y-98500000D03*
%TO.N,GND*%
X90500000Y-103750000D03*
X90500000Y-106500000D03*
X90500000Y-109000000D03*
X90500000Y-111500000D03*
X114000000Y-104000000D03*
X114000000Y-106500000D03*
X114000000Y-109000000D03*
X114000000Y-111500000D03*
%TO.N,3.3V*%
X100000000Y-104000000D03*
%TO.N,Net-(J3-Pin_1)*%
X108950000Y-115950000D03*
%TO.N,Net-(J3-Pin_9)*%
X105950000Y-111950000D03*
%TO.N,GND*%
X104950000Y-108950000D03*
X94050000Y-100050000D03*
%TO.N,3.3V*%
X99050000Y-110950000D03*
%TO.N,Net-(J3-Pin_6)*%
X108950000Y-113950000D03*
%TO.N,GND*%
X103950000Y-111950000D03*
%TO.N,1.8V*%
X104950000Y-109950000D03*
%TO.N,Net-(J4-Pin_3)*%
X103950000Y-101050000D03*
%TO.N,Net-(J4-Pin_8)*%
X102950000Y-102050000D03*
%TO.N,GND*%
X102950000Y-114950000D03*
%TO.N,Net-(J3-Pin_7)*%
X109950000Y-112950000D03*
%TO.N,Net-(U1C-PROGRAM_B_0)*%
X102950000Y-110950000D03*
%TO.N,1V*%
X100050000Y-105050000D03*
%TO.N,3.3V*%
X109950000Y-100050000D03*
%TO.N,Net-(J4-Pin_2)*%
X104950000Y-101050000D03*
%TO.N,GND*%
X98050000Y-112950000D03*
%TO.N,3.3V*%
X100050000Y-114000000D03*
%TO.N,1V*%
X99050000Y-106050000D03*
%TO.N,GND*%
X106950000Y-106050000D03*
X108950000Y-102050000D03*
%TO.N,INIT_B*%
X103950000Y-109950000D03*
%TO.N,GND*%
X100050000Y-106050000D03*
%TO.N,TMS*%
X100050000Y-111950000D03*
%TO.N,GND*%
X109950000Y-105050000D03*
%TO.N,1.8V*%
X103950000Y-110950000D03*
%TO.N,DONE*%
X103950000Y-107050000D03*
%TO.N,3.3V*%
X95050000Y-108950000D03*
X107950000Y-104050000D03*
%TO.N,TDI*%
X100050000Y-112950000D03*
%TO.N,GND*%
X101050000Y-111950000D03*
X99050000Y-105050000D03*
%TO.N,Net-(J4-Pin_10)*%
X103950000Y-103050000D03*
%TO.N,1.8V*%
X101270000Y-105270000D03*
%TO.N,3.3V*%
X96050000Y-101050000D03*
%TO.N,1.8V*%
X104169194Y-105999430D03*
%TO.N,3.3V*%
X104950000Y-115950000D03*
%TO.N,GND*%
X103950000Y-105050000D03*
X101050000Y-101050000D03*
%TO.N,Net-(U1C-VREFP_0)*%
X101050000Y-108950000D03*
%TO.N,3.3V*%
X97050000Y-104050000D03*
%TO.N,Net-(J4-Pin_5)*%
X102950000Y-101050000D03*
%TO.N,GND*%
X109950000Y-115950000D03*
%TO.N,3.3V*%
X100050000Y-103050000D03*
X103950000Y-102050000D03*
X94050000Y-105050000D03*
%TO.N,GND*%
X104950000Y-110950000D03*
%TO.N,3.3V*%
X103950000Y-112950000D03*
X106950000Y-111950000D03*
%TO.N,1V*%
X99050000Y-108950000D03*
%TO.N,3.3V*%
X109950000Y-110950000D03*
%TO.N,GND*%
X95050000Y-113950000D03*
X102950000Y-104050000D03*
X99050000Y-109950000D03*
X104950000Y-100050000D03*
X98050000Y-102050000D03*
%TO.N,3.3V*%
X105750000Y-108750000D03*
X104950000Y-111950000D03*
X102950000Y-111950000D03*
X94050000Y-115950000D03*
%TO.N,Net-(J3-Pin_8)*%
X109950000Y-111950000D03*
%TO.N,1V*%
X102950000Y-105050000D03*
%TO.N,GND*%
X99050000Y-107050000D03*
%TO.N,1.8V*%
X103950000Y-108950000D03*
%TO.N,1V*%
X102925000Y-109925000D03*
%TO.N,GND*%
X96050000Y-106050000D03*
%TO.N,3.3V*%
X106950000Y-101050000D03*
%TO.N,1V*%
X101075000Y-110925000D03*
%TO.N,3.3V*%
X108950000Y-110950000D03*
%TO.N,Net-(J3-Pin_2)*%
X107950000Y-115950000D03*
%TO.N,1V*%
X104950000Y-105050000D03*
%TO.N,GND*%
X102950000Y-106050000D03*
X100050000Y-107050000D03*
X94050000Y-110950000D03*
X105950000Y-113950000D03*
X105950000Y-103050000D03*
%TO.N,1V*%
X102950000Y-107050000D03*
%TO.N,3.3V*%
X96050000Y-111950000D03*
%TO.N,1V*%
X103950000Y-104050000D03*
%TO.N,GND*%
X99050000Y-115950000D03*
X102950000Y-108950000D03*
%TO.N,Net-(J3-Pin_5)*%
X109950000Y-113950000D03*
%TO.N,LED_Test*%
X106950000Y-112950000D03*
%TO.N,GND*%
X108950000Y-112950000D03*
%TO.N,Net-(J3-Pin_4)*%
X108950000Y-114950000D03*
%TO.N,Net-(J4-Pin_1)*%
X105950000Y-101050000D03*
%TO.N,Net-(J3-Pin_3)*%
X109950000Y-114950000D03*
%TO.N,GND*%
X107950000Y-109950000D03*
%TO.N,TCK*%
X100050000Y-110950000D03*
%TO.N,3.3V*%
X97050000Y-114950000D03*
%TO.N,GND*%
X97050000Y-109950000D03*
%TO.N,3.3V*%
X108950000Y-107050000D03*
X107950000Y-114950000D03*
%TO.N,Net-(J4-Pin_9)*%
X101050000Y-102050000D03*
%TO.N,3.3V*%
X99050000Y-100050000D03*
%TO.N,1.8V*%
X101050000Y-106050000D03*
%TO.N,CLK*%
X107950000Y-112950000D03*
%TO.N,Net-(J3-Pin_10)*%
X105950000Y-110950000D03*
%TO.N,GND*%
X95050000Y-103050000D03*
%TD*%
%TA.AperFunction,Conductor*%
%TO.N,GND*%
G36*
X126942539Y-73020185D02*
G01*
X126988294Y-73072989D01*
X126999500Y-73124500D01*
X126999500Y-122875500D01*
X126979815Y-122942539D01*
X126927011Y-122988294D01*
X126875500Y-122999500D01*
X77124500Y-122999500D01*
X77057461Y-122979815D01*
X77011706Y-122927011D01*
X77000500Y-122875500D01*
X77000500Y-120550003D01*
X84194508Y-120550003D01*
X84214352Y-120675300D01*
X84214352Y-120675301D01*
X84219449Y-120685304D01*
X84271950Y-120788342D01*
X84271952Y-120788344D01*
X84271954Y-120788347D01*
X84361652Y-120878045D01*
X84361654Y-120878046D01*
X84361658Y-120878050D01*
X84474696Y-120935646D01*
X84474697Y-120935646D01*
X84474699Y-120935647D01*
X84599997Y-120955492D01*
X84600000Y-120955492D01*
X84600003Y-120955492D01*
X84634659Y-120950003D01*
X102444508Y-120950003D01*
X102464352Y-121075300D01*
X102464352Y-121075301D01*
X102464354Y-121075304D01*
X102521950Y-121188342D01*
X102521952Y-121188344D01*
X102521954Y-121188347D01*
X102611652Y-121278045D01*
X102611654Y-121278046D01*
X102611658Y-121278050D01*
X102724696Y-121335646D01*
X102724697Y-121335646D01*
X102724699Y-121335647D01*
X102849997Y-121355492D01*
X102850000Y-121355492D01*
X102850003Y-121355492D01*
X102975300Y-121335647D01*
X102975301Y-121335647D01*
X102975302Y-121335646D01*
X102975304Y-121335646D01*
X103088342Y-121278050D01*
X103178050Y-121188342D01*
X103235646Y-121075304D01*
X103235646Y-121075302D01*
X103235647Y-121075301D01*
X103235647Y-121075300D01*
X103255492Y-120950003D01*
X103255492Y-120949996D01*
X103235647Y-120824699D01*
X103235647Y-120824698D01*
X103217125Y-120788347D01*
X103178050Y-120711658D01*
X103178046Y-120711654D01*
X103178045Y-120711652D01*
X103088347Y-120621954D01*
X103088344Y-120621952D01*
X103088342Y-120621950D01*
X102975304Y-120564354D01*
X102975303Y-120564353D01*
X102975300Y-120564352D01*
X102947840Y-120560003D01*
X122489508Y-120560003D01*
X122509352Y-120685300D01*
X122509352Y-120685301D01*
X122522782Y-120711658D01*
X122566950Y-120798342D01*
X122566952Y-120798344D01*
X122566954Y-120798347D01*
X122656652Y-120888045D01*
X122656654Y-120888046D01*
X122656658Y-120888050D01*
X122769696Y-120945646D01*
X122769697Y-120945646D01*
X122769699Y-120945647D01*
X122894997Y-120965492D01*
X122895000Y-120965492D01*
X122895003Y-120965492D01*
X123020300Y-120945647D01*
X123020301Y-120945647D01*
X123020302Y-120945646D01*
X123020304Y-120945646D01*
X123133342Y-120888050D01*
X123223050Y-120798342D01*
X123280646Y-120685304D01*
X123280646Y-120685302D01*
X123280647Y-120685301D01*
X123280647Y-120685300D01*
X123300492Y-120560003D01*
X123300492Y-120559996D01*
X123280647Y-120434699D01*
X123280647Y-120434698D01*
X123275551Y-120424696D01*
X123223050Y-120321658D01*
X123223046Y-120321654D01*
X123223045Y-120321652D01*
X123133347Y-120231954D01*
X123133344Y-120231952D01*
X123133342Y-120231950D01*
X123020304Y-120174354D01*
X123020303Y-120174353D01*
X123020300Y-120174352D01*
X122895003Y-120154508D01*
X122894997Y-120154508D01*
X122769699Y-120174352D01*
X122769698Y-120174352D01*
X122694337Y-120212751D01*
X122656658Y-120231950D01*
X122656657Y-120231951D01*
X122656652Y-120231954D01*
X122566954Y-120321652D01*
X122566951Y-120321657D01*
X122509352Y-120434698D01*
X122509352Y-120434699D01*
X122489508Y-120559996D01*
X122489508Y-120560003D01*
X102947840Y-120560003D01*
X102850003Y-120544508D01*
X102849997Y-120544508D01*
X102724699Y-120564352D01*
X102724698Y-120564352D01*
X102649337Y-120602751D01*
X102611658Y-120621950D01*
X102611657Y-120621951D01*
X102611652Y-120621954D01*
X102521954Y-120711652D01*
X102521951Y-120711657D01*
X102464352Y-120824698D01*
X102464352Y-120824699D01*
X102444508Y-120949996D01*
X102444508Y-120950003D01*
X84634659Y-120950003D01*
X84725300Y-120935647D01*
X84725301Y-120935647D01*
X84725302Y-120935646D01*
X84725304Y-120935646D01*
X84838342Y-120878050D01*
X84928050Y-120788342D01*
X84985646Y-120675304D01*
X84985646Y-120675302D01*
X84985647Y-120675301D01*
X84985647Y-120675300D01*
X85005492Y-120550003D01*
X85005492Y-120549996D01*
X84985647Y-120424699D01*
X84985647Y-120424698D01*
X84985646Y-120424696D01*
X84928050Y-120311658D01*
X84928046Y-120311654D01*
X84928045Y-120311652D01*
X84838347Y-120221954D01*
X84838344Y-120221952D01*
X84838342Y-120221950D01*
X84725304Y-120164354D01*
X84725303Y-120164353D01*
X84725300Y-120164352D01*
X84600003Y-120144508D01*
X84599997Y-120144508D01*
X84474699Y-120164352D01*
X84474698Y-120164352D01*
X84399337Y-120202751D01*
X84361658Y-120221950D01*
X84361657Y-120221951D01*
X84361652Y-120221954D01*
X84271954Y-120311652D01*
X84271951Y-120311657D01*
X84271950Y-120311658D01*
X84266855Y-120321658D01*
X84214352Y-120424698D01*
X84214352Y-120424699D01*
X84194508Y-120549996D01*
X84194508Y-120550003D01*
X77000500Y-120550003D01*
X77000500Y-118000003D01*
X80644508Y-118000003D01*
X80664352Y-118125300D01*
X80664352Y-118125301D01*
X80669449Y-118135304D01*
X80721950Y-118238342D01*
X80721952Y-118238344D01*
X80721954Y-118238347D01*
X80811652Y-118328045D01*
X80811654Y-118328046D01*
X80811658Y-118328050D01*
X80924696Y-118385646D01*
X80924697Y-118385646D01*
X80924699Y-118385647D01*
X81049997Y-118405492D01*
X81050000Y-118405492D01*
X81050003Y-118405492D01*
X81175300Y-118385647D01*
X81175301Y-118385647D01*
X81175302Y-118385646D01*
X81175304Y-118385646D01*
X81288342Y-118328050D01*
X81378050Y-118238342D01*
X81435646Y-118125304D01*
X81435646Y-118125302D01*
X81435647Y-118125301D01*
X81435647Y-118125300D01*
X81453908Y-118010003D01*
X119039508Y-118010003D01*
X119059352Y-118135300D01*
X119059352Y-118135301D01*
X119059354Y-118135304D01*
X119116950Y-118248342D01*
X119116952Y-118248344D01*
X119116954Y-118248347D01*
X119206652Y-118338045D01*
X119206654Y-118338046D01*
X119206658Y-118338050D01*
X119319696Y-118395646D01*
X119319697Y-118395646D01*
X119319699Y-118395647D01*
X119444997Y-118415492D01*
X119445000Y-118415492D01*
X119445003Y-118415492D01*
X119570300Y-118395647D01*
X119570301Y-118395647D01*
X119570302Y-118395646D01*
X119570304Y-118395646D01*
X119683342Y-118338050D01*
X119773050Y-118248342D01*
X119830646Y-118135304D01*
X119830646Y-118135302D01*
X119830647Y-118135301D01*
X119830647Y-118135300D01*
X119850492Y-118010003D01*
X119850492Y-118009996D01*
X119830647Y-117884699D01*
X119830647Y-117884698D01*
X119825551Y-117874696D01*
X119773050Y-117771658D01*
X119773046Y-117771654D01*
X119773045Y-117771652D01*
X119683347Y-117681954D01*
X119683344Y-117681952D01*
X119683342Y-117681950D01*
X119570304Y-117624354D01*
X119570303Y-117624353D01*
X119570300Y-117624352D01*
X119445003Y-117604508D01*
X119444997Y-117604508D01*
X119319699Y-117624352D01*
X119319698Y-117624352D01*
X119244337Y-117662751D01*
X119206658Y-117681950D01*
X119206657Y-117681951D01*
X119206652Y-117681954D01*
X119116954Y-117771652D01*
X119116951Y-117771657D01*
X119059352Y-117884698D01*
X119059352Y-117884699D01*
X119039508Y-118009996D01*
X119039508Y-118010003D01*
X81453908Y-118010003D01*
X81455492Y-118000003D01*
X81455492Y-117999996D01*
X81435647Y-117874699D01*
X81435647Y-117874698D01*
X81435646Y-117874696D01*
X81378050Y-117761658D01*
X81378046Y-117761654D01*
X81378045Y-117761652D01*
X81288347Y-117671954D01*
X81288344Y-117671952D01*
X81288342Y-117671950D01*
X81175304Y-117614354D01*
X81175303Y-117614353D01*
X81175300Y-117614352D01*
X81050003Y-117594508D01*
X81049997Y-117594508D01*
X80924699Y-117614352D01*
X80924698Y-117614352D01*
X80849337Y-117652751D01*
X80811658Y-117671950D01*
X80811657Y-117671951D01*
X80811652Y-117671954D01*
X80721954Y-117761652D01*
X80721951Y-117761657D01*
X80721950Y-117761658D01*
X80716855Y-117771658D01*
X80664352Y-117874698D01*
X80664352Y-117874699D01*
X80644508Y-117999996D01*
X80644508Y-118000003D01*
X77000500Y-118000003D01*
X77000500Y-115950003D01*
X93644508Y-115950003D01*
X93664352Y-116075300D01*
X93664352Y-116075301D01*
X93664354Y-116075304D01*
X93721950Y-116188342D01*
X93721952Y-116188344D01*
X93721954Y-116188347D01*
X93811652Y-116278045D01*
X93811654Y-116278046D01*
X93811658Y-116278050D01*
X93924696Y-116335646D01*
X93924697Y-116335646D01*
X93924699Y-116335647D01*
X94049997Y-116355492D01*
X94050000Y-116355492D01*
X94050003Y-116355492D01*
X94175300Y-116335647D01*
X94175301Y-116335647D01*
X94175302Y-116335646D01*
X94175304Y-116335646D01*
X94288342Y-116278050D01*
X94378050Y-116188342D01*
X94435646Y-116075304D01*
X94435646Y-116075302D01*
X94435647Y-116075301D01*
X94435647Y-116075300D01*
X94455492Y-115950003D01*
X104544508Y-115950003D01*
X104564352Y-116075300D01*
X104564352Y-116075301D01*
X104564354Y-116075304D01*
X104621950Y-116188342D01*
X104621952Y-116188344D01*
X104621954Y-116188347D01*
X104711652Y-116278045D01*
X104711654Y-116278046D01*
X104711658Y-116278050D01*
X104824696Y-116335646D01*
X104824697Y-116335646D01*
X104824699Y-116335647D01*
X104949997Y-116355492D01*
X104950000Y-116355492D01*
X104950003Y-116355492D01*
X105075300Y-116335647D01*
X105075301Y-116335647D01*
X105075302Y-116335646D01*
X105075304Y-116335646D01*
X105188342Y-116278050D01*
X105278050Y-116188342D01*
X105335646Y-116075304D01*
X105335646Y-116075302D01*
X105335647Y-116075301D01*
X105335647Y-116075300D01*
X105355492Y-115950003D01*
X107544508Y-115950003D01*
X107564352Y-116075300D01*
X107564352Y-116075301D01*
X107564354Y-116075304D01*
X107621950Y-116188342D01*
X107621952Y-116188344D01*
X107621954Y-116188347D01*
X107711652Y-116278045D01*
X107711654Y-116278046D01*
X107711658Y-116278050D01*
X107824696Y-116335646D01*
X107824697Y-116335646D01*
X107824699Y-116335647D01*
X107949997Y-116355492D01*
X107950000Y-116355492D01*
X107950003Y-116355492D01*
X108075300Y-116335647D01*
X108075301Y-116335647D01*
X108075302Y-116335646D01*
X108075304Y-116335646D01*
X108188342Y-116278050D01*
X108278050Y-116188342D01*
X108335646Y-116075304D01*
X108335646Y-116075302D01*
X108339515Y-116067710D01*
X108387490Y-116016914D01*
X108455311Y-116000119D01*
X108521446Y-116022657D01*
X108560485Y-116067710D01*
X108564353Y-116075302D01*
X108564354Y-116075304D01*
X108621950Y-116188342D01*
X108621952Y-116188344D01*
X108621954Y-116188347D01*
X108711652Y-116278045D01*
X108711654Y-116278046D01*
X108711658Y-116278050D01*
X108824696Y-116335646D01*
X108824697Y-116335646D01*
X108824699Y-116335647D01*
X108949997Y-116355492D01*
X108950000Y-116355492D01*
X108950003Y-116355492D01*
X109075300Y-116335647D01*
X109075301Y-116335647D01*
X109075302Y-116335646D01*
X109075304Y-116335646D01*
X109188342Y-116278050D01*
X109278050Y-116188342D01*
X109335646Y-116075304D01*
X109335646Y-116075302D01*
X109335647Y-116075301D01*
X109335647Y-116075300D01*
X109355492Y-115950003D01*
X109355492Y-115949996D01*
X109335647Y-115824699D01*
X109335647Y-115824698D01*
X109335646Y-115824696D01*
X109278050Y-115711658D01*
X109278046Y-115711654D01*
X109278045Y-115711652D01*
X109188347Y-115621954D01*
X109188344Y-115621952D01*
X109188342Y-115621950D01*
X109075304Y-115564354D01*
X109075302Y-115564353D01*
X109067710Y-115560485D01*
X109016914Y-115512510D01*
X109003911Y-115460003D01*
X122489508Y-115460003D01*
X122509352Y-115585300D01*
X122509352Y-115585301D01*
X122509354Y-115585304D01*
X122566950Y-115698342D01*
X122566952Y-115698344D01*
X122566954Y-115698347D01*
X122656652Y-115788045D01*
X122656654Y-115788046D01*
X122656658Y-115788050D01*
X122769696Y-115845646D01*
X122769697Y-115845646D01*
X122769699Y-115845647D01*
X122894997Y-115865492D01*
X122895000Y-115865492D01*
X122895003Y-115865492D01*
X123020300Y-115845647D01*
X123020301Y-115845647D01*
X123020302Y-115845646D01*
X123020304Y-115845646D01*
X123133342Y-115788050D01*
X123223050Y-115698342D01*
X123280646Y-115585304D01*
X123280646Y-115585302D01*
X123280647Y-115585301D01*
X123280647Y-115585300D01*
X123300492Y-115460003D01*
X123300492Y-115459996D01*
X123280647Y-115334699D01*
X123280647Y-115334698D01*
X123251782Y-115278048D01*
X123223050Y-115221658D01*
X123223046Y-115221654D01*
X123223045Y-115221652D01*
X123133347Y-115131954D01*
X123133344Y-115131952D01*
X123133342Y-115131950D01*
X123020304Y-115074354D01*
X123020303Y-115074353D01*
X123020300Y-115074352D01*
X122895003Y-115054508D01*
X122894997Y-115054508D01*
X122769699Y-115074352D01*
X122769698Y-115074352D01*
X122694337Y-115112751D01*
X122656658Y-115131950D01*
X122656657Y-115131951D01*
X122656652Y-115131954D01*
X122566954Y-115221652D01*
X122566951Y-115221657D01*
X122509352Y-115334698D01*
X122509352Y-115334699D01*
X122489508Y-115459996D01*
X122489508Y-115460003D01*
X109003911Y-115460003D01*
X109000119Y-115444689D01*
X109022657Y-115378554D01*
X109067710Y-115339515D01*
X109075302Y-115335646D01*
X109075304Y-115335646D01*
X109188342Y-115278050D01*
X109278050Y-115188342D01*
X109335646Y-115075304D01*
X109335646Y-115075302D01*
X109339515Y-115067710D01*
X109387490Y-115016914D01*
X109455311Y-115000119D01*
X109521446Y-115022657D01*
X109560485Y-115067710D01*
X109564353Y-115075302D01*
X109564354Y-115075304D01*
X109621950Y-115188342D01*
X109621952Y-115188344D01*
X109621954Y-115188347D01*
X109711652Y-115278045D01*
X109711654Y-115278046D01*
X109711658Y-115278050D01*
X109824696Y-115335646D01*
X109824697Y-115335646D01*
X109824699Y-115335647D01*
X109949997Y-115355492D01*
X109950000Y-115355492D01*
X109950003Y-115355492D01*
X110075300Y-115335647D01*
X110075301Y-115335647D01*
X110075302Y-115335646D01*
X110075304Y-115335646D01*
X110188342Y-115278050D01*
X110278050Y-115188342D01*
X110335646Y-115075304D01*
X110335646Y-115075302D01*
X110335647Y-115075301D01*
X110335647Y-115075300D01*
X110355492Y-114950003D01*
X110355492Y-114949996D01*
X110335647Y-114824699D01*
X110335647Y-114824698D01*
X110335646Y-114824696D01*
X110278050Y-114711658D01*
X110278046Y-114711654D01*
X110278045Y-114711652D01*
X110188347Y-114621954D01*
X110188344Y-114621952D01*
X110188342Y-114621950D01*
X110075304Y-114564354D01*
X110075302Y-114564353D01*
X110067710Y-114560485D01*
X110016914Y-114512510D01*
X110000119Y-114444689D01*
X110022657Y-114378554D01*
X110067710Y-114339515D01*
X110075302Y-114335646D01*
X110075304Y-114335646D01*
X110188342Y-114278050D01*
X110278050Y-114188342D01*
X110335646Y-114075304D01*
X110335646Y-114075302D01*
X110335647Y-114075301D01*
X110335647Y-114075300D01*
X110355492Y-113950003D01*
X110355492Y-113949996D01*
X110335647Y-113824699D01*
X110335647Y-113824698D01*
X110303526Y-113761658D01*
X110278050Y-113711658D01*
X110278046Y-113711654D01*
X110278045Y-113711652D01*
X110188347Y-113621954D01*
X110188344Y-113621952D01*
X110188342Y-113621950D01*
X110075304Y-113564354D01*
X110075302Y-113564353D01*
X110067710Y-113560485D01*
X110016914Y-113512510D01*
X110000119Y-113444689D01*
X110022657Y-113378554D01*
X110067710Y-113339515D01*
X110075302Y-113335646D01*
X110075304Y-113335646D01*
X110188342Y-113278050D01*
X110278050Y-113188342D01*
X110335646Y-113075304D01*
X110335646Y-113075302D01*
X110335647Y-113075301D01*
X110335647Y-113075300D01*
X110353908Y-112960003D01*
X118889508Y-112960003D01*
X118909352Y-113085300D01*
X118909352Y-113085301D01*
X118909354Y-113085304D01*
X118966950Y-113198342D01*
X118966952Y-113198344D01*
X118966954Y-113198347D01*
X119056652Y-113288045D01*
X119056654Y-113288046D01*
X119056658Y-113288050D01*
X119169696Y-113345646D01*
X119169697Y-113345646D01*
X119169699Y-113345647D01*
X119294997Y-113365492D01*
X119295000Y-113365492D01*
X119295003Y-113365492D01*
X119420300Y-113345647D01*
X119420301Y-113345647D01*
X119420302Y-113345646D01*
X119420304Y-113345646D01*
X119533342Y-113288050D01*
X119623050Y-113198342D01*
X119680646Y-113085304D01*
X119680646Y-113085302D01*
X119680647Y-113085301D01*
X119680647Y-113085300D01*
X119700492Y-112960003D01*
X119700492Y-112959996D01*
X119680647Y-112834699D01*
X119680647Y-112834698D01*
X119675551Y-112824696D01*
X119623050Y-112721658D01*
X119623046Y-112721654D01*
X119623045Y-112721652D01*
X119533347Y-112631954D01*
X119533344Y-112631952D01*
X119533342Y-112631950D01*
X119420304Y-112574354D01*
X119420303Y-112574353D01*
X119420300Y-112574352D01*
X119295003Y-112554508D01*
X119294997Y-112554508D01*
X119169699Y-112574352D01*
X119169698Y-112574352D01*
X119094337Y-112612751D01*
X119056658Y-112631950D01*
X119056657Y-112631951D01*
X119056652Y-112631954D01*
X118966954Y-112721652D01*
X118966951Y-112721657D01*
X118909352Y-112834698D01*
X118909352Y-112834699D01*
X118889508Y-112959996D01*
X118889508Y-112960003D01*
X110353908Y-112960003D01*
X110355492Y-112950003D01*
X110355492Y-112949996D01*
X110335647Y-112824699D01*
X110335647Y-112824698D01*
X110335646Y-112824696D01*
X110278050Y-112711658D01*
X110278046Y-112711654D01*
X110278045Y-112711652D01*
X110188347Y-112621954D01*
X110188344Y-112621952D01*
X110188342Y-112621950D01*
X110075304Y-112564354D01*
X110075302Y-112564353D01*
X110067710Y-112560485D01*
X110016914Y-112512510D01*
X110000119Y-112444689D01*
X110022657Y-112378554D01*
X110067710Y-112339515D01*
X110075302Y-112335646D01*
X110075304Y-112335646D01*
X110188342Y-112278050D01*
X110278050Y-112188342D01*
X110335646Y-112075304D01*
X110335646Y-112075302D01*
X110335647Y-112075301D01*
X110335647Y-112075300D01*
X110355492Y-111950003D01*
X110355492Y-111949996D01*
X110335647Y-111824699D01*
X110335647Y-111824698D01*
X110335646Y-111824696D01*
X110278050Y-111711658D01*
X110278046Y-111711654D01*
X110278045Y-111711652D01*
X110188347Y-111621954D01*
X110188344Y-111621952D01*
X110188342Y-111621950D01*
X110075304Y-111564354D01*
X110075302Y-111564353D01*
X110067710Y-111560485D01*
X110016914Y-111512510D01*
X110000119Y-111444689D01*
X110022657Y-111378554D01*
X110067710Y-111339515D01*
X110075302Y-111335646D01*
X110075304Y-111335646D01*
X110188342Y-111278050D01*
X110278050Y-111188342D01*
X110335646Y-111075304D01*
X110335646Y-111075302D01*
X110335647Y-111075301D01*
X110335647Y-111075300D01*
X110355492Y-110950003D01*
X110355492Y-110949996D01*
X110335647Y-110824699D01*
X110335647Y-110824698D01*
X110322909Y-110799699D01*
X110278050Y-110711658D01*
X110278046Y-110711654D01*
X110278045Y-110711652D01*
X110188347Y-110621954D01*
X110188344Y-110621952D01*
X110188342Y-110621950D01*
X110075304Y-110564354D01*
X110075303Y-110564353D01*
X110075300Y-110564352D01*
X109950003Y-110544508D01*
X109949997Y-110544508D01*
X109824699Y-110564352D01*
X109824698Y-110564352D01*
X109760723Y-110596950D01*
X109711658Y-110621950D01*
X109711657Y-110621951D01*
X109711652Y-110621954D01*
X109621954Y-110711652D01*
X109621949Y-110711659D01*
X109560484Y-110832290D01*
X109512510Y-110883085D01*
X109444689Y-110899880D01*
X109378554Y-110877342D01*
X109339516Y-110832290D01*
X109286401Y-110728048D01*
X109278050Y-110711658D01*
X109278047Y-110711655D01*
X109278045Y-110711652D01*
X109188347Y-110621954D01*
X109188344Y-110621952D01*
X109188342Y-110621950D01*
X109075304Y-110564354D01*
X109075303Y-110564353D01*
X109075300Y-110564352D01*
X108950003Y-110544508D01*
X108949997Y-110544508D01*
X108824699Y-110564352D01*
X108824698Y-110564352D01*
X108760723Y-110596950D01*
X108711658Y-110621950D01*
X108711657Y-110621951D01*
X108711652Y-110621954D01*
X108621954Y-110711652D01*
X108621951Y-110711657D01*
X108621950Y-110711658D01*
X108613599Y-110728048D01*
X108564352Y-110824698D01*
X108564352Y-110824699D01*
X108544508Y-110949996D01*
X108544508Y-110950003D01*
X108564352Y-111075300D01*
X108564352Y-111075301D01*
X108564354Y-111075304D01*
X108621950Y-111188342D01*
X108621952Y-111188344D01*
X108621954Y-111188347D01*
X108711652Y-111278045D01*
X108711654Y-111278046D01*
X108711658Y-111278050D01*
X108824696Y-111335646D01*
X108824697Y-111335646D01*
X108824699Y-111335647D01*
X108949997Y-111355492D01*
X108950000Y-111355492D01*
X108950003Y-111355492D01*
X109075300Y-111335647D01*
X109075301Y-111335647D01*
X109075302Y-111335646D01*
X109075304Y-111335646D01*
X109188342Y-111278050D01*
X109278050Y-111188342D01*
X109335646Y-111075304D01*
X109335646Y-111075302D01*
X109339515Y-111067710D01*
X109387490Y-111016914D01*
X109455311Y-111000119D01*
X109521446Y-111022657D01*
X109560485Y-111067710D01*
X109564353Y-111075302D01*
X109564354Y-111075304D01*
X109621950Y-111188342D01*
X109621952Y-111188344D01*
X109621954Y-111188347D01*
X109711652Y-111278045D01*
X109711655Y-111278047D01*
X109711658Y-111278050D01*
X109764845Y-111305150D01*
X109832290Y-111339516D01*
X109883085Y-111387490D01*
X109899880Y-111455311D01*
X109877342Y-111521446D01*
X109832290Y-111560484D01*
X109711659Y-111621949D01*
X109711652Y-111621954D01*
X109621954Y-111711652D01*
X109621951Y-111711657D01*
X109621950Y-111711658D01*
X109602751Y-111749337D01*
X109564352Y-111824698D01*
X109564352Y-111824699D01*
X109544508Y-111949996D01*
X109544508Y-111950003D01*
X109564352Y-112075300D01*
X109564352Y-112075301D01*
X109564354Y-112075304D01*
X109621950Y-112188342D01*
X109621952Y-112188344D01*
X109621954Y-112188347D01*
X109711652Y-112278045D01*
X109711655Y-112278047D01*
X109711658Y-112278050D01*
X109764845Y-112305150D01*
X109832290Y-112339516D01*
X109883085Y-112387490D01*
X109899880Y-112455311D01*
X109877342Y-112521446D01*
X109832290Y-112560484D01*
X109711659Y-112621949D01*
X109711652Y-112621954D01*
X109621954Y-112711652D01*
X109621951Y-112711657D01*
X109621950Y-112711658D01*
X109616855Y-112721658D01*
X109564352Y-112824698D01*
X109564352Y-112824699D01*
X109544508Y-112949996D01*
X109544508Y-112950003D01*
X109564352Y-113075300D01*
X109564352Y-113075301D01*
X109569449Y-113085304D01*
X109621950Y-113188342D01*
X109621952Y-113188344D01*
X109621954Y-113188347D01*
X109711652Y-113278045D01*
X109711655Y-113278047D01*
X109711658Y-113278050D01*
X109764845Y-113305150D01*
X109832290Y-113339516D01*
X109883085Y-113387490D01*
X109899880Y-113455311D01*
X109877342Y-113521446D01*
X109832290Y-113560484D01*
X109711659Y-113621949D01*
X109711652Y-113621954D01*
X109621954Y-113711652D01*
X109621949Y-113711659D01*
X109560484Y-113832290D01*
X109512510Y-113883085D01*
X109444689Y-113899880D01*
X109378554Y-113877342D01*
X109339516Y-113832290D01*
X109303523Y-113761652D01*
X109278050Y-113711658D01*
X109278047Y-113711655D01*
X109278045Y-113711652D01*
X109188347Y-113621954D01*
X109188344Y-113621952D01*
X109188342Y-113621950D01*
X109075304Y-113564354D01*
X109075303Y-113564353D01*
X109075300Y-113564352D01*
X108950003Y-113544508D01*
X108949997Y-113544508D01*
X108824699Y-113564352D01*
X108824698Y-113564352D01*
X108749337Y-113602751D01*
X108711658Y-113621950D01*
X108711657Y-113621951D01*
X108711652Y-113621954D01*
X108621954Y-113711652D01*
X108621951Y-113711657D01*
X108621950Y-113711658D01*
X108602751Y-113749337D01*
X108564352Y-113824698D01*
X108564352Y-113824699D01*
X108544508Y-113949996D01*
X108544508Y-113950003D01*
X108564352Y-114075300D01*
X108564352Y-114075301D01*
X108564354Y-114075304D01*
X108621950Y-114188342D01*
X108621952Y-114188344D01*
X108621954Y-114188347D01*
X108711652Y-114278045D01*
X108711655Y-114278047D01*
X108711658Y-114278050D01*
X108764845Y-114305150D01*
X108832290Y-114339516D01*
X108883085Y-114387490D01*
X108899880Y-114455311D01*
X108877342Y-114521446D01*
X108832290Y-114560484D01*
X108711659Y-114621949D01*
X108711652Y-114621954D01*
X108621954Y-114711652D01*
X108621949Y-114711659D01*
X108560484Y-114832290D01*
X108512510Y-114883085D01*
X108444689Y-114899880D01*
X108378554Y-114877342D01*
X108339516Y-114832290D01*
X108305150Y-114764845D01*
X108278050Y-114711658D01*
X108278047Y-114711655D01*
X108278045Y-114711652D01*
X108188347Y-114621954D01*
X108188344Y-114621952D01*
X108188342Y-114621950D01*
X108075304Y-114564354D01*
X108075303Y-114564353D01*
X108075300Y-114564352D01*
X107950003Y-114544508D01*
X107949997Y-114544508D01*
X107824699Y-114564352D01*
X107824698Y-114564352D01*
X107749337Y-114602751D01*
X107711658Y-114621950D01*
X107711657Y-114621951D01*
X107711652Y-114621954D01*
X107621954Y-114711652D01*
X107621951Y-114711657D01*
X107621950Y-114711658D01*
X107602751Y-114749337D01*
X107564352Y-114824698D01*
X107564352Y-114824699D01*
X107544508Y-114949996D01*
X107544508Y-114950003D01*
X107564352Y-115075300D01*
X107564352Y-115075301D01*
X107564354Y-115075304D01*
X107621950Y-115188342D01*
X107621952Y-115188344D01*
X107621954Y-115188347D01*
X107711652Y-115278045D01*
X107711655Y-115278047D01*
X107711658Y-115278050D01*
X107764845Y-115305150D01*
X107832290Y-115339516D01*
X107883085Y-115387490D01*
X107899880Y-115455311D01*
X107877342Y-115521446D01*
X107832290Y-115560484D01*
X107711659Y-115621949D01*
X107711652Y-115621954D01*
X107621954Y-115711652D01*
X107621951Y-115711657D01*
X107621950Y-115711658D01*
X107602751Y-115749337D01*
X107564352Y-115824698D01*
X107564352Y-115824699D01*
X107544508Y-115949996D01*
X107544508Y-115950003D01*
X105355492Y-115950003D01*
X105355492Y-115949996D01*
X105335647Y-115824699D01*
X105335647Y-115824698D01*
X105335646Y-115824696D01*
X105278050Y-115711658D01*
X105278046Y-115711654D01*
X105278045Y-115711652D01*
X105188347Y-115621954D01*
X105188344Y-115621952D01*
X105188342Y-115621950D01*
X105075304Y-115564354D01*
X105075303Y-115564353D01*
X105075300Y-115564352D01*
X104950003Y-115544508D01*
X104949997Y-115544508D01*
X104824699Y-115564352D01*
X104824698Y-115564352D01*
X104783585Y-115585301D01*
X104711658Y-115621950D01*
X104711657Y-115621951D01*
X104711652Y-115621954D01*
X104621954Y-115711652D01*
X104621951Y-115711657D01*
X104621950Y-115711658D01*
X104602751Y-115749337D01*
X104564352Y-115824698D01*
X104564352Y-115824699D01*
X104544508Y-115949996D01*
X104544508Y-115950003D01*
X94455492Y-115950003D01*
X94455492Y-115949996D01*
X94435647Y-115824699D01*
X94435647Y-115824698D01*
X94435646Y-115824696D01*
X94378050Y-115711658D01*
X94378046Y-115711654D01*
X94378045Y-115711652D01*
X94288347Y-115621954D01*
X94288344Y-115621952D01*
X94288342Y-115621950D01*
X94175304Y-115564354D01*
X94175303Y-115564353D01*
X94175300Y-115564352D01*
X94050003Y-115544508D01*
X94049997Y-115544508D01*
X93924699Y-115564352D01*
X93924698Y-115564352D01*
X93883585Y-115585301D01*
X93811658Y-115621950D01*
X93811657Y-115621951D01*
X93811652Y-115621954D01*
X93721954Y-115711652D01*
X93721951Y-115711657D01*
X93721950Y-115711658D01*
X93702751Y-115749337D01*
X93664352Y-115824698D01*
X93664352Y-115824699D01*
X93644508Y-115949996D01*
X93644508Y-115950003D01*
X77000500Y-115950003D01*
X77000500Y-115450003D01*
X84294508Y-115450003D01*
X84314352Y-115575300D01*
X84314352Y-115575301D01*
X84319449Y-115585304D01*
X84371950Y-115688342D01*
X84371952Y-115688344D01*
X84371954Y-115688347D01*
X84461652Y-115778045D01*
X84461654Y-115778046D01*
X84461658Y-115778050D01*
X84574696Y-115835646D01*
X84574697Y-115835646D01*
X84574699Y-115835647D01*
X84699997Y-115855492D01*
X84700000Y-115855492D01*
X84700003Y-115855492D01*
X84825300Y-115835647D01*
X84825301Y-115835647D01*
X84825302Y-115835646D01*
X84825304Y-115835646D01*
X84938342Y-115778050D01*
X85028050Y-115688342D01*
X85085646Y-115575304D01*
X85085646Y-115575302D01*
X85085647Y-115575301D01*
X85085647Y-115575300D01*
X85105492Y-115450003D01*
X85105492Y-115449996D01*
X85085647Y-115324699D01*
X85085647Y-115324698D01*
X85085646Y-115324696D01*
X85028050Y-115211658D01*
X85028046Y-115211654D01*
X85028045Y-115211652D01*
X84938347Y-115121954D01*
X84938344Y-115121952D01*
X84938342Y-115121950D01*
X84825304Y-115064354D01*
X84825303Y-115064353D01*
X84825300Y-115064352D01*
X84700003Y-115044508D01*
X84699997Y-115044508D01*
X84574699Y-115064352D01*
X84574698Y-115064352D01*
X84499337Y-115102751D01*
X84461658Y-115121950D01*
X84461657Y-115121951D01*
X84461652Y-115121954D01*
X84371954Y-115211652D01*
X84371951Y-115211657D01*
X84371950Y-115211658D01*
X84366855Y-115221658D01*
X84314352Y-115324698D01*
X84314352Y-115324699D01*
X84294508Y-115449996D01*
X84294508Y-115450003D01*
X77000500Y-115450003D01*
X77000500Y-114950003D01*
X96644508Y-114950003D01*
X96664352Y-115075300D01*
X96664352Y-115075301D01*
X96664354Y-115075304D01*
X96721950Y-115188342D01*
X96721952Y-115188344D01*
X96721954Y-115188347D01*
X96811652Y-115278045D01*
X96811654Y-115278046D01*
X96811658Y-115278050D01*
X96924696Y-115335646D01*
X96924697Y-115335646D01*
X96924699Y-115335647D01*
X97049997Y-115355492D01*
X97050000Y-115355492D01*
X97050003Y-115355492D01*
X97175300Y-115335647D01*
X97175301Y-115335647D01*
X97175302Y-115335646D01*
X97175304Y-115335646D01*
X97288342Y-115278050D01*
X97378050Y-115188342D01*
X97435646Y-115075304D01*
X97435646Y-115075302D01*
X97435647Y-115075301D01*
X97435647Y-115075300D01*
X97455492Y-114950003D01*
X97455492Y-114949996D01*
X97435647Y-114824699D01*
X97435647Y-114824698D01*
X97435646Y-114824696D01*
X97378050Y-114711658D01*
X97378046Y-114711654D01*
X97378045Y-114711652D01*
X97288347Y-114621954D01*
X97288344Y-114621952D01*
X97288342Y-114621950D01*
X97175304Y-114564354D01*
X97175303Y-114564353D01*
X97175300Y-114564352D01*
X97050003Y-114544508D01*
X97049997Y-114544508D01*
X96924699Y-114564352D01*
X96924698Y-114564352D01*
X96849337Y-114602751D01*
X96811658Y-114621950D01*
X96811657Y-114621951D01*
X96811652Y-114621954D01*
X96721954Y-114711652D01*
X96721951Y-114711657D01*
X96721950Y-114711658D01*
X96702751Y-114749337D01*
X96664352Y-114824698D01*
X96664352Y-114824699D01*
X96644508Y-114949996D01*
X96644508Y-114950003D01*
X77000500Y-114950003D01*
X77000500Y-114000003D01*
X99644508Y-114000003D01*
X99664352Y-114125300D01*
X99664352Y-114125301D01*
X99664354Y-114125304D01*
X99721950Y-114238342D01*
X99721952Y-114238344D01*
X99721954Y-114238347D01*
X99811652Y-114328045D01*
X99811654Y-114328046D01*
X99811658Y-114328050D01*
X99924696Y-114385646D01*
X99924697Y-114385646D01*
X99924699Y-114385647D01*
X100049997Y-114405492D01*
X100050000Y-114405492D01*
X100050003Y-114405492D01*
X100175300Y-114385647D01*
X100175301Y-114385647D01*
X100175302Y-114385646D01*
X100175304Y-114385646D01*
X100288342Y-114328050D01*
X100378050Y-114238342D01*
X100435646Y-114125304D01*
X100435646Y-114125302D01*
X100435647Y-114125301D01*
X100435647Y-114125300D01*
X100455492Y-114000003D01*
X100455492Y-113999996D01*
X100435647Y-113874699D01*
X100435647Y-113874698D01*
X100435646Y-113874696D01*
X100378050Y-113761658D01*
X100378046Y-113761654D01*
X100378045Y-113761652D01*
X100288347Y-113671954D01*
X100288344Y-113671952D01*
X100288342Y-113671950D01*
X100175304Y-113614354D01*
X100175303Y-113614353D01*
X100175300Y-113614352D01*
X100068724Y-113597473D01*
X100050349Y-113588762D01*
X100031276Y-113597473D01*
X99924698Y-113614352D01*
X99849337Y-113652751D01*
X99811658Y-113671950D01*
X99811657Y-113671951D01*
X99811652Y-113671954D01*
X99721954Y-113761652D01*
X99721951Y-113761657D01*
X99664352Y-113874698D01*
X99664352Y-113874699D01*
X99644508Y-113999996D01*
X99644508Y-114000003D01*
X77000500Y-114000003D01*
X77000500Y-112950003D01*
X80644508Y-112950003D01*
X80664352Y-113075300D01*
X80664352Y-113075301D01*
X80669449Y-113085304D01*
X80721950Y-113188342D01*
X80721952Y-113188344D01*
X80721954Y-113188347D01*
X80811652Y-113278045D01*
X80811654Y-113278046D01*
X80811658Y-113278050D01*
X80924696Y-113335646D01*
X80924697Y-113335646D01*
X80924699Y-113335647D01*
X81049997Y-113355492D01*
X81050000Y-113355492D01*
X81050003Y-113355492D01*
X81175300Y-113335647D01*
X81175301Y-113335647D01*
X81175302Y-113335646D01*
X81175304Y-113335646D01*
X81288342Y-113278050D01*
X81378050Y-113188342D01*
X81435646Y-113075304D01*
X81435646Y-113075302D01*
X81435647Y-113075301D01*
X81435647Y-113075300D01*
X81455492Y-112950003D01*
X81455492Y-112949996D01*
X81435647Y-112824699D01*
X81435647Y-112824698D01*
X81435646Y-112824696D01*
X81378050Y-112711658D01*
X81378046Y-112711654D01*
X81378045Y-112711652D01*
X81288347Y-112621954D01*
X81288344Y-112621952D01*
X81288342Y-112621950D01*
X81175304Y-112564354D01*
X81175303Y-112564353D01*
X81175300Y-112564352D01*
X81050003Y-112544508D01*
X81049997Y-112544508D01*
X80924699Y-112564352D01*
X80924698Y-112564352D01*
X80849337Y-112602751D01*
X80811658Y-112621950D01*
X80811657Y-112621951D01*
X80811652Y-112621954D01*
X80721954Y-112711652D01*
X80721951Y-112711657D01*
X80721950Y-112711658D01*
X80716855Y-112721658D01*
X80664352Y-112824698D01*
X80664352Y-112824699D01*
X80644508Y-112949996D01*
X80644508Y-112950003D01*
X77000500Y-112950003D01*
X77000500Y-111950003D01*
X95644508Y-111950003D01*
X95664352Y-112075300D01*
X95664352Y-112075301D01*
X95664354Y-112075304D01*
X95721950Y-112188342D01*
X95721952Y-112188344D01*
X95721954Y-112188347D01*
X95811652Y-112278045D01*
X95811654Y-112278046D01*
X95811658Y-112278050D01*
X95924696Y-112335646D01*
X95924697Y-112335646D01*
X95924699Y-112335647D01*
X96049997Y-112355492D01*
X96050000Y-112355492D01*
X96050003Y-112355492D01*
X96175300Y-112335647D01*
X96175301Y-112335647D01*
X96175302Y-112335646D01*
X96175304Y-112335646D01*
X96288342Y-112278050D01*
X96378050Y-112188342D01*
X96435646Y-112075304D01*
X96435646Y-112075302D01*
X96435647Y-112075301D01*
X96435647Y-112075300D01*
X96455492Y-111950003D01*
X96455492Y-111949996D01*
X96435647Y-111824699D01*
X96435647Y-111824698D01*
X96435646Y-111824696D01*
X96378050Y-111711658D01*
X96378046Y-111711654D01*
X96378045Y-111711652D01*
X96288347Y-111621954D01*
X96288344Y-111621952D01*
X96288342Y-111621950D01*
X96175304Y-111564354D01*
X96175303Y-111564353D01*
X96175300Y-111564352D01*
X96050003Y-111544508D01*
X96049997Y-111544508D01*
X95924699Y-111564352D01*
X95924698Y-111564352D01*
X95849337Y-111602751D01*
X95811658Y-111621950D01*
X95811657Y-111621951D01*
X95811652Y-111621954D01*
X95721954Y-111711652D01*
X95721951Y-111711657D01*
X95721950Y-111711658D01*
X95702751Y-111749337D01*
X95664352Y-111824698D01*
X95664352Y-111824699D01*
X95644508Y-111949996D01*
X95644508Y-111950003D01*
X77000500Y-111950003D01*
X77000500Y-110950003D01*
X98644508Y-110950003D01*
X98664352Y-111075300D01*
X98664352Y-111075301D01*
X98664354Y-111075304D01*
X98721950Y-111188342D01*
X98721952Y-111188344D01*
X98721954Y-111188347D01*
X98811652Y-111278045D01*
X98811654Y-111278046D01*
X98811658Y-111278050D01*
X98924696Y-111335646D01*
X98924697Y-111335646D01*
X98924699Y-111335647D01*
X99049997Y-111355492D01*
X99050000Y-111355492D01*
X99050003Y-111355492D01*
X99175300Y-111335647D01*
X99175301Y-111335647D01*
X99175302Y-111335646D01*
X99175304Y-111335646D01*
X99288342Y-111278050D01*
X99378050Y-111188342D01*
X99435646Y-111075304D01*
X99435646Y-111075302D01*
X99439515Y-111067710D01*
X99487490Y-111016914D01*
X99555311Y-111000119D01*
X99621446Y-111022657D01*
X99660485Y-111067710D01*
X99664353Y-111075302D01*
X99664354Y-111075304D01*
X99721950Y-111188342D01*
X99721952Y-111188344D01*
X99721954Y-111188347D01*
X99811652Y-111278045D01*
X99811655Y-111278047D01*
X99811658Y-111278050D01*
X99864845Y-111305150D01*
X99932290Y-111339516D01*
X99983085Y-111387490D01*
X99999880Y-111455311D01*
X99977342Y-111521446D01*
X99932290Y-111560484D01*
X99811659Y-111621949D01*
X99811652Y-111621954D01*
X99721954Y-111711652D01*
X99721951Y-111711657D01*
X99721950Y-111711658D01*
X99702751Y-111749337D01*
X99664352Y-111824698D01*
X99664352Y-111824699D01*
X99644508Y-111949996D01*
X99644508Y-111950003D01*
X99664352Y-112075300D01*
X99664352Y-112075301D01*
X99664354Y-112075304D01*
X99721950Y-112188342D01*
X99721952Y-112188344D01*
X99721954Y-112188347D01*
X99811652Y-112278045D01*
X99811655Y-112278047D01*
X99811658Y-112278050D01*
X99864845Y-112305150D01*
X99932290Y-112339516D01*
X99983085Y-112387490D01*
X99999880Y-112455311D01*
X99977342Y-112521446D01*
X99932290Y-112560484D01*
X99811659Y-112621949D01*
X99811652Y-112621954D01*
X99721954Y-112711652D01*
X99721951Y-112711657D01*
X99721950Y-112711658D01*
X99716855Y-112721658D01*
X99664352Y-112824698D01*
X99664352Y-112824699D01*
X99644508Y-112949996D01*
X99644508Y-112950003D01*
X99664352Y-113075300D01*
X99664352Y-113075301D01*
X99669449Y-113085304D01*
X99721950Y-113188342D01*
X99721952Y-113188344D01*
X99721954Y-113188347D01*
X99811652Y-113278045D01*
X99811654Y-113278046D01*
X99811658Y-113278050D01*
X99924696Y-113335646D01*
X99924698Y-113335647D01*
X100031276Y-113352527D01*
X100049650Y-113361237D01*
X100068724Y-113352527D01*
X100175300Y-113335647D01*
X100175301Y-113335647D01*
X100175302Y-113335646D01*
X100175304Y-113335646D01*
X100288342Y-113278050D01*
X100378050Y-113188342D01*
X100435646Y-113075304D01*
X100435646Y-113075302D01*
X100439515Y-113067710D01*
X100487490Y-113016914D01*
X100555311Y-113000119D01*
X100621446Y-113022657D01*
X100660485Y-113067710D01*
X100664353Y-113075302D01*
X100664354Y-113075304D01*
X100721950Y-113188342D01*
X100721952Y-113188344D01*
X100721954Y-113188347D01*
X100811652Y-113278045D01*
X100811654Y-113278046D01*
X100811658Y-113278050D01*
X100924696Y-113335646D01*
X100924697Y-113335646D01*
X100924699Y-113335647D01*
X101049997Y-113355492D01*
X101050000Y-113355492D01*
X101050003Y-113355492D01*
X101175300Y-113335647D01*
X101175301Y-113335647D01*
X101175302Y-113335646D01*
X101175304Y-113335646D01*
X101288342Y-113278050D01*
X101378050Y-113188342D01*
X101435646Y-113075304D01*
X101435646Y-113075302D01*
X101435647Y-113075301D01*
X101435647Y-113075300D01*
X101455492Y-112950003D01*
X103544508Y-112950003D01*
X103564352Y-113075300D01*
X103564352Y-113075301D01*
X103569449Y-113085304D01*
X103621950Y-113188342D01*
X103621952Y-113188344D01*
X103621954Y-113188347D01*
X103711652Y-113278045D01*
X103711654Y-113278046D01*
X103711658Y-113278050D01*
X103824696Y-113335646D01*
X103824697Y-113335646D01*
X103824699Y-113335647D01*
X103949997Y-113355492D01*
X103950000Y-113355492D01*
X103950003Y-113355492D01*
X104075300Y-113335647D01*
X104075301Y-113335647D01*
X104075302Y-113335646D01*
X104075304Y-113335646D01*
X104188342Y-113278050D01*
X104278050Y-113188342D01*
X104335646Y-113075304D01*
X104335646Y-113075302D01*
X104335647Y-113075301D01*
X104335647Y-113075300D01*
X104355492Y-112950003D01*
X104355492Y-112949996D01*
X104335647Y-112824699D01*
X104335647Y-112824698D01*
X104335646Y-112824696D01*
X104278050Y-112711658D01*
X104278046Y-112711654D01*
X104278045Y-112711652D01*
X104188347Y-112621954D01*
X104188344Y-112621952D01*
X104188342Y-112621950D01*
X104075304Y-112564354D01*
X104075303Y-112564353D01*
X104075300Y-112564352D01*
X103950003Y-112544508D01*
X103949997Y-112544508D01*
X103824699Y-112564352D01*
X103824698Y-112564352D01*
X103749337Y-112602751D01*
X103711658Y-112621950D01*
X103711657Y-112621951D01*
X103711652Y-112621954D01*
X103621954Y-112711652D01*
X103621951Y-112711657D01*
X103621950Y-112711658D01*
X103616855Y-112721658D01*
X103564352Y-112824698D01*
X103564352Y-112824699D01*
X103544508Y-112949996D01*
X103544508Y-112950003D01*
X101455492Y-112950003D01*
X101455492Y-112949996D01*
X101435647Y-112824699D01*
X101435647Y-112824698D01*
X101435646Y-112824696D01*
X101378050Y-112711658D01*
X101378046Y-112711654D01*
X101378045Y-112711652D01*
X101288347Y-112621954D01*
X101288344Y-112621952D01*
X101288342Y-112621950D01*
X101175304Y-112564354D01*
X101175303Y-112564353D01*
X101175300Y-112564352D01*
X101050003Y-112544508D01*
X101049997Y-112544508D01*
X100924699Y-112564352D01*
X100924698Y-112564352D01*
X100849337Y-112602751D01*
X100811658Y-112621950D01*
X100811657Y-112621951D01*
X100811652Y-112621954D01*
X100721954Y-112711652D01*
X100721949Y-112711659D01*
X100660484Y-112832290D01*
X100612510Y-112883085D01*
X100544689Y-112899880D01*
X100478554Y-112877342D01*
X100439516Y-112832290D01*
X100383145Y-112721658D01*
X100378050Y-112711658D01*
X100378047Y-112711655D01*
X100378045Y-112711652D01*
X100288347Y-112621954D01*
X100288344Y-112621952D01*
X100288342Y-112621950D01*
X100175304Y-112564354D01*
X100175302Y-112564353D01*
X100167710Y-112560485D01*
X100116914Y-112512510D01*
X100100119Y-112444689D01*
X100122657Y-112378554D01*
X100167710Y-112339515D01*
X100175302Y-112335646D01*
X100175304Y-112335646D01*
X100288342Y-112278050D01*
X100378050Y-112188342D01*
X100435646Y-112075304D01*
X100435646Y-112075302D01*
X100435647Y-112075301D01*
X100435647Y-112075300D01*
X100455492Y-111950003D01*
X102544508Y-111950003D01*
X102564352Y-112075300D01*
X102564352Y-112075301D01*
X102564354Y-112075304D01*
X102621950Y-112188342D01*
X102621952Y-112188344D01*
X102621954Y-112188347D01*
X102711652Y-112278045D01*
X102711654Y-112278046D01*
X102711658Y-112278050D01*
X102824696Y-112335646D01*
X102824697Y-112335646D01*
X102824699Y-112335647D01*
X102949997Y-112355492D01*
X102950000Y-112355492D01*
X102950003Y-112355492D01*
X103075300Y-112335647D01*
X103075301Y-112335647D01*
X103075302Y-112335646D01*
X103075304Y-112335646D01*
X103188342Y-112278050D01*
X103278050Y-112188342D01*
X103335646Y-112075304D01*
X103335646Y-112075302D01*
X103335647Y-112075301D01*
X103335647Y-112075300D01*
X103355492Y-111950003D01*
X104544508Y-111950003D01*
X104564352Y-112075300D01*
X104564352Y-112075301D01*
X104564354Y-112075304D01*
X104621950Y-112188342D01*
X104621952Y-112188344D01*
X104621954Y-112188347D01*
X104711652Y-112278045D01*
X104711654Y-112278046D01*
X104711658Y-112278050D01*
X104824696Y-112335646D01*
X104824697Y-112335646D01*
X104824699Y-112335647D01*
X104949997Y-112355492D01*
X104950000Y-112355492D01*
X104950003Y-112355492D01*
X105075300Y-112335647D01*
X105075301Y-112335647D01*
X105075302Y-112335646D01*
X105075304Y-112335646D01*
X105188342Y-112278050D01*
X105278050Y-112188342D01*
X105335646Y-112075304D01*
X105335646Y-112075302D01*
X105339515Y-112067710D01*
X105387490Y-112016914D01*
X105455311Y-112000119D01*
X105521446Y-112022657D01*
X105560485Y-112067710D01*
X105564353Y-112075302D01*
X105564354Y-112075304D01*
X105621950Y-112188342D01*
X105621952Y-112188344D01*
X105621954Y-112188347D01*
X105711652Y-112278045D01*
X105711654Y-112278046D01*
X105711658Y-112278050D01*
X105824696Y-112335646D01*
X105824697Y-112335646D01*
X105824699Y-112335647D01*
X105949997Y-112355492D01*
X105950000Y-112355492D01*
X105950003Y-112355492D01*
X106075300Y-112335647D01*
X106075301Y-112335647D01*
X106075302Y-112335646D01*
X106075304Y-112335646D01*
X106188342Y-112278050D01*
X106278050Y-112188342D01*
X106335646Y-112075304D01*
X106335646Y-112075302D01*
X106339515Y-112067710D01*
X106387490Y-112016914D01*
X106455311Y-112000119D01*
X106521446Y-112022657D01*
X106560485Y-112067710D01*
X106564353Y-112075302D01*
X106564354Y-112075304D01*
X106621950Y-112188342D01*
X106621952Y-112188344D01*
X106621954Y-112188347D01*
X106711652Y-112278045D01*
X106711655Y-112278047D01*
X106711658Y-112278050D01*
X106764845Y-112305150D01*
X106832290Y-112339516D01*
X106883085Y-112387490D01*
X106899880Y-112455311D01*
X106877342Y-112521446D01*
X106832290Y-112560484D01*
X106711659Y-112621949D01*
X106711652Y-112621954D01*
X106621954Y-112711652D01*
X106621951Y-112711657D01*
X106621950Y-112711658D01*
X106616855Y-112721658D01*
X106564352Y-112824698D01*
X106564352Y-112824699D01*
X106544508Y-112949996D01*
X106544508Y-112950003D01*
X106564352Y-113075300D01*
X106564352Y-113075301D01*
X106569449Y-113085304D01*
X106621950Y-113188342D01*
X106621952Y-113188344D01*
X106621954Y-113188347D01*
X106711652Y-113278045D01*
X106711654Y-113278046D01*
X106711658Y-113278050D01*
X106824696Y-113335646D01*
X106824697Y-113335646D01*
X106824699Y-113335647D01*
X106949997Y-113355492D01*
X106950000Y-113355492D01*
X106950003Y-113355492D01*
X107075300Y-113335647D01*
X107075301Y-113335647D01*
X107075302Y-113335646D01*
X107075304Y-113335646D01*
X107188342Y-113278050D01*
X107278050Y-113188342D01*
X107335646Y-113075304D01*
X107335646Y-113075302D01*
X107339515Y-113067710D01*
X107387490Y-113016914D01*
X107455311Y-113000119D01*
X107521446Y-113022657D01*
X107560485Y-113067710D01*
X107564353Y-113075302D01*
X107564354Y-113075304D01*
X107621950Y-113188342D01*
X107621952Y-113188344D01*
X107621954Y-113188347D01*
X107711652Y-113278045D01*
X107711654Y-113278046D01*
X107711658Y-113278050D01*
X107824696Y-113335646D01*
X107824697Y-113335646D01*
X107824699Y-113335647D01*
X107949997Y-113355492D01*
X107950000Y-113355492D01*
X107950003Y-113355492D01*
X108075300Y-113335647D01*
X108075301Y-113335647D01*
X108075302Y-113335646D01*
X108075304Y-113335646D01*
X108188342Y-113278050D01*
X108278050Y-113188342D01*
X108335646Y-113075304D01*
X108335646Y-113075302D01*
X108335647Y-113075301D01*
X108335647Y-113075300D01*
X108355492Y-112950003D01*
X108355492Y-112949996D01*
X108335647Y-112824699D01*
X108335647Y-112824698D01*
X108335646Y-112824696D01*
X108278050Y-112711658D01*
X108278046Y-112711654D01*
X108278045Y-112711652D01*
X108188347Y-112621954D01*
X108188344Y-112621952D01*
X108188342Y-112621950D01*
X108075304Y-112564354D01*
X108075303Y-112564353D01*
X108075300Y-112564352D01*
X107950003Y-112544508D01*
X107949997Y-112544508D01*
X107824699Y-112564352D01*
X107824698Y-112564352D01*
X107749337Y-112602751D01*
X107711658Y-112621950D01*
X107711657Y-112621951D01*
X107711652Y-112621954D01*
X107621954Y-112711652D01*
X107621949Y-112711659D01*
X107560484Y-112832290D01*
X107512510Y-112883085D01*
X107444689Y-112899880D01*
X107378554Y-112877342D01*
X107339516Y-112832290D01*
X107283145Y-112721658D01*
X107278050Y-112711658D01*
X107278047Y-112711655D01*
X107278045Y-112711652D01*
X107188347Y-112621954D01*
X107188344Y-112621952D01*
X107188342Y-112621950D01*
X107075304Y-112564354D01*
X107075302Y-112564353D01*
X107067710Y-112560485D01*
X107016914Y-112512510D01*
X107000119Y-112444689D01*
X107022657Y-112378554D01*
X107067710Y-112339515D01*
X107075302Y-112335646D01*
X107075304Y-112335646D01*
X107188342Y-112278050D01*
X107278050Y-112188342D01*
X107335646Y-112075304D01*
X107335646Y-112075302D01*
X107335647Y-112075301D01*
X107335647Y-112075300D01*
X107355492Y-111950003D01*
X107355492Y-111949996D01*
X107335647Y-111824699D01*
X107335647Y-111824698D01*
X107335646Y-111824696D01*
X107278050Y-111711658D01*
X107278046Y-111711654D01*
X107278045Y-111711652D01*
X107188347Y-111621954D01*
X107188344Y-111621952D01*
X107188342Y-111621950D01*
X107075304Y-111564354D01*
X107075303Y-111564353D01*
X107075300Y-111564352D01*
X106950003Y-111544508D01*
X106949997Y-111544508D01*
X106824699Y-111564352D01*
X106824698Y-111564352D01*
X106749337Y-111602751D01*
X106711658Y-111621950D01*
X106711657Y-111621951D01*
X106711652Y-111621954D01*
X106621954Y-111711652D01*
X106621949Y-111711659D01*
X106560484Y-111832290D01*
X106512510Y-111883085D01*
X106444689Y-111899880D01*
X106378554Y-111877342D01*
X106339516Y-111832290D01*
X106305150Y-111764845D01*
X106278050Y-111711658D01*
X106278047Y-111711655D01*
X106278045Y-111711652D01*
X106188347Y-111621954D01*
X106188344Y-111621952D01*
X106188342Y-111621950D01*
X106075304Y-111564354D01*
X106075302Y-111564353D01*
X106067710Y-111560485D01*
X106016914Y-111512510D01*
X106000119Y-111444689D01*
X106022657Y-111378554D01*
X106067710Y-111339515D01*
X106075302Y-111335646D01*
X106075304Y-111335646D01*
X106188342Y-111278050D01*
X106278050Y-111188342D01*
X106335646Y-111075304D01*
X106335646Y-111075302D01*
X106335647Y-111075301D01*
X106335647Y-111075300D01*
X106355492Y-110950003D01*
X106355492Y-110949996D01*
X106335647Y-110824699D01*
X106335647Y-110824698D01*
X106322909Y-110799699D01*
X106278050Y-110711658D01*
X106278046Y-110711654D01*
X106278045Y-110711652D01*
X106188347Y-110621954D01*
X106188344Y-110621952D01*
X106188342Y-110621950D01*
X106075304Y-110564354D01*
X106075303Y-110564353D01*
X106075300Y-110564352D01*
X105950003Y-110544508D01*
X105949997Y-110544508D01*
X105824699Y-110564352D01*
X105824698Y-110564352D01*
X105760723Y-110596950D01*
X105711658Y-110621950D01*
X105711657Y-110621951D01*
X105711652Y-110621954D01*
X105621954Y-110711652D01*
X105621951Y-110711657D01*
X105621950Y-110711658D01*
X105613599Y-110728048D01*
X105564352Y-110824698D01*
X105564352Y-110824699D01*
X105544508Y-110949996D01*
X105544508Y-110950003D01*
X105564352Y-111075300D01*
X105564352Y-111075301D01*
X105564354Y-111075304D01*
X105621950Y-111188342D01*
X105621952Y-111188344D01*
X105621954Y-111188347D01*
X105711652Y-111278045D01*
X105711655Y-111278047D01*
X105711658Y-111278050D01*
X105764845Y-111305150D01*
X105832290Y-111339516D01*
X105883085Y-111387490D01*
X105899880Y-111455311D01*
X105877342Y-111521446D01*
X105832290Y-111560484D01*
X105711659Y-111621949D01*
X105711652Y-111621954D01*
X105621954Y-111711652D01*
X105621949Y-111711659D01*
X105560484Y-111832290D01*
X105512510Y-111883085D01*
X105444689Y-111899880D01*
X105378554Y-111877342D01*
X105339516Y-111832290D01*
X105305150Y-111764845D01*
X105278050Y-111711658D01*
X105278047Y-111711655D01*
X105278045Y-111711652D01*
X105188347Y-111621954D01*
X105188344Y-111621952D01*
X105188342Y-111621950D01*
X105075304Y-111564354D01*
X105075303Y-111564353D01*
X105075300Y-111564352D01*
X104950003Y-111544508D01*
X104949997Y-111544508D01*
X104824699Y-111564352D01*
X104824698Y-111564352D01*
X104749337Y-111602751D01*
X104711658Y-111621950D01*
X104711657Y-111621951D01*
X104711652Y-111621954D01*
X104621954Y-111711652D01*
X104621951Y-111711657D01*
X104621950Y-111711658D01*
X104602751Y-111749337D01*
X104564352Y-111824698D01*
X104564352Y-111824699D01*
X104544508Y-111949996D01*
X104544508Y-111950003D01*
X103355492Y-111950003D01*
X103355492Y-111949996D01*
X103335647Y-111824699D01*
X103335647Y-111824698D01*
X103335646Y-111824696D01*
X103278050Y-111711658D01*
X103278046Y-111711654D01*
X103278045Y-111711652D01*
X103188347Y-111621954D01*
X103188344Y-111621952D01*
X103188342Y-111621950D01*
X103075304Y-111564354D01*
X103075302Y-111564353D01*
X103067710Y-111560485D01*
X103016914Y-111512510D01*
X103000119Y-111444689D01*
X103022657Y-111378554D01*
X103067710Y-111339515D01*
X103075302Y-111335646D01*
X103075304Y-111335646D01*
X103188342Y-111278050D01*
X103278050Y-111188342D01*
X103335646Y-111075304D01*
X103335646Y-111075302D01*
X103339515Y-111067710D01*
X103387490Y-111016914D01*
X103455311Y-111000119D01*
X103521446Y-111022657D01*
X103560485Y-111067710D01*
X103564353Y-111075302D01*
X103564354Y-111075304D01*
X103621950Y-111188342D01*
X103621952Y-111188344D01*
X103621954Y-111188347D01*
X103711652Y-111278045D01*
X103711654Y-111278046D01*
X103711658Y-111278050D01*
X103824696Y-111335646D01*
X103824697Y-111335646D01*
X103824699Y-111335647D01*
X103949997Y-111355492D01*
X103950000Y-111355492D01*
X103950003Y-111355492D01*
X104075300Y-111335647D01*
X104075301Y-111335647D01*
X104075302Y-111335646D01*
X104075304Y-111335646D01*
X104188342Y-111278050D01*
X104278050Y-111188342D01*
X104335646Y-111075304D01*
X104335646Y-111075302D01*
X104335647Y-111075301D01*
X104335647Y-111075300D01*
X104355492Y-110950003D01*
X104355492Y-110949996D01*
X104335647Y-110824699D01*
X104335647Y-110824698D01*
X104322909Y-110799699D01*
X104278050Y-110711658D01*
X104278046Y-110711654D01*
X104278045Y-110711652D01*
X104188347Y-110621954D01*
X104188344Y-110621952D01*
X104188342Y-110621950D01*
X104075304Y-110564354D01*
X104075302Y-110564353D01*
X104067710Y-110560485D01*
X104016914Y-110512510D01*
X104000119Y-110444689D01*
X104022657Y-110378554D01*
X104044066Y-110360003D01*
X122539508Y-110360003D01*
X122559352Y-110485300D01*
X122559352Y-110485301D01*
X122559354Y-110485304D01*
X122616950Y-110598342D01*
X122616952Y-110598344D01*
X122616954Y-110598347D01*
X122706652Y-110688045D01*
X122706654Y-110688046D01*
X122706658Y-110688050D01*
X122819696Y-110745646D01*
X122819697Y-110745646D01*
X122819699Y-110745647D01*
X122944997Y-110765492D01*
X122945000Y-110765492D01*
X122945003Y-110765492D01*
X123070300Y-110745647D01*
X123070301Y-110745647D01*
X123070302Y-110745646D01*
X123070304Y-110745646D01*
X123183342Y-110688050D01*
X123273050Y-110598342D01*
X123330646Y-110485304D01*
X123330646Y-110485302D01*
X123330647Y-110485301D01*
X123330647Y-110485300D01*
X123350492Y-110360003D01*
X123350492Y-110359996D01*
X123330647Y-110234699D01*
X123330647Y-110234698D01*
X123330646Y-110234696D01*
X123273050Y-110121658D01*
X123273046Y-110121654D01*
X123273045Y-110121652D01*
X123183347Y-110031954D01*
X123183344Y-110031952D01*
X123183342Y-110031950D01*
X123070304Y-109974354D01*
X123070303Y-109974353D01*
X123070300Y-109974352D01*
X122945003Y-109954508D01*
X122944997Y-109954508D01*
X122819699Y-109974352D01*
X122819698Y-109974352D01*
X122744337Y-110012751D01*
X122706658Y-110031950D01*
X122706657Y-110031951D01*
X122706652Y-110031954D01*
X122616954Y-110121652D01*
X122616951Y-110121657D01*
X122559352Y-110234698D01*
X122559352Y-110234699D01*
X122539508Y-110359996D01*
X122539508Y-110360003D01*
X104044066Y-110360003D01*
X104067710Y-110339515D01*
X104075302Y-110335646D01*
X104075304Y-110335646D01*
X104188342Y-110278050D01*
X104278050Y-110188342D01*
X104335646Y-110075304D01*
X104335646Y-110075302D01*
X104339515Y-110067710D01*
X104387490Y-110016914D01*
X104455311Y-110000119D01*
X104521446Y-110022657D01*
X104560485Y-110067710D01*
X104564353Y-110075302D01*
X104564354Y-110075304D01*
X104621950Y-110188342D01*
X104621952Y-110188344D01*
X104621954Y-110188347D01*
X104711652Y-110278045D01*
X104711654Y-110278046D01*
X104711658Y-110278050D01*
X104824696Y-110335646D01*
X104824697Y-110335646D01*
X104824699Y-110335647D01*
X104949997Y-110355492D01*
X104950000Y-110355492D01*
X104950003Y-110355492D01*
X105075300Y-110335647D01*
X105075301Y-110335647D01*
X105075302Y-110335646D01*
X105075304Y-110335646D01*
X105188342Y-110278050D01*
X105278050Y-110188342D01*
X105335646Y-110075304D01*
X105335646Y-110075302D01*
X105335647Y-110075301D01*
X105335647Y-110075300D01*
X105355492Y-109950003D01*
X105355492Y-109949996D01*
X105335647Y-109824699D01*
X105335647Y-109824698D01*
X105322909Y-109799699D01*
X105278050Y-109711658D01*
X105278046Y-109711654D01*
X105278045Y-109711652D01*
X105188347Y-109621954D01*
X105188344Y-109621952D01*
X105188342Y-109621950D01*
X105075304Y-109564354D01*
X105075303Y-109564353D01*
X105075300Y-109564352D01*
X104950003Y-109544508D01*
X104949997Y-109544508D01*
X104824699Y-109564352D01*
X104824698Y-109564352D01*
X104760723Y-109596950D01*
X104711658Y-109621950D01*
X104711657Y-109621951D01*
X104711652Y-109621954D01*
X104621954Y-109711652D01*
X104621949Y-109711659D01*
X104560484Y-109832290D01*
X104512510Y-109883085D01*
X104444689Y-109899880D01*
X104378554Y-109877342D01*
X104339516Y-109832290D01*
X104305150Y-109764845D01*
X104278050Y-109711658D01*
X104278047Y-109711655D01*
X104278045Y-109711652D01*
X104188347Y-109621954D01*
X104188344Y-109621952D01*
X104188342Y-109621950D01*
X104075304Y-109564354D01*
X104075302Y-109564353D01*
X104067710Y-109560485D01*
X104016914Y-109512510D01*
X104000119Y-109444689D01*
X104022657Y-109378554D01*
X104067710Y-109339515D01*
X104075302Y-109335646D01*
X104075304Y-109335646D01*
X104188342Y-109278050D01*
X104278050Y-109188342D01*
X104335646Y-109075304D01*
X104335646Y-109075302D01*
X104335647Y-109075301D01*
X104335647Y-109075300D01*
X104355492Y-108950003D01*
X104355492Y-108949996D01*
X104335647Y-108824699D01*
X104335647Y-108824698D01*
X104335646Y-108824696D01*
X104297588Y-108750003D01*
X105344508Y-108750003D01*
X105364352Y-108875300D01*
X105364352Y-108875301D01*
X105364354Y-108875304D01*
X105421950Y-108988342D01*
X105421952Y-108988344D01*
X105421954Y-108988347D01*
X105511652Y-109078045D01*
X105511654Y-109078046D01*
X105511658Y-109078050D01*
X105624696Y-109135646D01*
X105624697Y-109135646D01*
X105624699Y-109135647D01*
X105749997Y-109155492D01*
X105750000Y-109155492D01*
X105750003Y-109155492D01*
X105875300Y-109135647D01*
X105875301Y-109135647D01*
X105875302Y-109135646D01*
X105875304Y-109135646D01*
X105988342Y-109078050D01*
X106078050Y-108988342D01*
X106135646Y-108875304D01*
X106135646Y-108875302D01*
X106135647Y-108875301D01*
X106135647Y-108875300D01*
X106155492Y-108750003D01*
X106155492Y-108749996D01*
X106135647Y-108624699D01*
X106135647Y-108624698D01*
X106134247Y-108621950D01*
X106078050Y-108511658D01*
X106078046Y-108511654D01*
X106078045Y-108511652D01*
X105988347Y-108421954D01*
X105988344Y-108421952D01*
X105988342Y-108421950D01*
X105875304Y-108364354D01*
X105875303Y-108364353D01*
X105875300Y-108364352D01*
X105750003Y-108344508D01*
X105749997Y-108344508D01*
X105624699Y-108364352D01*
X105624698Y-108364352D01*
X105549337Y-108402751D01*
X105511658Y-108421950D01*
X105511657Y-108421951D01*
X105511652Y-108421954D01*
X105421954Y-108511652D01*
X105421951Y-108511657D01*
X105364352Y-108624698D01*
X105364352Y-108624699D01*
X105344508Y-108749996D01*
X105344508Y-108750003D01*
X104297588Y-108750003D01*
X104278050Y-108711658D01*
X104278046Y-108711654D01*
X104278045Y-108711652D01*
X104188347Y-108621954D01*
X104188344Y-108621952D01*
X104188342Y-108621950D01*
X104075304Y-108564354D01*
X104075303Y-108564353D01*
X104075300Y-108564352D01*
X103950003Y-108544508D01*
X103949997Y-108544508D01*
X103824699Y-108564352D01*
X103824698Y-108564352D01*
X103749337Y-108602751D01*
X103711658Y-108621950D01*
X103711657Y-108621951D01*
X103711652Y-108621954D01*
X103621954Y-108711652D01*
X103621951Y-108711657D01*
X103564352Y-108824698D01*
X103564352Y-108824699D01*
X103544508Y-108949996D01*
X103544508Y-108950003D01*
X103564352Y-109075300D01*
X103564352Y-109075301D01*
X103565752Y-109078048D01*
X103621950Y-109188342D01*
X103621952Y-109188344D01*
X103621954Y-109188347D01*
X103711652Y-109278045D01*
X103711655Y-109278047D01*
X103711658Y-109278050D01*
X103764845Y-109305150D01*
X103832290Y-109339516D01*
X103883085Y-109387490D01*
X103899880Y-109455311D01*
X103877342Y-109521446D01*
X103832290Y-109560484D01*
X103711659Y-109621949D01*
X103711652Y-109621954D01*
X103621954Y-109711652D01*
X103621951Y-109711657D01*
X103621950Y-109711658D01*
X103577092Y-109799696D01*
X103564353Y-109824698D01*
X103561952Y-109839856D01*
X103532021Y-109902990D01*
X103475408Y-109938238D01*
X103530381Y-109974686D01*
X103557993Y-110035146D01*
X103564352Y-110075301D01*
X103564354Y-110075304D01*
X103621950Y-110188342D01*
X103621952Y-110188344D01*
X103621954Y-110188347D01*
X103711652Y-110278045D01*
X103711655Y-110278047D01*
X103711658Y-110278050D01*
X103764845Y-110305150D01*
X103832290Y-110339516D01*
X103883085Y-110387490D01*
X103899880Y-110455311D01*
X103877342Y-110521446D01*
X103832290Y-110560484D01*
X103711659Y-110621949D01*
X103711652Y-110621954D01*
X103621954Y-110711652D01*
X103621949Y-110711659D01*
X103560484Y-110832290D01*
X103512510Y-110883085D01*
X103444689Y-110899880D01*
X103378554Y-110877342D01*
X103339516Y-110832290D01*
X103286401Y-110728048D01*
X103278050Y-110711658D01*
X103278047Y-110711655D01*
X103278045Y-110711652D01*
X103188347Y-110621954D01*
X103188344Y-110621952D01*
X103188342Y-110621950D01*
X103111517Y-110582805D01*
X103075301Y-110564352D01*
X103035146Y-110557993D01*
X102972012Y-110528064D01*
X102938938Y-110474949D01*
X102938922Y-110476107D01*
X102900313Y-110534340D01*
X102839856Y-110561952D01*
X102824698Y-110564353D01*
X102824696Y-110564353D01*
X102824696Y-110564354D01*
X102711658Y-110621950D01*
X102711657Y-110621951D01*
X102711652Y-110621954D01*
X102621954Y-110711652D01*
X102621951Y-110711657D01*
X102621950Y-110711658D01*
X102613599Y-110728048D01*
X102564352Y-110824698D01*
X102564352Y-110824699D01*
X102544508Y-110949996D01*
X102544508Y-110950003D01*
X102564352Y-111075300D01*
X102564352Y-111075301D01*
X102564354Y-111075304D01*
X102621950Y-111188342D01*
X102621952Y-111188344D01*
X102621954Y-111188347D01*
X102711652Y-111278045D01*
X102711655Y-111278047D01*
X102711658Y-111278050D01*
X102764845Y-111305150D01*
X102832290Y-111339516D01*
X102883085Y-111387490D01*
X102899880Y-111455311D01*
X102877342Y-111521446D01*
X102832290Y-111560484D01*
X102711659Y-111621949D01*
X102711652Y-111621954D01*
X102621954Y-111711652D01*
X102621951Y-111711657D01*
X102621950Y-111711658D01*
X102602751Y-111749337D01*
X102564352Y-111824698D01*
X102564352Y-111824699D01*
X102544508Y-111949996D01*
X102544508Y-111950003D01*
X100455492Y-111950003D01*
X100455492Y-111949996D01*
X100435647Y-111824699D01*
X100435647Y-111824698D01*
X100435646Y-111824696D01*
X100378050Y-111711658D01*
X100378046Y-111711654D01*
X100378045Y-111711652D01*
X100288347Y-111621954D01*
X100288344Y-111621952D01*
X100288342Y-111621950D01*
X100175304Y-111564354D01*
X100175302Y-111564353D01*
X100167710Y-111560485D01*
X100116914Y-111512510D01*
X100100119Y-111444689D01*
X100122657Y-111378554D01*
X100167710Y-111339515D01*
X100175302Y-111335646D01*
X100175304Y-111335646D01*
X100288342Y-111278050D01*
X100378050Y-111188342D01*
X100435646Y-111075304D01*
X100442007Y-111035144D01*
X100471933Y-110972013D01*
X100525050Y-110938937D01*
X100523890Y-110938921D01*
X100519575Y-110936060D01*
X100599948Y-110936060D01*
X100601107Y-110936077D01*
X100659340Y-110974686D01*
X100686952Y-111035144D01*
X100689353Y-111050301D01*
X100689352Y-111050301D01*
X100689354Y-111050304D01*
X100746950Y-111163342D01*
X100746952Y-111163344D01*
X100746954Y-111163347D01*
X100836652Y-111253045D01*
X100836654Y-111253046D01*
X100836658Y-111253050D01*
X100949696Y-111310646D01*
X100949697Y-111310646D01*
X100949699Y-111310647D01*
X101074997Y-111330492D01*
X101075000Y-111330492D01*
X101075003Y-111330492D01*
X101200300Y-111310647D01*
X101200301Y-111310647D01*
X101200302Y-111310646D01*
X101200304Y-111310646D01*
X101313342Y-111253050D01*
X101403050Y-111163342D01*
X101460646Y-111050304D01*
X101460646Y-111050302D01*
X101460647Y-111050301D01*
X101460647Y-111050300D01*
X101480492Y-110925003D01*
X101480492Y-110924996D01*
X101460647Y-110799699D01*
X101460647Y-110799698D01*
X101460646Y-110799696D01*
X101403050Y-110686658D01*
X101403046Y-110686654D01*
X101403045Y-110686652D01*
X101313347Y-110596954D01*
X101313344Y-110596952D01*
X101313342Y-110596950D01*
X101200304Y-110539354D01*
X101200303Y-110539353D01*
X101200300Y-110539352D01*
X101075003Y-110519508D01*
X101074997Y-110519508D01*
X100949699Y-110539352D01*
X100949698Y-110539352D01*
X100874337Y-110577751D01*
X100836658Y-110596950D01*
X100836657Y-110596951D01*
X100836652Y-110596954D01*
X100746954Y-110686652D01*
X100746951Y-110686657D01*
X100746950Y-110686658D01*
X100746242Y-110688048D01*
X100689352Y-110799698D01*
X100682993Y-110839853D01*
X100653064Y-110902988D01*
X100599948Y-110936060D01*
X100519575Y-110936060D01*
X100465657Y-110900311D01*
X100438046Y-110839851D01*
X100435646Y-110824696D01*
X100378050Y-110711658D01*
X100378046Y-110711654D01*
X100378045Y-110711652D01*
X100288347Y-110621954D01*
X100288344Y-110621952D01*
X100288342Y-110621950D01*
X100175304Y-110564354D01*
X100175303Y-110564353D01*
X100175300Y-110564352D01*
X100050003Y-110544508D01*
X100049997Y-110544508D01*
X99924699Y-110564352D01*
X99924698Y-110564352D01*
X99860723Y-110596950D01*
X99811658Y-110621950D01*
X99811657Y-110621951D01*
X99811652Y-110621954D01*
X99721954Y-110711652D01*
X99721949Y-110711659D01*
X99660484Y-110832290D01*
X99612510Y-110883085D01*
X99544689Y-110899880D01*
X99478554Y-110877342D01*
X99439516Y-110832290D01*
X99386401Y-110728048D01*
X99378050Y-110711658D01*
X99378047Y-110711655D01*
X99378045Y-110711652D01*
X99288347Y-110621954D01*
X99288344Y-110621952D01*
X99288342Y-110621950D01*
X99175304Y-110564354D01*
X99175303Y-110564353D01*
X99175300Y-110564352D01*
X99050003Y-110544508D01*
X99049997Y-110544508D01*
X98924699Y-110564352D01*
X98924698Y-110564352D01*
X98860723Y-110596950D01*
X98811658Y-110621950D01*
X98811657Y-110621951D01*
X98811652Y-110621954D01*
X98721954Y-110711652D01*
X98721951Y-110711657D01*
X98721950Y-110711658D01*
X98713599Y-110728048D01*
X98664352Y-110824698D01*
X98664352Y-110824699D01*
X98644508Y-110949996D01*
X98644508Y-110950003D01*
X77000500Y-110950003D01*
X77000500Y-110400003D01*
X84294508Y-110400003D01*
X84314352Y-110525300D01*
X84314352Y-110525301D01*
X84314354Y-110525304D01*
X84371950Y-110638342D01*
X84371952Y-110638344D01*
X84371954Y-110638347D01*
X84461652Y-110728045D01*
X84461654Y-110728046D01*
X84461658Y-110728050D01*
X84574696Y-110785646D01*
X84574697Y-110785646D01*
X84574699Y-110785647D01*
X84699997Y-110805492D01*
X84700000Y-110805492D01*
X84700003Y-110805492D01*
X84825300Y-110785647D01*
X84825301Y-110785647D01*
X84825302Y-110785646D01*
X84825304Y-110785646D01*
X84938342Y-110728050D01*
X85028050Y-110638342D01*
X85085646Y-110525304D01*
X85085646Y-110525302D01*
X85085647Y-110525301D01*
X85085647Y-110525300D01*
X85105492Y-110400003D01*
X85105492Y-110399996D01*
X85085647Y-110274699D01*
X85085647Y-110274698D01*
X85085646Y-110274696D01*
X85028050Y-110161658D01*
X85028046Y-110161654D01*
X85028045Y-110161652D01*
X84938347Y-110071954D01*
X84938344Y-110071952D01*
X84938342Y-110071950D01*
X84825304Y-110014354D01*
X84825303Y-110014353D01*
X84825300Y-110014352D01*
X84700003Y-109994508D01*
X84699997Y-109994508D01*
X84574699Y-110014352D01*
X84574698Y-110014352D01*
X84504148Y-110050300D01*
X84461658Y-110071950D01*
X84461657Y-110071951D01*
X84461652Y-110071954D01*
X84371954Y-110161652D01*
X84371951Y-110161657D01*
X84371950Y-110161658D01*
X84358354Y-110188342D01*
X84314352Y-110274698D01*
X84314352Y-110274699D01*
X84294508Y-110399996D01*
X84294508Y-110400003D01*
X77000500Y-110400003D01*
X77000500Y-109925003D01*
X102519508Y-109925003D01*
X102539352Y-110050300D01*
X102539352Y-110050301D01*
X102539354Y-110050304D01*
X102596950Y-110163342D01*
X102596952Y-110163344D01*
X102596954Y-110163347D01*
X102686652Y-110253045D01*
X102686654Y-110253046D01*
X102686658Y-110253050D01*
X102799696Y-110310646D01*
X102839853Y-110317006D01*
X102902986Y-110346934D01*
X102936061Y-110400051D01*
X102936078Y-110398890D01*
X102974688Y-110340657D01*
X103035146Y-110313046D01*
X103050304Y-110310646D01*
X103163342Y-110253050D01*
X103253050Y-110163342D01*
X103310646Y-110050304D01*
X103313046Y-110035146D01*
X103342975Y-109972013D01*
X103399588Y-109936760D01*
X103344614Y-109900309D01*
X103317006Y-109839853D01*
X103310646Y-109799696D01*
X103253050Y-109686658D01*
X103253046Y-109686654D01*
X103253045Y-109686652D01*
X103163347Y-109596954D01*
X103163344Y-109596952D01*
X103163342Y-109596950D01*
X103050304Y-109539354D01*
X103050303Y-109539353D01*
X103050300Y-109539352D01*
X102925003Y-109519508D01*
X102924997Y-109519508D01*
X102799699Y-109539352D01*
X102799698Y-109539352D01*
X102724337Y-109577751D01*
X102686658Y-109596950D01*
X102686657Y-109596951D01*
X102686652Y-109596954D01*
X102596954Y-109686652D01*
X102596951Y-109686657D01*
X102539352Y-109799698D01*
X102539352Y-109799699D01*
X102519508Y-109924996D01*
X102519508Y-109925003D01*
X77000500Y-109925003D01*
X77000500Y-108950003D01*
X94644508Y-108950003D01*
X94664352Y-109075300D01*
X94664352Y-109075301D01*
X94665752Y-109078048D01*
X94721950Y-109188342D01*
X94721952Y-109188344D01*
X94721954Y-109188347D01*
X94811652Y-109278045D01*
X94811654Y-109278046D01*
X94811658Y-109278050D01*
X94924696Y-109335646D01*
X94924697Y-109335646D01*
X94924699Y-109335647D01*
X95049997Y-109355492D01*
X95050000Y-109355492D01*
X95050003Y-109355492D01*
X95175300Y-109335647D01*
X95175301Y-109335647D01*
X95175302Y-109335646D01*
X95175304Y-109335646D01*
X95288342Y-109278050D01*
X95378050Y-109188342D01*
X95435646Y-109075304D01*
X95435646Y-109075302D01*
X95435647Y-109075301D01*
X95435647Y-109075300D01*
X95455492Y-108950003D01*
X98644508Y-108950003D01*
X98664352Y-109075300D01*
X98664352Y-109075301D01*
X98665752Y-109078048D01*
X98721950Y-109188342D01*
X98721952Y-109188344D01*
X98721954Y-109188347D01*
X98811652Y-109278045D01*
X98811654Y-109278046D01*
X98811658Y-109278050D01*
X98924696Y-109335646D01*
X98924697Y-109335646D01*
X98924699Y-109335647D01*
X99049997Y-109355492D01*
X99050000Y-109355492D01*
X99050003Y-109355492D01*
X99175300Y-109335647D01*
X99175301Y-109335647D01*
X99175302Y-109335646D01*
X99175304Y-109335646D01*
X99288342Y-109278050D01*
X99378050Y-109188342D01*
X99435646Y-109075304D01*
X99435646Y-109075302D01*
X99435647Y-109075301D01*
X99435647Y-109075300D01*
X99455492Y-108950003D01*
X100644508Y-108950003D01*
X100664352Y-109075300D01*
X100664352Y-109075301D01*
X100665752Y-109078048D01*
X100721950Y-109188342D01*
X100721952Y-109188344D01*
X100721954Y-109188347D01*
X100811652Y-109278045D01*
X100811654Y-109278046D01*
X100811658Y-109278050D01*
X100924696Y-109335646D01*
X100924697Y-109335646D01*
X100924699Y-109335647D01*
X101049997Y-109355492D01*
X101050000Y-109355492D01*
X101050003Y-109355492D01*
X101175300Y-109335647D01*
X101175301Y-109335647D01*
X101175302Y-109335646D01*
X101175304Y-109335646D01*
X101288342Y-109278050D01*
X101378050Y-109188342D01*
X101435646Y-109075304D01*
X101435646Y-109075302D01*
X101435647Y-109075301D01*
X101435647Y-109075300D01*
X101455492Y-108950003D01*
X101455492Y-108949996D01*
X101435647Y-108824699D01*
X101435647Y-108824698D01*
X101435646Y-108824696D01*
X101378050Y-108711658D01*
X101378046Y-108711654D01*
X101378045Y-108711652D01*
X101288347Y-108621954D01*
X101288344Y-108621952D01*
X101288342Y-108621950D01*
X101175304Y-108564354D01*
X101175303Y-108564353D01*
X101175300Y-108564352D01*
X101050003Y-108544508D01*
X101049997Y-108544508D01*
X100924699Y-108564352D01*
X100924698Y-108564352D01*
X100849337Y-108602751D01*
X100811658Y-108621950D01*
X100811657Y-108621951D01*
X100811652Y-108621954D01*
X100721954Y-108711652D01*
X100721951Y-108711657D01*
X100664352Y-108824698D01*
X100664352Y-108824699D01*
X100644508Y-108949996D01*
X100644508Y-108950003D01*
X99455492Y-108950003D01*
X99455492Y-108949996D01*
X99435647Y-108824699D01*
X99435647Y-108824698D01*
X99435646Y-108824696D01*
X99378050Y-108711658D01*
X99378046Y-108711654D01*
X99378045Y-108711652D01*
X99288347Y-108621954D01*
X99288344Y-108621952D01*
X99288342Y-108621950D01*
X99175304Y-108564354D01*
X99175303Y-108564353D01*
X99175300Y-108564352D01*
X99050003Y-108544508D01*
X99049997Y-108544508D01*
X98924699Y-108564352D01*
X98924698Y-108564352D01*
X98849337Y-108602751D01*
X98811658Y-108621950D01*
X98811657Y-108621951D01*
X98811652Y-108621954D01*
X98721954Y-108711652D01*
X98721951Y-108711657D01*
X98664352Y-108824698D01*
X98664352Y-108824699D01*
X98644508Y-108949996D01*
X98644508Y-108950003D01*
X95455492Y-108950003D01*
X95455492Y-108949996D01*
X95435647Y-108824699D01*
X95435647Y-108824698D01*
X95435646Y-108824696D01*
X95378050Y-108711658D01*
X95378046Y-108711654D01*
X95378045Y-108711652D01*
X95288347Y-108621954D01*
X95288344Y-108621952D01*
X95288342Y-108621950D01*
X95175304Y-108564354D01*
X95175303Y-108564353D01*
X95175300Y-108564352D01*
X95050003Y-108544508D01*
X95049997Y-108544508D01*
X94924699Y-108564352D01*
X94924698Y-108564352D01*
X94849337Y-108602751D01*
X94811658Y-108621950D01*
X94811657Y-108621951D01*
X94811652Y-108621954D01*
X94721954Y-108711652D01*
X94721951Y-108711657D01*
X94664352Y-108824698D01*
X94664352Y-108824699D01*
X94644508Y-108949996D01*
X94644508Y-108950003D01*
X77000500Y-108950003D01*
X77000500Y-107900003D01*
X80644508Y-107900003D01*
X80664352Y-108025300D01*
X80664352Y-108025301D01*
X80664354Y-108025304D01*
X80721950Y-108138342D01*
X80721952Y-108138344D01*
X80721954Y-108138347D01*
X80811652Y-108228045D01*
X80811654Y-108228046D01*
X80811658Y-108228050D01*
X80924696Y-108285646D01*
X80924697Y-108285646D01*
X80924699Y-108285647D01*
X81049997Y-108305492D01*
X81050000Y-108305492D01*
X81050003Y-108305492D01*
X81175300Y-108285647D01*
X81175301Y-108285647D01*
X81175302Y-108285646D01*
X81175304Y-108285646D01*
X81288342Y-108228050D01*
X81378050Y-108138342D01*
X81435646Y-108025304D01*
X81435646Y-108025302D01*
X81435647Y-108025301D01*
X81435647Y-108025300D01*
X81455492Y-107900003D01*
X81455492Y-107899996D01*
X81449158Y-107860003D01*
X118889508Y-107860003D01*
X118909352Y-107985300D01*
X118909352Y-107985301D01*
X118909354Y-107985304D01*
X118966950Y-108098342D01*
X118966952Y-108098344D01*
X118966954Y-108098347D01*
X119056652Y-108188045D01*
X119056654Y-108188046D01*
X119056658Y-108188050D01*
X119169696Y-108245646D01*
X119169697Y-108245646D01*
X119169699Y-108245647D01*
X119294997Y-108265492D01*
X119295000Y-108265492D01*
X119295003Y-108265492D01*
X119420300Y-108245647D01*
X119420301Y-108245647D01*
X119420302Y-108245646D01*
X119420304Y-108245646D01*
X119533342Y-108188050D01*
X119623050Y-108098342D01*
X119680646Y-107985304D01*
X119680646Y-107985302D01*
X119680647Y-107985301D01*
X119680647Y-107985300D01*
X119700492Y-107860003D01*
X119700492Y-107859996D01*
X119680647Y-107734699D01*
X119680647Y-107734698D01*
X119680646Y-107734696D01*
X119623050Y-107621658D01*
X119623046Y-107621654D01*
X119623045Y-107621652D01*
X119533347Y-107531954D01*
X119533344Y-107531952D01*
X119533342Y-107531950D01*
X119420304Y-107474354D01*
X119420303Y-107474353D01*
X119420300Y-107474352D01*
X119295003Y-107454508D01*
X119294997Y-107454508D01*
X119169699Y-107474352D01*
X119169698Y-107474352D01*
X119094337Y-107512751D01*
X119056658Y-107531950D01*
X119056657Y-107531951D01*
X119056652Y-107531954D01*
X118966954Y-107621652D01*
X118966951Y-107621657D01*
X118909352Y-107734698D01*
X118909352Y-107734699D01*
X118889508Y-107859996D01*
X118889508Y-107860003D01*
X81449158Y-107860003D01*
X81435647Y-107774699D01*
X81435647Y-107774698D01*
X81415266Y-107734699D01*
X81378050Y-107661658D01*
X81378046Y-107661654D01*
X81378045Y-107661652D01*
X81288347Y-107571954D01*
X81288344Y-107571952D01*
X81288342Y-107571950D01*
X81175304Y-107514354D01*
X81175303Y-107514353D01*
X81175300Y-107514352D01*
X81050003Y-107494508D01*
X81049997Y-107494508D01*
X80924699Y-107514352D01*
X80924698Y-107514352D01*
X80849337Y-107552751D01*
X80811658Y-107571950D01*
X80811657Y-107571951D01*
X80811652Y-107571954D01*
X80721954Y-107661652D01*
X80721951Y-107661657D01*
X80664352Y-107774698D01*
X80664352Y-107774699D01*
X80644508Y-107899996D01*
X80644508Y-107900003D01*
X77000500Y-107900003D01*
X77000500Y-107050003D01*
X102544508Y-107050003D01*
X102564352Y-107175300D01*
X102564352Y-107175301D01*
X102564354Y-107175304D01*
X102621950Y-107288342D01*
X102621952Y-107288344D01*
X102621954Y-107288347D01*
X102711652Y-107378045D01*
X102711654Y-107378046D01*
X102711658Y-107378050D01*
X102824696Y-107435646D01*
X102824697Y-107435646D01*
X102824699Y-107435647D01*
X102949997Y-107455492D01*
X102950000Y-107455492D01*
X102950003Y-107455492D01*
X103075300Y-107435647D01*
X103075301Y-107435647D01*
X103075302Y-107435646D01*
X103075304Y-107435646D01*
X103188342Y-107378050D01*
X103278050Y-107288342D01*
X103335646Y-107175304D01*
X103335646Y-107175302D01*
X103339515Y-107167710D01*
X103387490Y-107116914D01*
X103455311Y-107100119D01*
X103521446Y-107122657D01*
X103560485Y-107167710D01*
X103564353Y-107175302D01*
X103564354Y-107175304D01*
X103621950Y-107288342D01*
X103621952Y-107288344D01*
X103621954Y-107288347D01*
X103711652Y-107378045D01*
X103711654Y-107378046D01*
X103711658Y-107378050D01*
X103824696Y-107435646D01*
X103824697Y-107435646D01*
X103824699Y-107435647D01*
X103949997Y-107455492D01*
X103950000Y-107455492D01*
X103950003Y-107455492D01*
X104075300Y-107435647D01*
X104075301Y-107435647D01*
X104075302Y-107435646D01*
X104075304Y-107435646D01*
X104188342Y-107378050D01*
X104278050Y-107288342D01*
X104335646Y-107175304D01*
X104335646Y-107175302D01*
X104335647Y-107175301D01*
X104335647Y-107175300D01*
X104355492Y-107050003D01*
X108544508Y-107050003D01*
X108564352Y-107175300D01*
X108564352Y-107175301D01*
X108564354Y-107175304D01*
X108621950Y-107288342D01*
X108621952Y-107288344D01*
X108621954Y-107288347D01*
X108711652Y-107378045D01*
X108711654Y-107378046D01*
X108711658Y-107378050D01*
X108824696Y-107435646D01*
X108824697Y-107435646D01*
X108824699Y-107435647D01*
X108949997Y-107455492D01*
X108950000Y-107455492D01*
X108950003Y-107455492D01*
X109075300Y-107435647D01*
X109075301Y-107435647D01*
X109075302Y-107435646D01*
X109075304Y-107435646D01*
X109188342Y-107378050D01*
X109278050Y-107288342D01*
X109335646Y-107175304D01*
X109335646Y-107175302D01*
X109335647Y-107175301D01*
X109335647Y-107175300D01*
X109355492Y-107050003D01*
X109355492Y-107049996D01*
X109335647Y-106924699D01*
X109335647Y-106924698D01*
X109335646Y-106924696D01*
X109278050Y-106811658D01*
X109278046Y-106811654D01*
X109278045Y-106811652D01*
X109188347Y-106721954D01*
X109188344Y-106721952D01*
X109188342Y-106721950D01*
X109075304Y-106664354D01*
X109075303Y-106664353D01*
X109075300Y-106664352D01*
X108950003Y-106644508D01*
X108949997Y-106644508D01*
X108824699Y-106664352D01*
X108824698Y-106664352D01*
X108749337Y-106702751D01*
X108711658Y-106721950D01*
X108711657Y-106721951D01*
X108711652Y-106721954D01*
X108621954Y-106811652D01*
X108621951Y-106811657D01*
X108621950Y-106811658D01*
X108602751Y-106849337D01*
X108564352Y-106924698D01*
X108564352Y-106924699D01*
X108544508Y-107049996D01*
X108544508Y-107050003D01*
X104355492Y-107050003D01*
X104355492Y-107049996D01*
X104335647Y-106924699D01*
X104335647Y-106924698D01*
X104335646Y-106924696D01*
X104278050Y-106811658D01*
X104278046Y-106811654D01*
X104278045Y-106811652D01*
X104188347Y-106721954D01*
X104188344Y-106721952D01*
X104188342Y-106721950D01*
X104075304Y-106664354D01*
X104075303Y-106664353D01*
X104075300Y-106664352D01*
X103950003Y-106644508D01*
X103949997Y-106644508D01*
X103824699Y-106664352D01*
X103824698Y-106664352D01*
X103749337Y-106702751D01*
X103711658Y-106721950D01*
X103711657Y-106721951D01*
X103711652Y-106721954D01*
X103621954Y-106811652D01*
X103621949Y-106811659D01*
X103560484Y-106932290D01*
X103512510Y-106983085D01*
X103444689Y-106999880D01*
X103378554Y-106977342D01*
X103339516Y-106932290D01*
X103305150Y-106864845D01*
X103278050Y-106811658D01*
X103278047Y-106811655D01*
X103278045Y-106811652D01*
X103188347Y-106721954D01*
X103188344Y-106721952D01*
X103188342Y-106721950D01*
X103075304Y-106664354D01*
X103075303Y-106664353D01*
X103075300Y-106664352D01*
X102950003Y-106644508D01*
X102949997Y-106644508D01*
X102824699Y-106664352D01*
X102824698Y-106664352D01*
X102749337Y-106702751D01*
X102711658Y-106721950D01*
X102711657Y-106721951D01*
X102711652Y-106721954D01*
X102621954Y-106811652D01*
X102621951Y-106811657D01*
X102621950Y-106811658D01*
X102602751Y-106849337D01*
X102564352Y-106924698D01*
X102564352Y-106924699D01*
X102544508Y-107049996D01*
X102544508Y-107050003D01*
X77000500Y-107050003D01*
X77000500Y-106050003D01*
X98644508Y-106050003D01*
X98664352Y-106175300D01*
X98664352Y-106175301D01*
X98664354Y-106175304D01*
X98721950Y-106288342D01*
X98721952Y-106288344D01*
X98721954Y-106288347D01*
X98811652Y-106378045D01*
X98811654Y-106378046D01*
X98811658Y-106378050D01*
X98924696Y-106435646D01*
X98924697Y-106435646D01*
X98924699Y-106435647D01*
X99049997Y-106455492D01*
X99050000Y-106455492D01*
X99050003Y-106455492D01*
X99175300Y-106435647D01*
X99175301Y-106435647D01*
X99175302Y-106435646D01*
X99175304Y-106435646D01*
X99288342Y-106378050D01*
X99378050Y-106288342D01*
X99435646Y-106175304D01*
X99435646Y-106175302D01*
X99435647Y-106175301D01*
X99435647Y-106175300D01*
X99455492Y-106050003D01*
X100644508Y-106050003D01*
X100664352Y-106175300D01*
X100664352Y-106175301D01*
X100664354Y-106175304D01*
X100721950Y-106288342D01*
X100721952Y-106288344D01*
X100721954Y-106288347D01*
X100811652Y-106378045D01*
X100811654Y-106378046D01*
X100811658Y-106378050D01*
X100924696Y-106435646D01*
X100924697Y-106435646D01*
X100924699Y-106435647D01*
X101049997Y-106455492D01*
X101050000Y-106455492D01*
X101050003Y-106455492D01*
X101175300Y-106435647D01*
X101175301Y-106435647D01*
X101175302Y-106435646D01*
X101175304Y-106435646D01*
X101288342Y-106378050D01*
X101378050Y-106288342D01*
X101435646Y-106175304D01*
X101435646Y-106175302D01*
X101435647Y-106175301D01*
X101435647Y-106175300D01*
X101455492Y-106050003D01*
X101455492Y-106049996D01*
X101447484Y-105999433D01*
X103763702Y-105999433D01*
X103783546Y-106124730D01*
X103783546Y-106124731D01*
X103783548Y-106124734D01*
X103841144Y-106237772D01*
X103841146Y-106237774D01*
X103841148Y-106237777D01*
X103930846Y-106327475D01*
X103930848Y-106327476D01*
X103930852Y-106327480D01*
X104043890Y-106385076D01*
X104043891Y-106385076D01*
X104043893Y-106385077D01*
X104169191Y-106404922D01*
X104169194Y-106404922D01*
X104169197Y-106404922D01*
X104294494Y-106385077D01*
X104294495Y-106385077D01*
X104294496Y-106385076D01*
X104294498Y-106385076D01*
X104407536Y-106327480D01*
X104497244Y-106237772D01*
X104554840Y-106124734D01*
X104554840Y-106124732D01*
X104554841Y-106124731D01*
X104554841Y-106124730D01*
X104574686Y-105999433D01*
X104574686Y-105999426D01*
X104554841Y-105874129D01*
X104554841Y-105874128D01*
X104554840Y-105874126D01*
X104497244Y-105761088D01*
X104497240Y-105761084D01*
X104497239Y-105761082D01*
X104407541Y-105671384D01*
X104407538Y-105671382D01*
X104407536Y-105671380D01*
X104294498Y-105613784D01*
X104294497Y-105613783D01*
X104294494Y-105613782D01*
X104169197Y-105593938D01*
X104169191Y-105593938D01*
X104043893Y-105613782D01*
X104043892Y-105613782D01*
X103983591Y-105644508D01*
X103930852Y-105671380D01*
X103930851Y-105671381D01*
X103930846Y-105671384D01*
X103841148Y-105761082D01*
X103841145Y-105761087D01*
X103783546Y-105874128D01*
X103783546Y-105874129D01*
X103763702Y-105999426D01*
X103763702Y-105999433D01*
X101447484Y-105999433D01*
X101435647Y-105924699D01*
X101435647Y-105924698D01*
X101435646Y-105924696D01*
X101378050Y-105811658D01*
X101378048Y-105811656D01*
X101374792Y-105805265D01*
X101361896Y-105736596D01*
X101388172Y-105671856D01*
X101428978Y-105638487D01*
X101508342Y-105598050D01*
X101598050Y-105508342D01*
X101655646Y-105395304D01*
X101655646Y-105395302D01*
X101655647Y-105395301D01*
X101655647Y-105395300D01*
X101675492Y-105270003D01*
X101675492Y-105269996D01*
X101655647Y-105144699D01*
X101655647Y-105144698D01*
X101655646Y-105144696D01*
X101607397Y-105050003D01*
X102544508Y-105050003D01*
X102564352Y-105175300D01*
X102564352Y-105175301D01*
X102569141Y-105184699D01*
X102621950Y-105288342D01*
X102621952Y-105288344D01*
X102621954Y-105288347D01*
X102711652Y-105378045D01*
X102711654Y-105378046D01*
X102711658Y-105378050D01*
X102824696Y-105435646D01*
X102824697Y-105435646D01*
X102824699Y-105435647D01*
X102949997Y-105455492D01*
X102950000Y-105455492D01*
X102950003Y-105455492D01*
X103075300Y-105435647D01*
X103075301Y-105435647D01*
X103075302Y-105435646D01*
X103075304Y-105435646D01*
X103188342Y-105378050D01*
X103278050Y-105288342D01*
X103335646Y-105175304D01*
X103335646Y-105175302D01*
X103335647Y-105175301D01*
X103335647Y-105175300D01*
X103355492Y-105050003D01*
X104544508Y-105050003D01*
X104564352Y-105175300D01*
X104564352Y-105175301D01*
X104569141Y-105184699D01*
X104621950Y-105288342D01*
X104621952Y-105288344D01*
X104621954Y-105288347D01*
X104711652Y-105378045D01*
X104711654Y-105378046D01*
X104711658Y-105378050D01*
X104824696Y-105435646D01*
X104824697Y-105435646D01*
X104824699Y-105435647D01*
X104949997Y-105455492D01*
X104950000Y-105455492D01*
X104950003Y-105455492D01*
X105075300Y-105435647D01*
X105075301Y-105435647D01*
X105075302Y-105435646D01*
X105075304Y-105435646D01*
X105188342Y-105378050D01*
X105256389Y-105310003D01*
X122539508Y-105310003D01*
X122559352Y-105435300D01*
X122559352Y-105435301D01*
X122569640Y-105455492D01*
X122616950Y-105548342D01*
X122616952Y-105548344D01*
X122616954Y-105548347D01*
X122706652Y-105638045D01*
X122706654Y-105638046D01*
X122706658Y-105638050D01*
X122819696Y-105695646D01*
X122819697Y-105695646D01*
X122819699Y-105695647D01*
X122944997Y-105715492D01*
X122945000Y-105715492D01*
X122945003Y-105715492D01*
X123070300Y-105695647D01*
X123070301Y-105695647D01*
X123070302Y-105695646D01*
X123070304Y-105695646D01*
X123183342Y-105638050D01*
X123273050Y-105548342D01*
X123330646Y-105435304D01*
X123330646Y-105435302D01*
X123330647Y-105435301D01*
X123330647Y-105435300D01*
X123350492Y-105310003D01*
X123350492Y-105309996D01*
X123330647Y-105184699D01*
X123330647Y-105184698D01*
X123330646Y-105184696D01*
X123273050Y-105071658D01*
X123273046Y-105071654D01*
X123273045Y-105071652D01*
X123183347Y-104981954D01*
X123183344Y-104981952D01*
X123183342Y-104981950D01*
X123070304Y-104924354D01*
X123070303Y-104924353D01*
X123070300Y-104924352D01*
X122945003Y-104904508D01*
X122944997Y-104904508D01*
X122819699Y-104924352D01*
X122819698Y-104924352D01*
X122744337Y-104962751D01*
X122706658Y-104981950D01*
X122706657Y-104981951D01*
X122706652Y-104981954D01*
X122616954Y-105071652D01*
X122616951Y-105071657D01*
X122559352Y-105184698D01*
X122559352Y-105184699D01*
X122539508Y-105309996D01*
X122539508Y-105310003D01*
X105256389Y-105310003D01*
X105278050Y-105288342D01*
X105335646Y-105175304D01*
X105335646Y-105175302D01*
X105335647Y-105175301D01*
X105335647Y-105175300D01*
X105355492Y-105050003D01*
X105355492Y-105049996D01*
X105335647Y-104924699D01*
X105335647Y-104924698D01*
X105330375Y-104914352D01*
X105278050Y-104811658D01*
X105278046Y-104811654D01*
X105278045Y-104811652D01*
X105188347Y-104721954D01*
X105188344Y-104721952D01*
X105188342Y-104721950D01*
X105075304Y-104664354D01*
X105075303Y-104664353D01*
X105075300Y-104664352D01*
X104950003Y-104644508D01*
X104949997Y-104644508D01*
X104824699Y-104664352D01*
X104824698Y-104664352D01*
X104749337Y-104702751D01*
X104711658Y-104721950D01*
X104711657Y-104721951D01*
X104711652Y-104721954D01*
X104621954Y-104811652D01*
X104621951Y-104811657D01*
X104564352Y-104924698D01*
X104564352Y-104924699D01*
X104544508Y-105049996D01*
X104544508Y-105050003D01*
X103355492Y-105050003D01*
X103355492Y-105049996D01*
X103335647Y-104924699D01*
X103335647Y-104924698D01*
X103330375Y-104914352D01*
X103278050Y-104811658D01*
X103278046Y-104811654D01*
X103278045Y-104811652D01*
X103188347Y-104721954D01*
X103188344Y-104721952D01*
X103188342Y-104721950D01*
X103075304Y-104664354D01*
X103075303Y-104664353D01*
X103075300Y-104664352D01*
X102950003Y-104644508D01*
X102949997Y-104644508D01*
X102824699Y-104664352D01*
X102824698Y-104664352D01*
X102749337Y-104702751D01*
X102711658Y-104721950D01*
X102711657Y-104721951D01*
X102711652Y-104721954D01*
X102621954Y-104811652D01*
X102621951Y-104811657D01*
X102564352Y-104924698D01*
X102564352Y-104924699D01*
X102544508Y-105049996D01*
X102544508Y-105050003D01*
X101607397Y-105050003D01*
X101598050Y-105031658D01*
X101598046Y-105031654D01*
X101598045Y-105031652D01*
X101508347Y-104941954D01*
X101508344Y-104941952D01*
X101508342Y-104941950D01*
X101395304Y-104884354D01*
X101395303Y-104884353D01*
X101395300Y-104884352D01*
X101270003Y-104864508D01*
X101269997Y-104864508D01*
X101144699Y-104884352D01*
X101144698Y-104884352D01*
X101085818Y-104914354D01*
X101031658Y-104941950D01*
X101031657Y-104941951D01*
X101031652Y-104941954D01*
X100941954Y-105031652D01*
X100941951Y-105031657D01*
X100941950Y-105031658D01*
X100932604Y-105050000D01*
X100884352Y-105144698D01*
X100884352Y-105144699D01*
X100864508Y-105269996D01*
X100864508Y-105270003D01*
X100884352Y-105395300D01*
X100884352Y-105395301D01*
X100945207Y-105514734D01*
X100958103Y-105583403D01*
X100931827Y-105648144D01*
X100891018Y-105681513D01*
X100811659Y-105721949D01*
X100811652Y-105721954D01*
X100721954Y-105811652D01*
X100721951Y-105811657D01*
X100664352Y-105924698D01*
X100664352Y-105924699D01*
X100644508Y-106049996D01*
X100644508Y-106050003D01*
X99455492Y-106050003D01*
X99455492Y-106049996D01*
X99435647Y-105924699D01*
X99435647Y-105924698D01*
X99435646Y-105924696D01*
X99378050Y-105811658D01*
X99378046Y-105811654D01*
X99378045Y-105811652D01*
X99288347Y-105721954D01*
X99288344Y-105721952D01*
X99288342Y-105721950D01*
X99175304Y-105664354D01*
X99175303Y-105664353D01*
X99175300Y-105664352D01*
X99050003Y-105644508D01*
X99049997Y-105644508D01*
X98924699Y-105664352D01*
X98924698Y-105664352D01*
X98863282Y-105695646D01*
X98811658Y-105721950D01*
X98811657Y-105721951D01*
X98811652Y-105721954D01*
X98721954Y-105811652D01*
X98721951Y-105811657D01*
X98664352Y-105924698D01*
X98664352Y-105924699D01*
X98644508Y-106049996D01*
X98644508Y-106050003D01*
X77000500Y-106050003D01*
X77000500Y-105300003D01*
X84294508Y-105300003D01*
X84314352Y-105425300D01*
X84314352Y-105425301D01*
X84319624Y-105435647D01*
X84371950Y-105538342D01*
X84371952Y-105538344D01*
X84371954Y-105538347D01*
X84461652Y-105628045D01*
X84461654Y-105628046D01*
X84461658Y-105628050D01*
X84574696Y-105685646D01*
X84574697Y-105685646D01*
X84574699Y-105685647D01*
X84699997Y-105705492D01*
X84700000Y-105705492D01*
X84700003Y-105705492D01*
X84825300Y-105685647D01*
X84825301Y-105685647D01*
X84825302Y-105685646D01*
X84825304Y-105685646D01*
X84938342Y-105628050D01*
X85028050Y-105538342D01*
X85085646Y-105425304D01*
X85085646Y-105425302D01*
X85085647Y-105425301D01*
X85085647Y-105425300D01*
X85105492Y-105300003D01*
X85105492Y-105299996D01*
X85085647Y-105174699D01*
X85085647Y-105174698D01*
X85085646Y-105174696D01*
X85028050Y-105061658D01*
X85028046Y-105061654D01*
X85028045Y-105061652D01*
X85016396Y-105050003D01*
X93644508Y-105050003D01*
X93664352Y-105175300D01*
X93664352Y-105175301D01*
X93669141Y-105184699D01*
X93721950Y-105288342D01*
X93721952Y-105288344D01*
X93721954Y-105288347D01*
X93811652Y-105378045D01*
X93811654Y-105378046D01*
X93811658Y-105378050D01*
X93924696Y-105435646D01*
X93924697Y-105435646D01*
X93924699Y-105435647D01*
X94049997Y-105455492D01*
X94050000Y-105455492D01*
X94050003Y-105455492D01*
X94175300Y-105435647D01*
X94175301Y-105435647D01*
X94175302Y-105435646D01*
X94175304Y-105435646D01*
X94288342Y-105378050D01*
X94378050Y-105288342D01*
X94435646Y-105175304D01*
X94435646Y-105175302D01*
X94435647Y-105175301D01*
X94435647Y-105175300D01*
X94455492Y-105050003D01*
X99644508Y-105050003D01*
X99664352Y-105175300D01*
X99664352Y-105175301D01*
X99669141Y-105184699D01*
X99721950Y-105288342D01*
X99721952Y-105288344D01*
X99721954Y-105288347D01*
X99811652Y-105378045D01*
X99811654Y-105378046D01*
X99811658Y-105378050D01*
X99924696Y-105435646D01*
X99924697Y-105435646D01*
X99924699Y-105435647D01*
X100049997Y-105455492D01*
X100050000Y-105455492D01*
X100050003Y-105455492D01*
X100175300Y-105435647D01*
X100175301Y-105435647D01*
X100175302Y-105435646D01*
X100175304Y-105435646D01*
X100288342Y-105378050D01*
X100378050Y-105288342D01*
X100435646Y-105175304D01*
X100435646Y-105175302D01*
X100435647Y-105175301D01*
X100435647Y-105175300D01*
X100455492Y-105050003D01*
X100455492Y-105049996D01*
X100435647Y-104924699D01*
X100435647Y-104924698D01*
X100430375Y-104914352D01*
X100378050Y-104811658D01*
X100378046Y-104811654D01*
X100378045Y-104811652D01*
X100288347Y-104721954D01*
X100288344Y-104721952D01*
X100288342Y-104721950D01*
X100211517Y-104682805D01*
X100175301Y-104664352D01*
X100043723Y-104643513D01*
X100033856Y-104638836D01*
X100006276Y-104651432D01*
X99924699Y-104664352D01*
X99924698Y-104664352D01*
X99849337Y-104702751D01*
X99811658Y-104721950D01*
X99811657Y-104721951D01*
X99811652Y-104721954D01*
X99721954Y-104811652D01*
X99721951Y-104811657D01*
X99664352Y-104924698D01*
X99664352Y-104924699D01*
X99644508Y-105049996D01*
X99644508Y-105050003D01*
X94455492Y-105050003D01*
X94455492Y-105049996D01*
X94435647Y-104924699D01*
X94435647Y-104924698D01*
X94430375Y-104914352D01*
X94378050Y-104811658D01*
X94378046Y-104811654D01*
X94378045Y-104811652D01*
X94288347Y-104721954D01*
X94288344Y-104721952D01*
X94288342Y-104721950D01*
X94175304Y-104664354D01*
X94175303Y-104664353D01*
X94175300Y-104664352D01*
X94050003Y-104644508D01*
X94049997Y-104644508D01*
X93924699Y-104664352D01*
X93924698Y-104664352D01*
X93849337Y-104702751D01*
X93811658Y-104721950D01*
X93811657Y-104721951D01*
X93811652Y-104721954D01*
X93721954Y-104811652D01*
X93721951Y-104811657D01*
X93664352Y-104924698D01*
X93664352Y-104924699D01*
X93644508Y-105049996D01*
X93644508Y-105050003D01*
X85016396Y-105050003D01*
X84938347Y-104971954D01*
X84938344Y-104971952D01*
X84938342Y-104971950D01*
X84825304Y-104914354D01*
X84825303Y-104914353D01*
X84825300Y-104914352D01*
X84700003Y-104894508D01*
X84699997Y-104894508D01*
X84574699Y-104914352D01*
X84574698Y-104914352D01*
X84520536Y-104941950D01*
X84461658Y-104971950D01*
X84461657Y-104971951D01*
X84461652Y-104971954D01*
X84371954Y-105061652D01*
X84371951Y-105061657D01*
X84371950Y-105061658D01*
X84366855Y-105071658D01*
X84314352Y-105174698D01*
X84314352Y-105174699D01*
X84294508Y-105299996D01*
X84294508Y-105300003D01*
X77000500Y-105300003D01*
X77000500Y-104050003D01*
X96644508Y-104050003D01*
X96664352Y-104175300D01*
X96664352Y-104175301D01*
X96664354Y-104175304D01*
X96721950Y-104288342D01*
X96721952Y-104288344D01*
X96721954Y-104288347D01*
X96811652Y-104378045D01*
X96811654Y-104378046D01*
X96811658Y-104378050D01*
X96924696Y-104435646D01*
X96924697Y-104435646D01*
X96924699Y-104435647D01*
X97049997Y-104455492D01*
X97050000Y-104455492D01*
X97050003Y-104455492D01*
X97175300Y-104435647D01*
X97175301Y-104435647D01*
X97175302Y-104435646D01*
X97175304Y-104435646D01*
X97288342Y-104378050D01*
X97378050Y-104288342D01*
X97435646Y-104175304D01*
X97435646Y-104175302D01*
X97435647Y-104175301D01*
X97435647Y-104175300D01*
X97455492Y-104050003D01*
X97455492Y-104049996D01*
X97447574Y-104000003D01*
X99594508Y-104000003D01*
X99614352Y-104125300D01*
X99614352Y-104125301D01*
X99614354Y-104125304D01*
X99671950Y-104238342D01*
X99671952Y-104238344D01*
X99671954Y-104238347D01*
X99761652Y-104328045D01*
X99761654Y-104328046D01*
X99761658Y-104328050D01*
X99874696Y-104385646D01*
X99874697Y-104385646D01*
X99874699Y-104385647D01*
X100006275Y-104406486D01*
X100016140Y-104411162D01*
X100043721Y-104398567D01*
X100125304Y-104385646D01*
X100238342Y-104328050D01*
X100328050Y-104238342D01*
X100385646Y-104125304D01*
X100385646Y-104125302D01*
X100385647Y-104125301D01*
X100385647Y-104125300D01*
X100405492Y-104000003D01*
X100405492Y-103999996D01*
X100385647Y-103874699D01*
X100385647Y-103874698D01*
X100353526Y-103811658D01*
X100328050Y-103761658D01*
X100328046Y-103761654D01*
X100328045Y-103761652D01*
X100238347Y-103671954D01*
X100238344Y-103671952D01*
X100238342Y-103671950D01*
X100191772Y-103648221D01*
X100140978Y-103600248D01*
X100124183Y-103532427D01*
X100146720Y-103466292D01*
X100191770Y-103427255D01*
X100288342Y-103378050D01*
X100378050Y-103288342D01*
X100435646Y-103175304D01*
X100435646Y-103175302D01*
X100435647Y-103175301D01*
X100435647Y-103175300D01*
X100455492Y-103050003D01*
X100455492Y-103049996D01*
X100435647Y-102924699D01*
X100435647Y-102924698D01*
X100410479Y-102875304D01*
X100378050Y-102811658D01*
X100378046Y-102811654D01*
X100378045Y-102811652D01*
X100288347Y-102721954D01*
X100288344Y-102721952D01*
X100288342Y-102721950D01*
X100175304Y-102664354D01*
X100175303Y-102664353D01*
X100175300Y-102664352D01*
X100050003Y-102644508D01*
X100049997Y-102644508D01*
X99924699Y-102664352D01*
X99924698Y-102664352D01*
X99849337Y-102702751D01*
X99811658Y-102721950D01*
X99811657Y-102721951D01*
X99811652Y-102721954D01*
X99721954Y-102811652D01*
X99721951Y-102811657D01*
X99664352Y-102924698D01*
X99664352Y-102924699D01*
X99644508Y-103049996D01*
X99644508Y-103050003D01*
X99664352Y-103175300D01*
X99664352Y-103175301D01*
X99669624Y-103185647D01*
X99721950Y-103288342D01*
X99721952Y-103288344D01*
X99721954Y-103288347D01*
X99811652Y-103378045D01*
X99811655Y-103378047D01*
X99811658Y-103378050D01*
X99858225Y-103401777D01*
X99909020Y-103449750D01*
X99925816Y-103517571D01*
X99903279Y-103583706D01*
X99858226Y-103622745D01*
X99761659Y-103671949D01*
X99761652Y-103671954D01*
X99671954Y-103761652D01*
X99671951Y-103761657D01*
X99614352Y-103874698D01*
X99614352Y-103874699D01*
X99594508Y-103999996D01*
X99594508Y-104000003D01*
X97447574Y-104000003D01*
X97435647Y-103924699D01*
X97435647Y-103924698D01*
X97435646Y-103924696D01*
X97378050Y-103811658D01*
X97378046Y-103811654D01*
X97378045Y-103811652D01*
X97288347Y-103721954D01*
X97288344Y-103721952D01*
X97288342Y-103721950D01*
X97175304Y-103664354D01*
X97175303Y-103664353D01*
X97175300Y-103664352D01*
X97050003Y-103644508D01*
X97049997Y-103644508D01*
X96924699Y-103664352D01*
X96924698Y-103664352D01*
X96849337Y-103702751D01*
X96811658Y-103721950D01*
X96811657Y-103721951D01*
X96811652Y-103721954D01*
X96721954Y-103811652D01*
X96721951Y-103811657D01*
X96664352Y-103924698D01*
X96664352Y-103924699D01*
X96644508Y-104049996D01*
X96644508Y-104050003D01*
X77000500Y-104050003D01*
X77000500Y-102800003D01*
X80694508Y-102800003D01*
X80714352Y-102925300D01*
X80714352Y-102925301D01*
X80719449Y-102935304D01*
X80771950Y-103038342D01*
X80771952Y-103038344D01*
X80771954Y-103038347D01*
X80861652Y-103128045D01*
X80861654Y-103128046D01*
X80861658Y-103128050D01*
X80974696Y-103185646D01*
X80974697Y-103185646D01*
X80974699Y-103185647D01*
X81099997Y-103205492D01*
X81100000Y-103205492D01*
X81100003Y-103205492D01*
X81225300Y-103185647D01*
X81225301Y-103185647D01*
X81225302Y-103185646D01*
X81225304Y-103185646D01*
X81338342Y-103128050D01*
X81428050Y-103038342D01*
X81485646Y-102925304D01*
X81485646Y-102925302D01*
X81485647Y-102925301D01*
X81485647Y-102925300D01*
X81505492Y-102800003D01*
X81505492Y-102799996D01*
X81497574Y-102750003D01*
X91844508Y-102750003D01*
X91864352Y-102875300D01*
X91864352Y-102875301D01*
X91864354Y-102875304D01*
X91921950Y-102988342D01*
X91921952Y-102988344D01*
X91921954Y-102988347D01*
X92011652Y-103078045D01*
X92011654Y-103078046D01*
X92011658Y-103078050D01*
X92124696Y-103135646D01*
X92124697Y-103135646D01*
X92124699Y-103135647D01*
X92249997Y-103155492D01*
X92250000Y-103155492D01*
X92250003Y-103155492D01*
X92375300Y-103135647D01*
X92375301Y-103135647D01*
X92375302Y-103135646D01*
X92375304Y-103135646D01*
X92488342Y-103078050D01*
X92578050Y-102988342D01*
X92635646Y-102875304D01*
X92635646Y-102875302D01*
X92635647Y-102875301D01*
X92635647Y-102875300D01*
X92655492Y-102750003D01*
X92655492Y-102749996D01*
X92635647Y-102624699D01*
X92635647Y-102624698D01*
X92629437Y-102612510D01*
X92578050Y-102511658D01*
X92578046Y-102511654D01*
X92578045Y-102511652D01*
X92488347Y-102421954D01*
X92488344Y-102421952D01*
X92488342Y-102421950D01*
X92375304Y-102364354D01*
X92375303Y-102364353D01*
X92375300Y-102364352D01*
X92250003Y-102344508D01*
X92249997Y-102344508D01*
X92124699Y-102364352D01*
X92124698Y-102364352D01*
X92049337Y-102402751D01*
X92011658Y-102421950D01*
X92011657Y-102421951D01*
X92011652Y-102421954D01*
X91921954Y-102511652D01*
X91921951Y-102511657D01*
X91864352Y-102624698D01*
X91864352Y-102624699D01*
X91844508Y-102749996D01*
X91844508Y-102750003D01*
X81497574Y-102750003D01*
X81485647Y-102674699D01*
X81485647Y-102674698D01*
X81478405Y-102660485D01*
X81428050Y-102561658D01*
X81428046Y-102561654D01*
X81428045Y-102561652D01*
X81338347Y-102471954D01*
X81338344Y-102471952D01*
X81338342Y-102471950D01*
X81225304Y-102414354D01*
X81225303Y-102414353D01*
X81225300Y-102414352D01*
X81100003Y-102394508D01*
X81099997Y-102394508D01*
X80974699Y-102414352D01*
X80974698Y-102414352D01*
X80899337Y-102452751D01*
X80861658Y-102471950D01*
X80861657Y-102471951D01*
X80861652Y-102471954D01*
X80771954Y-102561652D01*
X80771951Y-102561657D01*
X80771950Y-102561658D01*
X80766855Y-102571658D01*
X80714352Y-102674698D01*
X80714352Y-102674699D01*
X80694508Y-102799996D01*
X80694508Y-102800003D01*
X77000500Y-102800003D01*
X77000500Y-102050003D01*
X100644508Y-102050003D01*
X100664352Y-102175300D01*
X100664352Y-102175301D01*
X100664354Y-102175304D01*
X100721950Y-102288342D01*
X100721952Y-102288344D01*
X100721954Y-102288347D01*
X100811652Y-102378045D01*
X100811654Y-102378046D01*
X100811658Y-102378050D01*
X100924696Y-102435646D01*
X100924697Y-102435646D01*
X100924699Y-102435647D01*
X101049997Y-102455492D01*
X101050000Y-102455492D01*
X101050003Y-102455492D01*
X101175300Y-102435647D01*
X101175301Y-102435647D01*
X101175302Y-102435646D01*
X101175304Y-102435646D01*
X101288342Y-102378050D01*
X101378050Y-102288342D01*
X101435646Y-102175304D01*
X101435646Y-102175302D01*
X101435647Y-102175301D01*
X101435647Y-102175300D01*
X101455492Y-102050003D01*
X102544508Y-102050003D01*
X102564352Y-102175300D01*
X102564352Y-102175301D01*
X102564354Y-102175304D01*
X102621950Y-102288342D01*
X102621952Y-102288344D01*
X102621954Y-102288347D01*
X102711652Y-102378045D01*
X102711654Y-102378046D01*
X102711658Y-102378050D01*
X102824696Y-102435646D01*
X102824697Y-102435646D01*
X102824699Y-102435647D01*
X102949997Y-102455492D01*
X102950000Y-102455492D01*
X102950003Y-102455492D01*
X103075300Y-102435647D01*
X103075301Y-102435647D01*
X103075302Y-102435646D01*
X103075304Y-102435646D01*
X103188342Y-102378050D01*
X103278050Y-102288342D01*
X103335646Y-102175304D01*
X103335646Y-102175302D01*
X103339515Y-102167710D01*
X103387490Y-102116914D01*
X103455311Y-102100119D01*
X103521446Y-102122657D01*
X103560485Y-102167710D01*
X103564353Y-102175302D01*
X103564354Y-102175304D01*
X103621950Y-102288342D01*
X103621952Y-102288344D01*
X103621954Y-102288347D01*
X103711652Y-102378045D01*
X103711655Y-102378047D01*
X103711658Y-102378050D01*
X103763585Y-102404508D01*
X103832290Y-102439516D01*
X103883085Y-102487490D01*
X103899880Y-102555311D01*
X103877342Y-102621446D01*
X103832290Y-102660484D01*
X103711659Y-102721949D01*
X103711652Y-102721954D01*
X103621954Y-102811652D01*
X103621951Y-102811657D01*
X103564352Y-102924698D01*
X103564352Y-102924699D01*
X103544508Y-103049996D01*
X103544508Y-103050003D01*
X103564352Y-103175300D01*
X103564352Y-103175301D01*
X103569624Y-103185647D01*
X103621950Y-103288342D01*
X103621952Y-103288344D01*
X103621954Y-103288347D01*
X103711652Y-103378045D01*
X103711655Y-103378047D01*
X103711658Y-103378050D01*
X103758223Y-103401776D01*
X103832290Y-103439516D01*
X103883085Y-103487490D01*
X103899880Y-103555311D01*
X103877342Y-103621446D01*
X103832290Y-103660484D01*
X103711659Y-103721949D01*
X103711652Y-103721954D01*
X103621954Y-103811652D01*
X103621951Y-103811657D01*
X103564352Y-103924698D01*
X103564352Y-103924699D01*
X103544508Y-104049996D01*
X103544508Y-104050003D01*
X103564352Y-104175300D01*
X103564352Y-104175301D01*
X103564354Y-104175304D01*
X103621950Y-104288342D01*
X103621952Y-104288344D01*
X103621954Y-104288347D01*
X103711652Y-104378045D01*
X103711654Y-104378046D01*
X103711658Y-104378050D01*
X103824696Y-104435646D01*
X103824697Y-104435646D01*
X103824699Y-104435647D01*
X103949997Y-104455492D01*
X103950000Y-104455492D01*
X103950003Y-104455492D01*
X104075300Y-104435647D01*
X104075301Y-104435647D01*
X104075302Y-104435646D01*
X104075304Y-104435646D01*
X104188342Y-104378050D01*
X104278050Y-104288342D01*
X104335646Y-104175304D01*
X104335646Y-104175302D01*
X104335647Y-104175301D01*
X104335647Y-104175300D01*
X104355492Y-104050003D01*
X107544508Y-104050003D01*
X107564352Y-104175300D01*
X107564352Y-104175301D01*
X107564354Y-104175304D01*
X107621950Y-104288342D01*
X107621952Y-104288344D01*
X107621954Y-104288347D01*
X107711652Y-104378045D01*
X107711654Y-104378046D01*
X107711658Y-104378050D01*
X107824696Y-104435646D01*
X107824697Y-104435646D01*
X107824699Y-104435647D01*
X107949997Y-104455492D01*
X107950000Y-104455492D01*
X107950003Y-104455492D01*
X108075300Y-104435647D01*
X108075301Y-104435647D01*
X108075302Y-104435646D01*
X108075304Y-104435646D01*
X108188342Y-104378050D01*
X108278050Y-104288342D01*
X108335646Y-104175304D01*
X108335646Y-104175302D01*
X108335647Y-104175301D01*
X108335647Y-104175300D01*
X108355492Y-104050003D01*
X108355492Y-104049996D01*
X108335647Y-103924699D01*
X108335647Y-103924698D01*
X108335646Y-103924696D01*
X108278050Y-103811658D01*
X108278046Y-103811654D01*
X108278045Y-103811652D01*
X108188347Y-103721954D01*
X108188344Y-103721952D01*
X108188342Y-103721950D01*
X108075304Y-103664354D01*
X108075303Y-103664353D01*
X108075300Y-103664352D01*
X107950003Y-103644508D01*
X107949997Y-103644508D01*
X107824699Y-103664352D01*
X107824698Y-103664352D01*
X107749337Y-103702751D01*
X107711658Y-103721950D01*
X107711657Y-103721951D01*
X107711652Y-103721954D01*
X107621954Y-103811652D01*
X107621951Y-103811657D01*
X107564352Y-103924698D01*
X107564352Y-103924699D01*
X107544508Y-104049996D01*
X107544508Y-104050003D01*
X104355492Y-104050003D01*
X104355492Y-104049996D01*
X104335647Y-103924699D01*
X104335647Y-103924698D01*
X104335646Y-103924696D01*
X104278050Y-103811658D01*
X104278046Y-103811654D01*
X104278045Y-103811652D01*
X104188347Y-103721954D01*
X104188344Y-103721952D01*
X104188342Y-103721950D01*
X104075304Y-103664354D01*
X104075302Y-103664353D01*
X104067710Y-103660485D01*
X104016914Y-103612510D01*
X104000119Y-103544689D01*
X104022657Y-103478554D01*
X104067710Y-103439515D01*
X104075302Y-103435646D01*
X104075304Y-103435646D01*
X104188342Y-103378050D01*
X104278050Y-103288342D01*
X104335646Y-103175304D01*
X104335646Y-103175302D01*
X104335647Y-103175301D01*
X104335647Y-103175300D01*
X104355492Y-103050003D01*
X104355492Y-103049996D01*
X104335647Y-102924699D01*
X104335647Y-102924698D01*
X104310479Y-102875304D01*
X104278050Y-102811658D01*
X104278046Y-102811654D01*
X104278045Y-102811652D01*
X104276396Y-102810003D01*
X118889508Y-102810003D01*
X118909352Y-102935300D01*
X118909352Y-102935301D01*
X118909354Y-102935304D01*
X118966950Y-103048342D01*
X118966952Y-103048344D01*
X118966954Y-103048347D01*
X119056652Y-103138045D01*
X119056654Y-103138046D01*
X119056658Y-103138050D01*
X119169696Y-103195646D01*
X119169697Y-103195646D01*
X119169699Y-103195647D01*
X119294997Y-103215492D01*
X119295000Y-103215492D01*
X119295003Y-103215492D01*
X119420300Y-103195647D01*
X119420301Y-103195647D01*
X119420302Y-103195646D01*
X119420304Y-103195646D01*
X119533342Y-103138050D01*
X119623050Y-103048342D01*
X119680646Y-102935304D01*
X119680646Y-102935302D01*
X119680647Y-102935301D01*
X119680647Y-102935300D01*
X119700492Y-102810003D01*
X119700492Y-102809996D01*
X119680647Y-102684699D01*
X119680647Y-102684698D01*
X119670280Y-102664352D01*
X119623050Y-102571658D01*
X119623046Y-102571654D01*
X119623045Y-102571652D01*
X119533347Y-102481954D01*
X119533344Y-102481952D01*
X119533342Y-102481950D01*
X119420304Y-102424354D01*
X119420303Y-102424353D01*
X119420300Y-102424352D01*
X119295003Y-102404508D01*
X119294997Y-102404508D01*
X119169699Y-102424352D01*
X119169698Y-102424352D01*
X119094337Y-102462751D01*
X119056658Y-102481950D01*
X119056657Y-102481951D01*
X119056652Y-102481954D01*
X118966954Y-102571652D01*
X118966951Y-102571657D01*
X118909352Y-102684698D01*
X118909352Y-102684699D01*
X118889508Y-102809996D01*
X118889508Y-102810003D01*
X104276396Y-102810003D01*
X104188347Y-102721954D01*
X104188344Y-102721952D01*
X104188342Y-102721950D01*
X104075304Y-102664354D01*
X104075302Y-102664353D01*
X104067710Y-102660485D01*
X104016914Y-102612510D01*
X104000119Y-102544689D01*
X104022657Y-102478554D01*
X104067710Y-102439515D01*
X104075302Y-102435646D01*
X104075304Y-102435646D01*
X104188342Y-102378050D01*
X104278050Y-102288342D01*
X104335646Y-102175304D01*
X104335646Y-102175302D01*
X104335647Y-102175301D01*
X104335647Y-102175300D01*
X104355492Y-102050003D01*
X104355492Y-102049996D01*
X104335647Y-101924699D01*
X104335647Y-101924698D01*
X104335646Y-101924696D01*
X104278050Y-101811658D01*
X104278046Y-101811654D01*
X104278045Y-101811652D01*
X104188347Y-101721954D01*
X104188344Y-101721952D01*
X104188342Y-101721950D01*
X104075304Y-101664354D01*
X104075302Y-101664353D01*
X104067710Y-101660485D01*
X104016914Y-101612510D01*
X104000119Y-101544689D01*
X104022657Y-101478554D01*
X104067710Y-101439515D01*
X104075302Y-101435646D01*
X104075304Y-101435646D01*
X104188342Y-101378050D01*
X104278050Y-101288342D01*
X104335646Y-101175304D01*
X104335646Y-101175302D01*
X104339515Y-101167710D01*
X104387490Y-101116914D01*
X104455311Y-101100119D01*
X104521446Y-101122657D01*
X104560485Y-101167710D01*
X104564353Y-101175302D01*
X104564354Y-101175304D01*
X104621950Y-101288342D01*
X104621952Y-101288344D01*
X104621954Y-101288347D01*
X104711652Y-101378045D01*
X104711654Y-101378046D01*
X104711658Y-101378050D01*
X104824696Y-101435646D01*
X104824697Y-101435646D01*
X104824699Y-101435647D01*
X104949997Y-101455492D01*
X104950000Y-101455492D01*
X104950003Y-101455492D01*
X105075300Y-101435647D01*
X105075301Y-101435647D01*
X105075302Y-101435646D01*
X105075304Y-101435646D01*
X105188342Y-101378050D01*
X105278050Y-101288342D01*
X105335646Y-101175304D01*
X105335646Y-101175302D01*
X105339515Y-101167710D01*
X105387490Y-101116914D01*
X105455311Y-101100119D01*
X105521446Y-101122657D01*
X105560485Y-101167710D01*
X105564353Y-101175302D01*
X105564354Y-101175304D01*
X105621950Y-101288342D01*
X105621952Y-101288344D01*
X105621954Y-101288347D01*
X105711652Y-101378045D01*
X105711654Y-101378046D01*
X105711658Y-101378050D01*
X105824696Y-101435646D01*
X105824697Y-101435646D01*
X105824699Y-101435647D01*
X105949997Y-101455492D01*
X105950000Y-101455492D01*
X105950003Y-101455492D01*
X106075300Y-101435647D01*
X106075301Y-101435647D01*
X106075302Y-101435646D01*
X106075304Y-101435646D01*
X106188342Y-101378050D01*
X106278050Y-101288342D01*
X106335646Y-101175304D01*
X106335646Y-101175302D01*
X106339515Y-101167710D01*
X106387490Y-101116914D01*
X106455311Y-101100119D01*
X106521446Y-101122657D01*
X106560485Y-101167710D01*
X106564353Y-101175302D01*
X106564354Y-101175304D01*
X106621950Y-101288342D01*
X106621952Y-101288344D01*
X106621954Y-101288347D01*
X106711652Y-101378045D01*
X106711654Y-101378046D01*
X106711658Y-101378050D01*
X106824696Y-101435646D01*
X106824697Y-101435646D01*
X106824699Y-101435647D01*
X106949997Y-101455492D01*
X106950000Y-101455492D01*
X106950003Y-101455492D01*
X107075300Y-101435647D01*
X107075301Y-101435647D01*
X107075302Y-101435646D01*
X107075304Y-101435646D01*
X107188342Y-101378050D01*
X107278050Y-101288342D01*
X107335646Y-101175304D01*
X107335646Y-101175302D01*
X107335647Y-101175301D01*
X107335647Y-101175300D01*
X107355492Y-101050003D01*
X107355492Y-101049996D01*
X107335647Y-100924699D01*
X107335647Y-100924698D01*
X107335646Y-100924696D01*
X107278050Y-100811658D01*
X107278046Y-100811654D01*
X107278045Y-100811652D01*
X107188347Y-100721954D01*
X107188344Y-100721952D01*
X107188342Y-100721950D01*
X107075304Y-100664354D01*
X107075303Y-100664353D01*
X107075300Y-100664352D01*
X106950003Y-100644508D01*
X106949997Y-100644508D01*
X106824699Y-100664352D01*
X106824698Y-100664352D01*
X106749337Y-100702751D01*
X106711658Y-100721950D01*
X106711657Y-100721951D01*
X106711652Y-100721954D01*
X106621954Y-100811652D01*
X106621949Y-100811659D01*
X106560484Y-100932290D01*
X106512510Y-100983085D01*
X106444689Y-100999880D01*
X106378554Y-100977342D01*
X106339516Y-100932290D01*
X106305150Y-100864845D01*
X106278050Y-100811658D01*
X106278047Y-100811655D01*
X106278045Y-100811652D01*
X106188347Y-100721954D01*
X106188344Y-100721952D01*
X106188342Y-100721950D01*
X106075304Y-100664354D01*
X106075303Y-100664353D01*
X106075300Y-100664352D01*
X105950003Y-100644508D01*
X105949997Y-100644508D01*
X105824699Y-100664352D01*
X105824698Y-100664352D01*
X105749337Y-100702751D01*
X105711658Y-100721950D01*
X105711657Y-100721951D01*
X105711652Y-100721954D01*
X105621954Y-100811652D01*
X105621949Y-100811659D01*
X105560484Y-100932290D01*
X105512510Y-100983085D01*
X105444689Y-100999880D01*
X105378554Y-100977342D01*
X105339516Y-100932290D01*
X105305150Y-100864845D01*
X105278050Y-100811658D01*
X105278047Y-100811655D01*
X105278045Y-100811652D01*
X105188347Y-100721954D01*
X105188344Y-100721952D01*
X105188342Y-100721950D01*
X105075304Y-100664354D01*
X105075303Y-100664353D01*
X105075300Y-100664352D01*
X104950003Y-100644508D01*
X104949997Y-100644508D01*
X104824699Y-100664352D01*
X104824698Y-100664352D01*
X104749337Y-100702751D01*
X104711658Y-100721950D01*
X104711657Y-100721951D01*
X104711652Y-100721954D01*
X104621954Y-100811652D01*
X104621949Y-100811659D01*
X104560484Y-100932290D01*
X104512510Y-100983085D01*
X104444689Y-100999880D01*
X104378554Y-100977342D01*
X104339516Y-100932290D01*
X104305150Y-100864845D01*
X104278050Y-100811658D01*
X104278047Y-100811655D01*
X104278045Y-100811652D01*
X104188347Y-100721954D01*
X104188344Y-100721952D01*
X104188342Y-100721950D01*
X104075304Y-100664354D01*
X104075302Y-100664353D01*
X104067710Y-100660485D01*
X104016914Y-100612510D01*
X104000119Y-100544689D01*
X104022657Y-100478554D01*
X104067710Y-100439515D01*
X104075302Y-100435646D01*
X104075304Y-100435646D01*
X104188342Y-100378050D01*
X104278050Y-100288342D01*
X104335646Y-100175304D01*
X104335646Y-100175302D01*
X104335647Y-100175301D01*
X104335647Y-100175300D01*
X104355492Y-100050003D01*
X109544508Y-100050003D01*
X109564352Y-100175300D01*
X109564352Y-100175301D01*
X109564354Y-100175304D01*
X109621950Y-100288342D01*
X109621952Y-100288344D01*
X109621954Y-100288347D01*
X109711652Y-100378045D01*
X109711654Y-100378046D01*
X109711658Y-100378050D01*
X109824696Y-100435646D01*
X109824697Y-100435646D01*
X109824699Y-100435647D01*
X109949997Y-100455492D01*
X109950000Y-100455492D01*
X109950003Y-100455492D01*
X110075300Y-100435647D01*
X110075301Y-100435647D01*
X110075302Y-100435646D01*
X110075304Y-100435646D01*
X110188342Y-100378050D01*
X110278050Y-100288342D01*
X110292490Y-100260003D01*
X122539508Y-100260003D01*
X122559352Y-100385300D01*
X122559352Y-100385301D01*
X122561005Y-100388545D01*
X122616950Y-100498342D01*
X122616952Y-100498344D01*
X122616954Y-100498347D01*
X122706652Y-100588045D01*
X122706654Y-100588046D01*
X122706658Y-100588050D01*
X122819696Y-100645646D01*
X122819697Y-100645646D01*
X122819699Y-100645647D01*
X122944997Y-100665492D01*
X122945000Y-100665492D01*
X122945003Y-100665492D01*
X123070300Y-100645647D01*
X123070301Y-100645647D01*
X123070302Y-100645646D01*
X123070304Y-100645646D01*
X123183342Y-100588050D01*
X123273050Y-100498342D01*
X123330646Y-100385304D01*
X123330646Y-100385302D01*
X123330647Y-100385301D01*
X123330647Y-100385300D01*
X123350492Y-100260003D01*
X123350492Y-100259996D01*
X123330647Y-100134699D01*
X123330647Y-100134698D01*
X123327337Y-100128202D01*
X123273050Y-100021658D01*
X123273046Y-100021654D01*
X123273045Y-100021652D01*
X123183347Y-99931954D01*
X123183344Y-99931952D01*
X123183342Y-99931950D01*
X123070304Y-99874354D01*
X123070303Y-99874353D01*
X123070300Y-99874352D01*
X122945003Y-99854508D01*
X122944997Y-99854508D01*
X122819699Y-99874352D01*
X122819698Y-99874352D01*
X122744337Y-99912751D01*
X122706658Y-99931950D01*
X122706657Y-99931951D01*
X122706652Y-99931954D01*
X122616954Y-100021652D01*
X122616951Y-100021657D01*
X122616950Y-100021658D01*
X122597751Y-100059337D01*
X122559352Y-100134698D01*
X122559352Y-100134699D01*
X122539508Y-100259996D01*
X122539508Y-100260003D01*
X110292490Y-100260003D01*
X110335646Y-100175304D01*
X110335646Y-100175302D01*
X110335647Y-100175301D01*
X110335647Y-100175300D01*
X110355492Y-100050003D01*
X110355492Y-100049996D01*
X110335647Y-99924699D01*
X110335647Y-99924698D01*
X110334247Y-99921950D01*
X110278050Y-99811658D01*
X110278046Y-99811654D01*
X110278045Y-99811652D01*
X110188347Y-99721954D01*
X110188344Y-99721952D01*
X110188342Y-99721950D01*
X110075304Y-99664354D01*
X110075303Y-99664353D01*
X110075300Y-99664352D01*
X109950003Y-99644508D01*
X109949997Y-99644508D01*
X109824699Y-99664352D01*
X109824698Y-99664352D01*
X109749337Y-99702751D01*
X109711658Y-99721950D01*
X109711657Y-99721951D01*
X109711652Y-99721954D01*
X109621954Y-99811652D01*
X109621951Y-99811657D01*
X109621950Y-99811658D01*
X109605212Y-99844508D01*
X109564352Y-99924698D01*
X109564352Y-99924699D01*
X109544508Y-100049996D01*
X109544508Y-100050003D01*
X104355492Y-100050003D01*
X104355492Y-100049996D01*
X104335647Y-99924699D01*
X104335647Y-99924698D01*
X104334247Y-99921950D01*
X104278050Y-99811658D01*
X104278046Y-99811654D01*
X104278045Y-99811652D01*
X104188347Y-99721954D01*
X104188344Y-99721952D01*
X104188342Y-99721950D01*
X104075304Y-99664354D01*
X104075303Y-99664353D01*
X104075300Y-99664352D01*
X103950003Y-99644508D01*
X103949997Y-99644508D01*
X103824699Y-99664352D01*
X103824698Y-99664352D01*
X103749337Y-99702751D01*
X103711658Y-99721950D01*
X103711657Y-99721951D01*
X103711652Y-99721954D01*
X103621954Y-99811652D01*
X103621949Y-99811659D01*
X103560484Y-99932290D01*
X103512510Y-99983085D01*
X103444689Y-99999880D01*
X103378554Y-99977342D01*
X103339516Y-99932290D01*
X103294788Y-99844508D01*
X103278050Y-99811658D01*
X103278047Y-99811655D01*
X103278045Y-99811652D01*
X103188347Y-99721954D01*
X103188344Y-99721952D01*
X103188342Y-99721950D01*
X103075304Y-99664354D01*
X103075303Y-99664353D01*
X103075300Y-99664352D01*
X102950003Y-99644508D01*
X102949997Y-99644508D01*
X102824699Y-99664352D01*
X102824698Y-99664352D01*
X102749337Y-99702751D01*
X102711658Y-99721950D01*
X102711657Y-99721951D01*
X102711652Y-99721954D01*
X102621954Y-99811652D01*
X102621951Y-99811657D01*
X102621950Y-99811658D01*
X102605212Y-99844508D01*
X102564352Y-99924698D01*
X102564352Y-99924699D01*
X102544508Y-100049996D01*
X102544508Y-100050003D01*
X102564352Y-100175300D01*
X102564352Y-100175301D01*
X102564354Y-100175304D01*
X102621950Y-100288342D01*
X102621952Y-100288344D01*
X102621954Y-100288347D01*
X102711652Y-100378045D01*
X102711655Y-100378047D01*
X102711658Y-100378050D01*
X102725895Y-100385304D01*
X102832290Y-100439516D01*
X102883085Y-100487490D01*
X102899880Y-100555311D01*
X102877342Y-100621446D01*
X102832290Y-100660484D01*
X102711659Y-100721949D01*
X102711652Y-100721954D01*
X102621954Y-100811652D01*
X102621951Y-100811657D01*
X102621950Y-100811658D01*
X102602751Y-100849337D01*
X102564352Y-100924698D01*
X102564352Y-100924699D01*
X102544508Y-101049996D01*
X102544508Y-101050003D01*
X102564352Y-101175300D01*
X102564352Y-101175301D01*
X102564354Y-101175304D01*
X102621950Y-101288342D01*
X102621952Y-101288344D01*
X102621954Y-101288347D01*
X102711652Y-101378045D01*
X102711655Y-101378047D01*
X102711658Y-101378050D01*
X102764845Y-101405150D01*
X102832290Y-101439516D01*
X102883085Y-101487490D01*
X102899880Y-101555311D01*
X102877342Y-101621446D01*
X102832290Y-101660484D01*
X102711659Y-101721949D01*
X102711652Y-101721954D01*
X102621954Y-101811652D01*
X102621951Y-101811657D01*
X102621950Y-101811658D01*
X102602751Y-101849337D01*
X102564352Y-101924698D01*
X102564352Y-101924699D01*
X102544508Y-102049996D01*
X102544508Y-102050003D01*
X101455492Y-102050003D01*
X101455492Y-102049996D01*
X101435647Y-101924699D01*
X101435647Y-101924698D01*
X101435646Y-101924696D01*
X101378050Y-101811658D01*
X101378046Y-101811654D01*
X101378045Y-101811652D01*
X101288347Y-101721954D01*
X101288344Y-101721952D01*
X101288342Y-101721950D01*
X101175304Y-101664354D01*
X101175303Y-101664353D01*
X101175300Y-101664352D01*
X101050003Y-101644508D01*
X101049997Y-101644508D01*
X100924699Y-101664352D01*
X100924698Y-101664352D01*
X100849337Y-101702751D01*
X100811658Y-101721950D01*
X100811657Y-101721951D01*
X100811652Y-101721954D01*
X100721954Y-101811652D01*
X100721951Y-101811657D01*
X100721950Y-101811658D01*
X100702751Y-101849337D01*
X100664352Y-101924698D01*
X100664352Y-101924699D01*
X100644508Y-102049996D01*
X100644508Y-102050003D01*
X77000500Y-102050003D01*
X77000500Y-101050003D01*
X95644508Y-101050003D01*
X95664352Y-101175300D01*
X95664352Y-101175301D01*
X95664354Y-101175304D01*
X95721950Y-101288342D01*
X95721952Y-101288344D01*
X95721954Y-101288347D01*
X95811652Y-101378045D01*
X95811654Y-101378046D01*
X95811658Y-101378050D01*
X95924696Y-101435646D01*
X95924697Y-101435646D01*
X95924699Y-101435647D01*
X96049997Y-101455492D01*
X96050000Y-101455492D01*
X96050003Y-101455492D01*
X96175300Y-101435647D01*
X96175301Y-101435647D01*
X96175302Y-101435646D01*
X96175304Y-101435646D01*
X96288342Y-101378050D01*
X96378050Y-101288342D01*
X96435646Y-101175304D01*
X96435646Y-101175302D01*
X96435647Y-101175301D01*
X96435647Y-101175300D01*
X96455492Y-101050003D01*
X96455492Y-101049996D01*
X96435647Y-100924699D01*
X96435647Y-100924698D01*
X96435646Y-100924696D01*
X96378050Y-100811658D01*
X96378046Y-100811654D01*
X96378045Y-100811652D01*
X96288347Y-100721954D01*
X96288344Y-100721952D01*
X96288342Y-100721950D01*
X96175304Y-100664354D01*
X96175303Y-100664353D01*
X96175300Y-100664352D01*
X96050003Y-100644508D01*
X96049997Y-100644508D01*
X95924699Y-100664352D01*
X95924698Y-100664352D01*
X95849337Y-100702751D01*
X95811658Y-100721950D01*
X95811657Y-100721951D01*
X95811652Y-100721954D01*
X95721954Y-100811652D01*
X95721951Y-100811657D01*
X95721950Y-100811658D01*
X95702751Y-100849337D01*
X95664352Y-100924698D01*
X95664352Y-100924699D01*
X95644508Y-101049996D01*
X95644508Y-101050003D01*
X77000500Y-101050003D01*
X77000500Y-100250003D01*
X84144508Y-100250003D01*
X84164352Y-100375300D01*
X84164352Y-100375301D01*
X84181212Y-100408390D01*
X84221950Y-100488342D01*
X84221952Y-100488344D01*
X84221954Y-100488347D01*
X84311652Y-100578045D01*
X84311654Y-100578046D01*
X84311658Y-100578050D01*
X84424696Y-100635646D01*
X84424697Y-100635646D01*
X84424699Y-100635647D01*
X84549997Y-100655492D01*
X84550000Y-100655492D01*
X84550003Y-100655492D01*
X84675300Y-100635647D01*
X84675301Y-100635647D01*
X84675302Y-100635646D01*
X84675304Y-100635646D01*
X84788342Y-100578050D01*
X84878050Y-100488342D01*
X84935646Y-100375304D01*
X84935646Y-100375302D01*
X84935647Y-100375301D01*
X84935647Y-100375300D01*
X84955492Y-100250003D01*
X84955492Y-100249996D01*
X84935647Y-100124699D01*
X84935647Y-100124698D01*
X84923123Y-100100119D01*
X84897588Y-100050003D01*
X98644508Y-100050003D01*
X98664352Y-100175300D01*
X98664352Y-100175301D01*
X98664354Y-100175304D01*
X98721950Y-100288342D01*
X98721952Y-100288344D01*
X98721954Y-100288347D01*
X98811652Y-100378045D01*
X98811654Y-100378046D01*
X98811658Y-100378050D01*
X98924696Y-100435646D01*
X98924697Y-100435646D01*
X98924699Y-100435647D01*
X99049997Y-100455492D01*
X99050000Y-100455492D01*
X99050003Y-100455492D01*
X99175300Y-100435647D01*
X99175301Y-100435647D01*
X99175302Y-100435646D01*
X99175304Y-100435646D01*
X99288342Y-100378050D01*
X99378050Y-100288342D01*
X99435646Y-100175304D01*
X99435646Y-100175302D01*
X99435647Y-100175301D01*
X99435647Y-100175300D01*
X99455492Y-100050003D01*
X99455492Y-100049996D01*
X99448033Y-100002901D01*
X100645365Y-100002901D01*
X100665209Y-100128198D01*
X100665209Y-100128199D01*
X100668521Y-100134698D01*
X100722807Y-100241240D01*
X100722809Y-100241242D01*
X100722811Y-100241245D01*
X100812509Y-100330943D01*
X100812511Y-100330944D01*
X100812515Y-100330948D01*
X100925553Y-100388544D01*
X100925554Y-100388544D01*
X100925556Y-100388545D01*
X101050854Y-100408390D01*
X101050857Y-100408390D01*
X101050860Y-100408390D01*
X101176157Y-100388545D01*
X101176158Y-100388545D01*
X101176159Y-100388544D01*
X101176161Y-100388544D01*
X101289199Y-100330948D01*
X101378907Y-100241240D01*
X101436503Y-100128202D01*
X101436503Y-100128200D01*
X101436504Y-100128199D01*
X101436504Y-100128198D01*
X101456349Y-100002901D01*
X101456349Y-100002894D01*
X101436504Y-99877597D01*
X101436504Y-99877596D01*
X101424740Y-99854508D01*
X101378907Y-99764556D01*
X101378903Y-99764552D01*
X101378902Y-99764550D01*
X101289204Y-99674852D01*
X101289201Y-99674850D01*
X101289199Y-99674848D01*
X101176161Y-99617252D01*
X101176160Y-99617251D01*
X101176157Y-99617250D01*
X101050860Y-99597406D01*
X101050854Y-99597406D01*
X100925556Y-99617250D01*
X100925555Y-99617250D01*
X100872060Y-99644508D01*
X100812515Y-99674848D01*
X100812514Y-99674849D01*
X100812509Y-99674852D01*
X100722811Y-99764550D01*
X100722808Y-99764555D01*
X100665209Y-99877596D01*
X100665209Y-99877597D01*
X100645365Y-100002894D01*
X100645365Y-100002901D01*
X99448033Y-100002901D01*
X99435647Y-99924699D01*
X99435647Y-99924698D01*
X99434247Y-99921950D01*
X99378050Y-99811658D01*
X99378046Y-99811654D01*
X99378045Y-99811652D01*
X99288347Y-99721954D01*
X99288344Y-99721952D01*
X99288342Y-99721950D01*
X99175304Y-99664354D01*
X99175303Y-99664353D01*
X99175300Y-99664352D01*
X99050003Y-99644508D01*
X99049997Y-99644508D01*
X98924699Y-99664352D01*
X98924698Y-99664352D01*
X98849337Y-99702751D01*
X98811658Y-99721950D01*
X98811657Y-99721951D01*
X98811652Y-99721954D01*
X98721954Y-99811652D01*
X98721951Y-99811657D01*
X98721950Y-99811658D01*
X98705212Y-99844508D01*
X98664352Y-99924698D01*
X98664352Y-99924699D01*
X98644508Y-100049996D01*
X98644508Y-100050003D01*
X84897588Y-100050003D01*
X84878050Y-100011658D01*
X84878046Y-100011654D01*
X84878045Y-100011652D01*
X84788347Y-99921954D01*
X84788344Y-99921952D01*
X84788342Y-99921950D01*
X84675304Y-99864354D01*
X84675303Y-99864353D01*
X84675300Y-99864352D01*
X84550003Y-99844508D01*
X84549997Y-99844508D01*
X84424699Y-99864352D01*
X84424698Y-99864352D01*
X84349337Y-99902751D01*
X84311658Y-99921950D01*
X84311657Y-99921951D01*
X84311652Y-99921954D01*
X84221954Y-100011652D01*
X84221951Y-100011657D01*
X84221950Y-100011658D01*
X84216855Y-100021658D01*
X84164352Y-100124698D01*
X84164352Y-100124699D01*
X84144508Y-100249996D01*
X84144508Y-100250003D01*
X77000500Y-100250003D01*
X77000500Y-98500003D01*
X96844508Y-98500003D01*
X96864352Y-98625300D01*
X96864352Y-98625301D01*
X96864354Y-98625304D01*
X96921950Y-98738342D01*
X96921952Y-98738344D01*
X96921954Y-98738347D01*
X97011652Y-98828045D01*
X97011654Y-98828046D01*
X97011658Y-98828050D01*
X97124696Y-98885646D01*
X97124697Y-98885646D01*
X97124699Y-98885647D01*
X97249997Y-98905492D01*
X97250000Y-98905492D01*
X97250003Y-98905492D01*
X97375300Y-98885647D01*
X97375301Y-98885647D01*
X97375302Y-98885646D01*
X97375304Y-98885646D01*
X97488342Y-98828050D01*
X97578050Y-98738342D01*
X97635646Y-98625304D01*
X97635646Y-98625302D01*
X97635647Y-98625301D01*
X97635647Y-98625300D01*
X97655492Y-98500003D01*
X100844508Y-98500003D01*
X100864352Y-98625300D01*
X100864352Y-98625301D01*
X100864354Y-98625304D01*
X100921950Y-98738342D01*
X100921952Y-98738344D01*
X100921954Y-98738347D01*
X101011652Y-98828045D01*
X101011654Y-98828046D01*
X101011658Y-98828050D01*
X101124696Y-98885646D01*
X101124697Y-98885646D01*
X101124699Y-98885647D01*
X101249997Y-98905492D01*
X101250000Y-98905492D01*
X101250003Y-98905492D01*
X101375300Y-98885647D01*
X101375301Y-98885647D01*
X101375302Y-98885646D01*
X101375304Y-98885646D01*
X101488342Y-98828050D01*
X101578050Y-98738342D01*
X101635646Y-98625304D01*
X101635646Y-98625302D01*
X101635647Y-98625301D01*
X101635647Y-98625300D01*
X101640027Y-98597647D01*
X101669956Y-98534512D01*
X101724527Y-98500531D01*
X101722924Y-98499468D01*
X101800471Y-98499468D01*
X101857362Y-98537187D01*
X101884973Y-98597647D01*
X101889352Y-98625300D01*
X101889352Y-98625301D01*
X101889354Y-98625304D01*
X101946950Y-98738342D01*
X101946952Y-98738344D01*
X101946954Y-98738347D01*
X102036652Y-98828045D01*
X102036654Y-98828046D01*
X102036658Y-98828050D01*
X102149696Y-98885646D01*
X102149697Y-98885646D01*
X102149699Y-98885647D01*
X102274997Y-98905492D01*
X102275000Y-98905492D01*
X102275003Y-98905492D01*
X102400300Y-98885647D01*
X102400301Y-98885647D01*
X102400302Y-98885646D01*
X102400304Y-98885646D01*
X102513342Y-98828050D01*
X102603050Y-98738342D01*
X102660646Y-98625304D01*
X102660646Y-98625302D01*
X102660647Y-98625301D01*
X102660647Y-98625300D01*
X102680492Y-98500003D01*
X105594508Y-98500003D01*
X105614352Y-98625300D01*
X105614352Y-98625301D01*
X105614354Y-98625304D01*
X105671950Y-98738342D01*
X105671952Y-98738344D01*
X105671954Y-98738347D01*
X105761652Y-98828045D01*
X105761654Y-98828046D01*
X105761658Y-98828050D01*
X105874696Y-98885646D01*
X105874697Y-98885646D01*
X105874699Y-98885647D01*
X105999997Y-98905492D01*
X106000000Y-98905492D01*
X106000003Y-98905492D01*
X106125300Y-98885647D01*
X106125301Y-98885647D01*
X106125302Y-98885646D01*
X106125304Y-98885646D01*
X106238342Y-98828050D01*
X106328050Y-98738342D01*
X106385646Y-98625304D01*
X106385646Y-98625302D01*
X106385647Y-98625301D01*
X106385647Y-98625300D01*
X106405492Y-98500003D01*
X111094508Y-98500003D01*
X111114352Y-98625300D01*
X111114352Y-98625301D01*
X111114354Y-98625304D01*
X111171950Y-98738342D01*
X111171952Y-98738344D01*
X111171954Y-98738347D01*
X111261652Y-98828045D01*
X111261654Y-98828046D01*
X111261658Y-98828050D01*
X111374696Y-98885646D01*
X111374697Y-98885646D01*
X111374699Y-98885647D01*
X111499997Y-98905492D01*
X111500000Y-98905492D01*
X111500003Y-98905492D01*
X111625300Y-98885647D01*
X111625301Y-98885647D01*
X111625302Y-98885646D01*
X111625304Y-98885646D01*
X111738342Y-98828050D01*
X111828050Y-98738342D01*
X111885646Y-98625304D01*
X111885646Y-98625302D01*
X111885647Y-98625301D01*
X111885647Y-98625300D01*
X111905492Y-98500003D01*
X111905492Y-98499996D01*
X111885647Y-98374699D01*
X111885647Y-98374698D01*
X111885646Y-98374696D01*
X111828050Y-98261658D01*
X111828046Y-98261654D01*
X111828045Y-98261652D01*
X111738347Y-98171954D01*
X111738344Y-98171952D01*
X111738342Y-98171950D01*
X111625304Y-98114354D01*
X111625303Y-98114353D01*
X111625300Y-98114352D01*
X111500003Y-98094508D01*
X111499997Y-98094508D01*
X111374699Y-98114352D01*
X111374698Y-98114352D01*
X111299337Y-98152751D01*
X111261658Y-98171950D01*
X111261657Y-98171951D01*
X111261652Y-98171954D01*
X111171954Y-98261652D01*
X111171951Y-98261657D01*
X111114352Y-98374698D01*
X111114352Y-98374699D01*
X111094508Y-98499996D01*
X111094508Y-98500003D01*
X106405492Y-98500003D01*
X106405492Y-98499996D01*
X106385647Y-98374699D01*
X106385647Y-98374698D01*
X106385646Y-98374696D01*
X106328050Y-98261658D01*
X106328046Y-98261654D01*
X106328045Y-98261652D01*
X106238347Y-98171954D01*
X106238344Y-98171952D01*
X106238342Y-98171950D01*
X106125304Y-98114354D01*
X106125303Y-98114353D01*
X106125300Y-98114352D01*
X106000003Y-98094508D01*
X105999997Y-98094508D01*
X105874699Y-98114352D01*
X105874698Y-98114352D01*
X105799337Y-98152751D01*
X105761658Y-98171950D01*
X105761657Y-98171951D01*
X105761652Y-98171954D01*
X105671954Y-98261652D01*
X105671951Y-98261657D01*
X105614352Y-98374698D01*
X105614352Y-98374699D01*
X105594508Y-98499996D01*
X105594508Y-98500003D01*
X102680492Y-98500003D01*
X102680492Y-98499996D01*
X102660647Y-98374699D01*
X102660647Y-98374698D01*
X102660646Y-98374696D01*
X102603050Y-98261658D01*
X102603046Y-98261654D01*
X102603045Y-98261652D01*
X102513347Y-98171954D01*
X102513344Y-98171952D01*
X102513342Y-98171950D01*
X102400304Y-98114354D01*
X102400303Y-98114353D01*
X102400300Y-98114352D01*
X102275003Y-98094508D01*
X102274997Y-98094508D01*
X102149699Y-98114352D01*
X102149698Y-98114352D01*
X102074337Y-98152751D01*
X102036658Y-98171950D01*
X102036657Y-98171951D01*
X102036652Y-98171954D01*
X101946954Y-98261652D01*
X101946951Y-98261657D01*
X101889352Y-98374698D01*
X101884973Y-98402353D01*
X101855044Y-98465487D01*
X101800471Y-98499468D01*
X101722924Y-98499468D01*
X101667637Y-98462812D01*
X101640027Y-98402353D01*
X101635647Y-98374698D01*
X101635646Y-98374696D01*
X101578050Y-98261658D01*
X101578046Y-98261654D01*
X101578045Y-98261652D01*
X101488347Y-98171954D01*
X101488344Y-98171952D01*
X101488342Y-98171950D01*
X101375304Y-98114354D01*
X101375303Y-98114353D01*
X101375300Y-98114352D01*
X101250003Y-98094508D01*
X101249997Y-98094508D01*
X101124699Y-98114352D01*
X101124698Y-98114352D01*
X101049337Y-98152751D01*
X101011658Y-98171950D01*
X101011657Y-98171951D01*
X101011652Y-98171954D01*
X100921954Y-98261652D01*
X100921951Y-98261657D01*
X100864352Y-98374698D01*
X100864352Y-98374699D01*
X100844508Y-98499996D01*
X100844508Y-98500003D01*
X97655492Y-98500003D01*
X97655492Y-98499996D01*
X97635647Y-98374699D01*
X97635647Y-98374698D01*
X97635646Y-98374696D01*
X97578050Y-98261658D01*
X97578046Y-98261654D01*
X97578045Y-98261652D01*
X97488347Y-98171954D01*
X97488344Y-98171952D01*
X97488342Y-98171950D01*
X97375304Y-98114354D01*
X97375303Y-98114353D01*
X97375300Y-98114352D01*
X97250003Y-98094508D01*
X97249997Y-98094508D01*
X97124699Y-98114352D01*
X97124698Y-98114352D01*
X97049337Y-98152751D01*
X97011658Y-98171950D01*
X97011657Y-98171951D01*
X97011652Y-98171954D01*
X96921954Y-98261652D01*
X96921951Y-98261657D01*
X96864352Y-98374698D01*
X96864352Y-98374699D01*
X96844508Y-98499996D01*
X96844508Y-98500003D01*
X77000500Y-98500003D01*
X77000500Y-97700003D01*
X80694508Y-97700003D01*
X80714352Y-97825300D01*
X80714352Y-97825301D01*
X80719449Y-97835304D01*
X80771950Y-97938342D01*
X80771952Y-97938344D01*
X80771954Y-97938347D01*
X80861652Y-98028045D01*
X80861654Y-98028046D01*
X80861658Y-98028050D01*
X80974696Y-98085646D01*
X80974697Y-98085646D01*
X80974699Y-98085647D01*
X81099997Y-98105492D01*
X81100000Y-98105492D01*
X81100003Y-98105492D01*
X81225300Y-98085647D01*
X81225301Y-98085647D01*
X81225302Y-98085646D01*
X81225304Y-98085646D01*
X81338342Y-98028050D01*
X81428050Y-97938342D01*
X81485646Y-97825304D01*
X81485646Y-97825302D01*
X81485647Y-97825301D01*
X81485647Y-97825300D01*
X81503908Y-97710003D01*
X118889508Y-97710003D01*
X118909352Y-97835300D01*
X118909352Y-97835301D01*
X118909354Y-97835304D01*
X118966950Y-97948342D01*
X118966952Y-97948344D01*
X118966954Y-97948347D01*
X119056652Y-98038045D01*
X119056654Y-98038046D01*
X119056658Y-98038050D01*
X119169696Y-98095646D01*
X119169697Y-98095646D01*
X119169699Y-98095647D01*
X119294997Y-98115492D01*
X119295000Y-98115492D01*
X119295003Y-98115492D01*
X119420300Y-98095647D01*
X119420301Y-98095647D01*
X119420302Y-98095646D01*
X119420304Y-98095646D01*
X119533342Y-98038050D01*
X119623050Y-97948342D01*
X119680646Y-97835304D01*
X119680646Y-97835302D01*
X119680647Y-97835301D01*
X119680647Y-97835300D01*
X119700492Y-97710003D01*
X119700492Y-97709996D01*
X119680647Y-97584699D01*
X119680647Y-97584698D01*
X119675551Y-97574696D01*
X119623050Y-97471658D01*
X119623046Y-97471654D01*
X119623045Y-97471652D01*
X119533347Y-97381954D01*
X119533344Y-97381952D01*
X119533342Y-97381950D01*
X119420304Y-97324354D01*
X119420303Y-97324353D01*
X119420300Y-97324352D01*
X119295003Y-97304508D01*
X119294997Y-97304508D01*
X119169699Y-97324352D01*
X119169698Y-97324352D01*
X119094337Y-97362751D01*
X119056658Y-97381950D01*
X119056657Y-97381951D01*
X119056652Y-97381954D01*
X118966954Y-97471652D01*
X118966951Y-97471657D01*
X118909352Y-97584698D01*
X118909352Y-97584699D01*
X118889508Y-97709996D01*
X118889508Y-97710003D01*
X81503908Y-97710003D01*
X81505492Y-97700003D01*
X81505492Y-97699996D01*
X81485647Y-97574699D01*
X81485647Y-97574698D01*
X81485646Y-97574696D01*
X81428050Y-97461658D01*
X81428046Y-97461654D01*
X81428045Y-97461652D01*
X81338347Y-97371954D01*
X81338344Y-97371952D01*
X81338342Y-97371950D01*
X81225304Y-97314354D01*
X81225303Y-97314353D01*
X81225300Y-97314352D01*
X81100003Y-97294508D01*
X81099997Y-97294508D01*
X80974699Y-97314352D01*
X80974698Y-97314352D01*
X80899337Y-97352751D01*
X80861658Y-97371950D01*
X80861657Y-97371951D01*
X80861652Y-97371954D01*
X80771954Y-97461652D01*
X80771951Y-97461657D01*
X80771950Y-97461658D01*
X80766855Y-97471658D01*
X80714352Y-97574698D01*
X80714352Y-97574699D01*
X80694508Y-97699996D01*
X80694508Y-97700003D01*
X77000500Y-97700003D01*
X77000500Y-95650003D01*
X115644508Y-95650003D01*
X115664352Y-95775300D01*
X115664352Y-95775301D01*
X115664354Y-95775304D01*
X115721950Y-95888342D01*
X115721952Y-95888344D01*
X115721954Y-95888347D01*
X115811652Y-95978045D01*
X115811654Y-95978046D01*
X115811658Y-95978050D01*
X115924696Y-96035646D01*
X115924697Y-96035646D01*
X115924699Y-96035647D01*
X116049997Y-96055492D01*
X116050000Y-96055492D01*
X116050003Y-96055492D01*
X116175300Y-96035647D01*
X116175301Y-96035647D01*
X116175302Y-96035646D01*
X116175304Y-96035646D01*
X116288342Y-95978050D01*
X116378050Y-95888342D01*
X116435646Y-95775304D01*
X116435646Y-95775302D01*
X116435647Y-95775301D01*
X116435647Y-95775300D01*
X116455492Y-95650003D01*
X116455492Y-95649996D01*
X116435647Y-95524699D01*
X116435647Y-95524698D01*
X116435646Y-95524696D01*
X116378050Y-95411658D01*
X116378046Y-95411654D01*
X116378045Y-95411652D01*
X116288347Y-95321954D01*
X116288344Y-95321952D01*
X116288342Y-95321950D01*
X116175304Y-95264354D01*
X116175303Y-95264353D01*
X116175300Y-95264352D01*
X116050003Y-95244508D01*
X116049997Y-95244508D01*
X115924699Y-95264352D01*
X115924698Y-95264352D01*
X115849337Y-95302751D01*
X115811658Y-95321950D01*
X115811657Y-95321951D01*
X115811652Y-95321954D01*
X115721954Y-95411652D01*
X115721951Y-95411657D01*
X115664352Y-95524698D01*
X115664352Y-95524699D01*
X115644508Y-95649996D01*
X115644508Y-95650003D01*
X77000500Y-95650003D01*
X77000500Y-94850003D01*
X107494508Y-94850003D01*
X107514352Y-94975300D01*
X107514352Y-94975301D01*
X107514354Y-94975304D01*
X107571950Y-95088342D01*
X107571952Y-95088344D01*
X107571954Y-95088347D01*
X107661652Y-95178045D01*
X107661654Y-95178046D01*
X107661658Y-95178050D01*
X107774696Y-95235646D01*
X107774697Y-95235646D01*
X107774699Y-95235647D01*
X107899997Y-95255492D01*
X107900000Y-95255492D01*
X107900003Y-95255492D01*
X108025300Y-95235647D01*
X108025301Y-95235647D01*
X108025302Y-95235646D01*
X108025304Y-95235646D01*
X108138342Y-95178050D01*
X108228050Y-95088342D01*
X108285646Y-94975304D01*
X108285646Y-94975302D01*
X108285647Y-94975301D01*
X108285647Y-94975300D01*
X108305492Y-94850003D01*
X108305492Y-94849996D01*
X108285647Y-94724699D01*
X108285647Y-94724698D01*
X108285646Y-94724696D01*
X108228050Y-94611658D01*
X108228046Y-94611654D01*
X108228045Y-94611652D01*
X108138347Y-94521954D01*
X108138344Y-94521952D01*
X108138342Y-94521950D01*
X108025304Y-94464354D01*
X108025303Y-94464353D01*
X108025300Y-94464352D01*
X107900003Y-94444508D01*
X107899997Y-94444508D01*
X107774699Y-94464352D01*
X107774698Y-94464352D01*
X107699337Y-94502751D01*
X107661658Y-94521950D01*
X107661657Y-94521951D01*
X107661652Y-94521954D01*
X107571954Y-94611652D01*
X107571951Y-94611657D01*
X107514352Y-94724698D01*
X107514352Y-94724699D01*
X107494508Y-94849996D01*
X107494508Y-94850003D01*
X77000500Y-94850003D01*
X77000500Y-92950003D01*
X92444508Y-92950003D01*
X92464352Y-93075300D01*
X92464352Y-93075301D01*
X92464354Y-93075304D01*
X92521950Y-93188342D01*
X92521952Y-93188344D01*
X92521954Y-93188347D01*
X92611652Y-93278045D01*
X92611654Y-93278046D01*
X92611658Y-93278050D01*
X92724696Y-93335646D01*
X92724697Y-93335646D01*
X92724699Y-93335647D01*
X92849997Y-93355492D01*
X92850000Y-93355492D01*
X92850003Y-93355492D01*
X92975300Y-93335647D01*
X92975301Y-93335647D01*
X92975302Y-93335646D01*
X92975304Y-93335646D01*
X93088342Y-93278050D01*
X93178050Y-93188342D01*
X93235646Y-93075304D01*
X93235646Y-93075302D01*
X93235647Y-93075301D01*
X93235647Y-93075300D01*
X93255492Y-92950003D01*
X95994508Y-92950003D01*
X96014352Y-93075300D01*
X96014352Y-93075301D01*
X96014354Y-93075304D01*
X96071950Y-93188342D01*
X96071952Y-93188344D01*
X96071954Y-93188347D01*
X96161652Y-93278045D01*
X96161654Y-93278046D01*
X96161658Y-93278050D01*
X96274696Y-93335646D01*
X96274697Y-93335646D01*
X96274699Y-93335647D01*
X96399997Y-93355492D01*
X96400000Y-93355492D01*
X96400003Y-93355492D01*
X96525300Y-93335647D01*
X96525301Y-93335647D01*
X96525302Y-93335646D01*
X96525304Y-93335646D01*
X96638342Y-93278050D01*
X96728050Y-93188342D01*
X96785646Y-93075304D01*
X96785646Y-93075302D01*
X96785647Y-93075301D01*
X96785647Y-93075300D01*
X96805492Y-92950003D01*
X99544508Y-92950003D01*
X99564352Y-93075300D01*
X99564352Y-93075301D01*
X99564354Y-93075304D01*
X99621950Y-93188342D01*
X99621952Y-93188344D01*
X99621954Y-93188347D01*
X99711652Y-93278045D01*
X99711654Y-93278046D01*
X99711658Y-93278050D01*
X99824696Y-93335646D01*
X99824697Y-93335646D01*
X99824699Y-93335647D01*
X99949997Y-93355492D01*
X99950000Y-93355492D01*
X99950003Y-93355492D01*
X100075300Y-93335647D01*
X100075301Y-93335647D01*
X100075302Y-93335646D01*
X100075304Y-93335646D01*
X100188342Y-93278050D01*
X100278050Y-93188342D01*
X100335646Y-93075304D01*
X100335646Y-93075302D01*
X100335647Y-93075301D01*
X100335647Y-93075300D01*
X100347573Y-93000003D01*
X103094508Y-93000003D01*
X103114352Y-93125300D01*
X103114352Y-93125301D01*
X103114354Y-93125304D01*
X103171950Y-93238342D01*
X103171952Y-93238344D01*
X103171954Y-93238347D01*
X103261652Y-93328045D01*
X103261654Y-93328046D01*
X103261658Y-93328050D01*
X103374696Y-93385646D01*
X103374697Y-93385646D01*
X103374699Y-93385647D01*
X103499997Y-93405492D01*
X103500000Y-93405492D01*
X103500003Y-93405492D01*
X103625300Y-93385647D01*
X103625301Y-93385647D01*
X103625302Y-93385646D01*
X103625304Y-93385646D01*
X103738342Y-93328050D01*
X103816389Y-93250003D01*
X118944508Y-93250003D01*
X118964352Y-93375300D01*
X118964352Y-93375301D01*
X118969624Y-93385647D01*
X119021950Y-93488342D01*
X119021952Y-93488344D01*
X119021954Y-93488347D01*
X119111652Y-93578045D01*
X119111654Y-93578046D01*
X119111658Y-93578050D01*
X119224696Y-93635646D01*
X119224697Y-93635646D01*
X119224699Y-93635647D01*
X119349997Y-93655492D01*
X119350000Y-93655492D01*
X119350003Y-93655492D01*
X119475300Y-93635647D01*
X119475301Y-93635647D01*
X119475302Y-93635646D01*
X119475304Y-93635646D01*
X119588342Y-93578050D01*
X119678050Y-93488342D01*
X119735646Y-93375304D01*
X119735646Y-93375302D01*
X119735647Y-93375301D01*
X119735647Y-93375300D01*
X119755492Y-93250003D01*
X119755492Y-93249996D01*
X119747574Y-93200003D01*
X122394508Y-93200003D01*
X122414352Y-93325300D01*
X122414352Y-93325301D01*
X122419624Y-93335647D01*
X122471950Y-93438342D01*
X122471952Y-93438344D01*
X122471954Y-93438347D01*
X122561652Y-93528045D01*
X122561654Y-93528046D01*
X122561658Y-93528050D01*
X122674696Y-93585646D01*
X122674697Y-93585646D01*
X122674699Y-93585647D01*
X122799997Y-93605492D01*
X122800000Y-93605492D01*
X122800003Y-93605492D01*
X122925300Y-93585647D01*
X122925301Y-93585647D01*
X122925302Y-93585646D01*
X122925304Y-93585646D01*
X123038342Y-93528050D01*
X123128050Y-93438342D01*
X123185646Y-93325304D01*
X123185646Y-93325302D01*
X123185647Y-93325301D01*
X123185647Y-93325300D01*
X123205492Y-93200003D01*
X123205492Y-93199996D01*
X123185647Y-93074699D01*
X123185647Y-93074698D01*
X123153526Y-93011658D01*
X123128050Y-92961658D01*
X123128046Y-92961654D01*
X123128045Y-92961652D01*
X123038347Y-92871954D01*
X123038344Y-92871952D01*
X123038342Y-92871950D01*
X122925304Y-92814354D01*
X122925303Y-92814353D01*
X122925300Y-92814352D01*
X122800003Y-92794508D01*
X122799997Y-92794508D01*
X122674699Y-92814352D01*
X122674698Y-92814352D01*
X122599337Y-92852751D01*
X122561658Y-92871950D01*
X122561657Y-92871951D01*
X122561652Y-92871954D01*
X122471954Y-92961652D01*
X122471951Y-92961657D01*
X122414352Y-93074698D01*
X122414352Y-93074699D01*
X122394508Y-93199996D01*
X122394508Y-93200003D01*
X119747574Y-93200003D01*
X119735647Y-93124699D01*
X119735647Y-93124698D01*
X119710479Y-93075304D01*
X119678050Y-93011658D01*
X119678046Y-93011654D01*
X119678045Y-93011652D01*
X119588347Y-92921954D01*
X119588344Y-92921952D01*
X119588342Y-92921950D01*
X119475304Y-92864354D01*
X119475303Y-92864353D01*
X119475300Y-92864352D01*
X119350003Y-92844508D01*
X119349997Y-92844508D01*
X119224699Y-92864352D01*
X119224698Y-92864352D01*
X119149337Y-92902751D01*
X119111658Y-92921950D01*
X119111657Y-92921951D01*
X119111652Y-92921954D01*
X119021954Y-93011652D01*
X119021951Y-93011657D01*
X118964352Y-93124698D01*
X118964352Y-93124699D01*
X118944508Y-93249996D01*
X118944508Y-93250003D01*
X103816389Y-93250003D01*
X103828050Y-93238342D01*
X103885646Y-93125304D01*
X103885646Y-93125302D01*
X103885647Y-93125301D01*
X103885647Y-93125300D01*
X103905492Y-93000003D01*
X103905492Y-92999996D01*
X103885647Y-92874699D01*
X103885647Y-92874698D01*
X103870264Y-92844508D01*
X103828050Y-92761658D01*
X103828046Y-92761654D01*
X103828045Y-92761652D01*
X103738347Y-92671954D01*
X103738344Y-92671952D01*
X103738342Y-92671950D01*
X103625304Y-92614354D01*
X103625303Y-92614353D01*
X103625300Y-92614352D01*
X103500003Y-92594508D01*
X103499997Y-92594508D01*
X103374699Y-92614352D01*
X103374698Y-92614352D01*
X103299337Y-92652751D01*
X103261658Y-92671950D01*
X103261657Y-92671951D01*
X103261652Y-92671954D01*
X103171954Y-92761652D01*
X103171951Y-92761657D01*
X103114352Y-92874698D01*
X103114352Y-92874699D01*
X103094508Y-92999996D01*
X103094508Y-93000003D01*
X100347573Y-93000003D01*
X100355492Y-92950003D01*
X100355492Y-92949996D01*
X100335647Y-92824699D01*
X100335647Y-92824698D01*
X100303526Y-92761658D01*
X100278050Y-92711658D01*
X100278046Y-92711654D01*
X100278045Y-92711652D01*
X100188347Y-92621954D01*
X100188344Y-92621952D01*
X100188342Y-92621950D01*
X100075304Y-92564354D01*
X100075303Y-92564353D01*
X100075300Y-92564352D01*
X99950003Y-92544508D01*
X99949997Y-92544508D01*
X99824699Y-92564352D01*
X99824698Y-92564352D01*
X99749337Y-92602751D01*
X99711658Y-92621950D01*
X99711657Y-92621951D01*
X99711652Y-92621954D01*
X99621954Y-92711652D01*
X99621951Y-92711657D01*
X99564352Y-92824698D01*
X99564352Y-92824699D01*
X99544508Y-92949996D01*
X99544508Y-92950003D01*
X96805492Y-92950003D01*
X96805492Y-92949996D01*
X96785647Y-92824699D01*
X96785647Y-92824698D01*
X96753526Y-92761658D01*
X96728050Y-92711658D01*
X96728046Y-92711654D01*
X96728045Y-92711652D01*
X96638347Y-92621954D01*
X96638344Y-92621952D01*
X96638342Y-92621950D01*
X96525304Y-92564354D01*
X96525303Y-92564353D01*
X96525300Y-92564352D01*
X96400003Y-92544508D01*
X96399997Y-92544508D01*
X96274699Y-92564352D01*
X96274698Y-92564352D01*
X96199337Y-92602751D01*
X96161658Y-92621950D01*
X96161657Y-92621951D01*
X96161652Y-92621954D01*
X96071954Y-92711652D01*
X96071951Y-92711657D01*
X96014352Y-92824698D01*
X96014352Y-92824699D01*
X95994508Y-92949996D01*
X95994508Y-92950003D01*
X93255492Y-92950003D01*
X93255492Y-92949996D01*
X93235647Y-92824699D01*
X93235647Y-92824698D01*
X93203526Y-92761658D01*
X93178050Y-92711658D01*
X93178046Y-92711654D01*
X93178045Y-92711652D01*
X93088347Y-92621954D01*
X93088344Y-92621952D01*
X93088342Y-92621950D01*
X92975304Y-92564354D01*
X92975303Y-92564353D01*
X92975300Y-92564352D01*
X92850003Y-92544508D01*
X92849997Y-92544508D01*
X92724699Y-92564352D01*
X92724698Y-92564352D01*
X92649337Y-92602751D01*
X92611658Y-92621950D01*
X92611657Y-92621951D01*
X92611652Y-92621954D01*
X92521954Y-92711652D01*
X92521951Y-92711657D01*
X92464352Y-92824698D01*
X92464352Y-92824699D01*
X92444508Y-92949996D01*
X92444508Y-92950003D01*
X77000500Y-92950003D01*
X77000500Y-91000003D01*
X94344508Y-91000003D01*
X94364352Y-91125300D01*
X94364352Y-91125301D01*
X94364354Y-91125304D01*
X94421950Y-91238342D01*
X94421952Y-91238344D01*
X94421954Y-91238347D01*
X94511652Y-91328045D01*
X94511654Y-91328046D01*
X94511658Y-91328050D01*
X94624696Y-91385646D01*
X94624697Y-91385646D01*
X94624699Y-91385647D01*
X94749997Y-91405492D01*
X94750000Y-91405492D01*
X94750003Y-91405492D01*
X94875300Y-91385647D01*
X94875301Y-91385647D01*
X94875302Y-91385646D01*
X94875304Y-91385646D01*
X94988342Y-91328050D01*
X95078050Y-91238342D01*
X95135646Y-91125304D01*
X95135646Y-91125302D01*
X95135647Y-91125301D01*
X95135647Y-91125300D01*
X95155492Y-91000003D01*
X95155492Y-90999996D01*
X95135647Y-90874699D01*
X95135647Y-90874698D01*
X95135646Y-90874696D01*
X95078050Y-90761658D01*
X95078046Y-90761654D01*
X95078045Y-90761652D01*
X94988347Y-90671954D01*
X94988344Y-90671952D01*
X94988342Y-90671950D01*
X94875304Y-90614354D01*
X94875303Y-90614353D01*
X94875300Y-90614352D01*
X94750003Y-90594508D01*
X94749997Y-90594508D01*
X94624699Y-90614352D01*
X94624698Y-90614352D01*
X94549337Y-90652751D01*
X94511658Y-90671950D01*
X94511657Y-90671951D01*
X94511652Y-90671954D01*
X94421954Y-90761652D01*
X94421951Y-90761657D01*
X94364352Y-90874698D01*
X94364352Y-90874699D01*
X94344508Y-90999996D01*
X94344508Y-91000003D01*
X77000500Y-91000003D01*
X77000500Y-90500003D01*
X100594508Y-90500003D01*
X100614352Y-90625300D01*
X100614352Y-90625301D01*
X100614354Y-90625304D01*
X100671950Y-90738342D01*
X100671952Y-90738344D01*
X100671954Y-90738347D01*
X100761652Y-90828045D01*
X100761654Y-90828046D01*
X100761658Y-90828050D01*
X100874696Y-90885646D01*
X100874697Y-90885646D01*
X100874699Y-90885647D01*
X100999997Y-90905492D01*
X101000000Y-90905492D01*
X101000003Y-90905492D01*
X101125300Y-90885647D01*
X101125301Y-90885647D01*
X101125302Y-90885646D01*
X101125304Y-90885646D01*
X101238342Y-90828050D01*
X101328050Y-90738342D01*
X101385646Y-90625304D01*
X101385646Y-90625302D01*
X101385647Y-90625301D01*
X101385647Y-90625300D01*
X101405492Y-90500003D01*
X101405492Y-90499996D01*
X101385647Y-90374699D01*
X101385647Y-90374698D01*
X101385646Y-90374696D01*
X101328050Y-90261658D01*
X101328046Y-90261654D01*
X101328045Y-90261652D01*
X101238347Y-90171954D01*
X101238344Y-90171952D01*
X101238342Y-90171950D01*
X101125304Y-90114354D01*
X101125303Y-90114353D01*
X101125300Y-90114352D01*
X101000003Y-90094508D01*
X100999997Y-90094508D01*
X100874699Y-90114352D01*
X100874698Y-90114352D01*
X100799337Y-90152751D01*
X100761658Y-90171950D01*
X100761657Y-90171951D01*
X100761652Y-90171954D01*
X100671954Y-90261652D01*
X100671951Y-90261657D01*
X100614352Y-90374698D01*
X100614352Y-90374699D01*
X100594508Y-90499996D01*
X100594508Y-90500003D01*
X77000500Y-90500003D01*
X77000500Y-89650003D01*
X86244508Y-89650003D01*
X86264352Y-89775300D01*
X86264352Y-89775301D01*
X86265752Y-89778048D01*
X86321950Y-89888342D01*
X86321952Y-89888344D01*
X86321954Y-89888347D01*
X86411652Y-89978045D01*
X86411654Y-89978046D01*
X86411658Y-89978050D01*
X86524696Y-90035646D01*
X86524697Y-90035646D01*
X86524699Y-90035647D01*
X86649997Y-90055492D01*
X86650000Y-90055492D01*
X86650003Y-90055492D01*
X86775300Y-90035647D01*
X86775301Y-90035647D01*
X86775302Y-90035646D01*
X86775304Y-90035646D01*
X86888342Y-89978050D01*
X86978050Y-89888342D01*
X87035646Y-89775304D01*
X87035646Y-89775302D01*
X87035647Y-89775301D01*
X87035647Y-89775300D01*
X87047573Y-89700003D01*
X94944508Y-89700003D01*
X94964352Y-89825300D01*
X94964352Y-89825301D01*
X94969624Y-89835647D01*
X95021950Y-89938342D01*
X95021952Y-89938344D01*
X95021954Y-89938347D01*
X95111652Y-90028045D01*
X95111654Y-90028046D01*
X95111658Y-90028050D01*
X95224696Y-90085646D01*
X95224697Y-90085646D01*
X95224699Y-90085647D01*
X95349997Y-90105492D01*
X95350000Y-90105492D01*
X95350003Y-90105492D01*
X95475300Y-90085647D01*
X95475301Y-90085647D01*
X95475302Y-90085646D01*
X95475304Y-90085646D01*
X95588342Y-90028050D01*
X95678050Y-89938342D01*
X95735646Y-89825304D01*
X95735646Y-89825302D01*
X95735647Y-89825301D01*
X95735647Y-89825300D01*
X95755492Y-89700003D01*
X95755492Y-89699996D01*
X95735647Y-89574699D01*
X95735647Y-89574698D01*
X95715749Y-89535647D01*
X95678050Y-89461658D01*
X95678046Y-89461654D01*
X95678045Y-89461652D01*
X95588347Y-89371954D01*
X95588344Y-89371952D01*
X95588342Y-89371950D01*
X95475304Y-89314354D01*
X95475303Y-89314353D01*
X95475300Y-89314352D01*
X95350003Y-89294508D01*
X95349997Y-89294508D01*
X95224699Y-89314352D01*
X95224698Y-89314352D01*
X95149337Y-89352751D01*
X95111658Y-89371950D01*
X95111657Y-89371951D01*
X95111652Y-89371954D01*
X95021954Y-89461652D01*
X95021951Y-89461657D01*
X95021950Y-89461658D01*
X95013599Y-89478048D01*
X94964352Y-89574698D01*
X94964352Y-89574699D01*
X94944508Y-89699996D01*
X94944508Y-89700003D01*
X87047573Y-89700003D01*
X87055492Y-89650003D01*
X87055492Y-89649996D01*
X87035647Y-89524699D01*
X87035647Y-89524698D01*
X87033506Y-89520497D01*
X86978050Y-89411658D01*
X86978046Y-89411654D01*
X86978045Y-89411652D01*
X86888347Y-89321954D01*
X86888344Y-89321952D01*
X86888342Y-89321950D01*
X86775304Y-89264354D01*
X86775303Y-89264353D01*
X86775300Y-89264352D01*
X86650003Y-89244508D01*
X86649997Y-89244508D01*
X86524699Y-89264352D01*
X86524698Y-89264352D01*
X86449337Y-89302751D01*
X86411658Y-89321950D01*
X86411657Y-89321951D01*
X86411652Y-89321954D01*
X86321954Y-89411652D01*
X86321951Y-89411657D01*
X86264352Y-89524698D01*
X86264352Y-89524699D01*
X86244508Y-89649996D01*
X86244508Y-89650003D01*
X77000500Y-89650003D01*
X77000500Y-89150003D01*
X96344508Y-89150003D01*
X96364352Y-89275300D01*
X96364352Y-89275301D01*
X96374139Y-89294508D01*
X96421950Y-89388342D01*
X96421952Y-89388344D01*
X96421954Y-89388347D01*
X96511652Y-89478045D01*
X96511654Y-89478046D01*
X96511658Y-89478050D01*
X96624696Y-89535646D01*
X96624697Y-89535646D01*
X96624699Y-89535647D01*
X96749997Y-89555492D01*
X96750000Y-89555492D01*
X96750003Y-89555492D01*
X96875300Y-89535647D01*
X96875302Y-89535646D01*
X96875304Y-89535646D01*
X96931293Y-89507117D01*
X96999961Y-89494221D01*
X97064702Y-89520497D01*
X97104959Y-89577603D01*
X97110061Y-89598204D01*
X97114352Y-89625300D01*
X97114352Y-89625301D01*
X97114354Y-89625304D01*
X97171950Y-89738342D01*
X97171952Y-89738344D01*
X97171954Y-89738347D01*
X97261652Y-89828045D01*
X97261654Y-89828046D01*
X97261658Y-89828050D01*
X97374696Y-89885646D01*
X97374697Y-89885646D01*
X97374699Y-89885647D01*
X97499997Y-89905492D01*
X97500000Y-89905492D01*
X97500003Y-89905492D01*
X97625300Y-89885647D01*
X97625301Y-89885647D01*
X97625302Y-89885646D01*
X97625304Y-89885646D01*
X97738342Y-89828050D01*
X97741092Y-89825300D01*
X97812319Y-89754074D01*
X97873642Y-89720589D01*
X97943334Y-89725573D01*
X97987681Y-89754074D01*
X98061652Y-89828045D01*
X98061654Y-89828046D01*
X98061658Y-89828050D01*
X98174696Y-89885646D01*
X98174697Y-89885646D01*
X98174699Y-89885647D01*
X98299997Y-89905492D01*
X98300000Y-89905492D01*
X98300003Y-89905492D01*
X98425300Y-89885647D01*
X98425301Y-89885647D01*
X98425302Y-89885646D01*
X98425304Y-89885646D01*
X98538342Y-89828050D01*
X98628050Y-89738342D01*
X98685646Y-89625304D01*
X98685646Y-89625302D01*
X98685647Y-89625301D01*
X98685647Y-89625300D01*
X98705492Y-89500003D01*
X98705492Y-89499996D01*
X98697574Y-89450003D01*
X99494508Y-89450003D01*
X99514352Y-89575300D01*
X99514352Y-89575301D01*
X99514354Y-89575304D01*
X99571950Y-89688342D01*
X99571952Y-89688344D01*
X99571954Y-89688347D01*
X99661652Y-89778045D01*
X99661654Y-89778046D01*
X99661658Y-89778050D01*
X99774696Y-89835646D01*
X99774697Y-89835646D01*
X99774699Y-89835647D01*
X99899997Y-89855492D01*
X99900000Y-89855492D01*
X99900003Y-89855492D01*
X100025300Y-89835647D01*
X100025301Y-89835647D01*
X100025302Y-89835646D01*
X100025304Y-89835646D01*
X100138342Y-89778050D01*
X100228050Y-89688342D01*
X100285646Y-89575304D01*
X100285646Y-89575302D01*
X100285647Y-89575301D01*
X100285647Y-89575300D01*
X100305492Y-89450003D01*
X100305492Y-89449996D01*
X100285647Y-89324699D01*
X100285647Y-89324698D01*
X100270264Y-89294508D01*
X100228050Y-89211658D01*
X100228046Y-89211654D01*
X100228045Y-89211652D01*
X100138347Y-89121954D01*
X100138344Y-89121952D01*
X100138342Y-89121950D01*
X100025304Y-89064354D01*
X100025303Y-89064353D01*
X100025300Y-89064352D01*
X99900003Y-89044508D01*
X99899997Y-89044508D01*
X99774699Y-89064352D01*
X99774698Y-89064352D01*
X99699337Y-89102751D01*
X99661658Y-89121950D01*
X99661657Y-89121951D01*
X99661652Y-89121954D01*
X99571954Y-89211652D01*
X99571951Y-89211657D01*
X99514352Y-89324698D01*
X99514352Y-89324699D01*
X99494508Y-89449996D01*
X99494508Y-89450003D01*
X98697574Y-89450003D01*
X98685647Y-89374699D01*
X98685647Y-89374698D01*
X98684247Y-89371950D01*
X98628050Y-89261658D01*
X98628046Y-89261654D01*
X98628045Y-89261652D01*
X98538347Y-89171954D01*
X98538344Y-89171952D01*
X98538342Y-89171950D01*
X98425304Y-89114354D01*
X98425303Y-89114353D01*
X98425300Y-89114352D01*
X98300003Y-89094508D01*
X98299997Y-89094508D01*
X98174699Y-89114352D01*
X98174698Y-89114352D01*
X98104745Y-89149996D01*
X98061658Y-89171950D01*
X98061657Y-89171951D01*
X98061652Y-89171954D01*
X97987681Y-89245926D01*
X97926358Y-89279411D01*
X97856666Y-89274427D01*
X97812319Y-89245926D01*
X97738347Y-89171954D01*
X97738344Y-89171952D01*
X97738342Y-89171950D01*
X97625304Y-89114354D01*
X97625303Y-89114353D01*
X97625300Y-89114352D01*
X97500003Y-89094508D01*
X97499997Y-89094508D01*
X97374699Y-89114352D01*
X97374695Y-89114353D01*
X97318705Y-89142882D01*
X97250036Y-89155778D01*
X97185295Y-89129501D01*
X97145039Y-89072394D01*
X97139938Y-89051800D01*
X97135646Y-89024696D01*
X97078050Y-88911658D01*
X97078046Y-88911654D01*
X97078045Y-88911652D01*
X96988347Y-88821954D01*
X96988344Y-88821952D01*
X96988342Y-88821950D01*
X96875304Y-88764354D01*
X96875303Y-88764353D01*
X96875300Y-88764352D01*
X96750003Y-88744508D01*
X96749997Y-88744508D01*
X96624699Y-88764352D01*
X96624698Y-88764352D01*
X96549337Y-88802751D01*
X96511658Y-88821950D01*
X96511657Y-88821951D01*
X96511652Y-88821954D01*
X96421954Y-88911652D01*
X96421951Y-88911657D01*
X96364352Y-89024698D01*
X96364352Y-89024699D01*
X96344508Y-89149996D01*
X96344508Y-89150003D01*
X77000500Y-89150003D01*
X77000500Y-88450003D01*
X86244508Y-88450003D01*
X86264352Y-88575300D01*
X86264352Y-88575301D01*
X86265752Y-88578048D01*
X86321950Y-88688342D01*
X86321952Y-88688344D01*
X86321954Y-88688347D01*
X86411652Y-88778045D01*
X86411654Y-88778046D01*
X86411658Y-88778050D01*
X86524696Y-88835646D01*
X86524697Y-88835646D01*
X86524699Y-88835647D01*
X86649997Y-88855492D01*
X86650000Y-88855492D01*
X86650003Y-88855492D01*
X86775300Y-88835647D01*
X86775301Y-88835647D01*
X86775302Y-88835646D01*
X86775304Y-88835646D01*
X86888342Y-88778050D01*
X86978050Y-88688342D01*
X87035646Y-88575304D01*
X87035646Y-88575302D01*
X87035647Y-88575301D01*
X87035647Y-88575300D01*
X87047573Y-88500003D01*
X94344508Y-88500003D01*
X94364352Y-88625300D01*
X94364352Y-88625301D01*
X94369624Y-88635647D01*
X94421950Y-88738342D01*
X94421952Y-88738344D01*
X94421954Y-88738347D01*
X94511652Y-88828045D01*
X94511654Y-88828046D01*
X94511658Y-88828050D01*
X94624696Y-88885646D01*
X94624697Y-88885646D01*
X94624699Y-88885647D01*
X94749997Y-88905492D01*
X94750000Y-88905492D01*
X94750003Y-88905492D01*
X94875300Y-88885647D01*
X94875301Y-88885647D01*
X94875302Y-88885646D01*
X94875304Y-88885646D01*
X94988342Y-88828050D01*
X95078050Y-88738342D01*
X95135646Y-88625304D01*
X95135646Y-88625302D01*
X95135647Y-88625301D01*
X95135647Y-88625300D01*
X95155492Y-88500003D01*
X95155492Y-88499996D01*
X95135647Y-88374699D01*
X95135647Y-88374698D01*
X95122085Y-88348082D01*
X95078050Y-88261658D01*
X95078046Y-88261654D01*
X95078045Y-88261652D01*
X94988347Y-88171954D01*
X94988344Y-88171952D01*
X94988342Y-88171950D01*
X94875304Y-88114354D01*
X94875303Y-88114353D01*
X94875300Y-88114352D01*
X94750003Y-88094508D01*
X94749997Y-88094508D01*
X94624699Y-88114352D01*
X94624698Y-88114352D01*
X94549337Y-88152751D01*
X94511658Y-88171950D01*
X94511657Y-88171951D01*
X94511652Y-88171954D01*
X94421954Y-88261652D01*
X94421951Y-88261657D01*
X94364352Y-88374698D01*
X94364352Y-88374699D01*
X94344508Y-88499996D01*
X94344508Y-88500003D01*
X87047573Y-88500003D01*
X87055492Y-88450003D01*
X87055492Y-88449996D01*
X87035647Y-88324699D01*
X87035647Y-88324698D01*
X87003526Y-88261658D01*
X86978050Y-88211658D01*
X86978046Y-88211654D01*
X86978045Y-88211652D01*
X86888347Y-88121954D01*
X86888344Y-88121952D01*
X86888342Y-88121950D01*
X86775304Y-88064354D01*
X86775303Y-88064353D01*
X86775300Y-88064352D01*
X86650003Y-88044508D01*
X86649997Y-88044508D01*
X86524699Y-88064352D01*
X86524698Y-88064352D01*
X86454737Y-88100000D01*
X86411658Y-88121950D01*
X86411657Y-88121951D01*
X86411652Y-88121954D01*
X86321954Y-88211652D01*
X86321951Y-88211657D01*
X86264352Y-88324698D01*
X86264352Y-88324699D01*
X86244508Y-88449996D01*
X86244508Y-88450003D01*
X77000500Y-88450003D01*
X77000500Y-88000003D01*
X95494508Y-88000003D01*
X95514352Y-88125300D01*
X95514352Y-88125301D01*
X95514354Y-88125304D01*
X95571950Y-88238342D01*
X95571952Y-88238344D01*
X95571954Y-88238347D01*
X95661652Y-88328045D01*
X95661654Y-88328046D01*
X95661658Y-88328050D01*
X95774696Y-88385646D01*
X95774697Y-88385646D01*
X95774699Y-88385647D01*
X95899997Y-88405492D01*
X95900000Y-88405492D01*
X95900003Y-88405492D01*
X96025300Y-88385647D01*
X96025301Y-88385647D01*
X96025302Y-88385646D01*
X96025304Y-88385646D01*
X96138342Y-88328050D01*
X96216389Y-88250003D01*
X99894508Y-88250003D01*
X99914352Y-88375300D01*
X99914352Y-88375301D01*
X99919624Y-88385647D01*
X99971950Y-88488342D01*
X99971952Y-88488344D01*
X99971954Y-88488347D01*
X100061652Y-88578045D01*
X100061654Y-88578046D01*
X100061658Y-88578050D01*
X100174696Y-88635646D01*
X100174697Y-88635646D01*
X100174699Y-88635647D01*
X100299997Y-88655492D01*
X100300000Y-88655492D01*
X100300003Y-88655492D01*
X100425300Y-88635647D01*
X100425301Y-88635647D01*
X100425302Y-88635646D01*
X100425304Y-88635646D01*
X100538342Y-88578050D01*
X100628050Y-88488342D01*
X100683525Y-88379464D01*
X100731497Y-88328672D01*
X100799318Y-88311877D01*
X100865453Y-88334414D01*
X100881689Y-88348082D01*
X100961652Y-88428045D01*
X100961654Y-88428046D01*
X100961658Y-88428050D01*
X101074696Y-88485646D01*
X101074697Y-88485646D01*
X101074699Y-88485647D01*
X101199997Y-88505492D01*
X101200000Y-88505492D01*
X101200003Y-88505492D01*
X101325300Y-88485647D01*
X101325301Y-88485647D01*
X101325302Y-88485646D01*
X101325304Y-88485646D01*
X101438342Y-88428050D01*
X101452062Y-88414330D01*
X101513384Y-88380843D01*
X101583076Y-88385826D01*
X101639010Y-88427696D01*
X101650229Y-88445713D01*
X101671949Y-88488340D01*
X101671954Y-88488347D01*
X101761652Y-88578045D01*
X101761654Y-88578046D01*
X101761658Y-88578050D01*
X101874696Y-88635646D01*
X101874697Y-88635646D01*
X101874699Y-88635647D01*
X101999997Y-88655492D01*
X102000000Y-88655492D01*
X102000003Y-88655492D01*
X102125300Y-88635647D01*
X102125301Y-88635647D01*
X102125302Y-88635646D01*
X102125304Y-88635646D01*
X102238342Y-88578050D01*
X102328050Y-88488342D01*
X102385646Y-88375304D01*
X102385646Y-88375302D01*
X102385647Y-88375301D01*
X102385647Y-88375300D01*
X102405492Y-88250003D01*
X102405492Y-88249996D01*
X102385647Y-88124699D01*
X102385647Y-88124698D01*
X102380375Y-88114352D01*
X102328050Y-88011658D01*
X102328046Y-88011654D01*
X102328045Y-88011652D01*
X102316396Y-88000003D01*
X105394508Y-88000003D01*
X105414352Y-88125300D01*
X105414352Y-88125301D01*
X105414354Y-88125304D01*
X105471950Y-88238342D01*
X105471952Y-88238344D01*
X105471954Y-88238347D01*
X105561652Y-88328045D01*
X105561654Y-88328046D01*
X105561658Y-88328050D01*
X105674696Y-88385646D01*
X105674697Y-88385646D01*
X105674699Y-88385647D01*
X105799997Y-88405492D01*
X105800000Y-88405492D01*
X105800003Y-88405492D01*
X105925300Y-88385647D01*
X105925301Y-88385647D01*
X105925302Y-88385646D01*
X105925304Y-88385646D01*
X106038342Y-88328050D01*
X106128050Y-88238342D01*
X106185646Y-88125304D01*
X106185646Y-88125302D01*
X106185647Y-88125301D01*
X106185647Y-88125300D01*
X106205492Y-88000003D01*
X106205492Y-87999996D01*
X106185647Y-87874699D01*
X106185647Y-87874698D01*
X106170264Y-87844508D01*
X106128050Y-87761658D01*
X106128046Y-87761654D01*
X106128045Y-87761652D01*
X106038347Y-87671954D01*
X106038344Y-87671952D01*
X106038342Y-87671950D01*
X105925304Y-87614354D01*
X105925303Y-87614353D01*
X105925300Y-87614352D01*
X105800003Y-87594508D01*
X105799997Y-87594508D01*
X105674699Y-87614352D01*
X105674698Y-87614352D01*
X105599337Y-87652751D01*
X105561658Y-87671950D01*
X105561657Y-87671951D01*
X105561652Y-87671954D01*
X105471954Y-87761652D01*
X105471951Y-87761657D01*
X105471950Y-87761658D01*
X105466704Y-87771954D01*
X105414352Y-87874698D01*
X105414352Y-87874699D01*
X105394508Y-87999996D01*
X105394508Y-88000003D01*
X102316396Y-88000003D01*
X102238347Y-87921954D01*
X102238344Y-87921952D01*
X102238342Y-87921950D01*
X102125304Y-87864354D01*
X102125303Y-87864353D01*
X102125300Y-87864352D01*
X102000003Y-87844508D01*
X101999997Y-87844508D01*
X101874699Y-87864352D01*
X101874698Y-87864352D01*
X101799337Y-87902751D01*
X101761658Y-87921950D01*
X101761657Y-87921951D01*
X101761651Y-87921955D01*
X101747933Y-87935673D01*
X101686609Y-87969157D01*
X101616918Y-87964171D01*
X101560985Y-87922298D01*
X101549772Y-87904290D01*
X101528050Y-87861658D01*
X101528046Y-87861654D01*
X101528045Y-87861652D01*
X101438347Y-87771954D01*
X101438344Y-87771952D01*
X101438342Y-87771950D01*
X101325304Y-87714354D01*
X101325303Y-87714353D01*
X101325300Y-87714352D01*
X101200003Y-87694508D01*
X101199997Y-87694508D01*
X101074699Y-87714352D01*
X101074698Y-87714352D01*
X100999337Y-87752751D01*
X100961658Y-87771950D01*
X100961657Y-87771951D01*
X100961652Y-87771954D01*
X100871954Y-87861652D01*
X100871949Y-87861659D01*
X100816475Y-87970532D01*
X100768501Y-88021327D01*
X100700680Y-88038122D01*
X100634545Y-88015584D01*
X100618310Y-88001917D01*
X100538347Y-87921954D01*
X100538344Y-87921952D01*
X100538342Y-87921950D01*
X100425304Y-87864354D01*
X100425303Y-87864353D01*
X100425300Y-87864352D01*
X100300003Y-87844508D01*
X100299997Y-87844508D01*
X100174699Y-87864352D01*
X100174698Y-87864352D01*
X100099337Y-87902751D01*
X100061658Y-87921950D01*
X100061657Y-87921951D01*
X100061652Y-87921954D01*
X99971954Y-88011652D01*
X99971951Y-88011657D01*
X99971950Y-88011658D01*
X99958466Y-88038122D01*
X99914352Y-88124698D01*
X99914352Y-88124699D01*
X99894508Y-88249996D01*
X99894508Y-88250003D01*
X96216389Y-88250003D01*
X96228050Y-88238342D01*
X96285646Y-88125304D01*
X96285646Y-88125302D01*
X96285647Y-88125301D01*
X96285647Y-88125300D01*
X96305492Y-88000003D01*
X96305492Y-87999996D01*
X96285647Y-87874699D01*
X96285647Y-87874698D01*
X96270264Y-87844508D01*
X96228050Y-87761658D01*
X96228046Y-87761654D01*
X96228045Y-87761652D01*
X96138347Y-87671954D01*
X96138344Y-87671952D01*
X96138342Y-87671950D01*
X96025304Y-87614354D01*
X96025303Y-87614353D01*
X96025300Y-87614352D01*
X95900003Y-87594508D01*
X95899997Y-87594508D01*
X95774699Y-87614352D01*
X95774698Y-87614352D01*
X95699337Y-87652751D01*
X95661658Y-87671950D01*
X95661657Y-87671951D01*
X95661652Y-87671954D01*
X95571954Y-87761652D01*
X95571951Y-87761657D01*
X95571950Y-87761658D01*
X95566704Y-87771954D01*
X95514352Y-87874698D01*
X95514352Y-87874699D01*
X95494508Y-87999996D01*
X95494508Y-88000003D01*
X77000500Y-88000003D01*
X77000500Y-87250003D01*
X86244508Y-87250003D01*
X86264352Y-87375300D01*
X86264352Y-87375301D01*
X86264354Y-87375304D01*
X86321950Y-87488342D01*
X86321952Y-87488344D01*
X86321954Y-87488347D01*
X86411652Y-87578045D01*
X86411654Y-87578046D01*
X86411658Y-87578050D01*
X86524696Y-87635646D01*
X86524697Y-87635646D01*
X86524699Y-87635647D01*
X86649997Y-87655492D01*
X86650000Y-87655492D01*
X86650003Y-87655492D01*
X86775300Y-87635647D01*
X86775301Y-87635647D01*
X86775302Y-87635646D01*
X86775304Y-87635646D01*
X86888342Y-87578050D01*
X86978050Y-87488342D01*
X87035646Y-87375304D01*
X87035646Y-87375302D01*
X87035647Y-87375301D01*
X87035647Y-87375300D01*
X87055492Y-87250003D01*
X102594508Y-87250003D01*
X102614352Y-87375300D01*
X102614352Y-87375301D01*
X102614354Y-87375304D01*
X102671950Y-87488342D01*
X102671952Y-87488344D01*
X102671954Y-87488347D01*
X102761652Y-87578045D01*
X102761654Y-87578046D01*
X102761658Y-87578050D01*
X102874696Y-87635646D01*
X102874697Y-87635646D01*
X102874699Y-87635647D01*
X102999997Y-87655492D01*
X103000000Y-87655492D01*
X103000003Y-87655492D01*
X103125300Y-87635647D01*
X103125301Y-87635647D01*
X103125302Y-87635646D01*
X103125304Y-87635646D01*
X103238342Y-87578050D01*
X103328050Y-87488342D01*
X103385646Y-87375304D01*
X103385646Y-87375302D01*
X103385647Y-87375301D01*
X103385647Y-87375300D01*
X103405492Y-87250003D01*
X103405492Y-87249996D01*
X103397574Y-87200003D01*
X107094508Y-87200003D01*
X107114352Y-87325300D01*
X107114352Y-87325301D01*
X107114354Y-87325304D01*
X107171950Y-87438342D01*
X107171952Y-87438344D01*
X107171954Y-87438347D01*
X107261652Y-87528045D01*
X107261654Y-87528046D01*
X107261658Y-87528050D01*
X107374696Y-87585646D01*
X107374697Y-87585646D01*
X107374699Y-87585647D01*
X107499997Y-87605492D01*
X107500000Y-87605492D01*
X107500003Y-87605492D01*
X107625300Y-87585647D01*
X107625301Y-87585647D01*
X107625302Y-87585646D01*
X107625304Y-87585646D01*
X107738342Y-87528050D01*
X107828050Y-87438342D01*
X107885646Y-87325304D01*
X107885646Y-87325302D01*
X107885647Y-87325301D01*
X107885647Y-87325300D01*
X107905492Y-87200003D01*
X107905492Y-87199996D01*
X107885647Y-87074699D01*
X107885647Y-87074698D01*
X107853526Y-87011658D01*
X107828050Y-86961658D01*
X107828046Y-86961654D01*
X107828045Y-86961652D01*
X107738347Y-86871954D01*
X107738344Y-86871952D01*
X107738342Y-86871950D01*
X107625304Y-86814354D01*
X107625303Y-86814353D01*
X107625300Y-86814352D01*
X107500003Y-86794508D01*
X107499997Y-86794508D01*
X107374699Y-86814352D01*
X107374698Y-86814352D01*
X107299337Y-86852751D01*
X107261658Y-86871950D01*
X107261657Y-86871951D01*
X107261652Y-86871954D01*
X107171954Y-86961652D01*
X107171951Y-86961657D01*
X107114352Y-87074698D01*
X107114352Y-87074699D01*
X107094508Y-87199996D01*
X107094508Y-87200003D01*
X103397574Y-87200003D01*
X103385647Y-87124699D01*
X103385647Y-87124698D01*
X103385646Y-87124696D01*
X103328050Y-87011658D01*
X103328046Y-87011654D01*
X103328045Y-87011652D01*
X103238347Y-86921954D01*
X103238344Y-86921952D01*
X103238342Y-86921950D01*
X103125304Y-86864354D01*
X103125303Y-86864353D01*
X103125300Y-86864352D01*
X103000003Y-86844508D01*
X102999997Y-86844508D01*
X102874699Y-86864352D01*
X102874698Y-86864352D01*
X102799337Y-86902751D01*
X102761658Y-86921950D01*
X102761657Y-86921951D01*
X102761652Y-86921954D01*
X102671954Y-87011652D01*
X102671951Y-87011657D01*
X102614352Y-87124698D01*
X102614352Y-87124699D01*
X102594508Y-87249996D01*
X102594508Y-87250003D01*
X87055492Y-87250003D01*
X87055492Y-87249996D01*
X87035647Y-87124699D01*
X87035647Y-87124698D01*
X87035646Y-87124696D01*
X86978050Y-87011658D01*
X86978046Y-87011654D01*
X86978045Y-87011652D01*
X86888347Y-86921954D01*
X86888344Y-86921952D01*
X86888342Y-86921950D01*
X86775304Y-86864354D01*
X86775303Y-86864353D01*
X86775300Y-86864352D01*
X86650003Y-86844508D01*
X86649997Y-86844508D01*
X86524699Y-86864352D01*
X86524698Y-86864352D01*
X86449337Y-86902751D01*
X86411658Y-86921950D01*
X86411657Y-86921951D01*
X86411652Y-86921954D01*
X86321954Y-87011652D01*
X86321951Y-87011657D01*
X86264352Y-87124698D01*
X86264352Y-87124699D01*
X86244508Y-87249996D01*
X86244508Y-87250003D01*
X77000500Y-87250003D01*
X77000500Y-84900003D01*
X93894508Y-84900003D01*
X93914352Y-85025300D01*
X93914352Y-85025301D01*
X93914354Y-85025304D01*
X93971950Y-85138342D01*
X93971952Y-85138344D01*
X93971954Y-85138347D01*
X94061652Y-85228045D01*
X94061654Y-85228046D01*
X94061658Y-85228050D01*
X94174696Y-85285646D01*
X94174697Y-85285646D01*
X94174699Y-85285647D01*
X94299997Y-85305492D01*
X94300000Y-85305492D01*
X94300003Y-85305492D01*
X94425300Y-85285647D01*
X94425301Y-85285647D01*
X94425302Y-85285646D01*
X94425304Y-85285646D01*
X94538342Y-85228050D01*
X94628050Y-85138342D01*
X94685646Y-85025304D01*
X94685646Y-85025302D01*
X94685647Y-85025301D01*
X94685647Y-85025300D01*
X94706680Y-84892500D01*
X94736609Y-84829365D01*
X94795920Y-84792433D01*
X94848549Y-84789424D01*
X94890352Y-84796044D01*
X94949998Y-84805492D01*
X94950000Y-84805492D01*
X94950003Y-84805492D01*
X95075300Y-84785647D01*
X95075301Y-84785647D01*
X95075302Y-84785646D01*
X95075304Y-84785646D01*
X95188342Y-84728050D01*
X95278050Y-84638342D01*
X95335646Y-84525304D01*
X95335646Y-84525302D01*
X95335647Y-84525301D01*
X95335647Y-84525300D01*
X95355492Y-84400003D01*
X95355492Y-84399996D01*
X95335647Y-84274699D01*
X95335647Y-84274698D01*
X95310479Y-84225304D01*
X95278050Y-84161658D01*
X95278046Y-84161654D01*
X95278045Y-84161652D01*
X95216396Y-84100003D01*
X101244508Y-84100003D01*
X101264352Y-84225300D01*
X101264352Y-84225301D01*
X101264354Y-84225304D01*
X101321950Y-84338342D01*
X101321952Y-84338344D01*
X101321954Y-84338347D01*
X101418558Y-84434951D01*
X101416384Y-84437124D01*
X101449161Y-84479611D01*
X101455156Y-84549223D01*
X101422563Y-84611025D01*
X101421302Y-84612304D01*
X101371954Y-84661652D01*
X101371951Y-84661657D01*
X101314352Y-84774698D01*
X101314352Y-84774699D01*
X101294508Y-84899996D01*
X101294508Y-84900003D01*
X101314352Y-85025300D01*
X101314352Y-85025301D01*
X101314354Y-85025304D01*
X101371950Y-85138342D01*
X101371952Y-85138344D01*
X101371954Y-85138347D01*
X101461652Y-85228045D01*
X101461654Y-85228046D01*
X101461658Y-85228050D01*
X101574696Y-85285646D01*
X101574697Y-85285646D01*
X101574699Y-85285647D01*
X101699997Y-85305492D01*
X101700000Y-85305492D01*
X101700003Y-85305492D01*
X101825300Y-85285647D01*
X101825301Y-85285647D01*
X101825302Y-85285646D01*
X101825304Y-85285646D01*
X101938342Y-85228050D01*
X102028050Y-85138342D01*
X102085646Y-85025304D01*
X102085646Y-85025302D01*
X102085647Y-85025301D01*
X102085647Y-85025300D01*
X102105492Y-84900003D01*
X102105492Y-84899996D01*
X102085647Y-84774699D01*
X102085647Y-84774698D01*
X102085646Y-84774696D01*
X102028050Y-84661658D01*
X102028046Y-84661654D01*
X102028045Y-84661652D01*
X101931442Y-84565049D01*
X101933614Y-84562876D01*
X101900835Y-84520381D01*
X101894845Y-84450768D01*
X101927442Y-84388968D01*
X101928699Y-84387693D01*
X101978050Y-84338342D01*
X102035646Y-84225304D01*
X102035646Y-84225302D01*
X102035647Y-84225301D01*
X102035647Y-84225300D01*
X102055492Y-84100003D01*
X102055492Y-84099996D01*
X102035647Y-83974699D01*
X102035647Y-83974698D01*
X102035646Y-83974696D01*
X101978050Y-83861658D01*
X101978046Y-83861654D01*
X101978045Y-83861652D01*
X101888347Y-83771954D01*
X101888344Y-83771952D01*
X101888342Y-83771950D01*
X101775304Y-83714354D01*
X101775303Y-83714353D01*
X101775300Y-83714352D01*
X101650003Y-83694508D01*
X101649997Y-83694508D01*
X101524699Y-83714352D01*
X101524698Y-83714352D01*
X101449337Y-83752751D01*
X101411658Y-83771950D01*
X101411657Y-83771951D01*
X101411652Y-83771954D01*
X101321954Y-83861652D01*
X101321951Y-83861657D01*
X101264352Y-83974698D01*
X101264352Y-83974699D01*
X101244508Y-84099996D01*
X101244508Y-84100003D01*
X95216396Y-84100003D01*
X95188347Y-84071954D01*
X95188344Y-84071952D01*
X95188342Y-84071950D01*
X95075304Y-84014354D01*
X95075303Y-84014353D01*
X95075300Y-84014352D01*
X94950003Y-83994508D01*
X94949997Y-83994508D01*
X94824699Y-84014352D01*
X94824698Y-84014352D01*
X94749337Y-84052751D01*
X94711658Y-84071950D01*
X94711657Y-84071951D01*
X94711652Y-84071954D01*
X94621954Y-84161652D01*
X94621951Y-84161657D01*
X94564352Y-84274698D01*
X94543319Y-84407500D01*
X94513390Y-84470635D01*
X94454078Y-84507566D01*
X94401449Y-84510575D01*
X94300003Y-84494508D01*
X94299997Y-84494508D01*
X94174699Y-84514352D01*
X94174698Y-84514352D01*
X94106262Y-84549223D01*
X94061658Y-84571950D01*
X94061657Y-84571951D01*
X94061652Y-84571954D01*
X93971954Y-84661652D01*
X93971951Y-84661657D01*
X93914352Y-84774698D01*
X93914352Y-84774699D01*
X93894508Y-84899996D01*
X93894508Y-84900003D01*
X77000500Y-84900003D01*
X77000500Y-82650003D01*
X96344508Y-82650003D01*
X96364352Y-82775300D01*
X96364352Y-82775301D01*
X96364354Y-82775304D01*
X96421950Y-82888342D01*
X96421952Y-82888344D01*
X96421954Y-82888347D01*
X96511652Y-82978045D01*
X96511654Y-82978046D01*
X96511658Y-82978050D01*
X96624696Y-83035646D01*
X96624697Y-83035646D01*
X96624699Y-83035647D01*
X96749997Y-83055492D01*
X96750000Y-83055492D01*
X96750003Y-83055492D01*
X96875300Y-83035647D01*
X96875301Y-83035647D01*
X96875302Y-83035646D01*
X96875304Y-83035646D01*
X96988342Y-82978050D01*
X97078050Y-82888342D01*
X97135646Y-82775304D01*
X97135646Y-82775302D01*
X97139515Y-82767710D01*
X97187490Y-82716914D01*
X97255311Y-82700119D01*
X97321446Y-82722657D01*
X97360485Y-82767710D01*
X97364353Y-82775302D01*
X97364354Y-82775304D01*
X97421950Y-82888342D01*
X97421952Y-82888344D01*
X97421954Y-82888347D01*
X97511652Y-82978045D01*
X97511654Y-82978046D01*
X97511658Y-82978050D01*
X97624696Y-83035646D01*
X97624697Y-83035646D01*
X97624699Y-83035647D01*
X97749997Y-83055492D01*
X97750000Y-83055492D01*
X97750003Y-83055492D01*
X97875300Y-83035647D01*
X97875301Y-83035647D01*
X97875302Y-83035646D01*
X97875304Y-83035646D01*
X97988342Y-82978050D01*
X98078050Y-82888342D01*
X98135646Y-82775304D01*
X98135646Y-82775302D01*
X98135647Y-82775301D01*
X98135647Y-82775300D01*
X98155492Y-82650003D01*
X98155492Y-82649996D01*
X98135647Y-82524699D01*
X98135647Y-82524698D01*
X98135646Y-82524696D01*
X98078050Y-82411658D01*
X98078046Y-82411654D01*
X98078045Y-82411652D01*
X97988347Y-82321954D01*
X97988344Y-82321952D01*
X97988342Y-82321950D01*
X97911517Y-82282805D01*
X97875301Y-82264352D01*
X97742499Y-82243319D01*
X97679364Y-82213390D01*
X97642433Y-82154078D01*
X97639424Y-82101448D01*
X97655492Y-82000003D01*
X98844508Y-82000003D01*
X98864352Y-82125300D01*
X98864352Y-82125301D01*
X98864354Y-82125304D01*
X98921950Y-82238342D01*
X98921952Y-82238344D01*
X98921954Y-82238347D01*
X99011652Y-82328045D01*
X99011654Y-82328046D01*
X99011658Y-82328050D01*
X99124696Y-82385646D01*
X99124697Y-82385646D01*
X99124699Y-82385647D01*
X99257499Y-82406680D01*
X99320634Y-82436609D01*
X99357566Y-82495920D01*
X99360575Y-82548550D01*
X99344508Y-82649996D01*
X99344508Y-82650003D01*
X99364352Y-82775300D01*
X99364352Y-82775301D01*
X99364354Y-82775304D01*
X99421950Y-82888342D01*
X99421952Y-82888344D01*
X99421954Y-82888347D01*
X99511652Y-82978045D01*
X99511654Y-82978046D01*
X99511658Y-82978050D01*
X99624696Y-83035646D01*
X99624697Y-83035646D01*
X99624699Y-83035647D01*
X99749997Y-83055492D01*
X99750000Y-83055492D01*
X99750003Y-83055492D01*
X99875300Y-83035647D01*
X99875301Y-83035647D01*
X99875302Y-83035646D01*
X99875304Y-83035646D01*
X99988342Y-82978050D01*
X100078050Y-82888342D01*
X100135646Y-82775304D01*
X100135646Y-82775302D01*
X100135647Y-82775301D01*
X100135647Y-82775300D01*
X100155492Y-82650003D01*
X100155492Y-82649996D01*
X100135647Y-82524699D01*
X100135647Y-82524698D01*
X100135646Y-82524696D01*
X100078050Y-82411658D01*
X100078046Y-82411654D01*
X100078045Y-82411652D01*
X99988347Y-82321954D01*
X99988344Y-82321952D01*
X99988342Y-82321950D01*
X99911517Y-82282805D01*
X99875301Y-82264352D01*
X99742499Y-82243319D01*
X99679364Y-82213390D01*
X99642433Y-82154078D01*
X99639424Y-82101448D01*
X99655492Y-82000001D01*
X99655492Y-81999996D01*
X99635647Y-81874699D01*
X99635647Y-81874698D01*
X99635646Y-81874696D01*
X99578050Y-81761658D01*
X99578046Y-81761654D01*
X99578045Y-81761652D01*
X99488347Y-81671954D01*
X99488344Y-81671952D01*
X99488342Y-81671950D01*
X99375304Y-81614354D01*
X99375303Y-81614353D01*
X99375300Y-81614352D01*
X99250003Y-81594508D01*
X99249997Y-81594508D01*
X99124699Y-81614352D01*
X99124698Y-81614352D01*
X99049337Y-81652751D01*
X99011658Y-81671950D01*
X99011657Y-81671951D01*
X99011652Y-81671954D01*
X98921954Y-81761652D01*
X98921951Y-81761657D01*
X98864352Y-81874698D01*
X98864352Y-81874699D01*
X98844508Y-81999996D01*
X98844508Y-82000003D01*
X97655492Y-82000003D01*
X97655492Y-82000001D01*
X97655492Y-81999996D01*
X97635647Y-81874699D01*
X97635647Y-81874698D01*
X97635646Y-81874696D01*
X97578050Y-81761658D01*
X97578046Y-81761654D01*
X97578045Y-81761652D01*
X97488347Y-81671954D01*
X97488344Y-81671952D01*
X97488342Y-81671950D01*
X97375304Y-81614354D01*
X97375303Y-81614353D01*
X97375300Y-81614352D01*
X97250003Y-81594508D01*
X97249997Y-81594508D01*
X97124699Y-81614352D01*
X97124698Y-81614352D01*
X97049337Y-81652751D01*
X97011658Y-81671950D01*
X97011657Y-81671951D01*
X97011652Y-81671954D01*
X96921954Y-81761652D01*
X96921951Y-81761657D01*
X96864352Y-81874698D01*
X96864352Y-81874699D01*
X96844508Y-81999996D01*
X96844508Y-82000003D01*
X96860575Y-82101449D01*
X96851620Y-82170742D01*
X96806624Y-82224194D01*
X96757500Y-82243319D01*
X96624698Y-82264352D01*
X96549337Y-82302751D01*
X96511658Y-82321950D01*
X96511657Y-82321951D01*
X96511652Y-82321954D01*
X96421954Y-82411652D01*
X96421951Y-82411657D01*
X96364352Y-82524698D01*
X96364352Y-82524699D01*
X96344508Y-82649996D01*
X96344508Y-82650003D01*
X77000500Y-82650003D01*
X77000500Y-77418933D01*
X80745668Y-77418933D01*
X80761058Y-77506210D01*
X80776135Y-77591711D01*
X80845623Y-77752804D01*
X80845624Y-77752806D01*
X80845626Y-77752809D01*
X80900278Y-77826218D01*
X80950390Y-77893530D01*
X81084786Y-78006302D01*
X81162488Y-78045325D01*
X81241562Y-78085038D01*
X81241563Y-78085038D01*
X81241567Y-78085040D01*
X81412279Y-78125500D01*
X81412282Y-78125500D01*
X81543701Y-78125500D01*
X81543709Y-78125500D01*
X81674255Y-78110241D01*
X81839117Y-78050237D01*
X81985696Y-77953830D01*
X82106092Y-77826218D01*
X82193812Y-77674281D01*
X82206597Y-77631576D01*
X82244681Y-77573001D01*
X82308390Y-77544312D01*
X82377495Y-77554622D01*
X82403445Y-77572742D01*
X82403759Y-77572311D01*
X82411653Y-77578045D01*
X82411658Y-77578050D01*
X82524696Y-77635646D01*
X82524697Y-77635646D01*
X82524699Y-77635647D01*
X82649997Y-77655492D01*
X82650000Y-77655492D01*
X82650003Y-77655492D01*
X82775300Y-77635647D01*
X82775301Y-77635647D01*
X82775302Y-77635646D01*
X82775304Y-77635646D01*
X82888342Y-77578050D01*
X82978050Y-77488342D01*
X83035646Y-77375304D01*
X83035646Y-77375302D01*
X83035647Y-77375301D01*
X83035647Y-77375300D01*
X83055492Y-77250003D01*
X84094508Y-77250003D01*
X84114352Y-77375300D01*
X84114352Y-77375301D01*
X84114354Y-77375304D01*
X84171950Y-77488342D01*
X84171952Y-77488344D01*
X84171954Y-77488347D01*
X84261652Y-77578045D01*
X84261654Y-77578046D01*
X84261658Y-77578050D01*
X84374696Y-77635646D01*
X84374697Y-77635646D01*
X84374699Y-77635647D01*
X84499997Y-77655492D01*
X84500000Y-77655492D01*
X84500003Y-77655492D01*
X84625300Y-77635647D01*
X84625301Y-77635647D01*
X84625302Y-77635646D01*
X84625304Y-77635646D01*
X84738342Y-77578050D01*
X84828050Y-77488342D01*
X84885646Y-77375304D01*
X84885646Y-77375302D01*
X84885647Y-77375301D01*
X84885647Y-77375300D01*
X84905492Y-77250003D01*
X86094508Y-77250003D01*
X86114352Y-77375300D01*
X86114352Y-77375301D01*
X86114354Y-77375304D01*
X86171950Y-77488342D01*
X86171952Y-77488344D01*
X86171954Y-77488347D01*
X86261652Y-77578045D01*
X86261654Y-77578046D01*
X86261658Y-77578050D01*
X86374696Y-77635646D01*
X86374697Y-77635646D01*
X86374699Y-77635647D01*
X86499997Y-77655492D01*
X86500000Y-77655492D01*
X86500003Y-77655492D01*
X86625300Y-77635647D01*
X86625301Y-77635647D01*
X86625302Y-77635646D01*
X86625304Y-77635646D01*
X86738342Y-77578050D01*
X86828050Y-77488342D01*
X86885646Y-77375304D01*
X86885646Y-77375302D01*
X86885647Y-77375301D01*
X86885647Y-77375300D01*
X86905492Y-77250003D01*
X88094508Y-77250003D01*
X88114352Y-77375300D01*
X88114352Y-77375301D01*
X88114354Y-77375304D01*
X88171950Y-77488342D01*
X88171952Y-77488344D01*
X88171954Y-77488347D01*
X88261652Y-77578045D01*
X88261654Y-77578046D01*
X88261658Y-77578050D01*
X88374696Y-77635646D01*
X88374697Y-77635646D01*
X88374699Y-77635647D01*
X88499997Y-77655492D01*
X88500000Y-77655492D01*
X88500003Y-77655492D01*
X88625300Y-77635647D01*
X88625301Y-77635647D01*
X88625302Y-77635646D01*
X88625304Y-77635646D01*
X88738342Y-77578050D01*
X88828050Y-77488342D01*
X88863416Y-77418933D01*
X90745668Y-77418933D01*
X90761058Y-77506210D01*
X90776135Y-77591711D01*
X90845623Y-77752804D01*
X90845624Y-77752806D01*
X90845626Y-77752809D01*
X90900278Y-77826218D01*
X90950390Y-77893530D01*
X91084786Y-78006302D01*
X91162488Y-78045325D01*
X91241562Y-78085038D01*
X91241563Y-78085038D01*
X91241567Y-78085040D01*
X91412279Y-78125500D01*
X91412282Y-78125500D01*
X91543701Y-78125500D01*
X91543709Y-78125500D01*
X91674255Y-78110241D01*
X91839117Y-78050237D01*
X91985696Y-77953830D01*
X92106092Y-77826218D01*
X92193812Y-77674281D01*
X92244130Y-77506210D01*
X92254331Y-77331065D01*
X92223865Y-77158289D01*
X92154377Y-76997196D01*
X92049610Y-76856470D01*
X91977747Y-76796170D01*
X91915214Y-76743698D01*
X91915212Y-76743697D01*
X91758437Y-76664961D01*
X91758433Y-76664960D01*
X91587721Y-76624500D01*
X91456291Y-76624500D01*
X91351854Y-76636707D01*
X91325743Y-76639759D01*
X91325740Y-76639760D01*
X91160884Y-76699762D01*
X91160880Y-76699764D01*
X91014306Y-76796167D01*
X91014305Y-76796168D01*
X90893910Y-76923778D01*
X90806188Y-77075718D01*
X90755870Y-77243789D01*
X90755869Y-77243794D01*
X90745668Y-77418933D01*
X88863416Y-77418933D01*
X88885646Y-77375304D01*
X88885646Y-77375302D01*
X88885647Y-77375301D01*
X88885647Y-77375300D01*
X88905492Y-77250003D01*
X88905492Y-77249996D01*
X88885647Y-77124699D01*
X88885647Y-77124698D01*
X88885646Y-77124696D01*
X88828050Y-77011658D01*
X88828046Y-77011654D01*
X88828045Y-77011652D01*
X88738347Y-76921954D01*
X88738344Y-76921952D01*
X88738342Y-76921950D01*
X88625304Y-76864354D01*
X88625303Y-76864353D01*
X88625300Y-76864352D01*
X88500003Y-76844508D01*
X88499997Y-76844508D01*
X88374699Y-76864352D01*
X88374698Y-76864352D01*
X88299337Y-76902751D01*
X88261658Y-76921950D01*
X88261657Y-76921951D01*
X88261652Y-76921954D01*
X88171954Y-77011652D01*
X88171951Y-77011657D01*
X88114352Y-77124698D01*
X88114352Y-77124699D01*
X88094508Y-77249996D01*
X88094508Y-77250003D01*
X86905492Y-77250003D01*
X86905492Y-77249996D01*
X86885647Y-77124699D01*
X86885647Y-77124698D01*
X86885646Y-77124696D01*
X86828050Y-77011658D01*
X86828046Y-77011654D01*
X86828045Y-77011652D01*
X86738347Y-76921954D01*
X86738344Y-76921952D01*
X86738342Y-76921950D01*
X86625304Y-76864354D01*
X86625303Y-76864353D01*
X86625300Y-76864352D01*
X86500003Y-76844508D01*
X86499997Y-76844508D01*
X86374699Y-76864352D01*
X86374698Y-76864352D01*
X86299337Y-76902751D01*
X86261658Y-76921950D01*
X86261657Y-76921951D01*
X86261652Y-76921954D01*
X86171954Y-77011652D01*
X86171951Y-77011657D01*
X86114352Y-77124698D01*
X86114352Y-77124699D01*
X86094508Y-77249996D01*
X86094508Y-77250003D01*
X84905492Y-77250003D01*
X84905492Y-77249996D01*
X84885647Y-77124699D01*
X84885647Y-77124698D01*
X84885646Y-77124696D01*
X84828050Y-77011658D01*
X84828046Y-77011654D01*
X84828045Y-77011652D01*
X84738347Y-76921954D01*
X84738344Y-76921952D01*
X84738342Y-76921950D01*
X84625304Y-76864354D01*
X84625303Y-76864353D01*
X84625300Y-76864352D01*
X84500003Y-76844508D01*
X84499997Y-76844508D01*
X84374699Y-76864352D01*
X84374698Y-76864352D01*
X84299337Y-76902751D01*
X84261658Y-76921950D01*
X84261657Y-76921951D01*
X84261652Y-76921954D01*
X84171954Y-77011652D01*
X84171951Y-77011657D01*
X84114352Y-77124698D01*
X84114352Y-77124699D01*
X84094508Y-77249996D01*
X84094508Y-77250003D01*
X83055492Y-77250003D01*
X83055492Y-77249996D01*
X83035647Y-77124699D01*
X83035647Y-77124698D01*
X83035646Y-77124696D01*
X82978050Y-77011658D01*
X82978046Y-77011654D01*
X82978045Y-77011652D01*
X82888347Y-76921954D01*
X82888344Y-76921952D01*
X82888342Y-76921950D01*
X82775304Y-76864354D01*
X82775303Y-76864353D01*
X82775300Y-76864352D01*
X82650003Y-76844508D01*
X82649997Y-76844508D01*
X82524699Y-76864352D01*
X82524698Y-76864352D01*
X82449337Y-76902751D01*
X82411658Y-76921950D01*
X82411657Y-76921951D01*
X82411656Y-76921951D01*
X82333522Y-77000085D01*
X82272198Y-77033569D01*
X82202507Y-77028585D01*
X82146573Y-76986713D01*
X82146378Y-76986451D01*
X82049609Y-76856469D01*
X81915214Y-76743698D01*
X81915212Y-76743697D01*
X81758437Y-76664961D01*
X81758433Y-76664960D01*
X81587721Y-76624500D01*
X81456291Y-76624500D01*
X81351854Y-76636707D01*
X81325743Y-76639759D01*
X81325740Y-76639760D01*
X81160884Y-76699762D01*
X81160880Y-76699764D01*
X81014306Y-76796167D01*
X81014305Y-76796168D01*
X80893910Y-76923778D01*
X80806188Y-77075718D01*
X80755870Y-77243789D01*
X80755869Y-77243794D01*
X80745668Y-77418933D01*
X77000500Y-77418933D01*
X77000500Y-75550003D01*
X112944508Y-75550003D01*
X112964352Y-75675300D01*
X112964352Y-75675301D01*
X112964354Y-75675304D01*
X113021950Y-75788342D01*
X113021952Y-75788344D01*
X113021954Y-75788347D01*
X113111652Y-75878045D01*
X113111654Y-75878046D01*
X113111658Y-75878050D01*
X113224696Y-75935646D01*
X113224697Y-75935646D01*
X113224699Y-75935647D01*
X113349997Y-75955492D01*
X113350000Y-75955492D01*
X113350003Y-75955492D01*
X113475300Y-75935647D01*
X113475301Y-75935647D01*
X113475302Y-75935646D01*
X113475304Y-75935646D01*
X113588342Y-75878050D01*
X113678050Y-75788342D01*
X113735646Y-75675304D01*
X113735646Y-75675302D01*
X113735647Y-75675301D01*
X113735647Y-75675300D01*
X113755492Y-75550003D01*
X116394508Y-75550003D01*
X116414352Y-75675300D01*
X116414352Y-75675301D01*
X116414354Y-75675304D01*
X116471950Y-75788342D01*
X116471952Y-75788344D01*
X116471954Y-75788347D01*
X116561652Y-75878045D01*
X116561654Y-75878046D01*
X116561658Y-75878050D01*
X116674696Y-75935646D01*
X116674697Y-75935646D01*
X116674699Y-75935647D01*
X116799997Y-75955492D01*
X116800000Y-75955492D01*
X116800003Y-75955492D01*
X116925300Y-75935647D01*
X116925301Y-75935647D01*
X116925302Y-75935646D01*
X116925304Y-75935646D01*
X117038342Y-75878050D01*
X117128050Y-75788342D01*
X117185646Y-75675304D01*
X117185646Y-75675302D01*
X117185647Y-75675301D01*
X117185647Y-75675300D01*
X117205492Y-75550003D01*
X119844508Y-75550003D01*
X119864352Y-75675300D01*
X119864352Y-75675301D01*
X119864354Y-75675304D01*
X119921950Y-75788342D01*
X119921952Y-75788344D01*
X119921954Y-75788347D01*
X120011652Y-75878045D01*
X120011654Y-75878046D01*
X120011658Y-75878050D01*
X120124696Y-75935646D01*
X120124697Y-75935646D01*
X120124699Y-75935647D01*
X120249997Y-75955492D01*
X120250000Y-75955492D01*
X120250003Y-75955492D01*
X120375300Y-75935647D01*
X120375301Y-75935647D01*
X120375302Y-75935646D01*
X120375304Y-75935646D01*
X120488342Y-75878050D01*
X120578050Y-75788342D01*
X120635646Y-75675304D01*
X120635646Y-75675302D01*
X120635647Y-75675301D01*
X120635647Y-75675300D01*
X120655492Y-75550003D01*
X120655492Y-75549996D01*
X120635647Y-75424699D01*
X120635647Y-75424698D01*
X120635646Y-75424696D01*
X120578050Y-75311658D01*
X120578046Y-75311654D01*
X120578045Y-75311652D01*
X120488347Y-75221954D01*
X120488344Y-75221952D01*
X120488342Y-75221950D01*
X120375304Y-75164354D01*
X120375303Y-75164353D01*
X120375300Y-75164352D01*
X120250003Y-75144508D01*
X120249997Y-75144508D01*
X120124699Y-75164352D01*
X120124698Y-75164352D01*
X120049337Y-75202751D01*
X120011658Y-75221950D01*
X120011657Y-75221951D01*
X120011652Y-75221954D01*
X119921954Y-75311652D01*
X119921951Y-75311657D01*
X119864352Y-75424698D01*
X119864352Y-75424699D01*
X119844508Y-75549996D01*
X119844508Y-75550003D01*
X117205492Y-75550003D01*
X117205492Y-75549996D01*
X117185647Y-75424699D01*
X117185647Y-75424698D01*
X117185646Y-75424696D01*
X117128050Y-75311658D01*
X117128046Y-75311654D01*
X117128045Y-75311652D01*
X117038347Y-75221954D01*
X117038344Y-75221952D01*
X117038342Y-75221950D01*
X116925304Y-75164354D01*
X116925303Y-75164353D01*
X116925300Y-75164352D01*
X116800003Y-75144508D01*
X116799997Y-75144508D01*
X116674699Y-75164352D01*
X116674698Y-75164352D01*
X116599337Y-75202751D01*
X116561658Y-75221950D01*
X116561657Y-75221951D01*
X116561652Y-75221954D01*
X116471954Y-75311652D01*
X116471951Y-75311657D01*
X116414352Y-75424698D01*
X116414352Y-75424699D01*
X116394508Y-75549996D01*
X116394508Y-75550003D01*
X113755492Y-75550003D01*
X113755492Y-75549996D01*
X113735647Y-75424699D01*
X113735647Y-75424698D01*
X113735646Y-75424696D01*
X113678050Y-75311658D01*
X113678046Y-75311654D01*
X113678045Y-75311652D01*
X113588347Y-75221954D01*
X113588344Y-75221952D01*
X113588342Y-75221950D01*
X113475304Y-75164354D01*
X113475303Y-75164353D01*
X113475300Y-75164352D01*
X113350003Y-75144508D01*
X113349997Y-75144508D01*
X113224699Y-75164352D01*
X113224698Y-75164352D01*
X113149337Y-75202751D01*
X113111658Y-75221950D01*
X113111657Y-75221951D01*
X113111652Y-75221954D01*
X113021954Y-75311652D01*
X113021951Y-75311657D01*
X112964352Y-75424698D01*
X112964352Y-75424699D01*
X112944508Y-75549996D01*
X112944508Y-75550003D01*
X77000500Y-75550003D01*
X77000500Y-73124500D01*
X77020185Y-73057461D01*
X77072989Y-73011706D01*
X77124500Y-73000500D01*
X126875500Y-73000500D01*
X126942539Y-73020185D01*
G37*
%TD.AperFunction*%
%TD*%
M02*
