%TF.GenerationSoftware,KiCad,Pcbnew,7.0.10*%
%TF.CreationDate,2024-01-13T18:06:35+01:00*%
%TF.ProjectId,FPGA,46504741-2e6b-4696-9361-645f70636258,rev?*%
%TF.SameCoordinates,Original*%
%TF.FileFunction,Copper,L8,Bot*%
%TF.FilePolarity,Positive*%
%FSLAX46Y46*%
G04 Gerber Fmt 4.6, Leading zero omitted, Abs format (unit mm)*
G04 Created by KiCad (PCBNEW 7.0.10) date 2024-01-13 18:06:35*
%MOMM*%
%LPD*%
G01*
G04 APERTURE LIST*
G04 Aperture macros list*
%AMRoundRect*
0 Rectangle with rounded corners*
0 $1 Rounding radius*
0 $2 $3 $4 $5 $6 $7 $8 $9 X,Y pos of 4 corners*
0 Add a 4 corners polygon primitive as box body*
4,1,4,$2,$3,$4,$5,$6,$7,$8,$9,$2,$3,0*
0 Add four circle primitives for the rounded corners*
1,1,$1+$1,$2,$3*
1,1,$1+$1,$4,$5*
1,1,$1+$1,$6,$7*
1,1,$1+$1,$8,$9*
0 Add four rect primitives between the rounded corners*
20,1,$1+$1,$2,$3,$4,$5,0*
20,1,$1+$1,$4,$5,$6,$7,0*
20,1,$1+$1,$6,$7,$8,$9,0*
20,1,$1+$1,$8,$9,$2,$3,0*%
G04 Aperture macros list end*
%TA.AperFunction,SMDPad,CuDef*%
%ADD10RoundRect,0.225000X0.250000X-0.225000X0.250000X0.225000X-0.250000X0.225000X-0.250000X-0.225000X0*%
%TD*%
%TA.AperFunction,SMDPad,CuDef*%
%ADD11RoundRect,0.225000X-0.225000X-0.250000X0.225000X-0.250000X0.225000X0.250000X-0.225000X0.250000X0*%
%TD*%
%TA.AperFunction,ComponentPad*%
%ADD12C,1.000000*%
%TD*%
%TA.AperFunction,SMDPad,CuDef*%
%ADD13RoundRect,0.140000X-0.170000X0.140000X-0.170000X-0.140000X0.170000X-0.140000X0.170000X0.140000X0*%
%TD*%
%TA.AperFunction,SMDPad,CuDef*%
%ADD14RoundRect,0.140000X0.140000X0.170000X-0.140000X0.170000X-0.140000X-0.170000X0.140000X-0.170000X0*%
%TD*%
%TA.AperFunction,SMDPad,CuDef*%
%ADD15RoundRect,0.140000X-0.140000X-0.170000X0.140000X-0.170000X0.140000X0.170000X-0.140000X0.170000X0*%
%TD*%
%TA.AperFunction,SMDPad,CuDef*%
%ADD16RoundRect,0.140000X0.170000X-0.140000X0.170000X0.140000X-0.170000X0.140000X-0.170000X-0.140000X0*%
%TD*%
%TA.AperFunction,ViaPad*%
%ADD17C,0.400000*%
%TD*%
%TA.AperFunction,Conductor*%
%ADD18C,0.090000*%
%TD*%
%TA.AperFunction,Conductor*%
%ADD19C,0.400000*%
%TD*%
%TA.AperFunction,Conductor*%
%ADD20C,0.300000*%
%TD*%
G04 APERTURE END LIST*
D10*
%TO.P,C48,2*%
%TO.N,GND*%
X92000000Y-91500000D03*
%TO.P,C48,1*%
%TO.N,3.3V*%
X92000000Y-93050000D03*
%TD*%
%TO.P,C47,2*%
%TO.N,GND*%
X95500000Y-91475000D03*
%TO.P,C47,1*%
%TO.N,1.8V*%
X95500000Y-93025000D03*
%TD*%
%TO.P,C46,1*%
%TO.N,1.2V*%
X102500000Y-93050000D03*
%TO.P,C46,2*%
%TO.N,GND*%
X102500000Y-91500000D03*
%TD*%
%TO.P,C45,2*%
%TO.N,GND*%
X99000000Y-91500000D03*
%TO.P,C45,1*%
%TO.N,1V*%
X99000000Y-93050000D03*
%TD*%
%TO.P,C8,1*%
%TO.N,1V*%
X110500000Y-98525000D03*
%TO.P,C8,2*%
%TO.N,GND*%
X110500000Y-96975000D03*
%TD*%
D11*
%TO.P,C14,1*%
%TO.N,3.3V*%
X112225000Y-114000000D03*
%TO.P,C14,2*%
%TO.N,GND*%
X113775000Y-114000000D03*
%TD*%
D10*
%TO.P,C6,1*%
%TO.N,1.8V*%
X96250000Y-98525000D03*
%TO.P,C6,2*%
%TO.N,GND*%
X96250000Y-96975000D03*
%TD*%
%TO.P,C9,1*%
%TO.N,1V*%
X107750000Y-98525000D03*
%TO.P,C9,2*%
%TO.N,GND*%
X107750000Y-96975000D03*
%TD*%
D12*
%TO.P,J1,16*%
%TO.N,N/C*%
X91500000Y-77375000D03*
%TO.P,J1,15*%
X81500000Y-77375000D03*
%TD*%
D13*
%TO.P,C30,1*%
%TO.N,3.3V*%
X99500000Y-114270000D03*
%TO.P,C30,2*%
%TO.N,GND*%
X99500000Y-115230000D03*
%TD*%
D14*
%TO.P,C38,1*%
%TO.N,3.3V*%
X102480000Y-112250000D03*
%TO.P,C38,2*%
%TO.N,GND*%
X101520000Y-112250000D03*
%TD*%
D15*
%TO.P,C22,1*%
%TO.N,3.3V*%
X112270000Y-109000000D03*
%TO.P,C22,2*%
%TO.N,GND*%
X113230000Y-109000000D03*
%TD*%
D16*
%TO.P,C49,1*%
%TO.N,3.3V*%
X109500000Y-106460000D03*
%TO.P,C49,2*%
%TO.N,GND*%
X109500000Y-105500000D03*
%TD*%
D13*
%TO.P,C16,1*%
%TO.N,3.3V*%
X108250000Y-100770000D03*
%TO.P,C16,2*%
%TO.N,GND*%
X108250000Y-101730000D03*
%TD*%
D14*
%TO.P,C32,2*%
%TO.N,GND*%
X91270000Y-111500000D03*
%TO.P,C32,1*%
%TO.N,3.3V*%
X92230000Y-111500000D03*
%TD*%
D16*
%TO.P,C11,1*%
%TO.N,1V*%
X103000000Y-98500000D03*
%TO.P,C11,2*%
%TO.N,GND*%
X103000000Y-97540000D03*
%TD*%
D14*
%TO.P,C25,1*%
%TO.N,3.3V*%
X107480000Y-114500000D03*
%TO.P,C25,2*%
%TO.N,GND*%
X106520000Y-114500000D03*
%TD*%
D16*
%TO.P,C29,1*%
%TO.N,3.3V*%
X94500000Y-115480000D03*
%TO.P,C29,2*%
%TO.N,GND*%
X94500000Y-114520000D03*
%TD*%
%TO.P,C10,2*%
%TO.N,GND*%
X105250000Y-97500000D03*
%TO.P,C10,1*%
%TO.N,1V*%
X105250000Y-98460000D03*
%TD*%
D13*
%TO.P,C24,1*%
%TO.N,3.3V*%
X95500000Y-101520000D03*
%TO.P,C24,2*%
%TO.N,GND*%
X95500000Y-102480000D03*
%TD*%
D15*
%TO.P,C23,1*%
%TO.N,3.3V*%
X99520000Y-100500000D03*
%TO.P,C23,2*%
%TO.N,GND*%
X100480000Y-100500000D03*
%TD*%
D13*
%TO.P,C3,1*%
%TO.N,1.8V*%
X102000000Y-105270000D03*
%TO.P,C3,2*%
%TO.N,GND*%
X102000000Y-106230000D03*
%TD*%
D15*
%TO.P,C1,1*%
%TO.N,1.8V*%
X104020000Y-108250000D03*
%TO.P,C1,2*%
%TO.N,GND*%
X104980000Y-108250000D03*
%TD*%
D14*
%TO.P,C15,1*%
%TO.N,3.3V*%
X109460000Y-110250000D03*
%TO.P,C15,2*%
%TO.N,GND*%
X108500000Y-110250000D03*
%TD*%
D15*
%TO.P,C19,1*%
%TO.N,3.3V*%
X112310000Y-106500000D03*
%TO.P,C19,2*%
%TO.N,GND*%
X113270000Y-106500000D03*
%TD*%
%TO.P,C20,2*%
%TO.N,GND*%
X113270000Y-111500000D03*
%TO.P,C20,1*%
%TO.N,3.3V*%
X112310000Y-111500000D03*
%TD*%
%TO.P,C26,1*%
%TO.N,3.3V*%
X95520000Y-109500000D03*
%TO.P,C26,2*%
%TO.N,GND*%
X96480000Y-109500000D03*
%TD*%
%TO.P,C35,1*%
%TO.N,3.3V*%
X101020000Y-103750000D03*
%TO.P,C35,2*%
%TO.N,GND*%
X101980000Y-103750000D03*
%TD*%
D16*
%TO.P,C5,1*%
%TO.N,1.8V*%
X100500000Y-98500000D03*
%TO.P,C5,2*%
%TO.N,GND*%
X100500000Y-97540000D03*
%TD*%
D15*
%TO.P,C21,1*%
%TO.N,3.3V*%
X112310000Y-104000000D03*
%TO.P,C21,2*%
%TO.N,GND*%
X113270000Y-104000000D03*
%TD*%
%TO.P,C18,1*%
%TO.N,3.3V*%
X107770000Y-112250000D03*
%TO.P,C18,2*%
%TO.N,GND*%
X108730000Y-112250000D03*
%TD*%
D14*
%TO.P,C34,2*%
%TO.N,GND*%
X91250000Y-109000000D03*
%TO.P,C34,1*%
%TO.N,3.3V*%
X92210000Y-109000000D03*
%TD*%
D16*
%TO.P,C4,1*%
%TO.N,1.8V*%
X98000000Y-98500000D03*
%TO.P,C4,2*%
%TO.N,GND*%
X98000000Y-97540000D03*
%TD*%
D14*
%TO.P,C36,2*%
%TO.N,GND*%
X103270000Y-115500000D03*
%TO.P,C36,1*%
%TO.N,3.3V*%
X104230000Y-115500000D03*
%TD*%
D15*
%TO.P,C37,1*%
%TO.N,3.3V*%
X104540000Y-102500000D03*
%TO.P,C37,2*%
%TO.N,GND*%
X105500000Y-102500000D03*
%TD*%
D16*
%TO.P,C17,1*%
%TO.N,3.3V*%
X97500000Y-114210000D03*
%TO.P,C17,2*%
%TO.N,GND*%
X97500000Y-113250000D03*
%TD*%
D14*
%TO.P,C31,2*%
%TO.N,GND*%
X91270000Y-103750000D03*
%TO.P,C31,1*%
%TO.N,3.3V*%
X92230000Y-103750000D03*
%TD*%
%TO.P,C27,1*%
%TO.N,3.3V*%
X98480000Y-110500000D03*
%TO.P,C27,2*%
%TO.N,GND*%
X97520000Y-110500000D03*
%TD*%
%TO.P,C33,2*%
%TO.N,GND*%
X91270000Y-106500000D03*
%TO.P,C33,1*%
%TO.N,3.3V*%
X92230000Y-106500000D03*
%TD*%
D15*
%TO.P,C13,2*%
%TO.N,GND*%
X106730000Y-105250000D03*
%TO.P,C13,1*%
%TO.N,1V*%
X105770000Y-105250000D03*
%TD*%
D13*
%TO.P,C2,1*%
%TO.N,1.8V*%
X105500000Y-109500000D03*
%TO.P,C2,2*%
%TO.N,GND*%
X105500000Y-110460000D03*
%TD*%
D16*
%TO.P,C12,1*%
%TO.N,1V*%
X98500000Y-105980000D03*
%TO.P,C12,2*%
%TO.N,GND*%
X98500000Y-105020000D03*
%TD*%
%TO.P,C28,1*%
%TO.N,3.3V*%
X94500000Y-104480000D03*
%TO.P,C28,2*%
%TO.N,GND*%
X94500000Y-103520000D03*
%TD*%
%TO.P,C7,1*%
%TO.N,1V*%
X102000000Y-110230000D03*
%TO.P,C7,2*%
%TO.N,GND*%
X102000000Y-109270000D03*
%TD*%
D17*
%TO.N,PG4*%
X107500000Y-87200000D03*
%TO.N,EN3*%
X86650000Y-89650000D03*
%TO.N,EN2*%
X86650000Y-88450000D03*
%TO.N,EN4*%
X86650000Y-87250000D03*
%TO.N,1.2V*%
X107900000Y-94850000D03*
%TO.N,GND*%
X109000000Y-95000000D03*
X95050000Y-81800000D03*
X104550000Y-84900000D03*
X92600000Y-84050000D03*
%TO.N,TDO*%
X101050000Y-112950000D03*
%TO.N,TMS*%
X82650000Y-77250000D03*
%TO.N,TCK*%
X84500000Y-77250000D03*
%TO.N,TDO*%
X86500000Y-77250000D03*
%TO.N,TDI*%
X88500000Y-77250000D03*
%TO.N,Net-(U1C-PROGRAM_B_0)*%
X119350000Y-93250000D03*
%TO.N,1.8V*%
X102850000Y-120950000D03*
%TO.N,Net-(J4-Pin_7)*%
X101050857Y-100002898D03*
%TO.N,Net-(J4-Pin_6)*%
X102950000Y-100050000D03*
%TO.N,Net-(J4-Pin_4)*%
X103950000Y-100050000D03*
%TO.N,Net-(J3-Pin_6)*%
X122945000Y-110360000D03*
%TO.N,Net-(J3-Pin_8)*%
X122895000Y-115460000D03*
%TO.N,Net-(J3-Pin_4)*%
X122945000Y-105310000D03*
%TO.N,Net-(J3-Pin_5)*%
X119295000Y-107860000D03*
%TO.N,Net-(J3-Pin_2)*%
X122945000Y-100260000D03*
%TO.N,Net-(J3-Pin_3)*%
X119295000Y-102810000D03*
%TO.N,Net-(J3-Pin_9)*%
X119445000Y-118010000D03*
%TO.N,Net-(J3-Pin_10)*%
X122895000Y-120560000D03*
%TO.N,Net-(J3-Pin_7)*%
X119295000Y-112960000D03*
%TO.N,Net-(J3-Pin_1)*%
X119295000Y-97710000D03*
%TO.N,Net-(J4-Pin_9)*%
X81050000Y-118000000D03*
%TO.N,Net-(J4-Pin_7)*%
X81050000Y-112950000D03*
%TO.N,Net-(J4-Pin_5)*%
X81050000Y-107900000D03*
%TO.N,Net-(J4-Pin_3)*%
X81100000Y-102800000D03*
%TO.N,Net-(J4-Pin_1)*%
X81100000Y-97700000D03*
%TO.N,Net-(J4-Pin_2)*%
X84550000Y-100250000D03*
%TO.N,Net-(J4-Pin_4)*%
X84700000Y-105300000D03*
%TO.N,Net-(J4-Pin_6)*%
X84700000Y-110400000D03*
%TO.N,Net-(J4-Pin_8)*%
X84700000Y-115450000D03*
%TO.N,Net-(J4-Pin_10)*%
X84600000Y-120550000D03*
%TO.N,INIT_B*%
X122800000Y-93200000D03*
%TO.N,LED_Test*%
X116050000Y-95650000D03*
%TO.N,GND*%
X98150000Y-120000000D03*
X110550000Y-119100000D03*
X80500000Y-81500000D03*
X92500000Y-81500000D03*
X98500000Y-77300000D03*
X99600000Y-75700000D03*
X97300000Y-75700000D03*
%TO.N,EN1*%
X105800000Y-88000000D03*
%TO.N,GND*%
X121600000Y-86100000D03*
X117100000Y-86100000D03*
X107900000Y-86100000D03*
X112500000Y-86100000D03*
X123700000Y-75550000D03*
%TO.N,1V*%
X120250000Y-75550000D03*
%TO.N,1.2V*%
X116800000Y-75550000D03*
%TO.N,1.8V*%
X113350000Y-75550000D03*
%TO.N,3.3V*%
X92250000Y-102750000D03*
%TO.N,EN1*%
X95900000Y-88000000D03*
X94300000Y-84900000D03*
X94950000Y-84400000D03*
%TO.N,1V*%
X96750000Y-82650000D03*
%TO.N,EN3*%
X97250000Y-82000000D03*
%TO.N,EN1*%
X97750000Y-82650000D03*
%TO.N,PG4*%
X99250000Y-82000000D03*
%TO.N,3.3V*%
X99750000Y-82650000D03*
%TO.N,EN4*%
X101650000Y-84100000D03*
%TO.N,EN1*%
X101700000Y-84900000D03*
X101200000Y-88100000D03*
%TO.N,EN3*%
X99900000Y-89450000D03*
%TO.N,1.2V*%
X100300000Y-88250000D03*
%TO.N,EN4*%
X98300000Y-89500000D03*
%TO.N,EN2*%
X97500000Y-89500000D03*
%TO.N,1.8V*%
X96750000Y-89150000D03*
%TO.N,GND*%
X98250000Y-91500000D03*
X91000000Y-91500000D03*
X101750000Y-91500000D03*
%TO.N,1.2V*%
X103500000Y-93000000D03*
%TO.N,GND*%
X94705553Y-92000000D03*
%TO.N,LX1*%
X101000000Y-90500000D03*
X95350000Y-89700000D03*
%TO.N,LX2*%
X94750000Y-91000000D03*
X94750000Y-88500000D03*
%TO.N,LX4*%
X103000000Y-87250000D03*
X102000000Y-88250000D03*
%TO.N,3.3V*%
X92850000Y-92950000D03*
%TO.N,1.8V*%
X96400000Y-92950000D03*
%TO.N,1V*%
X99950000Y-92950000D03*
%TO.N,1.2V*%
X103500000Y-93000000D03*
%TO.N,GND*%
X114750000Y-114000000D03*
X96250000Y-96000000D03*
X107750000Y-96000000D03*
X110500000Y-96000000D03*
%TO.N,1V*%
X111500000Y-98500000D03*
%TO.N,GND*%
X98000000Y-96750000D03*
X100500000Y-96750000D03*
X105250000Y-96750000D03*
X103000000Y-96750000D03*
%TO.N,1V*%
X106000000Y-98500000D03*
%TO.N,1.8V*%
X97250000Y-98500000D03*
X101250000Y-98500000D03*
%TO.N,1V*%
X102275000Y-98500000D03*
%TO.N,GND*%
X90500000Y-103750000D03*
X90500000Y-106500000D03*
X90500000Y-109000000D03*
X90500000Y-111500000D03*
X114000000Y-104000000D03*
X114000000Y-106500000D03*
X114000000Y-109000000D03*
X114000000Y-111500000D03*
%TO.N,3.3V*%
X100000000Y-104000000D03*
%TO.N,Net-(J3-Pin_1)*%
X108950000Y-115950000D03*
%TO.N,Net-(J3-Pin_9)*%
X105950000Y-111950000D03*
%TO.N,GND*%
X104950000Y-108950000D03*
X94050000Y-100050000D03*
%TO.N,3.3V*%
X99050000Y-110950000D03*
%TO.N,Net-(J3-Pin_6)*%
X108950000Y-113950000D03*
%TO.N,GND*%
X103950000Y-111950000D03*
%TO.N,1.8V*%
X104950000Y-109950000D03*
%TO.N,Net-(J4-Pin_3)*%
X103950000Y-101050000D03*
%TO.N,Net-(J4-Pin_8)*%
X102950000Y-102050000D03*
%TO.N,GND*%
X102950000Y-114950000D03*
%TO.N,Net-(J3-Pin_7)*%
X109950000Y-112950000D03*
%TO.N,Net-(U1C-PROGRAM_B_0)*%
X102950000Y-110950000D03*
%TO.N,1V*%
X100050000Y-105050000D03*
%TO.N,3.3V*%
X109950000Y-100050000D03*
%TO.N,Net-(J4-Pin_2)*%
X104950000Y-101050000D03*
%TO.N,GND*%
X98050000Y-112950000D03*
%TO.N,3.3V*%
X100050000Y-114000000D03*
%TO.N,1V*%
X99050000Y-106050000D03*
%TO.N,GND*%
X106950000Y-106050000D03*
X108950000Y-102050000D03*
%TO.N,INIT_B*%
X103950000Y-109950000D03*
%TO.N,GND*%
X100050000Y-106050000D03*
%TO.N,TMS*%
X100050000Y-111950000D03*
%TO.N,GND*%
X109950000Y-105050000D03*
%TO.N,1.8V*%
X103950000Y-110950000D03*
%TO.N,DONE*%
X103950000Y-107050000D03*
%TO.N,3.3V*%
X95050000Y-108950000D03*
X107950000Y-104050000D03*
%TO.N,TDI*%
X100050000Y-112950000D03*
%TO.N,GND*%
X101050000Y-111950000D03*
X99050000Y-105050000D03*
%TO.N,Net-(J4-Pin_10)*%
X103950000Y-103050000D03*
%TO.N,1.8V*%
X101270000Y-105270000D03*
%TO.N,3.3V*%
X96050000Y-101050000D03*
%TO.N,1.8V*%
X104169194Y-105999430D03*
%TO.N,3.3V*%
X104950000Y-115950000D03*
%TO.N,GND*%
X103950000Y-105050000D03*
X101050000Y-101050000D03*
%TO.N,Net-(U1C-VREFP_0)*%
X101050000Y-108950000D03*
%TO.N,3.3V*%
X97050000Y-104050000D03*
%TO.N,Net-(J4-Pin_5)*%
X102950000Y-101050000D03*
%TO.N,GND*%
X109950000Y-115950000D03*
%TO.N,3.3V*%
X100050000Y-103050000D03*
X103950000Y-102050000D03*
X94050000Y-105050000D03*
%TO.N,GND*%
X104950000Y-110950000D03*
%TO.N,3.3V*%
X103950000Y-112950000D03*
X106950000Y-111950000D03*
%TO.N,1V*%
X99050000Y-108950000D03*
%TO.N,3.3V*%
X109950000Y-110950000D03*
%TO.N,GND*%
X95050000Y-113950000D03*
X102950000Y-104050000D03*
X99050000Y-109950000D03*
X104950000Y-100050000D03*
X98050000Y-102050000D03*
%TO.N,3.3V*%
X105750000Y-108750000D03*
X104950000Y-111950000D03*
X102950000Y-111950000D03*
X94050000Y-115950000D03*
%TO.N,Net-(J3-Pin_8)*%
X109950000Y-111950000D03*
%TO.N,1V*%
X102950000Y-105050000D03*
%TO.N,GND*%
X99050000Y-107050000D03*
%TO.N,1.8V*%
X103950000Y-108950000D03*
%TO.N,1V*%
X102925000Y-109925000D03*
%TO.N,GND*%
X96050000Y-106050000D03*
%TO.N,3.3V*%
X106950000Y-101050000D03*
%TO.N,1V*%
X101075000Y-110925000D03*
%TO.N,3.3V*%
X108950000Y-110950000D03*
%TO.N,Net-(J3-Pin_2)*%
X107950000Y-115950000D03*
%TO.N,1V*%
X104950000Y-105050000D03*
%TO.N,GND*%
X102950000Y-106050000D03*
X100050000Y-107050000D03*
X94050000Y-110950000D03*
X105950000Y-113950000D03*
X105950000Y-103050000D03*
%TO.N,1V*%
X102950000Y-107050000D03*
%TO.N,3.3V*%
X96050000Y-111950000D03*
%TO.N,1V*%
X103950000Y-104050000D03*
%TO.N,GND*%
X99050000Y-115950000D03*
X102950000Y-108950000D03*
%TO.N,Net-(J3-Pin_5)*%
X109950000Y-113950000D03*
%TO.N,LED_Test*%
X106950000Y-112950000D03*
%TO.N,GND*%
X108950000Y-112950000D03*
%TO.N,Net-(J3-Pin_4)*%
X108950000Y-114950000D03*
%TO.N,Net-(J4-Pin_1)*%
X105950000Y-101050000D03*
%TO.N,Net-(J3-Pin_3)*%
X109950000Y-114950000D03*
%TO.N,GND*%
X107950000Y-109950000D03*
%TO.N,TCK*%
X100050000Y-110950000D03*
%TO.N,3.3V*%
X97050000Y-114950000D03*
%TO.N,GND*%
X97050000Y-109950000D03*
%TO.N,3.3V*%
X108950000Y-107050000D03*
X107950000Y-114950000D03*
%TO.N,Net-(J4-Pin_9)*%
X101050000Y-102050000D03*
%TO.N,3.3V*%
X99050000Y-100050000D03*
%TO.N,1.8V*%
X101050000Y-106050000D03*
%TO.N,CLK*%
X107950000Y-112950000D03*
%TO.N,Net-(J3-Pin_10)*%
X105950000Y-110950000D03*
%TO.N,GND*%
X95050000Y-103050000D03*
%TD*%
D18*
%TO.N,PG4*%
X100020674Y-83550000D02*
X99250000Y-82779326D01*
X107500000Y-87200000D02*
X103850000Y-83550000D01*
X103850000Y-83550000D02*
X100020674Y-83550000D01*
X99250000Y-82779326D02*
X99250000Y-82000000D01*
D19*
%TO.N,3.3V*%
X100050000Y-114000000D02*
X101500000Y-114000000D01*
X101500000Y-114000000D02*
X102480000Y-113020000D01*
X102480000Y-113020000D02*
X102480000Y-112250000D01*
X92250000Y-102750000D02*
X92250000Y-103730000D01*
X92250000Y-103730000D02*
X92230000Y-103750000D01*
D20*
%TO.N,LX1*%
X95350000Y-89700000D02*
X95700000Y-90050000D01*
X95700000Y-90050000D02*
X100550000Y-90050000D01*
X100550000Y-90050000D02*
X101000000Y-90500000D01*
D19*
%TO.N,GND*%
X94705553Y-92000000D02*
X92500000Y-92000000D01*
X92500000Y-92000000D02*
X92000000Y-91500000D01*
X98250000Y-91500000D02*
X95525000Y-91500000D01*
X95525000Y-91500000D02*
X95500000Y-91475000D01*
X101750000Y-91500000D02*
X98250000Y-91500000D01*
X99000000Y-91500000D02*
X98250000Y-91500000D01*
%TO.N,1V*%
X99000000Y-93050000D02*
X99850000Y-93050000D01*
X99850000Y-93050000D02*
X99950000Y-92950000D01*
%TO.N,3.3V*%
X92000000Y-93050000D02*
X92750000Y-93050000D01*
X92750000Y-93050000D02*
X92850000Y-92950000D01*
%TO.N,GND*%
X92000000Y-91500000D02*
X91000000Y-91500000D01*
X102500000Y-91500000D02*
X101750000Y-91500000D01*
%TO.N,1.2V*%
X102500000Y-93050000D02*
X103450000Y-93050000D01*
X103450000Y-93050000D02*
X103500000Y-93000000D01*
%TO.N,GND*%
X95230553Y-91475000D02*
X94705553Y-92000000D01*
X95500000Y-91475000D02*
X95230553Y-91475000D01*
%TO.N,1.8V*%
X95500000Y-93025000D02*
X96325000Y-93025000D01*
X96325000Y-93025000D02*
X96400000Y-92950000D01*
D20*
%TO.N,LX2*%
X94750000Y-88500000D02*
X94750000Y-91000000D01*
%TO.N,LX4*%
X103000000Y-87250000D02*
X102000000Y-88250000D01*
D19*
%TO.N,GND*%
X113775000Y-114000000D02*
X114750000Y-114000000D01*
X113775000Y-114000000D02*
X113775000Y-112005000D01*
X113775000Y-112005000D02*
X113270000Y-111500000D01*
%TO.N,3.3V*%
X112225000Y-114000000D02*
X112225000Y-111585000D01*
X112225000Y-111585000D02*
X112310000Y-111500000D01*
%TO.N,GND*%
X96250000Y-96975000D02*
X96250000Y-96000000D01*
X107750000Y-96975000D02*
X107750000Y-96000000D01*
X110500000Y-96975000D02*
X110500000Y-96000000D01*
%TO.N,1V*%
X111475000Y-98525000D02*
X111500000Y-98500000D01*
X110500000Y-98525000D02*
X111475000Y-98525000D01*
X110500000Y-98525000D02*
X107750000Y-98525000D01*
%TO.N,GND*%
X110500000Y-96975000D02*
X107750000Y-96975000D01*
X107750000Y-96975000D02*
X105475000Y-96975000D01*
X105475000Y-96975000D02*
X105250000Y-96750000D01*
%TO.N,1V*%
X107750000Y-98525000D02*
X106025000Y-98525000D01*
X106025000Y-98525000D02*
X106000000Y-98500000D01*
%TO.N,GND*%
X96250000Y-96975000D02*
X97775000Y-96975000D01*
X97775000Y-96975000D02*
X98000000Y-96750000D01*
%TO.N,1.8V*%
X96250000Y-98525000D02*
X97225000Y-98525000D01*
X97225000Y-98525000D02*
X97250000Y-98500000D01*
%TO.N,1V*%
X98450000Y-108350000D02*
X98450000Y-106030000D01*
X99050000Y-108950000D02*
X98450000Y-108350000D01*
X103950000Y-104050000D02*
X102275000Y-102375000D01*
X102275000Y-102375000D02*
X102275000Y-98500000D01*
%TO.N,3.3V*%
X104540000Y-102500000D02*
X104540000Y-102190001D01*
X104540000Y-102190001D02*
X105080001Y-101650000D01*
X105080001Y-101650000D02*
X106350000Y-101650000D01*
X106350000Y-101650000D02*
X106950000Y-101050000D01*
%TO.N,GND*%
X103000000Y-97540000D02*
X105210000Y-97540000D01*
X105210000Y-97540000D02*
X105250000Y-97500000D01*
X100500000Y-97540000D02*
X98000000Y-97540000D01*
X98000000Y-97540000D02*
X98000000Y-96750000D01*
X100500000Y-97540000D02*
X100500000Y-96750000D01*
X105250000Y-97500000D02*
X105250000Y-96750000D01*
X103000000Y-97540000D02*
X103000000Y-96750000D01*
%TO.N,1V*%
X105960000Y-98460000D02*
X106000000Y-98500000D01*
X105250000Y-98460000D02*
X105960000Y-98460000D01*
X103000000Y-98500000D02*
X105210000Y-98500000D01*
%TO.N,1.8V*%
X98000000Y-98500000D02*
X97250000Y-98500000D01*
X100500000Y-98500000D02*
X101250000Y-98500000D01*
%TO.N,1V*%
X103000000Y-98500000D02*
X102275000Y-98500000D01*
%TO.N,1.8V*%
X100500000Y-98500000D02*
X98000000Y-98500000D01*
%TO.N,GND*%
X91270000Y-103750000D02*
X90500000Y-103750000D01*
X91270000Y-106500000D02*
X90500000Y-106500000D01*
X91250000Y-109000000D02*
X90500000Y-109000000D01*
X91270000Y-111500000D02*
X90500000Y-111500000D01*
X113270000Y-104000000D02*
X114000000Y-104000000D01*
X113270000Y-106500000D02*
X114000000Y-106500000D01*
X113230000Y-109000000D02*
X114000000Y-109000000D01*
X113270000Y-111500000D02*
X114000000Y-111500000D01*
X113270000Y-104000000D02*
X113270000Y-111500000D01*
X91270000Y-111500000D02*
X91270000Y-103750000D01*
%TO.N,3.3V*%
X107950000Y-104050000D02*
X107950000Y-105219999D01*
X107950000Y-105219999D02*
X109190001Y-106460000D01*
X109190001Y-106460000D02*
X109500000Y-106460000D01*
%TO.N,1V*%
X100050000Y-105050000D02*
X100510000Y-104590000D01*
X100510000Y-104590000D02*
X102490000Y-104590000D01*
X102490000Y-104590000D02*
X102950000Y-105050000D01*
%TO.N,1.8V*%
X101270000Y-105270000D02*
X101050000Y-105490000D01*
X101050000Y-105490000D02*
X101050000Y-106050000D01*
X101270000Y-105270000D02*
X102000000Y-105270000D01*
%TO.N,1V*%
X100050000Y-105050000D02*
X99340000Y-104340000D01*
X99340000Y-104340000D02*
X97910000Y-104340000D01*
X97910000Y-104340000D02*
X97790000Y-104460000D01*
X97790000Y-104460000D02*
X97790000Y-105579999D01*
X97790000Y-105579999D02*
X98190001Y-105980000D01*
X98190001Y-105980000D02*
X98500000Y-105980000D01*
X102950000Y-107050000D02*
X103550000Y-106450000D01*
X103550000Y-106450000D02*
X103550000Y-105650000D01*
X103550000Y-105650000D02*
X102950000Y-105050000D01*
%TO.N,1.8V*%
X104169194Y-105999430D02*
X104550000Y-106380236D01*
X104550000Y-106380236D02*
X104550000Y-107410001D01*
X104550000Y-107410001D02*
X104020000Y-107940001D01*
X104020000Y-107940001D02*
X104020000Y-108250000D01*
X104020000Y-108250000D02*
X102942444Y-108250000D01*
X102942444Y-108250000D02*
X101050000Y-106357556D01*
X101050000Y-106357556D02*
X101050000Y-106050000D01*
%TO.N,1V*%
X102000000Y-110230000D02*
X100330000Y-110230000D01*
X100330000Y-110230000D02*
X99050000Y-108950000D01*
%TO.N,3.3V*%
X99050000Y-110950000D02*
X99050000Y-113820000D01*
X99050000Y-113820000D02*
X99500000Y-114270000D01*
X105750000Y-108750000D02*
X105827556Y-108750000D01*
X105827556Y-108750000D02*
X106950000Y-109872444D01*
X106950000Y-109872444D02*
X106950000Y-111950000D01*
X95500000Y-101520000D02*
X94460000Y-101520000D01*
X94460000Y-101520000D02*
X92230000Y-103750000D01*
X94500000Y-104480000D02*
X94250000Y-104480000D01*
X94250000Y-104480000D02*
X92230000Y-106500000D01*
X95520000Y-109500000D02*
X92710000Y-109500000D01*
X92710000Y-109500000D02*
X92210000Y-109000000D01*
X96050000Y-111950000D02*
X92680000Y-111950000D01*
X92680000Y-111950000D02*
X92230000Y-111500000D01*
X96050000Y-111950000D02*
X96050000Y-113069999D01*
X97190001Y-114210000D02*
X97500000Y-114210000D01*
X96050000Y-113069999D02*
X97190001Y-114210000D01*
X92230000Y-111500000D02*
X92230000Y-113519999D01*
X92230000Y-113519999D02*
X94190001Y-115480000D01*
X94190001Y-115480000D02*
X94500000Y-115480000D01*
X112310000Y-104000000D02*
X109080000Y-100770000D01*
X109080000Y-100770000D02*
X108250000Y-100770000D01*
X112310000Y-111500000D02*
X110500000Y-111500000D01*
X110500000Y-111500000D02*
X109950000Y-110950000D01*
X112310000Y-106500000D02*
X109500000Y-106500000D01*
X109500000Y-106500000D02*
X108950000Y-107050000D01*
X98480000Y-110500000D02*
X98650000Y-110670000D01*
X98480000Y-110500000D02*
X98480000Y-110190001D01*
X98480000Y-110190001D02*
X97079999Y-108790000D01*
X97079999Y-108790000D02*
X95920001Y-108790000D01*
X95520000Y-109190001D02*
X95520000Y-109500000D01*
X95920001Y-108790000D02*
X95520000Y-109190001D01*
%TO.N,1V*%
X98450000Y-106030000D02*
X98500000Y-105980000D01*
%TO.N,3.3V*%
X106350000Y-113350000D02*
X106350000Y-112750000D01*
X106350000Y-112750000D02*
X106350000Y-112550000D01*
X104950000Y-111950000D02*
X105750000Y-112750000D01*
X105750000Y-112750000D02*
X106350000Y-112750000D01*
X103950000Y-112950000D02*
X104950000Y-111950000D01*
X107480000Y-114500000D02*
X107480000Y-114190001D01*
X107480000Y-114190001D02*
X106865735Y-113575736D01*
X106575736Y-113575736D02*
X106350000Y-113350000D01*
X106865735Y-113575736D02*
X106575736Y-113575736D01*
X106350000Y-112550000D02*
X106950000Y-111950000D01*
X104230000Y-115500000D02*
X104230000Y-113230000D01*
X104230000Y-113230000D02*
X103950000Y-112950000D01*
X99500000Y-114270000D02*
X97560000Y-114270000D01*
X97560000Y-114270000D02*
X97500000Y-114210000D01*
X97050000Y-114950000D02*
X96520000Y-115480000D01*
X96520000Y-115480000D02*
X94500000Y-115480000D01*
X99050000Y-100050000D02*
X97050000Y-100050000D01*
X97050000Y-100050000D02*
X96050000Y-101050000D01*
X100050000Y-103050000D02*
X99520000Y-102520000D01*
X99520000Y-102520000D02*
X99520000Y-100500000D01*
%TO.N,GND*%
X101980000Y-103750000D02*
X102650000Y-103750000D01*
X102650000Y-103750000D02*
X102950000Y-104050000D01*
%TO.N,3.3V*%
X100050000Y-103050000D02*
X100320000Y-103050000D01*
X100320000Y-103050000D02*
X101020000Y-103750000D01*
X100000000Y-104000000D02*
X100000000Y-103100000D01*
X100000000Y-103100000D02*
X100050000Y-103050000D01*
X97050000Y-104050000D02*
X97050000Y-102050000D01*
X97050000Y-102050000D02*
X96050000Y-101050000D01*
X97050000Y-104050000D02*
X96620000Y-104480000D01*
X96620000Y-104480000D02*
X94500000Y-104480000D01*
%TO.N,1V*%
X103950000Y-104050000D02*
X104950000Y-105050000D01*
X102950000Y-105050000D02*
X103950000Y-104050000D01*
%TO.N,3.3V*%
X107770000Y-112250000D02*
X107770000Y-112130000D01*
X107770000Y-112130000D02*
X108950000Y-110950000D01*
X102950000Y-111950000D02*
X103950000Y-112950000D01*
%TO.N,GND*%
X108250000Y-101730000D02*
X108630000Y-101730000D01*
X108630000Y-101730000D02*
X108950000Y-102050000D01*
%TO.N,3.3V*%
X108250000Y-100770000D02*
X109230000Y-100770000D01*
X109230000Y-100770000D02*
X109950000Y-100050000D01*
X108250000Y-100770000D02*
X107230000Y-100770000D01*
X107230000Y-100770000D02*
X106950000Y-101050000D01*
%TO.N,GND*%
X100480000Y-100500000D02*
X100500000Y-100500000D01*
X100500000Y-100500000D02*
X101050000Y-101050000D01*
%TO.N,3.3V*%
X99520000Y-100500000D02*
X99500000Y-100500000D01*
X99500000Y-100500000D02*
X99050000Y-100050000D01*
%TO.N,GND*%
X100050000Y-107050000D02*
X99050000Y-107050000D01*
X100050000Y-106050000D02*
X100050000Y-107050000D01*
X99050000Y-105050000D02*
X100050000Y-106050000D01*
X102000000Y-106230000D02*
X102770000Y-106230000D01*
X102770000Y-106230000D02*
X102950000Y-106050000D01*
X105500000Y-102500000D02*
X105500000Y-102600000D01*
X105500000Y-102600000D02*
X105950000Y-103050000D01*
%TO.N,3.3V*%
X104250000Y-102500000D02*
X104000000Y-102250000D01*
X104540000Y-102500000D02*
X104250000Y-102500000D01*
X104000000Y-102100000D02*
X103950000Y-102050000D01*
X104000000Y-102250000D02*
X104000000Y-102100000D01*
%TO.N,1V*%
X105770000Y-105250000D02*
X105150000Y-105250000D01*
X105150000Y-105250000D02*
X104950000Y-105050000D01*
%TO.N,GND*%
X106730000Y-105250000D02*
X106730000Y-105830000D01*
X106730000Y-105830000D02*
X106950000Y-106050000D01*
X109500000Y-105500000D02*
X109950000Y-105050000D01*
%TO.N,3.3V*%
X109500000Y-106460000D02*
X109500000Y-106500000D01*
%TO.N,GND*%
X102000000Y-109270000D02*
X102630000Y-109270000D01*
X102630000Y-109270000D02*
X102950000Y-108950000D01*
%TO.N,1V*%
X102000000Y-110230000D02*
X101770000Y-110230000D01*
X101770000Y-110230000D02*
X101075000Y-110925000D01*
X102925000Y-109925000D02*
X102620000Y-110230000D01*
X102620000Y-110230000D02*
X102000000Y-110230000D01*
%TO.N,GND*%
X105500000Y-110460000D02*
X105440000Y-110460000D01*
X105440000Y-110460000D02*
X104950000Y-110950000D01*
%TO.N,1.8V*%
X104875000Y-109875000D02*
X103950000Y-108950000D01*
X104950000Y-109950000D02*
X104875000Y-109875000D01*
X104875000Y-109875000D02*
X105250000Y-109500000D01*
X105250000Y-109500000D02*
X105500000Y-109500000D01*
%TO.N,GND*%
X104950000Y-108950000D02*
X104950000Y-108280000D01*
X104950000Y-108280000D02*
X104980000Y-108250000D01*
%TO.N,1.8V*%
X104020000Y-108250000D02*
X104020000Y-108880000D01*
X104020000Y-108880000D02*
X103950000Y-108950000D01*
%TO.N,3.3V*%
X108950000Y-110950000D02*
X109950000Y-110950000D01*
%TO.N,GND*%
X108500000Y-110250000D02*
X108250000Y-110250000D01*
X108250000Y-110250000D02*
X107950000Y-109950000D01*
%TO.N,3.3V*%
X109950000Y-110950000D02*
X109950000Y-110740000D01*
X109950000Y-110740000D02*
X109460000Y-110250000D01*
X108950000Y-110950000D02*
X109460000Y-110440000D01*
X109460000Y-110440000D02*
X109460000Y-110250000D01*
%TO.N,GND*%
X108730000Y-112250000D02*
X108730000Y-112730000D01*
X108730000Y-112730000D02*
X108950000Y-112950000D01*
%TO.N,3.3V*%
X107770000Y-112250000D02*
X107250000Y-112250000D01*
X107250000Y-112250000D02*
X106950000Y-111950000D01*
X107480000Y-114500000D02*
X107500000Y-114500000D01*
X107500000Y-114500000D02*
X107950000Y-114950000D01*
%TO.N,GND*%
X106520000Y-114500000D02*
X106500000Y-114500000D01*
X106500000Y-114500000D02*
X105950000Y-113950000D01*
%TO.N,3.3V*%
X104230000Y-115500000D02*
X104500000Y-115500000D01*
X104500000Y-115500000D02*
X104950000Y-115950000D01*
%TO.N,GND*%
X103270000Y-115500000D02*
X103270000Y-115270000D01*
X103270000Y-115270000D02*
X102950000Y-114950000D01*
%TO.N,3.3V*%
X102480000Y-112250000D02*
X102650000Y-112250000D01*
X102650000Y-112250000D02*
X102950000Y-111950000D01*
%TO.N,GND*%
X101520000Y-112250000D02*
X101350000Y-112250000D01*
X101350000Y-112250000D02*
X101050000Y-111950000D01*
%TO.N,3.3V*%
X99500000Y-114270000D02*
X99780000Y-114270000D01*
X99780000Y-114270000D02*
X100050000Y-114000000D01*
%TO.N,GND*%
X99500000Y-115230000D02*
X99500000Y-115500000D01*
X99500000Y-115500000D02*
X99050000Y-115950000D01*
X94500000Y-114520000D02*
X94500000Y-114500000D01*
X94500000Y-114500000D02*
X95050000Y-113950000D01*
%TO.N,3.3V*%
X94500000Y-115480000D02*
X94500000Y-115500000D01*
X94500000Y-115500000D02*
X94050000Y-115950000D01*
%TO.N,GND*%
X97500000Y-113250000D02*
X97750000Y-113250000D01*
X97750000Y-113250000D02*
X98050000Y-112950000D01*
%TO.N,3.3V*%
X97500000Y-114210000D02*
X97500000Y-114500000D01*
X97500000Y-114500000D02*
X97050000Y-114950000D01*
X95520000Y-109500000D02*
X95520000Y-109420000D01*
X95520000Y-109420000D02*
X95050000Y-108950000D01*
%TO.N,GND*%
X97050000Y-109950000D02*
X96930000Y-109950000D01*
X96930000Y-109950000D02*
X96480000Y-109500000D01*
X97520000Y-110500000D02*
X97520000Y-110420000D01*
X97520000Y-110420000D02*
X97050000Y-109950000D01*
%TO.N,3.3V*%
X98480000Y-110500000D02*
X98600000Y-110500000D01*
X98600000Y-110500000D02*
X99050000Y-110950000D01*
%TO.N,1V*%
X99050000Y-106050000D02*
X98570000Y-106050000D01*
X98570000Y-106050000D02*
X98500000Y-105980000D01*
%TO.N,GND*%
X98500000Y-105020000D02*
X99020000Y-105020000D01*
X99020000Y-105020000D02*
X99050000Y-105050000D01*
%TO.N,3.3V*%
X95500000Y-101520000D02*
X95580000Y-101520000D01*
X95580000Y-101520000D02*
X96050000Y-101050000D01*
%TO.N,GND*%
X95050000Y-103050000D02*
X95050000Y-102930000D01*
X95050000Y-102930000D02*
X95500000Y-102480000D01*
X94500000Y-103520000D02*
X94580000Y-103520000D01*
X94580000Y-103520000D02*
X95050000Y-103050000D01*
%TO.N,3.3V*%
X94500000Y-104480000D02*
X94500000Y-104600000D01*
X94500000Y-104600000D02*
X94050000Y-105050000D01*
X92230000Y-103750000D02*
X92230000Y-111500000D01*
X112310000Y-111500000D02*
X112310000Y-104000000D01*
%TO.N,1.8V*%
X103950000Y-110950000D02*
X104950000Y-109950000D01*
%TD*%
M02*
