%TF.GenerationSoftware,KiCad,Pcbnew,7.0.10*%
%TF.CreationDate,2024-01-13T18:06:35+01:00*%
%TF.ProjectId,FPGA,46504741-2e6b-4696-9361-645f70636258,rev?*%
%TF.SameCoordinates,Original*%
%TF.FileFunction,Copper,L3,Inr*%
%TF.FilePolarity,Positive*%
%FSLAX46Y46*%
G04 Gerber Fmt 4.6, Leading zero omitted, Abs format (unit mm)*
G04 Created by KiCad (PCBNEW 7.0.10) date 2024-01-13 18:06:35*
%MOMM*%
%LPD*%
G01*
G04 APERTURE LIST*
%TA.AperFunction,ComponentPad*%
%ADD10C,1.000000*%
%TD*%
%TA.AperFunction,ViaPad*%
%ADD11C,0.400000*%
%TD*%
%TA.AperFunction,Conductor*%
%ADD12C,0.090000*%
%TD*%
%TA.AperFunction,Conductor*%
%ADD13C,0.300000*%
%TD*%
G04 APERTURE END LIST*
D10*
%TO.N,N/C*%
%TO.C,J1*%
X91500000Y-77375000D03*
X81500000Y-77375000D03*
%TD*%
D11*
%TO.N,PG4*%
X107500000Y-87200000D03*
%TO.N,EN3*%
X86650000Y-89650000D03*
%TO.N,EN2*%
X86650000Y-88450000D03*
%TO.N,EN4*%
X86650000Y-87250000D03*
%TO.N,1.2V*%
X107900000Y-94850000D03*
%TO.N,GND*%
X109000000Y-95000000D03*
X95050000Y-81800000D03*
X104550000Y-84900000D03*
X92600000Y-84050000D03*
%TO.N,TDO*%
X101050000Y-112950000D03*
%TO.N,TMS*%
X82650000Y-77250000D03*
%TO.N,TCK*%
X84500000Y-77250000D03*
%TO.N,TDO*%
X86500000Y-77250000D03*
%TO.N,TDI*%
X88500000Y-77250000D03*
%TO.N,Net-(U1C-PROGRAM_B_0)*%
X119350000Y-93250000D03*
%TO.N,1.8V*%
X102850000Y-120950000D03*
%TO.N,Net-(J4-Pin_7)*%
X101050857Y-100002898D03*
%TO.N,Net-(J4-Pin_6)*%
X102950000Y-100050000D03*
%TO.N,Net-(J4-Pin_4)*%
X103950000Y-100050000D03*
%TO.N,Net-(J3-Pin_6)*%
X122945000Y-110360000D03*
%TO.N,Net-(J3-Pin_8)*%
X122895000Y-115460000D03*
%TO.N,Net-(J3-Pin_4)*%
X122945000Y-105310000D03*
%TO.N,Net-(J3-Pin_5)*%
X119295000Y-107860000D03*
%TO.N,Net-(J3-Pin_2)*%
X122945000Y-100260000D03*
%TO.N,Net-(J3-Pin_3)*%
X119295000Y-102810000D03*
%TO.N,Net-(J3-Pin_9)*%
X119445000Y-118010000D03*
%TO.N,Net-(J3-Pin_10)*%
X122895000Y-120560000D03*
%TO.N,Net-(J3-Pin_7)*%
X119295000Y-112960000D03*
%TO.N,Net-(J3-Pin_1)*%
X119295000Y-97710000D03*
%TO.N,Net-(J4-Pin_9)*%
X81050000Y-118000000D03*
%TO.N,Net-(J4-Pin_7)*%
X81050000Y-112950000D03*
%TO.N,Net-(J4-Pin_5)*%
X81050000Y-107900000D03*
%TO.N,Net-(J4-Pin_3)*%
X81100000Y-102800000D03*
%TO.N,Net-(J4-Pin_1)*%
X81100000Y-97700000D03*
%TO.N,Net-(J4-Pin_2)*%
X84550000Y-100250000D03*
%TO.N,Net-(J4-Pin_4)*%
X84700000Y-105300000D03*
%TO.N,Net-(J4-Pin_6)*%
X84700000Y-110400000D03*
%TO.N,Net-(J4-Pin_8)*%
X84700000Y-115450000D03*
%TO.N,Net-(J4-Pin_10)*%
X84600000Y-120550000D03*
%TO.N,INIT_B*%
X122800000Y-93200000D03*
%TO.N,LED_Test*%
X116050000Y-95650000D03*
%TO.N,GND*%
X98150000Y-120000000D03*
X110550000Y-119100000D03*
X80500000Y-81500000D03*
X92500000Y-81500000D03*
X98500000Y-77300000D03*
X99600000Y-75700000D03*
X97300000Y-75700000D03*
%TO.N,EN1*%
X105800000Y-88000000D03*
%TO.N,GND*%
X121600000Y-86100000D03*
X117100000Y-86100000D03*
X107900000Y-86100000D03*
X112500000Y-86100000D03*
X123700000Y-75550000D03*
%TO.N,1V*%
X120250000Y-75550000D03*
%TO.N,1.2V*%
X116800000Y-75550000D03*
%TO.N,1.8V*%
X113350000Y-75550000D03*
%TO.N,3.3V*%
X92250000Y-102750000D03*
%TO.N,EN1*%
X95900000Y-88000000D03*
X94300000Y-84900000D03*
X94950000Y-84400000D03*
%TO.N,1V*%
X96750000Y-82650000D03*
%TO.N,EN3*%
X97250000Y-82000000D03*
%TO.N,EN1*%
X97750000Y-82650000D03*
%TO.N,PG4*%
X99250000Y-82000000D03*
%TO.N,3.3V*%
X99750000Y-82650000D03*
%TO.N,EN4*%
X101650000Y-84100000D03*
%TO.N,EN1*%
X101700000Y-84900000D03*
X101200000Y-88100000D03*
%TO.N,EN3*%
X99900000Y-89450000D03*
%TO.N,1.2V*%
X100300000Y-88250000D03*
%TO.N,EN4*%
X98300000Y-89500000D03*
%TO.N,EN2*%
X97500000Y-89500000D03*
%TO.N,1.8V*%
X96750000Y-89150000D03*
%TO.N,GND*%
X98250000Y-91500000D03*
X91000000Y-91500000D03*
X101750000Y-91500000D03*
%TO.N,1.2V*%
X103500000Y-93000000D03*
%TO.N,GND*%
X94705553Y-92000000D03*
%TO.N,LX1*%
X101000000Y-90500000D03*
X95350000Y-89700000D03*
%TO.N,LX2*%
X94750000Y-91000000D03*
X94750000Y-88500000D03*
%TO.N,LX4*%
X103000000Y-87250000D03*
X102000000Y-88250000D03*
%TO.N,3.3V*%
X92850000Y-92950000D03*
%TO.N,1.8V*%
X96400000Y-92950000D03*
%TO.N,1V*%
X99950000Y-92950000D03*
%TO.N,1.2V*%
X103500000Y-93000000D03*
%TO.N,GND*%
X114750000Y-114000000D03*
X96250000Y-96000000D03*
X107750000Y-96000000D03*
X110500000Y-96000000D03*
%TO.N,1V*%
X111500000Y-98500000D03*
%TO.N,GND*%
X98000000Y-96750000D03*
X100500000Y-96750000D03*
X105250000Y-96750000D03*
X103000000Y-96750000D03*
%TO.N,1V*%
X106000000Y-98500000D03*
%TO.N,1.8V*%
X97250000Y-98500000D03*
X101250000Y-98500000D03*
%TO.N,1V*%
X102275000Y-98500000D03*
%TO.N,GND*%
X90500000Y-103750000D03*
X90500000Y-106500000D03*
X90500000Y-109000000D03*
X90500000Y-111500000D03*
X114000000Y-104000000D03*
X114000000Y-106500000D03*
X114000000Y-109000000D03*
X114000000Y-111500000D03*
%TO.N,3.3V*%
X100000000Y-104000000D03*
%TO.N,Net-(J3-Pin_1)*%
X108950000Y-115950000D03*
%TO.N,Net-(J3-Pin_9)*%
X105950000Y-111950000D03*
%TO.N,GND*%
X104950000Y-108950000D03*
X94050000Y-100050000D03*
%TO.N,3.3V*%
X99050000Y-110950000D03*
%TO.N,Net-(J3-Pin_6)*%
X108950000Y-113950000D03*
%TO.N,GND*%
X103950000Y-111950000D03*
%TO.N,1.8V*%
X104950000Y-109950000D03*
%TO.N,Net-(J4-Pin_3)*%
X103950000Y-101050000D03*
%TO.N,Net-(J4-Pin_8)*%
X102950000Y-102050000D03*
%TO.N,GND*%
X102950000Y-114950000D03*
%TO.N,Net-(J3-Pin_7)*%
X109950000Y-112950000D03*
%TO.N,Net-(U1C-PROGRAM_B_0)*%
X102950000Y-110950000D03*
%TO.N,1V*%
X100050000Y-105050000D03*
%TO.N,3.3V*%
X109950000Y-100050000D03*
%TO.N,Net-(J4-Pin_2)*%
X104950000Y-101050000D03*
%TO.N,GND*%
X98050000Y-112950000D03*
%TO.N,3.3V*%
X100050000Y-114000000D03*
%TO.N,1V*%
X99050000Y-106050000D03*
%TO.N,GND*%
X106950000Y-106050000D03*
X108950000Y-102050000D03*
%TO.N,INIT_B*%
X103950000Y-109950000D03*
%TO.N,GND*%
X100050000Y-106050000D03*
%TO.N,TMS*%
X100050000Y-111950000D03*
%TO.N,GND*%
X109950000Y-105050000D03*
%TO.N,1.8V*%
X103950000Y-110950000D03*
%TO.N,DONE*%
X103950000Y-107050000D03*
%TO.N,3.3V*%
X95050000Y-108950000D03*
X107950000Y-104050000D03*
%TO.N,TDI*%
X100050000Y-112950000D03*
%TO.N,GND*%
X101050000Y-111950000D03*
X99050000Y-105050000D03*
%TO.N,Net-(J4-Pin_10)*%
X103950000Y-103050000D03*
%TO.N,1.8V*%
X101270000Y-105270000D03*
%TO.N,3.3V*%
X96050000Y-101050000D03*
%TO.N,1.8V*%
X104169194Y-105999430D03*
%TO.N,3.3V*%
X104950000Y-115950000D03*
%TO.N,GND*%
X103950000Y-105050000D03*
X101050000Y-101050000D03*
%TO.N,Net-(U1C-VREFP_0)*%
X101050000Y-108950000D03*
%TO.N,3.3V*%
X97050000Y-104050000D03*
%TO.N,Net-(J4-Pin_5)*%
X102950000Y-101050000D03*
%TO.N,GND*%
X109950000Y-115950000D03*
%TO.N,3.3V*%
X100050000Y-103050000D03*
X103950000Y-102050000D03*
X94050000Y-105050000D03*
%TO.N,GND*%
X104950000Y-110950000D03*
%TO.N,3.3V*%
X103950000Y-112950000D03*
X106950000Y-111950000D03*
%TO.N,1V*%
X99050000Y-108950000D03*
%TO.N,3.3V*%
X109950000Y-110950000D03*
%TO.N,GND*%
X95050000Y-113950000D03*
X102950000Y-104050000D03*
X99050000Y-109950000D03*
X104950000Y-100050000D03*
X98050000Y-102050000D03*
%TO.N,3.3V*%
X105750000Y-108750000D03*
X104950000Y-111950000D03*
X102950000Y-111950000D03*
X94050000Y-115950000D03*
%TO.N,Net-(J3-Pin_8)*%
X109950000Y-111950000D03*
%TO.N,1V*%
X102950000Y-105050000D03*
%TO.N,GND*%
X99050000Y-107050000D03*
%TO.N,1.8V*%
X103950000Y-108950000D03*
%TO.N,1V*%
X102925000Y-109925000D03*
%TO.N,GND*%
X96050000Y-106050000D03*
%TO.N,3.3V*%
X106950000Y-101050000D03*
%TO.N,1V*%
X101075000Y-110925000D03*
%TO.N,3.3V*%
X108950000Y-110950000D03*
%TO.N,Net-(J3-Pin_2)*%
X107950000Y-115950000D03*
%TO.N,1V*%
X104950000Y-105050000D03*
%TO.N,GND*%
X102950000Y-106050000D03*
X100050000Y-107050000D03*
X94050000Y-110950000D03*
X105950000Y-113950000D03*
X105950000Y-103050000D03*
%TO.N,1V*%
X102950000Y-107050000D03*
%TO.N,3.3V*%
X96050000Y-111950000D03*
%TO.N,1V*%
X103950000Y-104050000D03*
%TO.N,GND*%
X99050000Y-115950000D03*
X102950000Y-108950000D03*
%TO.N,Net-(J3-Pin_5)*%
X109950000Y-113950000D03*
%TO.N,LED_Test*%
X106950000Y-112950000D03*
%TO.N,GND*%
X108950000Y-112950000D03*
%TO.N,Net-(J3-Pin_4)*%
X108950000Y-114950000D03*
%TO.N,Net-(J4-Pin_1)*%
X105950000Y-101050000D03*
%TO.N,Net-(J3-Pin_3)*%
X109950000Y-114950000D03*
%TO.N,GND*%
X107950000Y-109950000D03*
%TO.N,TCK*%
X100050000Y-110950000D03*
%TO.N,3.3V*%
X97050000Y-114950000D03*
%TO.N,GND*%
X97050000Y-109950000D03*
%TO.N,3.3V*%
X108950000Y-107050000D03*
X107950000Y-114950000D03*
%TO.N,Net-(J4-Pin_9)*%
X101050000Y-102050000D03*
%TO.N,3.3V*%
X99050000Y-100050000D03*
%TO.N,1.8V*%
X101050000Y-106050000D03*
%TO.N,CLK*%
X107950000Y-112950000D03*
%TO.N,Net-(J3-Pin_10)*%
X105950000Y-110950000D03*
%TO.N,GND*%
X95050000Y-103050000D03*
%TD*%
D12*
%TO.N,TMS*%
X82650000Y-77250000D02*
X82650000Y-80573773D01*
X82650000Y-80573773D02*
X80605000Y-82618773D01*
X80605000Y-82618773D02*
X80605000Y-118184326D01*
X80605000Y-118184326D02*
X83415674Y-120995000D01*
X83415674Y-120995000D02*
X92134326Y-120995000D01*
X92134326Y-120995000D02*
X99550000Y-113579326D01*
X99550000Y-113579326D02*
X99550000Y-112450000D01*
X99550000Y-112450000D02*
X100050000Y-111950000D01*
%TO.N,TDO*%
X86500000Y-77250000D02*
X86055000Y-76805000D01*
X86055000Y-76805000D02*
X84315674Y-76805000D01*
X99125674Y-96305000D02*
X103184326Y-96305000D01*
X84315674Y-76805000D02*
X84055000Y-77065674D01*
X101495000Y-112505000D02*
X101050000Y-112950000D01*
X84055000Y-77065674D02*
X84055000Y-80934326D01*
X104395000Y-104234326D02*
X104024326Y-104605000D01*
X84055000Y-80934326D02*
X94565674Y-91445000D01*
X94565674Y-91445000D02*
X94895000Y-91445000D01*
X104395000Y-103344326D02*
X104395000Y-104234326D01*
X94895000Y-91445000D02*
X95955000Y-92505000D01*
X103445000Y-96934326D02*
X106395000Y-99884326D01*
X95955000Y-92505000D02*
X95955000Y-93134326D01*
X95955000Y-93134326D02*
X99125674Y-96305000D01*
X103184326Y-96305000D02*
X103445000Y-96565674D01*
X103445000Y-96565674D02*
X103445000Y-96934326D01*
X106395000Y-99884326D02*
X106395000Y-101344326D01*
X106395000Y-101344326D02*
X104395000Y-103344326D01*
X104024326Y-104605000D02*
X103695000Y-104605000D01*
X103695000Y-104605000D02*
X103400000Y-104900000D01*
X103400000Y-104900000D02*
X103400000Y-108460552D01*
X103400000Y-108460552D02*
X100910122Y-108460552D01*
X100910122Y-108460552D02*
X99605000Y-109765674D01*
X99605000Y-109765674D02*
X99605000Y-111134326D01*
X99605000Y-111134326D02*
X99975674Y-111505000D01*
X99975674Y-111505000D02*
X101355000Y-111505000D01*
X101355000Y-111505000D02*
X101495000Y-111645000D01*
X101495000Y-111645000D02*
X101495000Y-112505000D01*
%TO.N,TDI*%
X88500000Y-77250000D02*
X88500000Y-81229326D01*
X88500000Y-81229326D02*
X96236348Y-88965674D01*
X96236348Y-88965674D02*
X96236348Y-89286348D01*
X123390000Y-100075674D02*
X123390000Y-110544326D01*
X96236348Y-89286348D02*
X98005000Y-91055000D01*
X98005000Y-91055000D02*
X114369326Y-91055000D01*
X114369326Y-91055000D02*
X123390000Y-100075674D01*
X123390000Y-110544326D02*
X117144326Y-116790000D01*
X117144326Y-116790000D02*
X103890000Y-116790000D01*
X103890000Y-116790000D02*
X100050000Y-112950000D01*
%TO.N,TCK*%
X84500000Y-77250000D02*
X84500000Y-80120674D01*
X99934326Y-95555000D02*
X113764326Y-95555000D01*
X84500000Y-80120674D02*
X99934326Y-95555000D01*
X115474326Y-97265000D02*
X107134326Y-105605000D01*
X106665674Y-105605000D02*
X103505000Y-108765674D01*
X113764326Y-95555000D02*
X115474326Y-97265000D01*
X107134326Y-105605000D02*
X106665674Y-105605000D01*
X103505000Y-108765674D02*
X103505000Y-109084326D01*
X103505000Y-109084326D02*
X103109326Y-109480000D01*
X103109326Y-109480000D02*
X101520000Y-109480000D01*
X101520000Y-109480000D02*
X100050000Y-110950000D01*
%TO.N,Net-(J3-Pin_6)*%
X122945000Y-110360000D02*
X118800000Y-114505000D01*
X118800000Y-114505000D02*
X109505000Y-114505000D01*
X109505000Y-114505000D02*
X108950000Y-113950000D01*
%TO.N,Net-(J3-Pin_5)*%
X119295000Y-107860000D02*
X116040000Y-107860000D01*
X116040000Y-107860000D02*
X109950000Y-113950000D01*
%TO.N,Net-(J3-Pin_4)*%
X114565122Y-107950000D02*
X109050000Y-107950000D01*
X108505000Y-108495000D02*
X108505000Y-114505000D01*
X117205122Y-105310000D02*
X114565122Y-107950000D01*
X122945000Y-105310000D02*
X117205122Y-105310000D01*
X109050000Y-107950000D02*
X108505000Y-108495000D01*
X108505000Y-114505000D02*
X108950000Y-114950000D01*
%TO.N,Net-(J3-Pin_3)*%
X119295000Y-102810000D02*
X114610000Y-107495000D01*
X114610000Y-107495000D02*
X108444448Y-107495000D01*
X109505000Y-115395000D02*
X109950000Y-114950000D01*
X108444448Y-107495000D02*
X105395000Y-110544448D01*
X105395000Y-110544448D02*
X105395000Y-114095000D01*
X105395000Y-114095000D02*
X106695000Y-115395000D01*
X106695000Y-115395000D02*
X109505000Y-115395000D01*
%TO.N,Net-(J3-Pin_2)*%
X122945000Y-100260000D02*
X114890000Y-100260000D01*
X114890000Y-100260000D02*
X110395000Y-104755000D01*
X110395000Y-104755000D02*
X110395000Y-105234326D01*
X110134326Y-105495000D02*
X109665674Y-105495000D01*
X110395000Y-105234326D02*
X110134326Y-105495000D01*
X104395000Y-110850000D02*
X104395000Y-113684878D01*
X109665674Y-105495000D02*
X105395000Y-109765674D01*
X106660122Y-115950000D02*
X107950000Y-115950000D01*
X105395000Y-109765674D02*
X105395000Y-110134326D01*
X105395000Y-110134326D02*
X105134326Y-110395000D01*
X105134326Y-110395000D02*
X104850000Y-110395000D01*
X104850000Y-110395000D02*
X104395000Y-110850000D01*
X104395000Y-113684878D02*
X106660122Y-115950000D01*
%TO.N,Net-(J3-Pin_1)*%
X119295000Y-97710000D02*
X116160674Y-97710000D01*
X116160674Y-97710000D02*
X105365674Y-108505000D01*
X104395000Y-110244326D02*
X104139326Y-110500000D01*
X105365674Y-108505000D02*
X104765674Y-108505000D01*
X104765674Y-108505000D02*
X104395000Y-108875674D01*
X104395000Y-108875674D02*
X104395000Y-110244326D01*
X102450000Y-110820674D02*
X102450000Y-112150000D01*
X104139326Y-110500000D02*
X102770674Y-110500000D01*
X102770674Y-110500000D02*
X102450000Y-110820674D01*
X102450000Y-112150000D02*
X106800000Y-116500000D01*
X106800000Y-116500000D02*
X108400000Y-116500000D01*
X108400000Y-116500000D02*
X108950000Y-115950000D01*
%TO.N,Net-(J4-Pin_1)*%
X81100000Y-97700000D02*
X81325000Y-97475000D01*
X81325000Y-97475000D02*
X103414448Y-97475000D01*
X103414448Y-97475000D02*
X105950000Y-100010552D01*
X105950000Y-100010552D02*
X105950000Y-101050000D01*
%TO.N,Net-(J4-Pin_2)*%
X84550000Y-100250000D02*
X92600000Y-100250000D01*
X92600000Y-100250000D02*
X95085000Y-97765000D01*
X95085000Y-97765000D02*
X103294326Y-97765000D01*
X103294326Y-97765000D02*
X105450000Y-99920674D01*
X105450000Y-99920674D02*
X105450000Y-100550000D01*
X105450000Y-100550000D02*
X104950000Y-101050000D01*
%TO.N,Net-(J4-Pin_3)*%
X81100000Y-102800000D02*
X81595000Y-102305000D01*
X81595000Y-102305000D02*
X95755552Y-102305000D01*
X95755552Y-102305000D02*
X100005552Y-98055000D01*
X100005552Y-98055000D02*
X102694326Y-98055000D01*
X102694326Y-98055000D02*
X104395000Y-99755674D01*
X104395000Y-99755674D02*
X104395000Y-100605000D01*
X104395000Y-100605000D02*
X103950000Y-101050000D01*
%TO.N,Net-(J4-Pin_4)*%
X84700000Y-105300000D02*
X85310000Y-105910000D01*
X85310000Y-105910000D02*
X94320000Y-105910000D01*
X94660000Y-104190000D02*
X98350000Y-100500000D01*
X98350000Y-100120674D02*
X99492776Y-98977898D01*
X94320000Y-105910000D02*
X94660000Y-105570000D01*
X94660000Y-105570000D02*
X94660000Y-104190000D01*
X102943020Y-98977898D02*
X103950000Y-99984878D01*
X98350000Y-100500000D02*
X98350000Y-100120674D01*
X99492776Y-98977898D02*
X102943020Y-98977898D01*
X103950000Y-99984878D02*
X103950000Y-100050000D01*
%TO.N,Net-(J4-Pin_5)*%
X94100000Y-107900000D02*
X94950000Y-107050000D01*
X98808796Y-100661878D02*
X99352429Y-100661878D01*
X81050000Y-107900000D02*
X94100000Y-107900000D01*
X94950000Y-107050000D02*
X94950000Y-104520674D01*
X103395000Y-100605000D02*
X102950000Y-101050000D01*
X94950000Y-104520674D02*
X98808796Y-100661878D01*
X99352429Y-100661878D02*
X100746409Y-99267898D01*
X100746409Y-99267898D02*
X102822898Y-99267898D01*
X102822898Y-99267898D02*
X103395000Y-99840000D01*
X103395000Y-99840000D02*
X103395000Y-100605000D01*
%TO.N,Net-(J4-Pin_6)*%
X84700000Y-110400000D02*
X86960000Y-112660000D01*
X86960000Y-112660000D02*
X90600000Y-112660000D01*
X92044817Y-111215183D02*
X92044817Y-110455183D01*
X100866531Y-99557898D02*
X102457898Y-99557898D01*
X90600000Y-112660000D02*
X92044817Y-111215183D01*
X92044817Y-110455183D02*
X95600000Y-106900000D01*
X95600000Y-106900000D02*
X95600000Y-105870674D01*
X95600000Y-105870674D02*
X96695459Y-104775215D01*
X102457898Y-99557898D02*
X102950000Y-100050000D01*
X96695459Y-104775215D02*
X97270459Y-104775215D01*
X97270459Y-104775215D02*
X98345674Y-103700000D01*
X98345674Y-103700000D02*
X98345674Y-102538203D01*
X98345674Y-102538203D02*
X100315000Y-100568877D01*
X100315000Y-100568877D02*
X100315000Y-100109429D01*
X100315000Y-100109429D02*
X100866531Y-99557898D01*
%TO.N,Net-(J4-Pin_7)*%
X98635674Y-103364326D02*
X100685337Y-101314663D01*
X92334817Y-110625735D02*
X98635674Y-104324878D01*
X92334817Y-111584817D02*
X92334817Y-110625735D01*
X81050000Y-112950000D02*
X90969634Y-112950000D01*
X98635674Y-104324878D02*
X98635674Y-103364326D01*
X90969634Y-112950000D02*
X92334817Y-111584817D01*
X100685337Y-101314663D02*
X100605000Y-101234326D01*
X100605000Y-101234326D02*
X100605000Y-100448755D01*
X100605000Y-100448755D02*
X101050857Y-100002898D01*
%TO.N,Net-(J4-Pin_8)*%
X88879756Y-115450000D02*
X92964878Y-111364878D01*
X84700000Y-115450000D02*
X88879756Y-115450000D01*
X92964878Y-111364878D02*
X92964878Y-110405796D01*
X92964878Y-110405796D02*
X98925674Y-104445000D01*
X98925674Y-104445000D02*
X98925674Y-103545000D01*
X98925674Y-103545000D02*
X100865674Y-101605000D01*
X100865674Y-101605000D02*
X102505000Y-101605000D01*
X102505000Y-101605000D02*
X102950000Y-102050000D01*
%TO.N,Net-(J4-Pin_9)*%
X86739878Y-118000000D02*
X93369939Y-111369939D01*
X81050000Y-118000000D02*
X86739878Y-118000000D01*
X98865674Y-106605000D02*
X99395000Y-106605000D01*
X99605000Y-105865674D02*
X99975674Y-105495000D01*
X101050000Y-104750000D02*
X101050000Y-102050000D01*
X93369939Y-111369939D02*
X93369939Y-111000735D01*
X99975674Y-105495000D02*
X100305000Y-105495000D01*
X93369939Y-111000735D02*
X94870674Y-109500000D01*
X95970674Y-109500000D02*
X98865674Y-106605000D01*
X94870674Y-109500000D02*
X95970674Y-109500000D01*
X99395000Y-106605000D02*
X99605000Y-106395000D01*
X99605000Y-106395000D02*
X99605000Y-105865674D01*
X100305000Y-105495000D02*
X101050000Y-104750000D01*
%TO.N,Net-(J4-Pin_10)*%
X84600000Y-120550000D02*
X93645000Y-111505000D01*
X93645000Y-111505000D02*
X96124326Y-111505000D01*
X99620674Y-107750000D02*
X99989326Y-107750000D01*
X99989326Y-107750000D02*
X102505000Y-105234326D01*
X96124326Y-111505000D02*
X98400000Y-109229326D01*
X103505000Y-104145000D02*
X103505000Y-103495000D01*
X98400000Y-109229326D02*
X98400000Y-108970674D01*
X102505000Y-105234326D02*
X102505000Y-104865674D01*
X98400000Y-108970674D02*
X99620674Y-107750000D01*
X102875674Y-104495000D02*
X103155000Y-104495000D01*
X103505000Y-103495000D02*
X103950000Y-103050000D01*
X102505000Y-104865674D02*
X102875674Y-104495000D01*
X103155000Y-104495000D02*
X103505000Y-104145000D01*
%TO.N,EN1*%
X105800000Y-88000000D02*
X105605000Y-87805000D01*
X105605000Y-87805000D02*
X101495000Y-87805000D01*
X101495000Y-87805000D02*
X101200000Y-88100000D01*
D13*
X101200000Y-88100000D02*
X101250000Y-88050000D01*
X101250000Y-88050000D02*
X101250000Y-85350000D01*
X101250000Y-85350000D02*
X101700000Y-84900000D01*
X101700000Y-84900000D02*
X100000000Y-84900000D01*
X100000000Y-84900000D02*
X97750000Y-82650000D01*
X94950000Y-84400000D02*
X96000000Y-84400000D01*
X96000000Y-84400000D02*
X97750000Y-82650000D01*
X94950000Y-84400000D02*
X95450000Y-84900000D01*
X95450000Y-84900000D02*
X101700000Y-84900000D01*
X95900000Y-88000000D02*
X95900000Y-85350000D01*
X95900000Y-85350000D02*
X94950000Y-84400000D01*
X95900000Y-88000000D02*
X96200000Y-87700000D01*
X96200000Y-87700000D02*
X100800000Y-87700000D01*
X100800000Y-87700000D02*
X101200000Y-88100000D01*
%TD*%
M02*
