M48
; DRILL file {KiCad 7.0.10} date Sat 13 Jan 2024 06:06:38 PM CET
; FORMAT={-:-/ absolute / inch / decimal}
; #@! TF.CreationDate,2024-01-13T18:06:38+01:00
; #@! TF.GenerationSoftware,Kicad,Pcbnew,7.0.10
; #@! TF.FileFunction,MixedPlating,1,8
FMAT,2
INCH
; #@! TA.AperFunction,Plated,PTH,ViaDrill
T1C0.0118
; #@! TA.AperFunction,Plated,PTH,ComponentDrill
T2C0.0394
%
G90
G05
T1
X3.1693Y-3.2087
X3.1909Y-4.248
X3.1909Y-4.4469
X3.1909Y-4.6457
X3.1929Y-3.8465
X3.1929Y-4.0472
X3.2539Y-3.0413
X3.3268Y-3.0413
X3.3287Y-3.9469
X3.3307Y-4.7461
X3.3346Y-4.1457
X3.3346Y-4.3465
X3.3346Y-4.5453
X3.4055Y-3.0413
X3.4114Y-3.435
X3.4114Y-3.4823
X3.4114Y-3.5295
X3.4843Y-3.0413
X3.563Y-4.0846
X3.563Y-4.1929
X3.563Y-4.2913
X3.563Y-4.3898
X3.5827Y-3.6024
X3.6319Y-4.0453
X3.6417Y-3.2087
X3.6457Y-3.3091
X3.6555Y-3.6594
X3.7028Y-3.939
X3.7028Y-4.1358
X3.7028Y-4.3681
X3.7028Y-4.565
X3.7126Y-3.3425
X3.7286Y-3.622
X3.7303Y-3.4843
X3.7303Y-3.5827
X3.7382Y-3.3228
X3.7421Y-3.2205
X3.7421Y-4.0571
X3.7421Y-4.2894
X3.7421Y-4.4862
X3.7539Y-3.5315
X3.7756Y-3.4646
X3.7815Y-3.9783
X3.7815Y-4.1752
X3.7815Y-4.4075
X3.7894Y-3.7795
X3.7953Y-3.6594
X3.8091Y-3.2539
X3.8091Y-3.5098
X3.8209Y-4.0965
X3.8209Y-4.3287
X3.8209Y-4.5256
X3.8287Y-3.2283
X3.8287Y-3.878
X3.8307Y-2.9803
X3.8386Y-3.5236
X3.8484Y-3.2539
X3.8583Y-3.8091
X3.8602Y-4.0177
X3.8602Y-4.4469
X3.8642Y-4.7244
X3.8681Y-3.6024
X3.8701Y-3.5236
X3.878Y-3.0433
X3.8996Y-3.939
X3.8996Y-4.1358
X3.8996Y-4.1752
X3.8996Y-4.2146
X3.8996Y-4.2894
X3.8996Y-4.3287
X3.8996Y-4.3681
X3.8996Y-4.565
X3.9075Y-3.2283
X3.9213Y-2.9803
X3.9272Y-3.2539
X3.9331Y-3.5217
X3.935Y-3.6594
X3.937Y-4.0945
X3.939Y-4.0571
X3.939Y-4.1358
X3.939Y-4.1752
X3.939Y-4.2146
X3.939Y-4.3681
X3.939Y-4.4075
X3.939Y-4.4469
X3.939Y-4.4882
X3.9488Y-3.4744
X3.9567Y-3.8091
X3.9764Y-3.563
X3.9783Y-3.9783
X3.9783Y-4.0177
X3.9783Y-4.1752
X3.9783Y-4.2894
X3.9783Y-4.4075
X3.9783Y-4.4469
X3.9784Y-3.9371
X3.9793Y-4.3671
X3.9843Y-3.4685
X3.9862Y-3.878
X3.987Y-4.1445
X4.002Y-3.311
X4.0039Y-3.3425
X4.0059Y-3.6024
X4.0157Y-3.4744
X4.0266Y-3.878
X4.0492Y-4.7618
X4.0522Y-4.3278
X4.0531Y-3.939
X4.0531Y-3.9783
X4.0531Y-4.0177
X4.0531Y-4.0965
X4.0531Y-4.1358
X4.0531Y-4.1752
X4.0531Y-4.2146
X4.0531Y-4.2894
X4.0531Y-4.3681
X4.0531Y-4.4075
X4.0531Y-4.5256
X4.0551Y-3.435
X4.0551Y-3.8091
X4.0748Y-3.6614
X4.0748Y-3.6614
X4.0925Y-3.939
X4.0925Y-3.9783
X4.0925Y-4.0177
X4.0925Y-4.0571
X4.0925Y-4.0965
X4.0925Y-4.1358
X4.0925Y-4.2146
X4.0925Y-4.2894
X4.0925Y-4.3287
X4.0925Y-4.3681
X4.0925Y-4.4075
X4.0925Y-4.4469
X4.1011Y-4.1732
X4.1161Y-3.3425
X4.1319Y-3.939
X4.1319Y-3.9783
X4.1319Y-4.1358
X4.1319Y-4.2894
X4.1319Y-4.3287
X4.1319Y-4.3681
X4.1319Y-4.4075
X4.1319Y-4.565
X4.1437Y-3.8091
X4.1634Y-4.2815
X4.1654Y-3.4646
X4.1713Y-3.9783
X4.1713Y-4.0571
X4.1713Y-4.3681
X4.1713Y-4.4075
X4.1713Y-4.4862
X4.1732Y-3.878
X4.2106Y-3.9783
X4.2106Y-4.1752
X4.2106Y-4.4075
X4.2106Y-4.4469
X4.2323Y-3.4331
X4.2421Y-3.7795
X4.248Y-3.3898
X4.248Y-3.7343
X4.25Y-4.0965
X4.25Y-4.3287
X4.25Y-4.4469
X4.25Y-4.5256
X4.25Y-4.565
X4.2894Y-4.0177
X4.2894Y-4.2146
X4.2894Y-4.3681
X4.2894Y-4.4469
X4.2894Y-4.4862
X4.2894Y-4.5256
X4.2894Y-4.565
X4.2913Y-3.7402
X4.3287Y-3.939
X4.3287Y-4.1358
X4.3287Y-4.3681
X4.3287Y-4.4075
X4.3287Y-4.4469
X4.3287Y-4.4862
X4.3287Y-4.5256
X4.3287Y-4.565
X4.3504Y-3.7795
X4.3524Y-4.689
X4.3898Y-3.878
X4.4291Y-3.3898
X4.4626Y-2.9744
X4.4882Y-4.0945
X4.4882Y-4.1929
X4.4882Y-4.2913
X4.4882Y-4.3898
X4.5177Y-4.4882
X4.5689Y-3.7657
X4.5984Y-2.9744
X4.6102Y-3.3898
X4.6967Y-3.8469
X4.6967Y-4.0476
X4.6967Y-4.2465
X4.6967Y-4.4472
X4.6988Y-3.6713
X4.7026Y-4.6461
X4.7343Y-2.9744
X4.7874Y-3.3898
X4.8346Y-3.6693
X4.8384Y-4.5457
X4.8384Y-4.7465
X4.8404Y-3.9472
X4.8404Y-4.1461
X4.8404Y-4.3449
X4.8701Y-2.9744
T2
X3.2087Y-3.0463
X3.6024Y-3.0463
M30
