%TF.GenerationSoftware,KiCad,Pcbnew,7.0.10*%
%TF.CreationDate,2024-01-13T18:06:35+01:00*%
%TF.ProjectId,FPGA,46504741-2e6b-4696-9361-645f70636258,rev?*%
%TF.SameCoordinates,Original*%
%TF.FileFunction,Copper,L1,Top*%
%TF.FilePolarity,Positive*%
%FSLAX46Y46*%
G04 Gerber Fmt 4.6, Leading zero omitted, Abs format (unit mm)*
G04 Created by KiCad (PCBNEW 7.0.10) date 2024-01-13 18:06:35*
%MOMM*%
%LPD*%
G01*
G04 APERTURE LIST*
G04 Aperture macros list*
%AMRoundRect*
0 Rectangle with rounded corners*
0 $1 Rounding radius*
0 $2 $3 $4 $5 $6 $7 $8 $9 X,Y pos of 4 corners*
0 Add a 4 corners polygon primitive as box body*
4,1,4,$2,$3,$4,$5,$6,$7,$8,$9,$2,$3,0*
0 Add four circle primitives for the rounded corners*
1,1,$1+$1,$2,$3*
1,1,$1+$1,$4,$5*
1,1,$1+$1,$6,$7*
1,1,$1+$1,$8,$9*
0 Add four rect primitives between the rounded corners*
20,1,$1+$1,$2,$3,$4,$5,0*
20,1,$1+$1,$4,$5,$6,$7,0*
20,1,$1+$1,$6,$7,$8,$9,0*
20,1,$1+$1,$8,$9,$2,$3,0*%
G04 Aperture macros list end*
%TA.AperFunction,SMDPad,CuDef*%
%ADD10RoundRect,0.135000X0.135000X0.185000X-0.135000X0.185000X-0.135000X-0.185000X0.135000X-0.185000X0*%
%TD*%
%TA.AperFunction,SMDPad,CuDef*%
%ADD11R,1.900000X1.000000*%
%TD*%
%TA.AperFunction,SMDPad,CuDef*%
%ADD12RoundRect,0.218750X0.256250X-0.218750X0.256250X0.218750X-0.256250X0.218750X-0.256250X-0.218750X0*%
%TD*%
%TA.AperFunction,SMDPad,CuDef*%
%ADD13RoundRect,0.135000X-0.185000X0.135000X-0.185000X-0.135000X0.185000X-0.135000X0.185000X0.135000X0*%
%TD*%
%TA.AperFunction,SMDPad,CuDef*%
%ADD14R,2.600000X1.700000*%
%TD*%
%TA.AperFunction,SMDPad,CuDef*%
%ADD15R,2.000000X2.000000*%
%TD*%
%TA.AperFunction,SMDPad,CuDef*%
%ADD16RoundRect,0.135000X-0.135000X-0.185000X0.135000X-0.185000X0.135000X0.185000X-0.135000X0.185000X0*%
%TD*%
%TA.AperFunction,SMDPad,CuDef*%
%ADD17RoundRect,0.150000X-0.512500X-0.150000X0.512500X-0.150000X0.512500X0.150000X-0.512500X0.150000X0*%
%TD*%
%TA.AperFunction,SMDPad,CuDef*%
%ADD18RoundRect,0.150000X0.587500X0.150000X-0.587500X0.150000X-0.587500X-0.150000X0.587500X-0.150000X0*%
%TD*%
%TA.AperFunction,SMDPad,CuDef*%
%ADD19C,0.400000*%
%TD*%
%TA.AperFunction,SMDPad,CuDef*%
%ADD20RoundRect,0.200000X0.200000X0.250000X-0.200000X0.250000X-0.200000X-0.250000X0.200000X-0.250000X0*%
%TD*%
%TA.AperFunction,SMDPad,CuDef*%
%ADD21R,1.000000X0.300000*%
%TD*%
%TA.AperFunction,SMDPad,CuDef*%
%ADD22R,0.300000X1.000000*%
%TD*%
%TA.AperFunction,SMDPad,CuDef*%
%ADD23R,2.800000X2.800000*%
%TD*%
%TA.AperFunction,ComponentPad*%
%ADD24C,1.000000*%
%TD*%
%TA.AperFunction,SMDPad,CuDef*%
%ADD25R,1.000000X2.750000*%
%TD*%
%TA.AperFunction,SMDPad,CuDef*%
%ADD26R,1.000000X1.900000*%
%TD*%
%TA.AperFunction,SMDPad,CuDef*%
%ADD27RoundRect,0.140000X0.170000X-0.140000X0.170000X0.140000X-0.170000X0.140000X-0.170000X-0.140000X0*%
%TD*%
%TA.AperFunction,SMDPad,CuDef*%
%ADD28RoundRect,0.140000X-0.140000X-0.170000X0.140000X-0.170000X0.140000X0.170000X-0.140000X0.170000X0*%
%TD*%
%TA.AperFunction,SMDPad,CuDef*%
%ADD29RoundRect,0.140000X0.140000X0.170000X-0.140000X0.170000X-0.140000X-0.170000X0.140000X-0.170000X0*%
%TD*%
%TA.AperFunction,ViaPad*%
%ADD30C,0.400000*%
%TD*%
%TA.AperFunction,Conductor*%
%ADD31C,0.090000*%
%TD*%
%TA.AperFunction,Conductor*%
%ADD32C,0.400000*%
%TD*%
%TA.AperFunction,Conductor*%
%ADD33C,0.300000*%
%TD*%
G04 APERTURE END LIST*
D10*
%TO.P,R3,2*%
%TO.N,EN1*%
X84940000Y-89650000D03*
%TO.P,R3,1*%
%TO.N,EN3*%
X85960000Y-89650000D03*
%TD*%
D11*
%TO.P,J4,10,Pin_10*%
%TO.N,Net-(J4-Pin_10)*%
X82800000Y-120570000D03*
%TO.P,J4,9,Pin_9*%
%TO.N,Net-(J4-Pin_9)*%
X79500000Y-118030000D03*
%TO.P,J4,8,Pin_8*%
%TO.N,Net-(J4-Pin_8)*%
X82800000Y-115490000D03*
%TO.P,J4,7,Pin_7*%
%TO.N,Net-(J4-Pin_7)*%
X79500000Y-112950000D03*
%TO.P,J4,6,Pin_6*%
%TO.N,Net-(J4-Pin_6)*%
X82800000Y-110410000D03*
%TO.P,J4,5,Pin_5*%
%TO.N,Net-(J4-Pin_5)*%
X79500000Y-107870000D03*
%TO.P,J4,4,Pin_4*%
%TO.N,Net-(J4-Pin_4)*%
X82800000Y-105330000D03*
%TO.P,J4,3,Pin_3*%
%TO.N,Net-(J4-Pin_3)*%
X79500000Y-102790000D03*
%TO.P,J4,2,Pin_2*%
%TO.N,Net-(J4-Pin_2)*%
X82800000Y-100250000D03*
%TO.P,J4,1,Pin_1*%
%TO.N,Net-(J4-Pin_1)*%
X79500000Y-97710000D03*
%TD*%
D12*
%TO.P,D3,2,A*%
%TO.N,3.3V*%
X115910000Y-82482500D03*
%TO.P,D3,1,K*%
%TO.N,Net-(D3-K)*%
X115910000Y-84057500D03*
%TD*%
D13*
%TO.P,R7,1*%
%TO.N,1.2V*%
X107900000Y-93090000D03*
%TO.P,R7,2*%
X107900000Y-94110000D03*
%TD*%
D14*
%TO.P,L4,1,1*%
%TO.N,LX4*%
X92850000Y-91700000D03*
%TO.P,L4,2,2*%
%TO.N,3.3V*%
X92850000Y-94200000D03*
%TD*%
D15*
%TO.P,TP2,1,1*%
%TO.N,1V*%
X120250000Y-77500000D03*
%TD*%
D12*
%TO.P,D4,1,K*%
%TO.N,Net-(D4-K)*%
X125100000Y-84057500D03*
%TO.P,D4,2,A*%
%TO.N,3.3V*%
X125100000Y-82482500D03*
%TD*%
D16*
%TO.P,R2,1*%
%TO.N,INIT_B*%
X124190000Y-93250000D03*
%TO.P,R2,2*%
%TO.N,3.3V*%
X125210000Y-93250000D03*
%TD*%
D15*
%TO.P,TP1,1,1*%
%TO.N,GND*%
X123703350Y-77500000D03*
%TD*%
D17*
%TO.P,Q4,3,D*%
%TO.N,Net-(D4-K)*%
X125093056Y-87050000D03*
%TO.P,Q4,2,G*%
%TO.N,INIT_B*%
X122818056Y-88000000D03*
%TO.P,Q4,1,S*%
%TO.N,GND*%
X122818056Y-86100000D03*
%TD*%
D14*
%TO.P,L3,1,1*%
%TO.N,LX2*%
X96405555Y-91700000D03*
%TO.P,L3,2,2*%
%TO.N,1.8V*%
X96405555Y-94200000D03*
%TD*%
D10*
%TO.P,R6,2*%
%TO.N,EN1*%
X106490000Y-88000000D03*
%TO.P,R6,1*%
%TO.N,PG4*%
X107510000Y-88000000D03*
%TD*%
D14*
%TO.P,L1,2,2*%
%TO.N,1.2V*%
X103516665Y-94250000D03*
%TO.P,L1,1,1*%
%TO.N,LX3*%
X103516665Y-91750000D03*
%TD*%
D12*
%TO.P,D2,2,A*%
%TO.N,3.3V*%
X111310000Y-82482500D03*
%TO.P,D2,1,K*%
%TO.N,Net-(D2-K)*%
X111310000Y-84057500D03*
%TD*%
D15*
%TO.P,TP3,1,1*%
%TO.N,1.2V*%
X116796650Y-77500000D03*
%TD*%
D13*
%TO.P,R9,2*%
%TO.N,Net-(X1-Tri-State)*%
X105250000Y-120760000D03*
%TO.P,R9,1*%
%TO.N,3.3V*%
X105250000Y-119740000D03*
%TD*%
D12*
%TO.P,D1,2,A*%
%TO.N,3.3V*%
X120500000Y-82482500D03*
%TO.P,D1,1,K*%
%TO.N,Net-(D1-K)*%
X120500000Y-84057500D03*
%TD*%
D13*
%TO.P,R8,2*%
%TO.N,GND*%
X109000000Y-94110000D03*
%TO.P,R8,1*%
%TO.N,1.2V*%
X109000000Y-93090000D03*
%TD*%
D17*
%TO.P,Q1,1,S*%
%TO.N,GND*%
X109038890Y-86100000D03*
%TO.P,Q1,2,G*%
%TO.N,PG4*%
X109038890Y-88000000D03*
%TO.P,Q1,3,D*%
%TO.N,Net-(D2-K)*%
X111313890Y-87050000D03*
%TD*%
D15*
%TO.P,TP5,1,1*%
%TO.N,3.3V*%
X109889950Y-77500000D03*
%TD*%
D14*
%TO.P,L2,2,2*%
%TO.N,1V*%
X99961110Y-94200000D03*
%TO.P,L2,1,1*%
%TO.N,LX1*%
X99961110Y-91700000D03*
%TD*%
D15*
%TO.P,TP4,1,1*%
%TO.N,1.8V*%
X113343300Y-77500000D03*
%TD*%
D17*
%TO.P,Q2,1,S*%
%TO.N,GND*%
X113631945Y-86100000D03*
%TO.P,Q2,2,G*%
%TO.N,DONE*%
X113631945Y-88000000D03*
%TO.P,Q2,3,D*%
%TO.N,Net-(D3-K)*%
X115906945Y-87050000D03*
%TD*%
D18*
%TO.P,U2,1,IN*%
%TO.N,1.8V*%
X101437500Y-120950000D03*
%TO.P,U2,2,OUT*%
%TO.N,Net-(U1C-VREFP_0)*%
X101437500Y-119050000D03*
%TO.P,U2,3,GND*%
%TO.N,GND*%
X99562500Y-120000000D03*
%TD*%
D10*
%TO.P,R4,1*%
%TO.N,EN2*%
X85960000Y-88450000D03*
%TO.P,R4,2*%
%TO.N,EN1*%
X84940000Y-88450000D03*
%TD*%
D11*
%TO.P,J3,1,Pin_1*%
%TO.N,Net-(J3-Pin_1)*%
X121200000Y-97710000D03*
%TO.P,J3,2,Pin_2*%
%TO.N,Net-(J3-Pin_2)*%
X124500000Y-100250000D03*
%TO.P,J3,3,Pin_3*%
%TO.N,Net-(J3-Pin_3)*%
X121200000Y-102790000D03*
%TO.P,J3,4,Pin_4*%
%TO.N,Net-(J3-Pin_4)*%
X124500000Y-105330000D03*
%TO.P,J3,5,Pin_5*%
%TO.N,Net-(J3-Pin_5)*%
X121200000Y-107870000D03*
%TO.P,J3,6,Pin_6*%
%TO.N,Net-(J3-Pin_6)*%
X124500000Y-110410000D03*
%TO.P,J3,7,Pin_7*%
%TO.N,Net-(J3-Pin_7)*%
X121200000Y-112950000D03*
%TO.P,J3,8,Pin_8*%
%TO.N,Net-(J3-Pin_8)*%
X124500000Y-115490000D03*
%TO.P,J3,9,Pin_9*%
%TO.N,Net-(J3-Pin_9)*%
X121200000Y-118030000D03*
%TO.P,J3,10,Pin_10*%
%TO.N,Net-(J3-Pin_10)*%
X124500000Y-120570000D03*
%TD*%
D19*
%TO.P,U1,T16,GND*%
%TO.N,GND*%
X109500000Y-115500000D03*
%TO.P,U1,T15,IO_L10N_T1_D15_14*%
%TO.N,Net-(J3-Pin_1)*%
X108500000Y-115500000D03*
%TO.P,U1,T14,IO_L10P_T1_D14_14*%
%TO.N,Net-(J3-Pin_2)*%
X107500000Y-115500000D03*
%TO.P,U1,T13,IO_L16N_T2_A15_D31_14*%
%TO.N,unconnected-(U1A-IO_L16N_T2_A15_D31_14-PadT13)*%
X106500000Y-115500000D03*
%TO.P,U1,T12,IO_L15N_T2_DQS_DOUT_CSO_B_14*%
%TO.N,unconnected-(U1A-IO_L15N_T2_DQS_DOUT_CSO_B_14-PadT12)*%
X105500000Y-115500000D03*
%TO.P,U1,T11,VCCO_14*%
%TO.N,3.3V*%
X104500000Y-115500000D03*
%TO.P,U1,T10,IO_L22N_T3_A04_D20_14*%
%TO.N,unconnected-(U1A-IO_L22N_T3_A04_D20_14-PadT10)*%
X103500000Y-115500000D03*
%TO.P,U1,T9,IO_L22P_T3_A05_D21_14*%
%TO.N,unconnected-(U1A-IO_L22P_T3_A05_D21_14-PadT9)*%
X102500000Y-115500000D03*
%TO.P,U1,T8,IO_L21N_T3_DQS_A06_D22_14*%
%TO.N,unconnected-(U1A-IO_L21N_T3_DQS_A06_D22_14-PadT8)*%
X101500000Y-115500000D03*
%TO.P,U1,T7,IO_L21P_T3_DQS_14*%
%TO.N,unconnected-(U1A-IO_L21P_T3_DQS_14-PadT7)*%
X100500000Y-115500000D03*
%TO.P,U1,T6,GND*%
%TO.N,GND*%
X99500000Y-115500000D03*
%TO.P,U1,T5,IO_L23N_T3_A02_D18_14*%
%TO.N,unconnected-(U1A-IO_L23N_T3_A02_D18_14-PadT5)*%
X98500000Y-115500000D03*
%TO.P,U1,T4,IO_L9P_T1_DQS_34*%
%TO.N,unconnected-(U1B-IO_L9P_T1_DQS_34-PadT4)*%
X97500000Y-115500000D03*
%TO.P,U1,T3,IO_L9N_T1_DQS_34*%
%TO.N,unconnected-(U1B-IO_L9N_T1_DQS_34-PadT3)*%
X96500000Y-115500000D03*
%TO.P,U1,T2,IO_L8N_T1_34*%
%TO.N,unconnected-(U1B-IO_L8N_T1_34-PadT2)*%
X95500000Y-115500000D03*
%TO.P,U1,T1,VCCO_34*%
%TO.N,3.3V*%
X94500000Y-115500000D03*
%TO.P,U1,R16,IO_L9N_T1_DQS_D13_14*%
%TO.N,Net-(J3-Pin_3)*%
X109500000Y-114500000D03*
%TO.P,U1,R15,IO_L9P_T1_DQS_14*%
%TO.N,Net-(J3-Pin_4)*%
X108500000Y-114500000D03*
%TO.P,U1,R14,VCCO_14*%
%TO.N,3.3V*%
X107500000Y-114500000D03*
%TO.P,U1,R13,IO_L16P_T2_CSI_B_14*%
%TO.N,unconnected-(U1A-IO_L16P_T2_CSI_B_14-PadR13)*%
X106500000Y-114500000D03*
%TO.P,U1,R12,IO_L15P_T2_DQS_RDWR_B_14*%
%TO.N,unconnected-(U1A-IO_L15P_T2_DQS_RDWR_B_14-PadR12)*%
X105500000Y-114500000D03*
%TO.P,U1,R11,IO_L17N_T2_A13_D29_14*%
%TO.N,unconnected-(U1A-IO_L17N_T2_A13_D29_14-PadR11)*%
X104500000Y-114500000D03*
%TO.P,U1,R10,IO_L17P_T2_A14_D30_14*%
%TO.N,unconnected-(U1A-IO_L17P_T2_A14_D30_14-PadR10)*%
X103500000Y-114500000D03*
%TO.P,U1,R9,GND*%
%TO.N,GND*%
X102500000Y-114500000D03*
%TO.P,U1,R8,IO_L20N_T3_A07_D23_14*%
%TO.N,unconnected-(U1A-IO_L20N_T3_A07_D23_14-PadR8)*%
X101500000Y-114500000D03*
%TO.P,U1,R7,IO_L24N_T3_A00_D16_14*%
%TO.N,unconnected-(U1A-IO_L24N_T3_A00_D16_14-PadR7)*%
X100500000Y-114500000D03*
%TO.P,U1,R6,IO_L24P_T3_A01_D17_14*%
%TO.N,unconnected-(U1A-IO_L24P_T3_A01_D17_14-PadR6)*%
X99500000Y-114500000D03*
%TO.P,U1,R5,IO_L23P_T3_A03_D19_14*%
%TO.N,unconnected-(U1A-IO_L23P_T3_A03_D19_14-PadR5)*%
X98500000Y-114500000D03*
%TO.P,U1,R4,VCCO_34*%
%TO.N,3.3V*%
X97500000Y-114500000D03*
%TO.P,U1,R3,IO_L8P_T1_34*%
%TO.N,unconnected-(U1B-IO_L8P_T1_34-PadR3)*%
X96500000Y-114500000D03*
%TO.P,U1,R2,IO_L7P_T1_34*%
%TO.N,unconnected-(U1B-IO_L7P_T1_34-PadR2)*%
X95500000Y-114500000D03*
%TO.P,U1,R1,IO_L7N_T1_34*%
%TO.N,unconnected-(U1B-IO_L7N_T1_34-PadR1)*%
X94500000Y-114500000D03*
%TO.P,U1,P16,IO_L8N_T1_D12_14*%
%TO.N,Net-(J3-Pin_5)*%
X109500000Y-113500000D03*
%TO.P,U1,P15,IO_L8P_T1_D11_14*%
%TO.N,Net-(J3-Pin_6)*%
X108500000Y-113500000D03*
%TO.P,U1,P14,IO_L12N_T1_MRCC_14*%
%TO.N,unconnected-(U1A-IO_L12N_T1_MRCC_14-PadP14)*%
X107500000Y-113500000D03*
%TO.P,U1,P13,IO_L11N_T1_SRCC_14*%
%TO.N,unconnected-(U1A-IO_L11N_T1_SRCC_14-PadP13)*%
X106500000Y-113500000D03*
%TO.P,U1,P12,GND*%
%TO.N,GND*%
X105500000Y-113500000D03*
%TO.P,U1,P11,IO_L14N_T2_SRCC_14*%
%TO.N,unconnected-(U1A-IO_L14N_T2_SRCC_14-PadP11)*%
X104500000Y-113500000D03*
%TO.P,U1,P10,IO_L14P_T2_SRCC_14*%
%TO.N,unconnected-(U1A-IO_L14P_T2_SRCC_14-PadP10)*%
X103500000Y-113500000D03*
%TO.P,U1,P9,IO_L18N_T2_A11_D27_14*%
%TO.N,unconnected-(U1A-IO_L18N_T2_A11_D27_14-PadP9)*%
X102500000Y-113500000D03*
%TO.P,U1,P8,IO_L20P_T3_A08_D24_14*%
%TO.N,unconnected-(U1A-IO_L20P_T3_A08_D24_14-PadP8)*%
X101500000Y-113500000D03*
%TO.P,U1,P7,VCCO_14*%
%TO.N,3.3V*%
X100500000Y-113500000D03*
%TO.P,U1,P6,IO_25_14*%
%TO.N,unconnected-(U1A-IO_25_14-PadP6)*%
X99500000Y-113500000D03*
%TO.P,U1,P5,IO_L10P_T1_34*%
%TO.N,unconnected-(U1B-IO_L10P_T1_34-PadP5)*%
X98500000Y-113500000D03*
%TO.P,U1,P4,IO_L5P_T0_34*%
%TO.N,unconnected-(U1B-IO_L5P_T0_34-PadP4)*%
X97500000Y-113500000D03*
%TO.P,U1,P3,IO_L5N_T0_34*%
%TO.N,unconnected-(U1B-IO_L5N_T0_34-PadP3)*%
X96500000Y-113500000D03*
%TO.P,U1,P2,GND*%
%TO.N,GND*%
X95500000Y-113500000D03*
%TO.P,U1,P1,IO_L4N_T0_34*%
%TO.N,unconnected-(U1B-IO_L4N_T0_34-PadP1)*%
X94500000Y-113500000D03*
%TO.P,U1,N16,IO_L7N_T1_D10_14*%
%TO.N,Net-(J3-Pin_7)*%
X109500000Y-112500000D03*
%TO.P,U1,N15,GND*%
%TO.N,GND*%
X108500000Y-112500000D03*
%TO.P,U1,N14,IO_L12P_T1_MRCC_14*%
%TO.N,CLK*%
X107500000Y-112500000D03*
%TO.P,U1,N13,IO_L11P_T1_SRCC_14*%
%TO.N,LED_Test*%
X106500000Y-112500000D03*
%TO.P,U1,N12,IO_L13N_T2_MRCC_14*%
%TO.N,unconnected-(U1A-IO_L13N_T2_MRCC_14-PadN12)*%
X105500000Y-112500000D03*
%TO.P,U1,N11,IO_L13P_T2_MRCC_14*%
%TO.N,unconnected-(U1A-IO_L13P_T2_MRCC_14-PadN11)*%
X104500000Y-112500000D03*
%TO.P,U1,N10,VCCO_14*%
%TO.N,3.3V*%
X103500000Y-112500000D03*
%TO.P,U1,N9,IO_L18P_T2_A12_D28_14*%
%TO.N,unconnected-(U1A-IO_L18P_T2_A12_D28_14-PadN9)*%
X102500000Y-112500000D03*
%TO.P,U1,N8,TDO_0*%
%TO.N,TDO*%
X101500000Y-112500000D03*
%TO.P,U1,N7,TDI_0*%
%TO.N,TDI*%
X100500000Y-112500000D03*
%TO.P,U1,N6,IO_L19N_T3_A09_D25_VREF_14*%
%TO.N,unconnected-(U1A-IO_L19N_T3_A09_D25_VREF_14-PadN6)*%
X99500000Y-112500000D03*
%TO.P,U1,N5,GND*%
%TO.N,GND*%
X98500000Y-112500000D03*
%TO.P,U1,N4,IO_L6N_T0_VREF_34*%
%TO.N,unconnected-(U1B-IO_L6N_T0_VREF_34-PadN4)*%
X97500000Y-112500000D03*
%TO.P,U1,N3,IO_L3P_T0_DQS_34*%
%TO.N,unconnected-(U1B-IO_L3P_T0_DQS_34-PadN3)*%
X96500000Y-112500000D03*
%TO.P,U1,N2,IO_L3N_T0_DQS_34*%
%TO.N,unconnected-(U1B-IO_L3N_T0_DQS_34-PadN2)*%
X95500000Y-112500000D03*
%TO.P,U1,N1,IO_L4P_T0_34*%
%TO.N,unconnected-(U1B-IO_L4P_T0_34-PadN1)*%
X94500000Y-112500000D03*
%TO.P,U1,M16,IO_L7P_T1_D09_14*%
%TO.N,Net-(J3-Pin_8)*%
X109500000Y-111500000D03*
%TO.P,U1,M15,IO_L3N_T0_DQS_EMCCLK_14*%
%TO.N,unconnected-(U1A-IO_L3N_T0_DQS_EMCCLK_14-PadM15)*%
X108500000Y-111500000D03*
%TO.P,U1,M14,IO_L4N_T0_D05_14*%
%TO.N,unconnected-(U1A-IO_L4N_T0_D05_14-PadM14)*%
X107500000Y-111500000D03*
%TO.P,U1,M13,VCCO_14*%
%TO.N,3.3V*%
X106500000Y-111500000D03*
%TO.P,U1,M12,IO_L6N_T0_D08_VREF_14*%
%TO.N,Net-(J3-Pin_9)*%
X105500000Y-111500000D03*
%TO.P,U1,M11,M2_0*%
%TO.N,3.3V*%
X104500000Y-111500000D03*
%TO.P,U1,M10,M1_0*%
%TO.N,GND*%
X103500000Y-111500000D03*
%TO.P,U1,M9,M0_0*%
%TO.N,3.3V*%
X102500000Y-111500000D03*
%TO.P,U1,M8,GND*%
%TO.N,GND*%
X101500000Y-111500000D03*
%TO.P,U1,M7,TMS_0*%
%TO.N,TMS*%
X100500000Y-111500000D03*
%TO.P,U1,M6,IO_L19P_T3_A10_D26_14*%
%TO.N,unconnected-(U1A-IO_L19P_T3_A10_D26_14-PadM6)*%
X99500000Y-111500000D03*
%TO.P,U1,M5,IO_L6P_T0_34*%
%TO.N,unconnected-(U1B-IO_L6P_T0_34-PadM5)*%
X98500000Y-111500000D03*
%TO.P,U1,M4,IO_L1N_T0_34*%
%TO.N,unconnected-(U1B-IO_L1N_T0_34-PadM4)*%
X97500000Y-111500000D03*
%TO.P,U1,M3,VCCO_34*%
%TO.N,3.3V*%
X96500000Y-111500000D03*
%TO.P,U1,M2,IO_L2P_T0_34*%
%TO.N,unconnected-(U1B-IO_L2P_T0_34-PadM2)*%
X95500000Y-111500000D03*
%TO.P,U1,M1,IO_L2N_T0_34*%
%TO.N,unconnected-(U1B-IO_L2N_T0_34-PadM1)*%
X94500000Y-111500000D03*
%TO.P,U1,L16,VCCO_14*%
%TO.N,3.3V*%
X109500000Y-110500000D03*
%TO.P,U1,L15,IO_L3P_T0_DQS_PUDC_B_14*%
X108500000Y-110500000D03*
%TO.P,U1,L14,IO_L4P_T0_D04_14*%
%TO.N,unconnected-(U1A-IO_L4P_T0_D04_14-PadL14)*%
X107500000Y-110500000D03*
%TO.P,U1,L13,IO_L5N_T0_D07_14*%
%TO.N,unconnected-(U1A-IO_L5N_T0_D07_14-PadL13)*%
X106500000Y-110500000D03*
%TO.P,U1,L12,IO_L6P_T0_FCS_B_14*%
%TO.N,Net-(J3-Pin_10)*%
X105500000Y-110500000D03*
%TO.P,U1,L11,GND*%
%TO.N,GND*%
X104500000Y-110500000D03*
%TO.P,U1,L10,VCCAUX*%
%TO.N,1.8V*%
X103500000Y-110500000D03*
%TO.P,U1,L9,PROGRAM_B_0*%
%TO.N,Net-(U1C-PROGRAM_B_0)*%
X102500000Y-110500000D03*
%TO.P,U1,L8,VCCINT*%
%TO.N,1V*%
X101500000Y-110500000D03*
%TO.P,U1,L7,TCK_0*%
%TO.N,TCK*%
X100500000Y-110500000D03*
%TO.P,U1,L6,VCCO_0*%
%TO.N,3.3V*%
X99500000Y-110500000D03*
%TO.P,U1,L5,IO_0_34*%
%TO.N,unconnected-(U1B-IO_0_34-PadL5)*%
X98500000Y-110500000D03*
%TO.P,U1,L4,IO_L1P_T0_34*%
%TO.N,unconnected-(U1B-IO_L1P_T0_34-PadL4)*%
X97500000Y-110500000D03*
%TO.P,U1,L3,IO_L23P_T3_35*%
%TO.N,unconnected-(U1B-IO_L23P_T3_35-PadL3)*%
X96500000Y-110500000D03*
%TO.P,U1,L2,IO_L23N_T3_35*%
%TO.N,unconnected-(U1B-IO_L23N_T3_35-PadL2)*%
X95500000Y-110500000D03*
%TO.P,U1,L1,GND*%
%TO.N,GND*%
X94500000Y-110500000D03*
%TO.P,U1,K16,IO_L2N_T0_D03_14*%
%TO.N,unconnected-(U1A-IO_L2N_T0_D03_14-PadK16)*%
X109500000Y-109500000D03*
%TO.P,U1,K15,IO_L2P_T0_D02_14*%
%TO.N,unconnected-(U1A-IO_L2P_T0_D02_14-PadK15)*%
X108500000Y-109500000D03*
%TO.P,U1,K14,GND*%
%TO.N,GND*%
X107500000Y-109500000D03*
%TO.P,U1,K13,IO_L5P_T0_D06_14*%
%TO.N,unconnected-(U1A-IO_L5P_T0_D06_14-PadK13)*%
X106500000Y-109500000D03*
%TO.P,U1,K12,IO_0_14*%
%TO.N,unconnected-(U1A-IO_0_14-PadK12)*%
X105500000Y-109500000D03*
%TO.P,U1,K11,VCCAUX*%
%TO.N,1.8V*%
X104500000Y-109500000D03*
%TO.P,U1,K10,INIT_B_0*%
%TO.N,INIT_B*%
X103500000Y-109500000D03*
%TO.P,U1,K9,VCCINT*%
%TO.N,1V*%
X102500000Y-109500000D03*
%TO.P,U1,K8,DXP_0*%
%TO.N,unconnected-(U1C-DXP_0-PadK8)*%
X101500000Y-109500000D03*
%TO.P,U1,K7,DXN_0*%
%TO.N,unconnected-(U1C-DXN_0-PadK7)*%
X100500000Y-109500000D03*
%TO.P,U1,K6,GND*%
%TO.N,GND*%
X99500000Y-109500000D03*
%TO.P,U1,K5,IO_25_35*%
%TO.N,unconnected-(U1B-IO_25_35-PadK5)*%
X98500000Y-109500000D03*
%TO.P,U1,K4,GND*%
%TO.N,GND*%
X97500000Y-109500000D03*
%TO.P,U1,K3,IO_L24P_T3_35*%
%TO.N,unconnected-(U1B-IO_L24P_T3_35-PadK3)*%
X96500000Y-109500000D03*
%TO.P,U1,K2,IO_L24N_T3_35*%
%TO.N,unconnected-(U1B-IO_L24N_T3_35-PadK2)*%
X95500000Y-109500000D03*
%TO.P,U1,K1,IO_L22P_T3_35*%
%TO.N,unconnected-(U1B-IO_L22P_T3_35-PadK1)*%
X94500000Y-109500000D03*
%TO.P,U1,J16,IO_L23N_T3_FWE_B_15*%
%TO.N,unconnected-(U1A-IO_L23N_T3_FWE_B_15-PadJ16)*%
X109500000Y-108500000D03*
%TO.P,U1,J15,IO_L23P_T3_FOE_B_15*%
%TO.N,unconnected-(U1A-IO_L23P_T3_FOE_B_15-PadJ15)*%
X108500000Y-108500000D03*
%TO.P,U1,J14,IO_L1N_T0_D01_DIN_14*%
%TO.N,unconnected-(U1A-IO_L1N_T0_D01_DIN_14-PadJ14)*%
X107500000Y-108500000D03*
%TO.P,U1,J13,IO_L1P_T0_D00_MOSI_14*%
%TO.N,unconnected-(U1A-IO_L1P_T0_D00_MOSI_14-PadJ13)*%
X106500000Y-108500000D03*
%TO.P,U1,J12,VCCO_15*%
%TO.N,3.3V*%
X105500000Y-108500000D03*
%TO.P,U1,J11,GND*%
%TO.N,GND*%
X104500000Y-108500000D03*
%TO.P,U1,J10,VCCAUX*%
%TO.N,1.8V*%
X103500000Y-108500000D03*
%TO.P,U1,J9,GND*%
%TO.N,GND*%
X102500000Y-108500000D03*
%TO.P,U1,J8,VREFP_0*%
%TO.N,Net-(U1C-VREFP_0)*%
X101500000Y-108500000D03*
%TO.P,U1,J7,VN_0*%
%TO.N,unconnected-(U1C-VN_0-PadJ7)*%
X100500000Y-108500000D03*
%TO.P,U1,J6,VCCINT*%
%TO.N,1V*%
X99500000Y-108500000D03*
%TO.P,U1,J5,IO_L19P_T3_35*%
%TO.N,unconnected-(U1B-IO_L19P_T3_35-PadJ5)*%
X98500000Y-108500000D03*
%TO.P,U1,J4,IO_L19N_T3_VREF_35*%
%TO.N,unconnected-(U1B-IO_L19N_T3_VREF_35-PadJ4)*%
X97500000Y-108500000D03*
%TO.P,U1,J3,IO_L21P_T3_DQS_35*%
%TO.N,unconnected-(U1B-IO_L21P_T3_DQS_35-PadJ3)*%
X96500000Y-108500000D03*
%TO.P,U1,J2,VCCO_35*%
%TO.N,3.3V*%
X95500000Y-108500000D03*
%TO.P,U1,J1,IO_L22N_T3_35*%
%TO.N,unconnected-(U1B-IO_L22N_T3_35-PadJ1)*%
X94500000Y-108500000D03*
%TO.P,U1,H16,IO_L22P_T3_A17_15*%
%TO.N,unconnected-(U1A-IO_L22P_T3_A17_15-PadH16)*%
X109500000Y-107500000D03*
%TO.P,U1,H15,VCCO_15*%
%TO.N,3.3V*%
X108500000Y-107500000D03*
%TO.P,U1,H14,IO_L24P_T3_RS1_15*%
%TO.N,unconnected-(U1A-IO_L24P_T3_RS1_15-PadH14)*%
X107500000Y-107500000D03*
%TO.P,U1,H13,IO_L20N_T3_A19_15*%
%TO.N,unconnected-(U1A-IO_L20N_T3_A19_15-PadH13)*%
X106500000Y-107500000D03*
%TO.P,U1,H12,IO_L20P_T3_A20_15*%
%TO.N,unconnected-(U1A-IO_L20P_T3_A20_15-PadH12)*%
X105500000Y-107500000D03*
%TO.P,U1,H11,IO_L19P_T3_A22_15*%
%TO.N,unconnected-(U1A-IO_L19P_T3_A22_15-PadH11)*%
X104500000Y-107500000D03*
%TO.P,U1,H10,DONE_0*%
%TO.N,DONE*%
X103500000Y-107500000D03*
%TO.P,U1,H9,VCCINT*%
%TO.N,1V*%
X102500000Y-107500000D03*
%TO.P,U1,H8,VP_0*%
%TO.N,unconnected-(U1C-VP_0-PadH8)*%
X101500000Y-107500000D03*
%TO.P,U1,H7,VREFN_0*%
%TO.N,GND*%
X100500000Y-107500000D03*
%TO.P,U1,H6,GND*%
X99500000Y-107500000D03*
%TO.P,U1,H5,IO_L18P_T2_35*%
%TO.N,unconnected-(U1B-IO_L18P_T2_35-PadH5)*%
X98500000Y-107500000D03*
%TO.P,U1,H4,IO_L18N_T2_35*%
%TO.N,unconnected-(U1B-IO_L18N_T2_35-PadH4)*%
X97500000Y-107500000D03*
%TO.P,U1,H3,IO_L21N_T3_DQS_35*%
%TO.N,unconnected-(U1B-IO_L21N_T3_DQS_35-PadH3)*%
X96500000Y-107500000D03*
%TO.P,U1,H2,IO_L20P_T3_35*%
%TO.N,unconnected-(U1B-IO_L20P_T3_35-PadH2)*%
X95500000Y-107500000D03*
%TO.P,U1,H1,IO_L20N_T3_35*%
%TO.N,unconnected-(U1B-IO_L20N_T3_35-PadH1)*%
X94500000Y-107500000D03*
%TO.P,U1,G16,IO_L22N_T3_A16_15*%
%TO.N,unconnected-(U1A-IO_L22N_T3_A16_15-PadG16)*%
X109500000Y-106500000D03*
%TO.P,U1,G15,IO_L24N_T3_RS0_15*%
%TO.N,unconnected-(U1A-IO_L24N_T3_RS0_15-PadG15)*%
X108500000Y-106500000D03*
%TO.P,U1,G14,IO_L21P_T3_DQS_15*%
%TO.N,unconnected-(U1A-IO_L21P_T3_DQS_15-PadG14)*%
X107500000Y-106500000D03*
%TO.P,U1,G13,GND*%
%TO.N,GND*%
X106500000Y-106500000D03*
%TO.P,U1,G12,IO_L19N_T3_A21_VREF_15*%
%TO.N,unconnected-(U1A-IO_L19N_T3_A21_VREF_15-PadG12)*%
X105500000Y-106500000D03*
%TO.P,U1,G11,IO_25_15*%
%TO.N,unconnected-(U1A-IO_25_15-PadG11)*%
X104500000Y-106500000D03*
%TO.P,U1,G10,VCCAUX*%
%TO.N,1.8V*%
X103500000Y-106500000D03*
%TO.P,U1,G9,GND*%
%TO.N,GND*%
X102500000Y-106500000D03*
%TO.P,U1,G8,VCCADC_0*%
%TO.N,1.8V*%
X101500000Y-106500000D03*
%TO.P,U1,G7,GNDADC_0*%
%TO.N,GND*%
X100500000Y-106500000D03*
%TO.P,U1,G6,VCCINT*%
%TO.N,1V*%
X99500000Y-106500000D03*
%TO.P,U1,G5,IO_L16P_T2_35*%
%TO.N,unconnected-(U1B-IO_L16P_T2_35-PadG5)*%
X98500000Y-106500000D03*
%TO.P,U1,G4,IO_L16N_T2_35*%
%TO.N,unconnected-(U1B-IO_L16N_T2_35-PadG4)*%
X97500000Y-106500000D03*
%TO.P,U1,G3,GND*%
%TO.N,GND*%
X96500000Y-106500000D03*
%TO.P,U1,G2,IO_L17P_T2_35*%
%TO.N,unconnected-(U1B-IO_L17P_T2_35-PadG2)*%
X95500000Y-106500000D03*
%TO.P,U1,G1,IO_L17N_T2_35*%
%TO.N,unconnected-(U1B-IO_L17N_T2_35-PadG1)*%
X94500000Y-106500000D03*
%TO.P,U1,F16,GND*%
%TO.N,GND*%
X109500000Y-105500000D03*
%TO.P,U1,F15,IO_L18P_T2_A24_15*%
%TO.N,unconnected-(U1A-IO_L18P_T2_A24_15-PadF15)*%
X108500000Y-105500000D03*
%TO.P,U1,F14,IO_L21N_T3_DQS_A18_15*%
%TO.N,unconnected-(U1A-IO_L21N_T3_DQS_A18_15-PadF14)*%
X107500000Y-105500000D03*
%TO.P,U1,F13,IO_L16N_T2_A27_15*%
%TO.N,unconnected-(U1A-IO_L16N_T2_A27_15-PadF13)*%
X106500000Y-105500000D03*
%TO.P,U1,F12,IO_L16P_T2_A28_15*%
%TO.N,unconnected-(U1A-IO_L16P_T2_A28_15-PadF12)*%
X105500000Y-105500000D03*
%TO.P,U1,F11,VCCBRAM*%
%TO.N,1V*%
X104500000Y-105500000D03*
%TO.P,U1,F10,GND*%
%TO.N,GND*%
X103500000Y-105500000D03*
%TO.P,U1,F9,VCCINT*%
%TO.N,1V*%
X102500000Y-105500000D03*
%TO.P,U1,F8,VCCBATT_0*%
%TO.N,1.8V*%
X101500000Y-105500000D03*
%TO.P,U1,F7,VCCINT*%
%TO.N,1V*%
X100500000Y-105500000D03*
%TO.P,U1,F6,GND*%
%TO.N,GND*%
X99500000Y-105500000D03*
%TO.P,U1,F5,IO_L13P_T2_MRCC_35*%
%TO.N,unconnected-(U1B-IO_L13P_T2_MRCC_35-PadF5)*%
X98500000Y-105500000D03*
%TO.P,U1,F4,IO_L14P_T2_SRCC_35*%
%TO.N,unconnected-(U1B-IO_L14P_T2_SRCC_35-PadF4)*%
X97500000Y-105500000D03*
%TO.P,U1,F3,IO_L14N_T2_SRCC_35*%
%TO.N,unconnected-(U1B-IO_L14N_T2_SRCC_35-PadF3)*%
X96500000Y-105500000D03*
%TO.P,U1,F2,IO_L15P_T2_DQS_35*%
%TO.N,unconnected-(U1B-IO_L15P_T2_DQS_35-PadF2)*%
X95500000Y-105500000D03*
%TO.P,U1,F1,VCCO_35*%
%TO.N,3.3V*%
X94500000Y-105500000D03*
%TO.P,U1,E16,IO_L17P_T2_A26_15*%
%TO.N,unconnected-(U1A-IO_L17P_T2_A26_15-PadE16)*%
X109500000Y-104500000D03*
%TO.P,U1,E15,IO_L18N_T2_A23_15*%
%TO.N,unconnected-(U1A-IO_L18N_T2_A23_15-PadE15)*%
X108500000Y-104500000D03*
%TO.P,U1,E14,VCCO_15*%
%TO.N,3.3V*%
X107500000Y-104500000D03*
%TO.P,U1,E13,IO_L13N_T2_MRCC_15*%
%TO.N,unconnected-(U1A-IO_L13N_T2_MRCC_15-PadE13)*%
X106500000Y-104500000D03*
%TO.P,U1,E12,IO_L13P_T2_MRCC_15*%
%TO.N,unconnected-(U1A-IO_L13P_T2_MRCC_15-PadE12)*%
X105500000Y-104500000D03*
%TO.P,U1,E11,IO_L14P_T2_SRCC_15*%
%TO.N,unconnected-(U1A-IO_L14P_T2_SRCC_15-PadE11)*%
X104500000Y-104500000D03*
%TO.P,U1,E10,VCCBRAM*%
%TO.N,1V*%
X103500000Y-104500000D03*
%TO.P,U1,E9,GND*%
%TO.N,GND*%
X102500000Y-104500000D03*
%TO.P,U1,E8,CCLK_0*%
%TO.N,unconnected-(U1C-CCLK_0-PadE8)*%
X101500000Y-104500000D03*
%TO.P,U1,E7,CFGBVS_0*%
%TO.N,3.3V*%
X100500000Y-104500000D03*
%TO.P,U1,E6,IO_0_35*%
%TO.N,unconnected-(U1B-IO_0_35-PadE6)*%
X99500000Y-104500000D03*
%TO.P,U1,E5,IO_L13N_T2_MRCC_35*%
%TO.N,unconnected-(U1B-IO_L13N_T2_MRCC_35-PadE5)*%
X98500000Y-104500000D03*
%TO.P,U1,E4,VCCO_35*%
%TO.N,3.3V*%
X97500000Y-104500000D03*
%TO.P,U1,E3,IO_L11P_T1_SRCC_35*%
%TO.N,unconnected-(U1B-IO_L11P_T1_SRCC_35-PadE3)*%
X96500000Y-104500000D03*
%TO.P,U1,E2,IO_L10P_T1_AD15P_35*%
%TO.N,unconnected-(U1B-IO_L10P_T1_AD15P_35-PadE2)*%
X95500000Y-104500000D03*
%TO.P,U1,E1,IO_L15N_T2_DQS_35*%
%TO.N,unconnected-(U1B-IO_L15N_T2_DQS_35-PadE1)*%
X94500000Y-104500000D03*
%TO.P,U1,D16,IO_L17N_T2_A25_15*%
%TO.N,unconnected-(U1A-IO_L17N_T2_A25_15-PadD16)*%
X109500000Y-103500000D03*
%TO.P,U1,D15,IO_L15N_T2_DQS_ADV_B_15*%
%TO.N,unconnected-(U1A-IO_L15N_T2_DQS_ADV_B_15-PadD15)*%
X108500000Y-103500000D03*
%TO.P,U1,D14,IO_L15P_T2_DQS_15*%
%TO.N,unconnected-(U1A-IO_L15P_T2_DQS_15-PadD14)*%
X107500000Y-103500000D03*
%TO.P,U1,D13,IO_L12P_T1_MRCC_15*%
%TO.N,unconnected-(U1A-IO_L12P_T1_MRCC_15-PadD13)*%
X106500000Y-103500000D03*
%TO.P,U1,D12,GND*%
%TO.N,GND*%
X105500000Y-103500000D03*
%TO.P,U1,D11,IO_L14N_T2_SRCC_15*%
%TO.N,unconnected-(U1A-IO_L14N_T2_SRCC_15-PadD11)*%
X104500000Y-103500000D03*
%TO.P,U1,D10,IO_0_15*%
%TO.N,Net-(J4-Pin_10)*%
X103500000Y-103500000D03*
%TO.P,U1,D9,IO_L6N_T0_VREF_15*%
%TO.N,unconnected-(U1A-IO_L6N_T0_VREF_15-PadD9)*%
X102500000Y-103500000D03*
%TO.P,U1,D8,IO_L6P_T0_15*%
%TO.N,unconnected-(U1A-IO_L6P_T0_15-PadD8)*%
X101500000Y-103500000D03*
%TO.P,U1,D7,VCCO_35*%
%TO.N,3.3V*%
X100500000Y-103500000D03*
%TO.P,U1,D6,IO_L6P_T0_35*%
%TO.N,unconnected-(U1B-IO_L6P_T0_35-PadD6)*%
X99500000Y-103500000D03*
%TO.P,U1,D5,IO_L6N_T0_VREF_35*%
%TO.N,unconnected-(U1B-IO_L6N_T0_VREF_35-PadD5)*%
X98500000Y-103500000D03*
%TO.P,U1,D4,IO_L12P_T1_MRCC_35*%
%TO.N,unconnected-(U1B-IO_L12P_T1_MRCC_35-PadD4)*%
X97500000Y-103500000D03*
%TO.P,U1,D3,IO_L11N_T1_SRCC_35*%
%TO.N,unconnected-(U1B-IO_L11N_T1_SRCC_35-PadD3)*%
X96500000Y-103500000D03*
%TO.P,U1,D2,GND*%
%TO.N,GND*%
X95500000Y-103500000D03*
%TO.P,U1,D1,IO_L10N_T1_AD15N_35*%
%TO.N,unconnected-(U1B-IO_L10N_T1_AD15N_35-PadD1)*%
X94500000Y-103500000D03*
%TO.P,U1,C16,IO_L10P_T1_AD11P_15*%
%TO.N,unconnected-(U1A-IO_L10P_T1_AD11P_15-PadC16)*%
X109500000Y-102500000D03*
%TO.P,U1,C15,GND*%
%TO.N,GND*%
X108500000Y-102500000D03*
%TO.P,U1,C14,IO_L8P_T1_AD10P_15*%
%TO.N,unconnected-(U1A-IO_L8P_T1_AD10P_15-PadC14)*%
X107500000Y-102500000D03*
%TO.P,U1,C13,IO_L12N_T1_MRCC_15*%
%TO.N,unconnected-(U1A-IO_L12N_T1_MRCC_15-PadC13)*%
X106500000Y-102500000D03*
%TO.P,U1,C12,IO_L11N_T1_SRCC_15*%
%TO.N,unconnected-(U1A-IO_L11N_T1_SRCC_15-PadC12)*%
X105500000Y-102500000D03*
%TO.P,U1,C11,IO_L11P_T1_SRCC_15*%
%TO.N,unconnected-(U1A-IO_L11P_T1_SRCC_15-PadC11)*%
X104500000Y-102500000D03*
%TO.P,U1,C10,VCCO_15*%
%TO.N,3.3V*%
X103500000Y-102500000D03*
%TO.P,U1,C9,IO_L1N_T0_AD0N_15*%
%TO.N,Net-(J4-Pin_8)*%
X102500000Y-102500000D03*
%TO.P,U1,C8,IO_L1P_T0_AD0P_15*%
%TO.N,Net-(J4-Pin_9)*%
X101500000Y-102500000D03*
%TO.P,U1,C7,IO_L5P_T0_AD13P_35*%
%TO.N,unconnected-(U1B-IO_L5P_T0_AD13P_35-PadC7)*%
X100500000Y-102500000D03*
%TO.P,U1,C6,IO_L5N_T0_AD13N_35*%
%TO.N,unconnected-(U1B-IO_L5N_T0_AD13N_35-PadC6)*%
X99500000Y-102500000D03*
%TO.P,U1,C5,GND*%
%TO.N,GND*%
X98500000Y-102500000D03*
%TO.P,U1,C4,IO_L12N_T1_MRCC_35*%
%TO.N,unconnected-(U1B-IO_L12N_T1_MRCC_35-PadC4)*%
X97500000Y-102500000D03*
%TO.P,U1,C3,IO_L7P_T1_AD6P_35*%
%TO.N,unconnected-(U1B-IO_L7P_T1_AD6P_35-PadC3)*%
X96500000Y-102500000D03*
%TO.P,U1,C2,IO_L7N_T1_AD6N_35*%
%TO.N,unconnected-(U1B-IO_L7N_T1_AD6N_35-PadC2)*%
X95500000Y-102500000D03*
%TO.P,U1,C1,IO_L9P_T1_DQS_AD7P_35*%
%TO.N,unconnected-(U1B-IO_L9P_T1_DQS_AD7P_35-PadC1)*%
X94500000Y-102500000D03*
%TO.P,U1,B16,IO_L10N_T1_AD11N_15*%
%TO.N,unconnected-(U1A-IO_L10N_T1_AD11N_15-PadB16)*%
X109500000Y-101500000D03*
%TO.P,U1,B15,IO_L9P_T1_DQS_AD3P_15*%
%TO.N,unconnected-(U1A-IO_L9P_T1_DQS_AD3P_15-PadB15)*%
X108500000Y-101500000D03*
%TO.P,U1,B14,IO_L8N_T1_AD10N_15*%
%TO.N,unconnected-(U1A-IO_L8N_T1_AD10N_15-PadB14)*%
X107500000Y-101500000D03*
%TO.P,U1,B13,VCCO_15*%
%TO.N,3.3V*%
X106500000Y-101500000D03*
%TO.P,U1,B12,IO_L5P_T0_AD9P_15*%
%TO.N,Net-(J4-Pin_1)*%
X105500000Y-101500000D03*
%TO.P,U1,B11,IO_L4N_T0_15*%
%TO.N,Net-(J4-Pin_2)*%
X104500000Y-101500000D03*
%TO.P,U1,B10,IO_L4P_T0_15*%
%TO.N,Net-(J4-Pin_3)*%
X103500000Y-101500000D03*
%TO.P,U1,B9,IO_L3P_T0_DQS_AD1P_15*%
%TO.N,Net-(J4-Pin_5)*%
X102500000Y-101500000D03*
%TO.P,U1,B8,GND*%
%TO.N,GND*%
X101500000Y-101500000D03*
%TO.P,U1,B7,IO_L1P_T0_AD4P_35*%
%TO.N,unconnected-(U1B-IO_L1P_T0_AD4P_35-PadB7)*%
X100500000Y-101500000D03*
%TO.P,U1,B6,IO_L2P_T0_AD12P_35*%
%TO.N,unconnected-(U1B-IO_L2P_T0_AD12P_35-PadB6)*%
X99500000Y-101500000D03*
%TO.P,U1,B5,IO_L2N_T0_AD12N_35*%
%TO.N,unconnected-(U1B-IO_L2N_T0_AD12N_35-PadB5)*%
X98500000Y-101500000D03*
%TO.P,U1,B4,IO_L4P_T0_35*%
%TO.N,unconnected-(U1B-IO_L4P_T0_35-PadB4)*%
X97500000Y-101500000D03*
%TO.P,U1,B3,VCCO_35*%
%TO.N,3.3V*%
X96500000Y-101500000D03*
%TO.P,U1,B2,IO_L8P_T1_AD14P_35*%
%TO.N,unconnected-(U1B-IO_L8P_T1_AD14P_35-PadB2)*%
X95500000Y-101500000D03*
%TO.P,U1,B1,IO_L9N_T1_DQS_AD7N_35*%
%TO.N,unconnected-(U1B-IO_L9N_T1_DQS_AD7N_35-PadB1)*%
X94500000Y-101500000D03*
%TO.P,U1,A16,VCCO_15*%
%TO.N,3.3V*%
X109500000Y-100500000D03*
%TO.P,U1,A15,IO_L9N_T1_DQS_AD3N_15*%
%TO.N,unconnected-(U1A-IO_L9N_T1_DQS_AD3N_15-PadA15)*%
X108500000Y-100500000D03*
%TO.P,U1,A14,IO_L7N_T1_AD2N_15*%
%TO.N,unconnected-(U1A-IO_L7N_T1_AD2N_15-PadA14)*%
X107500000Y-100500000D03*
%TO.P,U1,A13,IO_L7P_T1_AD2P_15*%
%TO.N,unconnected-(U1A-IO_L7P_T1_AD2P_15-PadA13)*%
X106500000Y-100500000D03*
%TO.P,U1,A12,IO_L5N_T0_AD9N_15*%
%TO.N,unconnected-(U1A-IO_L5N_T0_AD9N_15-PadA12)*%
X105500000Y-100500000D03*
%TO.P,U1,A11,GND*%
%TO.N,GND*%
X104500000Y-100500000D03*
%TO.P,U1,A10,IO_L3N_T0_DQS_AD1N_15*%
%TO.N,Net-(J4-Pin_4)*%
X103500000Y-100500000D03*
%TO.P,U1,A9,IO_L2N_T0_AD8N_15*%
%TO.N,Net-(J4-Pin_6)*%
X102500000Y-100500000D03*
%TO.P,U1,A8,IO_L2P_T0_AD8P_15*%
%TO.N,Net-(J4-Pin_7)*%
X101500000Y-100500000D03*
%TO.P,U1,A7,IO_L1N_T0_AD4N_35*%
%TO.N,unconnected-(U1B-IO_L1N_T0_AD4N_35-PadA7)*%
X100500000Y-100500000D03*
%TO.P,U1,A6,VCCO_35*%
%TO.N,3.3V*%
X99500000Y-100500000D03*
%TO.P,U1,A5,IO_L3P_T0_DQS_AD5P_35*%
%TO.N,unconnected-(U1B-IO_L3P_T0_DQS_AD5P_35-PadA5)*%
X98500000Y-100500000D03*
%TO.P,U1,A4,IO_L3N_T0_DQS_AD5N_35*%
%TO.N,unconnected-(U1B-IO_L3N_T0_DQS_AD5N_35-PadA4)*%
X97500000Y-100500000D03*
%TO.P,U1,A3,IO_L4N_T0_35*%
%TO.N,unconnected-(U1B-IO_L4N_T0_35-PadA3)*%
X96500000Y-100500000D03*
%TO.P,U1,A2,IO_L8N_T1_AD14N_35*%
%TO.N,unconnected-(U1B-IO_L8N_T1_AD14N_35-PadA2)*%
X95500000Y-100500000D03*
%TO.P,U1,A1,GND*%
%TO.N,GND*%
X94500000Y-100500000D03*
%TD*%
D20*
%TO.P,X1,1,Tri-State*%
%TO.N,Net-(X1-Tri-State)*%
X109450000Y-120925000D03*
%TO.P,X1,2,GND*%
%TO.N,GND*%
X109450000Y-119075000D03*
%TO.P,X1,3,OUT*%
%TO.N,CLK*%
X108000000Y-119075000D03*
%TO.P,X1,4,VDD*%
%TO.N,3.3V*%
X108000000Y-120925000D03*
%TD*%
D16*
%TO.P,R1,2*%
%TO.N,3.3V*%
X121220000Y-93250000D03*
%TO.P,R1,1*%
%TO.N,Net-(U1C-PROGRAM_B_0)*%
X120200000Y-93250000D03*
%TD*%
D21*
%TO.P,IC1,1,EN1*%
%TO.N,EN1*%
X95900000Y-84400000D03*
%TO.P,IC1,2,PV1*%
X95900000Y-84900000D03*
%TO.P,IC1,3,LX1*%
%TO.N,LX1*%
X95900000Y-85400000D03*
%TO.P,IC1,4,PGND1*%
%TO.N,GND*%
X95900000Y-85900000D03*
%TO.P,IC1,5,PGND2*%
X95900000Y-86400000D03*
%TO.P,IC1,6,LX2*%
%TO.N,LX2*%
X95900000Y-86900000D03*
%TO.P,IC1,7,PV2*%
%TO.N,EN1*%
X95900000Y-87400000D03*
D22*
%TO.P,IC1,8,OUTS2*%
%TO.N,1.8V*%
X96750000Y-88250000D03*
%TO.P,IC1,9,EN2*%
%TO.N,EN2*%
X97250000Y-88250000D03*
%TO.P,IC1,10,PG2*%
%TO.N,EN4*%
X97750000Y-88250000D03*
%TO.P,IC1,11,GND_1*%
%TO.N,GND*%
X98250000Y-88250000D03*
%TO.P,IC1,12,PG3*%
%TO.N,EN2*%
X98750000Y-88250000D03*
%TO.P,IC1,13,EN3*%
%TO.N,EN3*%
X99250000Y-88250000D03*
%TO.P,IC1,14,OUTS3*%
%TO.N,1.2V*%
X99750000Y-88250000D03*
D21*
%TO.P,IC1,15,PV3*%
%TO.N,EN1*%
X100600000Y-87400000D03*
%TO.P,IC1,16,LX3*%
%TO.N,LX3*%
X100600000Y-86900000D03*
%TO.P,IC1,17,PGND3*%
%TO.N,GND*%
X100600000Y-86400000D03*
%TO.P,IC1,18,PGND4*%
X100600000Y-85900000D03*
%TO.P,IC1,19,LX4*%
%TO.N,LX4*%
X100600000Y-85400000D03*
%TO.P,IC1,20,PV4*%
%TO.N,EN1*%
X100600000Y-84900000D03*
%TO.P,IC1,21,EN4*%
%TO.N,EN4*%
X100600000Y-84400000D03*
D22*
%TO.P,IC1,22,OUTS4*%
%TO.N,3.3V*%
X99750000Y-83550000D03*
%TO.P,IC1,23,PG4*%
%TO.N,PG4*%
X99250000Y-83550000D03*
%TO.P,IC1,24,GND_2*%
%TO.N,GND*%
X98750000Y-83550000D03*
%TO.P,IC1,25,SYNC*%
X98250000Y-83550000D03*
%TO.P,IC1,26,VA*%
%TO.N,EN1*%
X97750000Y-83550000D03*
%TO.P,IC1,27,PG1*%
%TO.N,EN3*%
X97250000Y-83550000D03*
%TO.P,IC1,28,OUTS1*%
%TO.N,1V*%
X96750000Y-83550000D03*
D23*
%TO.P,IC1,29,EP*%
%TO.N,GND*%
X98250000Y-85900000D03*
%TD*%
D24*
%TO.P,J1,16*%
%TO.N,N/C*%
X91500000Y-77375000D03*
%TO.P,J1,15*%
X81500000Y-77375000D03*
D25*
%TO.P,J1,14,Pin_14*%
%TO.N,unconnected-(J1-Pin_14-Pad14)*%
X92500000Y-75250000D03*
%TO.P,J1,13,Pin_13*%
%TO.N,GND*%
X92500000Y-79500000D03*
%TO.P,J1,12,Pin_12*%
%TO.N,unconnected-(J1-Pin_12-Pad12)*%
X90500000Y-75250000D03*
%TO.P,J1,11,Pin_11*%
%TO.N,GND*%
X90500000Y-79500000D03*
%TO.P,J1,10,Pin_10*%
%TO.N,TDI*%
X88500000Y-75250000D03*
%TO.P,J1,9,Pin_9*%
%TO.N,GND*%
X88500000Y-79500000D03*
%TO.P,J1,8,Pin_8*%
%TO.N,TDO*%
X86500000Y-75250000D03*
%TO.P,J1,7,Pin_7*%
%TO.N,GND*%
X86500000Y-79500000D03*
%TO.P,J1,6,Pin_6*%
%TO.N,TCK*%
X84500000Y-75250000D03*
%TO.P,J1,5,Pin_5*%
%TO.N,GND*%
X84500000Y-79500000D03*
%TO.P,J1,4,Pin_4*%
%TO.N,TMS*%
X82500000Y-75250000D03*
%TO.P,J1,3,Pin_3*%
%TO.N,GND*%
X82500000Y-79500000D03*
%TO.P,J1,2,Pin_2*%
%TO.N,3.3V*%
X80500000Y-75250000D03*
%TO.P,J1,1,Pin_1*%
%TO.N,GND*%
X80500000Y-79500000D03*
%TD*%
D26*
%TO.P,J10,3,Pin_3*%
%TO.N,GND*%
X98460000Y-75850000D03*
%TO.P,J10,2,Pin_2*%
%TO.N,3.3V*%
X101000000Y-79150000D03*
%TO.P,J10,1,Pin_1*%
%TO.N,EN1*%
X103540000Y-75850000D03*
%TD*%
D10*
%TO.P,R5,1*%
%TO.N,EN4*%
X85960000Y-87250000D03*
%TO.P,R5,2*%
%TO.N,EN1*%
X84940000Y-87250000D03*
%TD*%
D17*
%TO.P,Q3,1,S*%
%TO.N,GND*%
X118162500Y-86100000D03*
%TO.P,Q3,2,G*%
%TO.N,LED_Test*%
X118162500Y-88000000D03*
%TO.P,Q3,3,D*%
%TO.N,Net-(D1-K)*%
X120437500Y-87050000D03*
%TD*%
D27*
%TO.P,C44,1*%
%TO.N,1.2V*%
X106800000Y-94080000D03*
%TO.P,C44,2*%
X106800000Y-93120000D03*
%TD*%
D28*
%TO.P,C41,1*%
%TO.N,EN1*%
X102700000Y-83850000D03*
%TO.P,C41,2*%
%TO.N,GND*%
X103660000Y-83850000D03*
%TD*%
%TO.P,C39,1*%
%TO.N,EN1*%
X102720000Y-84900000D03*
%TO.P,C39,2*%
%TO.N,GND*%
X103680000Y-84900000D03*
%TD*%
D29*
%TO.P,C40,1*%
%TO.N,EN1*%
X93560000Y-83350000D03*
%TO.P,C40,2*%
%TO.N,GND*%
X92600000Y-83350000D03*
%TD*%
%TO.P,C43,1*%
%TO.N,EN1*%
X93550000Y-84900000D03*
%TO.P,C43,2*%
%TO.N,GND*%
X92590000Y-84900000D03*
%TD*%
%TO.P,C42,1*%
%TO.N,EN1*%
X96030000Y-82650000D03*
%TO.P,C42,2*%
%TO.N,GND*%
X95070000Y-82650000D03*
%TD*%
D30*
%TO.N,PG4*%
X107500000Y-87200000D03*
%TO.N,EN3*%
X86650000Y-89650000D03*
%TO.N,EN2*%
X86650000Y-88450000D03*
%TO.N,EN4*%
X86650000Y-87250000D03*
%TO.N,1.2V*%
X107900000Y-94850000D03*
%TO.N,GND*%
X109000000Y-95000000D03*
X95050000Y-81800000D03*
X104550000Y-84900000D03*
X92600000Y-84050000D03*
%TO.N,TDO*%
X101050000Y-112950000D03*
%TO.N,TMS*%
X82650000Y-77250000D03*
%TO.N,TCK*%
X84500000Y-77250000D03*
%TO.N,TDO*%
X86500000Y-77250000D03*
%TO.N,TDI*%
X88500000Y-77250000D03*
%TO.N,Net-(U1C-PROGRAM_B_0)*%
X119350000Y-93250000D03*
%TO.N,1.8V*%
X102850000Y-120950000D03*
%TO.N,Net-(J4-Pin_7)*%
X101050857Y-100002898D03*
%TO.N,Net-(J4-Pin_6)*%
X102950000Y-100050000D03*
%TO.N,Net-(J4-Pin_4)*%
X103950000Y-100050000D03*
%TO.N,Net-(J3-Pin_6)*%
X122945000Y-110360000D03*
%TO.N,Net-(J3-Pin_8)*%
X122895000Y-115460000D03*
%TO.N,Net-(J3-Pin_4)*%
X122945000Y-105310000D03*
%TO.N,Net-(J3-Pin_5)*%
X119295000Y-107860000D03*
%TO.N,Net-(J3-Pin_2)*%
X122945000Y-100260000D03*
%TO.N,Net-(J3-Pin_3)*%
X119295000Y-102810000D03*
%TO.N,Net-(J3-Pin_9)*%
X119445000Y-118010000D03*
%TO.N,Net-(J3-Pin_10)*%
X122895000Y-120560000D03*
%TO.N,Net-(J3-Pin_7)*%
X119295000Y-112960000D03*
%TO.N,Net-(J3-Pin_1)*%
X119295000Y-97710000D03*
%TO.N,Net-(J4-Pin_9)*%
X81050000Y-118000000D03*
%TO.N,Net-(J4-Pin_7)*%
X81050000Y-112950000D03*
%TO.N,Net-(J4-Pin_5)*%
X81050000Y-107900000D03*
%TO.N,Net-(J4-Pin_3)*%
X81100000Y-102800000D03*
%TO.N,Net-(J4-Pin_1)*%
X81100000Y-97700000D03*
%TO.N,Net-(J4-Pin_2)*%
X84550000Y-100250000D03*
%TO.N,Net-(J4-Pin_4)*%
X84700000Y-105300000D03*
%TO.N,Net-(J4-Pin_6)*%
X84700000Y-110400000D03*
%TO.N,Net-(J4-Pin_8)*%
X84700000Y-115450000D03*
%TO.N,Net-(J4-Pin_10)*%
X84600000Y-120550000D03*
%TO.N,INIT_B*%
X122800000Y-93200000D03*
%TO.N,LED_Test*%
X116050000Y-95650000D03*
%TO.N,GND*%
X98150000Y-120000000D03*
X110550000Y-119100000D03*
X80500000Y-81500000D03*
X92500000Y-81500000D03*
X98500000Y-77300000D03*
X99600000Y-75700000D03*
X97300000Y-75700000D03*
%TO.N,EN1*%
X105800000Y-88000000D03*
%TO.N,GND*%
X121600000Y-86100000D03*
X117100000Y-86100000D03*
X107900000Y-86100000D03*
X112500000Y-86100000D03*
X123700000Y-75550000D03*
%TO.N,1V*%
X120250000Y-75550000D03*
%TO.N,1.2V*%
X116800000Y-75550000D03*
%TO.N,1.8V*%
X113350000Y-75550000D03*
%TO.N,3.3V*%
X92250000Y-102750000D03*
%TO.N,EN1*%
X95900000Y-88000000D03*
X94300000Y-84900000D03*
X94950000Y-84400000D03*
%TO.N,1V*%
X96750000Y-82650000D03*
%TO.N,EN3*%
X97250000Y-82000000D03*
%TO.N,EN1*%
X97750000Y-82650000D03*
%TO.N,PG4*%
X99250000Y-82000000D03*
%TO.N,3.3V*%
X99750000Y-82650000D03*
%TO.N,EN4*%
X101650000Y-84100000D03*
%TO.N,EN1*%
X101700000Y-84900000D03*
X101200000Y-88100000D03*
%TO.N,EN3*%
X99900000Y-89450000D03*
%TO.N,1.2V*%
X100300000Y-88250000D03*
%TO.N,EN4*%
X98300000Y-89500000D03*
%TO.N,EN2*%
X97500000Y-89500000D03*
%TO.N,1.8V*%
X96750000Y-89150000D03*
%TO.N,GND*%
X98250000Y-91500000D03*
X91000000Y-91500000D03*
X101750000Y-91500000D03*
%TO.N,1.2V*%
X103500000Y-93000000D03*
%TO.N,GND*%
X94705553Y-92000000D03*
%TO.N,LX1*%
X101000000Y-90500000D03*
X95350000Y-89700000D03*
%TO.N,LX2*%
X94750000Y-91000000D03*
X94750000Y-88500000D03*
%TO.N,LX4*%
X103000000Y-87250000D03*
X102000000Y-88250000D03*
%TO.N,3.3V*%
X92850000Y-92950000D03*
%TO.N,1.8V*%
X96400000Y-92950000D03*
%TO.N,1V*%
X99950000Y-92950000D03*
%TO.N,1.2V*%
X103500000Y-93000000D03*
%TO.N,GND*%
X114750000Y-114000000D03*
X96250000Y-96000000D03*
X107750000Y-96000000D03*
X110500000Y-96000000D03*
%TO.N,1V*%
X111500000Y-98500000D03*
%TO.N,GND*%
X98000000Y-96750000D03*
X100500000Y-96750000D03*
X105250000Y-96750000D03*
X103000000Y-96750000D03*
%TO.N,1V*%
X106000000Y-98500000D03*
%TO.N,1.8V*%
X97250000Y-98500000D03*
X101250000Y-98500000D03*
%TO.N,1V*%
X102275000Y-98500000D03*
%TO.N,GND*%
X90500000Y-103750000D03*
X90500000Y-106500000D03*
X90500000Y-109000000D03*
X90500000Y-111500000D03*
X114000000Y-104000000D03*
X114000000Y-106500000D03*
X114000000Y-109000000D03*
X114000000Y-111500000D03*
%TO.N,3.3V*%
X100000000Y-104000000D03*
%TO.N,Net-(J3-Pin_1)*%
X108950000Y-115950000D03*
%TO.N,Net-(J3-Pin_9)*%
X105950000Y-111950000D03*
%TO.N,GND*%
X104950000Y-108950000D03*
X94050000Y-100050000D03*
%TO.N,3.3V*%
X99050000Y-110950000D03*
%TO.N,Net-(J3-Pin_6)*%
X108950000Y-113950000D03*
%TO.N,GND*%
X103950000Y-111950000D03*
%TO.N,1.8V*%
X104950000Y-109950000D03*
%TO.N,Net-(J4-Pin_3)*%
X103950000Y-101050000D03*
%TO.N,Net-(J4-Pin_8)*%
X102950000Y-102050000D03*
%TO.N,GND*%
X102950000Y-114950000D03*
%TO.N,Net-(J3-Pin_7)*%
X109950000Y-112950000D03*
%TO.N,Net-(U1C-PROGRAM_B_0)*%
X102950000Y-110950000D03*
%TO.N,1V*%
X100050000Y-105050000D03*
%TO.N,3.3V*%
X109950000Y-100050000D03*
%TO.N,Net-(J4-Pin_2)*%
X104950000Y-101050000D03*
%TO.N,GND*%
X98050000Y-112950000D03*
%TO.N,3.3V*%
X100050000Y-114000000D03*
%TO.N,1V*%
X99050000Y-106050000D03*
%TO.N,GND*%
X106950000Y-106050000D03*
X108950000Y-102050000D03*
%TO.N,INIT_B*%
X103950000Y-109950000D03*
%TO.N,GND*%
X100050000Y-106050000D03*
%TO.N,TMS*%
X100050000Y-111950000D03*
%TO.N,GND*%
X109950000Y-105050000D03*
%TO.N,1.8V*%
X103950000Y-110950000D03*
%TO.N,DONE*%
X103950000Y-107050000D03*
%TO.N,3.3V*%
X95050000Y-108950000D03*
X107950000Y-104050000D03*
%TO.N,TDI*%
X100050000Y-112950000D03*
%TO.N,GND*%
X101050000Y-111950000D03*
X99050000Y-105050000D03*
%TO.N,Net-(J4-Pin_10)*%
X103950000Y-103050000D03*
%TO.N,1.8V*%
X101270000Y-105270000D03*
%TO.N,3.3V*%
X96050000Y-101050000D03*
%TO.N,1.8V*%
X104169194Y-105999430D03*
%TO.N,3.3V*%
X104950000Y-115950000D03*
%TO.N,GND*%
X103950000Y-105050000D03*
X101050000Y-101050000D03*
%TO.N,Net-(U1C-VREFP_0)*%
X101050000Y-108950000D03*
%TO.N,3.3V*%
X97050000Y-104050000D03*
%TO.N,Net-(J4-Pin_5)*%
X102950000Y-101050000D03*
%TO.N,GND*%
X109950000Y-115950000D03*
%TO.N,3.3V*%
X100050000Y-103050000D03*
X103950000Y-102050000D03*
X94050000Y-105050000D03*
%TO.N,GND*%
X104950000Y-110950000D03*
%TO.N,3.3V*%
X103950000Y-112950000D03*
X106950000Y-111950000D03*
%TO.N,1V*%
X99050000Y-108950000D03*
%TO.N,3.3V*%
X109950000Y-110950000D03*
%TO.N,GND*%
X95050000Y-113950000D03*
X102950000Y-104050000D03*
X99050000Y-109950000D03*
X104950000Y-100050000D03*
X98050000Y-102050000D03*
%TO.N,3.3V*%
X105750000Y-108750000D03*
X104950000Y-111950000D03*
X102950000Y-111950000D03*
X94050000Y-115950000D03*
%TO.N,Net-(J3-Pin_8)*%
X109950000Y-111950000D03*
%TO.N,1V*%
X102950000Y-105050000D03*
%TO.N,GND*%
X99050000Y-107050000D03*
%TO.N,1.8V*%
X103950000Y-108950000D03*
%TO.N,1V*%
X102925000Y-109925000D03*
%TO.N,GND*%
X96050000Y-106050000D03*
%TO.N,3.3V*%
X106950000Y-101050000D03*
%TO.N,1V*%
X101075000Y-110925000D03*
%TO.N,3.3V*%
X108950000Y-110950000D03*
%TO.N,Net-(J3-Pin_2)*%
X107950000Y-115950000D03*
%TO.N,1V*%
X104950000Y-105050000D03*
%TO.N,GND*%
X102950000Y-106050000D03*
X100050000Y-107050000D03*
X94050000Y-110950000D03*
X105950000Y-113950000D03*
X105950000Y-103050000D03*
%TO.N,1V*%
X102950000Y-107050000D03*
%TO.N,3.3V*%
X96050000Y-111950000D03*
%TO.N,1V*%
X103950000Y-104050000D03*
%TO.N,GND*%
X99050000Y-115950000D03*
X102950000Y-108950000D03*
%TO.N,Net-(J3-Pin_5)*%
X109950000Y-113950000D03*
%TO.N,LED_Test*%
X106950000Y-112950000D03*
%TO.N,GND*%
X108950000Y-112950000D03*
%TO.N,Net-(J3-Pin_4)*%
X108950000Y-114950000D03*
%TO.N,Net-(J4-Pin_1)*%
X105950000Y-101050000D03*
%TO.N,Net-(J3-Pin_3)*%
X109950000Y-114950000D03*
%TO.N,GND*%
X107950000Y-109950000D03*
%TO.N,TCK*%
X100050000Y-110950000D03*
%TO.N,3.3V*%
X97050000Y-114950000D03*
%TO.N,GND*%
X97050000Y-109950000D03*
%TO.N,3.3V*%
X108950000Y-107050000D03*
X107950000Y-114950000D03*
%TO.N,Net-(J4-Pin_9)*%
X101050000Y-102050000D03*
%TO.N,3.3V*%
X99050000Y-100050000D03*
%TO.N,1.8V*%
X101050000Y-106050000D03*
%TO.N,CLK*%
X107950000Y-112950000D03*
%TO.N,Net-(J3-Pin_10)*%
X105950000Y-110950000D03*
%TO.N,GND*%
X95050000Y-103050000D03*
%TD*%
D31*
%TO.N,PG4*%
X107510000Y-87210000D02*
X107500000Y-87200000D01*
X107510000Y-88000000D02*
X107510000Y-87210000D01*
D32*
%TO.N,EN3*%
X85960000Y-89650000D02*
X86650000Y-89650000D01*
%TO.N,EN2*%
X85960000Y-88450000D02*
X86650000Y-88450000D01*
%TO.N,EN4*%
X85960000Y-87250000D02*
X86650000Y-87250000D01*
%TO.N,EN1*%
X84940000Y-87250000D02*
X84940000Y-86930001D01*
X84940000Y-86930001D02*
X86260001Y-85610000D01*
X86260001Y-85610000D02*
X93149999Y-85610000D01*
X93149999Y-85610000D02*
X93550000Y-85209999D01*
X93550000Y-85209999D02*
X93550000Y-84900000D01*
X84940000Y-87250000D02*
X84940000Y-89650000D01*
D31*
%TO.N,EN2*%
X97500000Y-89500000D02*
X97950000Y-89950000D01*
X97950000Y-89950000D02*
X98650000Y-89950000D01*
X98650000Y-89950000D02*
X99100000Y-89500000D01*
D32*
%TO.N,1.2V*%
X107900000Y-94110000D02*
X107900000Y-94850000D01*
%TO.N,GND*%
X109000000Y-94110000D02*
X109000000Y-95000000D01*
%TO.N,1.2V*%
X107900000Y-94110000D02*
X108920000Y-93090000D01*
X108920000Y-93090000D02*
X109000000Y-93090000D01*
X106800000Y-94080000D02*
X107870000Y-94080000D01*
X107870000Y-94080000D02*
X107900000Y-94110000D01*
X106800000Y-93120000D02*
X107870000Y-93120000D01*
X107870000Y-93120000D02*
X107900000Y-93090000D01*
X103516665Y-94250000D02*
X105670000Y-94250000D01*
X105670000Y-94250000D02*
X106800000Y-93120000D01*
%TO.N,GND*%
X103660000Y-83850000D02*
X103660000Y-84880000D01*
X103660000Y-84880000D02*
X103680000Y-84900000D01*
%TO.N,EN1*%
X102720000Y-84900000D02*
X102720000Y-83870000D01*
X102720000Y-83870000D02*
X102700000Y-83850000D01*
X102700000Y-83850000D02*
X102700000Y-83900000D01*
X102700000Y-83900000D02*
X101700000Y-84900000D01*
%TO.N,GND*%
X92600000Y-84050000D02*
X92600000Y-83350000D01*
%TO.N,EN1*%
X93560000Y-83350000D02*
X93900000Y-83350000D01*
X93900000Y-83350000D02*
X94950000Y-84400000D01*
%TO.N,GND*%
X95070000Y-81820000D02*
X95050000Y-81800000D01*
X95070000Y-82650000D02*
X95070000Y-81820000D01*
%TO.N,EN1*%
X96030000Y-82650000D02*
X96030000Y-82340001D01*
X96030000Y-82340001D02*
X96970001Y-81400000D01*
X96970001Y-81400000D02*
X97498529Y-81400000D01*
X97498529Y-81400000D02*
X98100000Y-82001471D01*
X98100000Y-82001471D02*
X98100000Y-82300000D01*
X98100000Y-82300000D02*
X97750000Y-82650000D01*
%TO.N,GND*%
X103680000Y-84900000D02*
X104550000Y-84900000D01*
%TO.N,EN1*%
X102720000Y-84900000D02*
X101700000Y-84900000D01*
%TO.N,GND*%
X92590000Y-84060000D02*
X92600000Y-84050000D01*
X92590000Y-84900000D02*
X92590000Y-84060000D01*
%TO.N,EN1*%
X93550000Y-84900000D02*
X94300000Y-84900000D01*
%TO.N,TDO*%
X101500000Y-112500000D02*
X101050000Y-112950000D01*
D31*
%TO.N,TMS*%
X82500000Y-77100000D02*
X82650000Y-77250000D01*
X82500000Y-75250000D02*
X82500000Y-77100000D01*
%TO.N,TCK*%
X84500000Y-75250000D02*
X84500000Y-77250000D01*
%TO.N,TDO*%
X86500000Y-75250000D02*
X86500000Y-77250000D01*
%TO.N,TDI*%
X88500000Y-75250000D02*
X88500000Y-77250000D01*
%TO.N,LED_Test*%
X116050000Y-95650000D02*
X118162500Y-93537500D01*
X118162500Y-93537500D02*
X118162500Y-88000000D01*
%TO.N,Net-(U1C-PROGRAM_B_0)*%
X120200000Y-93250000D02*
X119350000Y-93250000D01*
%TO.N,3.3V*%
X121220000Y-93250000D02*
X121785000Y-93815000D01*
X121785000Y-93815000D02*
X124645000Y-93815000D01*
X124645000Y-93815000D02*
X125210000Y-93250000D01*
X125210000Y-93250000D02*
X126000556Y-92459444D01*
X126000556Y-92459444D02*
X126000556Y-83383056D01*
X126000556Y-83383056D02*
X125100000Y-82482500D01*
%TO.N,INIT_B*%
X122800000Y-93200000D02*
X122850000Y-93250000D01*
X122850000Y-93250000D02*
X124190000Y-93250000D01*
X122800000Y-93200000D02*
X122818056Y-93181944D01*
X122818056Y-93181944D02*
X122818056Y-88000000D01*
%TO.N,1.8V*%
X101437500Y-120950000D02*
X102850000Y-120950000D01*
D32*
%TO.N,Net-(J4-Pin_7)*%
X101500000Y-100452041D02*
X101050857Y-100002898D01*
X101500000Y-100500000D02*
X101500000Y-100452041D01*
%TO.N,Net-(J4-Pin_6)*%
X102500000Y-100500000D02*
X102950000Y-100050000D01*
%TO.N,Net-(J4-Pin_4)*%
X103500000Y-100500000D02*
X103950000Y-100050000D01*
D31*
%TO.N,Net-(J4-Pin_10)*%
X84600000Y-120550000D02*
X84580000Y-120570000D01*
X84580000Y-120570000D02*
X82800000Y-120570000D01*
%TO.N,Net-(J3-Pin_5)*%
X121195000Y-107850000D02*
X119305000Y-107850000D01*
%TO.N,Net-(J3-Pin_7)*%
X121195000Y-112930000D02*
X119325000Y-112930000D01*
%TO.N,Net-(J3-Pin_2)*%
X124495000Y-100230000D02*
X122975000Y-100230000D01*
X122975000Y-100230000D02*
X122945000Y-100260000D01*
%TO.N,Net-(J3-Pin_4)*%
X124495000Y-105310000D02*
X122945000Y-105310000D01*
%TO.N,Net-(J3-Pin_3)*%
X119335000Y-102770000D02*
X119295000Y-102810000D01*
X121195000Y-102770000D02*
X119335000Y-102770000D01*
%TO.N,Net-(J3-Pin_1)*%
X121195000Y-97690000D02*
X119315000Y-97690000D01*
%TO.N,Net-(J3-Pin_7)*%
X119325000Y-112930000D02*
X119295000Y-112960000D01*
%TO.N,Net-(J3-Pin_1)*%
X119315000Y-97690000D02*
X119295000Y-97710000D01*
%TO.N,Net-(J3-Pin_5)*%
X119305000Y-107850000D02*
X119295000Y-107860000D01*
%TO.N,Net-(J3-Pin_8)*%
X124495000Y-115470000D02*
X122905000Y-115470000D01*
X122905000Y-115470000D02*
X122895000Y-115460000D01*
%TO.N,Net-(J3-Pin_6)*%
X124495000Y-110390000D02*
X122975000Y-110390000D01*
X122975000Y-110390000D02*
X122945000Y-110360000D01*
%TO.N,Net-(J3-Pin_9)*%
X121195000Y-118010000D02*
X119445000Y-118010000D01*
%TO.N,Net-(J3-Pin_10)*%
X124495000Y-120550000D02*
X122905000Y-120550000D01*
X122905000Y-120550000D02*
X122895000Y-120560000D01*
%TO.N,Net-(J4-Pin_9)*%
X81020000Y-118030000D02*
X81050000Y-118000000D01*
X79500000Y-118030000D02*
X81020000Y-118030000D01*
%TO.N,Net-(J4-Pin_7)*%
X79500000Y-112950000D02*
X81050000Y-112950000D01*
%TO.N,Net-(J4-Pin_5)*%
X81020000Y-107870000D02*
X81050000Y-107900000D01*
X79500000Y-107870000D02*
X81020000Y-107870000D01*
%TO.N,Net-(J4-Pin_3)*%
X81090000Y-102790000D02*
X81100000Y-102800000D01*
X79500000Y-102790000D02*
X81090000Y-102790000D01*
%TO.N,Net-(J4-Pin_1)*%
X81090000Y-97710000D02*
X81100000Y-97700000D01*
X79500000Y-97710000D02*
X81090000Y-97710000D01*
%TO.N,Net-(J4-Pin_2)*%
X82800000Y-100250000D02*
X84550000Y-100250000D01*
%TO.N,Net-(J4-Pin_4)*%
X84670000Y-105330000D02*
X84700000Y-105300000D01*
X82800000Y-105330000D02*
X84670000Y-105330000D01*
%TO.N,Net-(J4-Pin_6)*%
X84690000Y-110410000D02*
X84700000Y-110400000D01*
X82800000Y-110410000D02*
X84690000Y-110410000D01*
%TO.N,Net-(J4-Pin_8)*%
X84660000Y-115490000D02*
X84700000Y-115450000D01*
X82800000Y-115490000D02*
X84660000Y-115490000D01*
%TO.N,DONE*%
X113631945Y-88000000D02*
X113631945Y-93497381D01*
X106600000Y-105055000D02*
X106315674Y-105055000D01*
X113631945Y-93497381D02*
X110629326Y-96500000D01*
X105295000Y-106055000D02*
X104945000Y-106405000D01*
X110629326Y-96500000D02*
X110629326Y-102000000D01*
X109684326Y-102945000D02*
X107425674Y-102945000D01*
X110629326Y-102000000D02*
X109684326Y-102945000D01*
X107425674Y-102945000D02*
X107055000Y-103315674D01*
X107055000Y-103315674D02*
X107055000Y-104600000D01*
X107055000Y-104600000D02*
X106600000Y-105055000D01*
X106315674Y-105055000D02*
X105945000Y-105425674D01*
X104945000Y-106405000D02*
X104945000Y-106794326D01*
X105945000Y-105425674D02*
X105945000Y-105794326D01*
X105945000Y-105794326D02*
X105684326Y-106055000D01*
X105684326Y-106055000D02*
X105295000Y-106055000D01*
X104945000Y-106794326D02*
X104689326Y-107050000D01*
X104689326Y-107050000D02*
X103950000Y-107050000D01*
D32*
%TO.N,GND*%
X99562500Y-120000000D02*
X98150000Y-120000000D01*
D31*
%TO.N,Net-(U1C-VREFP_0)*%
X101437500Y-119050000D02*
X101945000Y-118542500D01*
X101945000Y-118542500D02*
X101945000Y-109315674D01*
X101945000Y-109315674D02*
X101579326Y-108950000D01*
X101579326Y-108950000D02*
X101050000Y-108950000D01*
%TO.N,CLK*%
X108000000Y-119075000D02*
X107055000Y-118130000D01*
X107055000Y-118130000D02*
X107055000Y-114315674D01*
X107055000Y-114315674D02*
X107370674Y-114000000D01*
X107370674Y-114000000D02*
X107650000Y-114000000D01*
X107650000Y-114000000D02*
X107950000Y-113700000D01*
X107950000Y-113700000D02*
X107950000Y-112950000D01*
D32*
%TO.N,GND*%
X110525000Y-119075000D02*
X110550000Y-119100000D01*
X109450000Y-119075000D02*
X110525000Y-119075000D01*
D31*
%TO.N,Net-(X1-Tri-State)*%
X105250000Y-120760000D02*
X106110000Y-121620000D01*
X106110000Y-121620000D02*
X108755000Y-121620000D01*
X108755000Y-121620000D02*
X109450000Y-120925000D01*
D32*
%TO.N,3.3V*%
X108000000Y-120925000D02*
X105262500Y-118187500D01*
X105262500Y-118187500D02*
X104950000Y-117875000D01*
X105250000Y-119740000D02*
X105250000Y-118200000D01*
X105250000Y-118200000D02*
X105262500Y-118187500D01*
X104950000Y-117875000D02*
X104950000Y-115950000D01*
X80500000Y-75250000D02*
X80500000Y-74375000D01*
X80500000Y-74375000D02*
X81400000Y-73475000D01*
X81400000Y-73475000D02*
X105864950Y-73475000D01*
X105864950Y-73475000D02*
X109889950Y-77500000D01*
%TO.N,GND*%
X80500000Y-79500000D02*
X80500000Y-81500000D01*
X92500000Y-79500000D02*
X80500000Y-79500000D01*
X92500000Y-79500000D02*
X92500000Y-81500000D01*
X98460000Y-77260000D02*
X98500000Y-77300000D01*
X98460000Y-75850000D02*
X98460000Y-77260000D01*
X99450000Y-75850000D02*
X99600000Y-75700000D01*
X98460000Y-75850000D02*
X99450000Y-75850000D01*
X97450000Y-75850000D02*
X97300000Y-75700000D01*
X98460000Y-75850000D02*
X97450000Y-75850000D01*
%TO.N,3.3V*%
X111310000Y-82482500D02*
X111310000Y-78920050D01*
X111310000Y-78920050D02*
X109889950Y-77500000D01*
D31*
%TO.N,EN1*%
X106490000Y-88000000D02*
X105800000Y-88000000D01*
%TO.N,Net-(D4-K)*%
X125093056Y-87050000D02*
X125093056Y-84064444D01*
X125093056Y-84064444D02*
X125100000Y-84057500D01*
%TO.N,Net-(D2-K)*%
X111313890Y-87050000D02*
X111313890Y-84061390D01*
X111313890Y-84061390D02*
X111310000Y-84057500D01*
%TO.N,Net-(D3-K)*%
X115906945Y-87050000D02*
X115906945Y-84060555D01*
X115906945Y-84060555D02*
X115910000Y-84057500D01*
%TO.N,Net-(D1-K)*%
X120437500Y-87050000D02*
X120437500Y-84120000D01*
X120437500Y-84120000D02*
X120500000Y-84057500D01*
%TO.N,GND*%
X122818056Y-86100000D02*
X121600000Y-86100000D01*
X118162500Y-86100000D02*
X117100000Y-86100000D01*
X109038890Y-86100000D02*
X107900000Y-86100000D01*
X113631945Y-86100000D02*
X112500000Y-86100000D01*
%TO.N,PG4*%
X107510000Y-88000000D02*
X109038890Y-88000000D01*
%TO.N,3.3V*%
X109889950Y-77500000D02*
X102650000Y-77500000D01*
X102650000Y-77500000D02*
X101000000Y-79150000D01*
%TO.N,GND*%
X123703350Y-75553350D02*
X123700000Y-75550000D01*
X123703350Y-77500000D02*
X123703350Y-75553350D01*
%TO.N,1V*%
X120250000Y-77500000D02*
X120250000Y-75550000D01*
%TO.N,1.2V*%
X116796650Y-75553350D02*
X116800000Y-75550000D01*
X116796650Y-77500000D02*
X116796650Y-75553350D01*
%TO.N,1.8V*%
X113343300Y-75556700D02*
X113350000Y-75550000D01*
X113343300Y-77500000D02*
X113343300Y-75556700D01*
D32*
%TO.N,3.3V*%
X92850000Y-102150000D02*
X92250000Y-102750000D01*
X92850000Y-94200000D02*
X92850000Y-102150000D01*
%TO.N,1.8V*%
X97250000Y-98500000D02*
X97250000Y-95044445D01*
X97250000Y-95044445D02*
X96405555Y-94200000D01*
%TO.N,1V*%
X102275000Y-98500000D02*
X102275000Y-96513890D01*
X102275000Y-96513890D02*
X99961110Y-94200000D01*
%TO.N,3.3V*%
X101000000Y-79150000D02*
X101000000Y-81400000D01*
X101000000Y-81400000D02*
X99750000Y-82650000D01*
D33*
%TO.N,EN1*%
X97750000Y-82650000D02*
X100150000Y-80250000D01*
X100150000Y-80250000D02*
X100150000Y-77850000D01*
X100150000Y-77850000D02*
X102150000Y-75850000D01*
X102150000Y-75850000D02*
X103540000Y-75850000D01*
X95900000Y-87400000D02*
X95900000Y-88000000D01*
X94300000Y-84900000D02*
X94450000Y-84900000D01*
X94450000Y-84900000D02*
X94950000Y-84400000D01*
X95900000Y-84900000D02*
X95900000Y-84400000D01*
X95900000Y-84900000D02*
X94300000Y-84900000D01*
D32*
X95900000Y-84400000D02*
X94950000Y-84400000D01*
D33*
X97750000Y-83550000D02*
X97750000Y-82650000D01*
X100600000Y-87400000D02*
X100600000Y-87500000D01*
X100600000Y-87500000D02*
X101200000Y-88100000D01*
X100600000Y-84900000D02*
X101700000Y-84900000D01*
D31*
%TO.N,1V*%
X96750000Y-83550000D02*
X96750000Y-82650000D01*
%TO.N,EN3*%
X97250000Y-83550000D02*
X97250000Y-82000000D01*
D33*
%TO.N,GND*%
X98750000Y-83550000D02*
X98250000Y-83550000D01*
D31*
%TO.N,PG4*%
X99250000Y-83550000D02*
X99250000Y-82000000D01*
%TO.N,3.3V*%
X99750000Y-83550000D02*
X99750000Y-82650000D01*
%TO.N,EN4*%
X101350000Y-84400000D02*
X101650000Y-84100000D01*
X100600000Y-84400000D02*
X101350000Y-84400000D01*
%TO.N,EN3*%
X99250000Y-88800000D02*
X99850000Y-89400000D01*
X99250000Y-88250000D02*
X99250000Y-88800000D01*
%TO.N,1.2V*%
X99750000Y-88250000D02*
X100300000Y-88250000D01*
%TO.N,EN2*%
X99100000Y-89240000D02*
X99100000Y-89500000D01*
X98750000Y-88890000D02*
X99100000Y-89240000D01*
X98750000Y-88250000D02*
X98750000Y-88890000D01*
%TO.N,EN4*%
X98150000Y-89500000D02*
X98300000Y-89500000D01*
X97750000Y-89100000D02*
X98150000Y-89500000D01*
X97750000Y-88250000D02*
X97750000Y-89100000D01*
%TO.N,EN2*%
X97250000Y-89250000D02*
X97500000Y-89500000D01*
X97250000Y-88250000D02*
X97250000Y-89250000D01*
D33*
%TO.N,GND*%
X98250000Y-88250000D02*
X98250000Y-85900000D01*
X100600000Y-86400000D02*
X98750000Y-86400000D01*
X98750000Y-86400000D02*
X98250000Y-85900000D01*
X98250000Y-85900000D02*
X100600000Y-85900000D01*
X98750000Y-83550000D02*
X98750000Y-85400000D01*
X98750000Y-85400000D02*
X98250000Y-85900000D01*
X98250000Y-83550000D02*
X98250000Y-85900000D01*
X95900000Y-85900000D02*
X98250000Y-85900000D01*
X95900000Y-86400000D02*
X97750000Y-86400000D01*
X97750000Y-86400000D02*
X98250000Y-85900000D01*
%TO.N,LX4*%
X102000000Y-88250000D02*
X102000000Y-88550000D01*
X102000000Y-88550000D02*
X100100000Y-90450000D01*
X100100000Y-90450000D02*
X94100000Y-90450000D01*
X94100000Y-90450000D02*
X92850000Y-91700000D01*
%TO.N,LX1*%
X94950000Y-89700000D02*
X94200000Y-88950000D01*
X95350000Y-89700000D02*
X94950000Y-89700000D01*
X94200000Y-86250000D02*
X95050000Y-85400000D01*
X94200000Y-88950000D02*
X94200000Y-86250000D01*
X95050000Y-85400000D02*
X95900000Y-85400000D01*
D31*
%TO.N,1.8V*%
X96750000Y-88250000D02*
X96750000Y-89150000D01*
D33*
%TO.N,LX1*%
X101000000Y-90500000D02*
X101000000Y-90661110D01*
X101000000Y-90661110D02*
X99961110Y-91700000D01*
%TO.N,LX2*%
X94750000Y-87250000D02*
X95100000Y-86900000D01*
X94750000Y-88500000D02*
X94750000Y-87250000D01*
X95100000Y-86900000D02*
X95900000Y-86900000D01*
X94750000Y-91000000D02*
X95705555Y-91000000D01*
X95705555Y-91000000D02*
X96405555Y-91700000D01*
%TO.N,LX4*%
X100600000Y-85400000D02*
X101450000Y-85400000D01*
X103000000Y-85500000D02*
X103000000Y-87250000D01*
X101450000Y-85400000D02*
X101550000Y-85500000D01*
X101550000Y-85500000D02*
X103000000Y-85500000D01*
%TO.N,LX3*%
X100600000Y-86900000D02*
X101450000Y-86900000D01*
X101450000Y-86900000D02*
X103516665Y-88966665D01*
X103516665Y-88966665D02*
X103516665Y-91750000D01*
D32*
%TO.N,3.3V*%
X92850000Y-94200000D02*
X92850000Y-92950000D01*
%TO.N,1.8V*%
X96405555Y-92955555D02*
X96400000Y-92950000D01*
X96405555Y-94200000D02*
X96405555Y-92955555D01*
%TO.N,1V*%
X99961110Y-92961110D02*
X99950000Y-92950000D01*
X99961110Y-94200000D02*
X99961110Y-92961110D01*
%TO.N,1.2V*%
X103516665Y-93016665D02*
X103500000Y-93000000D01*
X103516665Y-94250000D02*
X103516665Y-93016665D01*
%TO.N,1.8V*%
X101500000Y-105500000D02*
X101270000Y-105270000D01*
X104169194Y-105999430D02*
X104000570Y-105999430D01*
X104000570Y-105999430D02*
X103500000Y-106500000D01*
%TO.N,3.3V*%
X105500000Y-108500000D02*
X105750000Y-108750000D01*
X120500000Y-82482500D02*
X125100000Y-82482500D01*
X115910000Y-82482500D02*
X120500000Y-82482500D01*
X111310000Y-82482500D02*
X115910000Y-82482500D01*
%TO.N,1V*%
X99500000Y-106500000D02*
X99050000Y-106050000D01*
X102500000Y-109500000D02*
X102925000Y-109925000D01*
%TO.N,TMS*%
X100500000Y-111500000D02*
X100050000Y-111950000D01*
%TO.N,GND*%
X99500000Y-109500000D02*
X99050000Y-109950000D01*
X95500000Y-103500000D02*
X95050000Y-103050000D01*
%TO.N,3.3V*%
X96500000Y-101500000D02*
X96050000Y-101050000D01*
%TO.N,1V*%
X102950000Y-105050000D02*
X103500000Y-104500000D01*
%TO.N,3.3V*%
X108500000Y-110500000D02*
X108950000Y-110950000D01*
%TO.N,Net-(J4-Pin_9)*%
X101500000Y-102500000D02*
X101050000Y-102050000D01*
%TO.N,1V*%
X100500000Y-105500000D02*
X100050000Y-105050000D01*
%TO.N,3.3V*%
X104500000Y-111500000D02*
X104950000Y-111950000D01*
%TO.N,GND*%
X99500000Y-115500000D02*
X99050000Y-115950000D01*
%TO.N,3.3V*%
X99500000Y-100500000D02*
X99050000Y-100050000D01*
%TO.N,1V*%
X99500000Y-108500000D02*
X99050000Y-108950000D01*
%TO.N,GND*%
X96500000Y-106500000D02*
X96050000Y-106050000D01*
%TO.N,3.3V*%
X107500000Y-104500000D02*
X107950000Y-104050000D01*
%TO.N,GND*%
X108500000Y-102500000D02*
X108950000Y-102050000D01*
%TO.N,LED_Test*%
X106500000Y-112500000D02*
X106950000Y-112950000D01*
%TO.N,3.3V*%
X108500000Y-107500000D02*
X108950000Y-107050000D01*
%TO.N,GND*%
X106500000Y-106500000D02*
X106950000Y-106050000D01*
X104500000Y-100500000D02*
X104950000Y-100050000D01*
X99500000Y-107500000D02*
X99050000Y-107050000D01*
%TO.N,Net-(J3-Pin_10)*%
X105500000Y-110500000D02*
X105950000Y-110950000D01*
%TO.N,Net-(J4-Pin_5)*%
X102500000Y-101500000D02*
X102950000Y-101050000D01*
%TO.N,3.3V*%
X107500000Y-114500000D02*
X107950000Y-114950000D01*
%TO.N,1.8V*%
X103950000Y-108950000D02*
X104500000Y-109500000D01*
%TO.N,GND*%
X103500000Y-105500000D02*
X103950000Y-105050000D01*
X107500000Y-109500000D02*
X107950000Y-109950000D01*
%TO.N,3.3V*%
X94500000Y-115500000D02*
X94050000Y-115950000D01*
%TO.N,GND*%
X94500000Y-110500000D02*
X94050000Y-110950000D01*
X100500000Y-107500000D02*
X99500000Y-107500000D01*
%TO.N,Net-(J3-Pin_6)*%
X108500000Y-113500000D02*
X108950000Y-113950000D01*
%TO.N,Net-(J4-Pin_2)*%
X104500000Y-101500000D02*
X104950000Y-101050000D01*
%TO.N,3.3V*%
X96500000Y-111500000D02*
X96050000Y-111950000D01*
X97500000Y-104500000D02*
X97050000Y-104050000D01*
X103500000Y-102500000D02*
X103950000Y-102050000D01*
X109500000Y-110500000D02*
X109950000Y-110950000D01*
%TO.N,Net-(J3-Pin_5)*%
X109500000Y-113500000D02*
X109950000Y-113950000D01*
%TO.N,Net-(U1C-VREFP_0)*%
X101500000Y-108500000D02*
X101050000Y-108950000D01*
%TO.N,3.3V*%
X103500000Y-112500000D02*
X103950000Y-112950000D01*
%TO.N,1V*%
X102500000Y-107500000D02*
X102950000Y-107050000D01*
%TO.N,INIT_B*%
X103500000Y-109500000D02*
X103950000Y-109950000D01*
%TO.N,GND*%
X102500000Y-114500000D02*
X102950000Y-114950000D01*
%TO.N,Net-(J4-Pin_10)*%
X103500000Y-103500000D02*
X103950000Y-103050000D01*
%TO.N,GND*%
X100050000Y-106050000D02*
X99500000Y-105500000D01*
%TO.N,3.3V*%
X106500000Y-111500000D02*
X106950000Y-111950000D01*
%TO.N,Net-(J3-Pin_3)*%
X109500000Y-114500000D02*
X109950000Y-114950000D01*
%TO.N,Net-(J3-Pin_1)*%
X108500000Y-115500000D02*
X108950000Y-115950000D01*
%TO.N,Net-(J3-Pin_4)*%
X108500000Y-114500000D02*
X108950000Y-114950000D01*
%TO.N,Net-(J3-Pin_7)*%
X109500000Y-112500000D02*
X109950000Y-112950000D01*
%TO.N,Net-(J4-Pin_1)*%
X105500000Y-101500000D02*
X105950000Y-101050000D01*
%TO.N,GND*%
X102500000Y-106500000D02*
X102950000Y-106050000D01*
X95500000Y-113500000D02*
X95050000Y-113950000D01*
%TO.N,3.3V*%
X100500000Y-113550000D02*
X100050000Y-114000000D01*
%TO.N,GND*%
X103500000Y-111500000D02*
X103950000Y-111950000D01*
X99500000Y-105500000D02*
X99050000Y-105050000D01*
X98500000Y-112500000D02*
X98050000Y-112950000D01*
X104500000Y-110500000D02*
X104950000Y-110950000D01*
X97500000Y-109500000D02*
X97050000Y-109950000D01*
X100500000Y-107500000D02*
X100500000Y-106500000D01*
%TO.N,1V*%
X104500000Y-105500000D02*
X104950000Y-105050000D01*
%TO.N,3.3V*%
X95500000Y-108500000D02*
X95050000Y-108950000D01*
%TO.N,GND*%
X94500000Y-100500000D02*
X94050000Y-100050000D01*
%TO.N,TDI*%
X100500000Y-112500000D02*
X100050000Y-112950000D01*
%TO.N,3.3V*%
X99500000Y-110500000D02*
X99050000Y-110950000D01*
%TO.N,GND*%
X105500000Y-113500000D02*
X105950000Y-113950000D01*
%TO.N,3.3V*%
X100500000Y-104500000D02*
X100000000Y-104000000D01*
%TO.N,TCK*%
X100500000Y-110500000D02*
X100050000Y-110950000D01*
%TO.N,3.3V*%
X106500000Y-101500000D02*
X106950000Y-101050000D01*
%TO.N,GND*%
X102500000Y-104500000D02*
X102950000Y-104050000D01*
%TO.N,1.8V*%
X103500000Y-108500000D02*
X103950000Y-108950000D01*
%TO.N,3.3V*%
X97500000Y-114500000D02*
X97050000Y-114950000D01*
%TO.N,Net-(J4-Pin_8)*%
X102500000Y-102500000D02*
X102950000Y-102050000D01*
%TO.N,Net-(J3-Pin_2)*%
X107500000Y-115500000D02*
X107950000Y-115950000D01*
%TO.N,3.3V*%
X100500000Y-103500000D02*
X100050000Y-103050000D01*
%TO.N,GND*%
X102500000Y-108500000D02*
X102950000Y-108950000D01*
%TO.N,CLK*%
X107500000Y-112500000D02*
X107950000Y-112950000D01*
%TO.N,DONE*%
X103500000Y-107500000D02*
X103950000Y-107050000D01*
%TO.N,Net-(J3-Pin_8)*%
X109500000Y-111500000D02*
X109950000Y-111950000D01*
%TO.N,3.3V*%
X100500000Y-104500000D02*
X100500000Y-103500000D01*
%TO.N,GND*%
X105500000Y-103500000D02*
X105950000Y-103050000D01*
%TO.N,3.3V*%
X94500000Y-105500000D02*
X94050000Y-105050000D01*
X102500000Y-111500000D02*
X102950000Y-111950000D01*
%TO.N,Net-(J3-Pin_9)*%
X105500000Y-111500000D02*
X105950000Y-111950000D01*
%TO.N,1V*%
X102500000Y-105500000D02*
X102950000Y-105050000D01*
%TO.N,3.3V*%
X109500000Y-100500000D02*
X109950000Y-100050000D01*
%TO.N,GND*%
X100500000Y-107500000D02*
X100050000Y-107050000D01*
%TO.N,3.3V*%
X104500000Y-115500000D02*
X104950000Y-115950000D01*
%TO.N,Net-(U1C-PROGRAM_B_0)*%
X102500000Y-110500000D02*
X102950000Y-110950000D01*
%TO.N,1.8V*%
X104500000Y-109500000D02*
X104950000Y-109950000D01*
%TO.N,1V*%
X101500000Y-110500000D02*
X101075000Y-110925000D01*
%TO.N,1.8V*%
X101500000Y-106500000D02*
X101500000Y-105500000D01*
%TO.N,GND*%
X100500000Y-106500000D02*
X100050000Y-106050000D01*
X98500000Y-102500000D02*
X98050000Y-102050000D01*
%TO.N,1.8V*%
X101500000Y-106500000D02*
X101050000Y-106050000D01*
%TO.N,GND*%
X109500000Y-105500000D02*
X109950000Y-105050000D01*
X109500000Y-115500000D02*
X109950000Y-115950000D01*
%TO.N,1.8V*%
X103500000Y-110500000D02*
X103950000Y-110950000D01*
%TO.N,GND*%
X108500000Y-112500000D02*
X108950000Y-112950000D01*
X104500000Y-108500000D02*
X104950000Y-108950000D01*
X101500000Y-111500000D02*
X101050000Y-111950000D01*
%TO.N,3.3V*%
X108500000Y-110500000D02*
X109500000Y-110500000D01*
X100500000Y-113500000D02*
X100500000Y-113550000D01*
X102950000Y-111950000D02*
X103500000Y-112500000D01*
%TO.N,GND*%
X101500000Y-101500000D02*
X101050000Y-101050000D01*
%TO.N,1V*%
X103500000Y-104500000D02*
X103950000Y-104050000D01*
%TO.N,Net-(J4-Pin_3)*%
X103500000Y-101500000D02*
X103950000Y-101050000D01*
%TD*%
M02*
